<svg width="183" height="54" viewBox="0 0 183 54" fill="none" xmlns="http://www.w3.org/2000/svg">
<g clip-path="url(#clip0_1829_30335)">
<path d="M43.14 26.6886H46.0614V21.7715H46.1235L49.4799 26.6886H53.1471L48.7962 20.9002L52.8363 15.8587H49.3556L46.0614 20.2778H45.9992V15.8587H43.0779V26.6886H43.14ZM37.6703 22.3317H34.9355L36.3651 18.0993L37.6703 22.3317ZM30.4603 26.6886H33.3816L34.2518 24.3857H38.3541L39.1621 26.6886H42.332L38.1676 15.8587H34.6247L30.4603 26.6886ZM26.1094 26.6886H29.0307V22.5807L33.0087 15.7964H29.6522L27.5389 20.1533L25.4256 15.7964H22.0692L26.1094 22.5807V26.6886ZM15.5429 23.701C15.1699 23.0786 14.9835 22.2695 14.9835 21.2736C14.9835 20.2778 15.1699 19.4686 15.5429 18.8462C15.978 18.1616 16.5995 17.7881 17.4076 17.7881C18.2156 17.7881 18.8371 18.0993 19.2722 18.8462C19.6452 19.4686 19.8316 20.2778 19.8316 21.2736C19.8316 22.2695 19.6452 23.0786 19.2722 23.701C18.8371 24.3857 18.2156 24.7591 17.4076 24.7591C16.5995 24.7591 15.978 24.3857 15.5429 23.701ZM13.4296 17.1657C12.4351 18.1616 12 19.5309 12 21.2736C12 23.0164 12.4972 24.3857 13.4296 25.3815C14.3619 26.3774 15.6672 26.9375 17.4697 26.9375C19.2722 26.9375 20.5775 26.4396 21.5098 25.4437C22.4422 24.4479 22.8773 23.0786 22.8773 21.3359C22.8773 19.5931 22.38 18.2238 21.4477 17.228C20.5153 16.2321 19.1479 15.7342 17.4076 15.7342C15.6672 15.672 14.3619 16.1699 13.4296 17.1657Z" fill="black"/>
<path d="M162.666 22.0831L164.033 17.8507H164.095L165.4 22.0831H162.666ZM161.174 26.4399L162.044 24.137H166.084L166.892 26.4399H170.062L165.898 15.5478H162.355L158.253 26.4399H161.174ZM156.201 26.4399V17.7262H158.874V15.5478H150.67V17.7262H153.342V26.4399H156.201ZM143.397 26.4399V22.2075H144.578C145.013 22.2075 145.386 22.2698 145.635 22.4565C145.884 22.6432 146.008 22.8922 146.07 23.3279C146.07 23.5146 146.132 23.888 146.256 24.5727C146.319 25.2573 146.443 25.8797 146.505 26.3777H149.737C149.551 25.7553 149.426 24.9461 149.302 24.137C149.178 23.2656 149.116 22.7677 149.053 22.581C148.867 22.0208 148.618 21.5851 148.308 21.3362C147.997 21.0872 147.5 20.9627 146.878 20.9627V20.9005C147.686 20.776 148.308 20.527 148.805 20.0291C149.24 19.5934 149.489 18.971 149.489 18.1619C149.489 17.2283 149.178 16.5436 148.494 16.0457C147.81 15.5478 146.816 15.3611 145.448 15.3611H140.538V26.3154H143.397V26.4399ZM143.397 17.5395H144.64C145.262 17.5395 145.759 17.664 146.008 17.8507C146.256 18.0374 146.443 18.4109 146.443 18.8465C146.443 19.3445 146.319 19.7179 146.008 19.9046C145.759 20.0914 145.262 20.2158 144.578 20.2158H143.397V17.5395ZM131.65 18.4731C132.085 17.8507 132.706 17.5395 133.452 17.5395C134.198 17.5395 134.82 17.8507 135.255 18.4731C135.69 19.0955 135.876 19.9669 135.876 21.025C135.876 22.0831 135.69 22.9544 135.255 23.5768C134.82 24.1992 134.198 24.5104 133.452 24.5104C132.706 24.5104 132.085 24.1992 131.65 23.5768C131.215 22.9544 131.028 22.0831 131.028 21.025C130.966 19.9669 131.215 19.0955 131.65 18.4731ZM129.412 25.1951C130.345 26.1909 131.65 26.6889 133.39 26.6889C135.131 26.6889 136.436 26.1909 137.368 25.1951C138.301 24.1992 138.798 22.8299 138.798 21.025C138.798 19.22 138.363 17.8507 137.43 16.8548C136.498 15.859 135.193 15.3611 133.452 15.3611C131.712 15.3611 130.407 15.859 129.474 16.8548C128.542 17.8507 128.107 19.22 128.107 21.025C128.045 22.7677 128.48 24.1992 129.412 25.1951ZM121.891 20.0914V22.1453H123.57V24.3237C123.321 24.4482 122.948 24.5104 122.575 24.5104C121.456 24.5104 120.586 24.1992 119.965 23.5768C119.281 22.9544 118.97 22.1453 118.97 21.0872C118.97 19.9669 119.343 19.0955 120.089 18.4731C120.835 17.8507 121.891 17.5395 123.259 17.5395C124.191 17.5395 125.061 17.7885 125.869 18.2241L126.118 15.859C125.31 15.5478 124.191 15.3611 122.886 15.3611C120.648 15.3611 118.97 15.859 117.789 16.7926C116.608 17.7262 116.049 19.1577 116.049 21.025C116.049 22.8922 116.732 24.386 118.1 25.3818C119.219 26.1909 120.586 26.6266 122.264 26.6266C123.756 26.6266 125.124 26.4399 126.429 26.1287V20.0914H121.891ZM114.308 15.5478H111.449V26.4399H114.308V15.5478ZM104.861 26.6266C108.031 26.6266 109.585 25.4441 109.585 23.0167C109.585 21.8963 109.149 21.025 108.279 20.4648C107.968 20.2781 107.16 19.9669 105.855 19.5312C104.985 19.2822 104.55 18.9088 104.55 18.4731C104.55 17.7885 105.171 17.4773 106.477 17.4773C107.347 17.4773 108.155 17.664 108.839 17.9752L109.025 15.7345C108.217 15.4856 107.347 15.2988 106.228 15.2988C104.736 15.2988 103.618 15.61 102.81 16.1702C102.002 16.7304 101.566 17.6017 101.566 18.6598C101.566 19.7802 102.002 20.6515 102.872 21.2117C103.12 21.3984 103.928 21.7096 105.296 22.1453C106.166 22.4565 106.601 22.8922 106.601 23.3901C106.601 24.0748 105.98 24.4482 104.799 24.4482C103.68 24.4482 102.685 24.1992 101.815 23.7013L101.566 26.1287C102.561 26.5021 103.68 26.6266 104.861 26.6266ZM93.2376 17.664C94.4185 17.664 95.0401 18.1619 95.0401 19.1577C95.0401 20.1536 94.4185 20.6515 93.2376 20.6515H92.4917V17.664H93.2376ZM92.4917 26.4399V22.6432H93.6105C94.9779 22.6432 95.9724 22.332 96.7805 21.7096C97.5263 21.0872 97.8993 20.2158 97.8993 19.1577C97.8993 17.9129 97.5263 17.0416 96.7183 16.4192C95.9103 15.859 94.7293 15.5478 93.0511 15.5478H89.6325V26.4399H92.4917ZM85.033 15.5478V21.8341C85.033 23.5768 84.4115 24.5104 83.1683 24.5104C81.9252 24.5104 81.3037 23.6391 81.3037 21.8341V15.5478H78.4445V22.332C78.4445 23.7013 78.8796 24.8216 79.6876 25.5685C80.4956 26.3154 81.6766 26.6889 83.1683 26.6889C84.6601 26.6889 85.841 26.3154 86.6491 25.5685C87.4571 24.8216 87.8922 23.7636 87.8922 22.332V15.5478H85.033ZM70.5507 26.4399V22.2075H71.7317C72.1668 22.2075 72.5397 22.2698 72.7883 22.4565C73.037 22.6432 73.1613 22.8922 73.2234 23.3279C73.2234 23.5146 73.2856 23.888 73.4099 24.5727C73.472 25.2573 73.5964 25.8797 73.6585 26.3777H76.8906C76.7041 25.7553 76.5798 24.9461 76.4555 24.137C76.3312 23.2656 76.2691 22.7677 76.2069 22.581C76.0204 22.0208 75.7718 21.5851 75.461 21.3362C75.1502 21.0872 74.653 20.9627 74.0314 20.9627V20.9005C74.8395 20.776 75.461 20.527 75.8961 20.0291C76.3312 19.5934 76.5798 18.971 76.5798 18.1619C76.5798 17.2283 76.2691 16.5436 75.5853 16.0457C74.9016 15.5478 73.9071 15.3611 72.5397 15.3611H67.6294V26.3154H70.5507V26.4399ZM70.5507 17.5395H71.7938C72.4154 17.5395 72.9126 17.664 73.1613 17.8507C73.4099 18.0374 73.5964 18.4109 73.5964 18.8465C73.5964 19.3445 73.472 19.7179 73.1613 19.9046C72.9126 20.0914 72.4154 20.2158 71.7317 20.2158H70.5507V17.5395ZM61.0409 20.0914V22.1453H62.7191V24.3237C62.4705 24.4482 62.0975 24.5104 61.7246 24.5104C60.6058 24.5104 59.7356 24.1992 59.1141 23.5768C58.4303 22.9544 58.1196 22.1453 58.1196 21.0872C58.1196 19.9669 58.4925 19.0955 59.2384 18.4731C59.9842 17.8507 61.0409 17.5395 62.4083 17.5395C63.3406 17.5395 64.2108 17.7885 65.0189 18.2241L65.2675 15.859C64.4595 15.5478 63.3406 15.3611 62.0354 15.3611C59.7978 15.3611 58.1196 15.859 56.9386 16.7926C55.7576 17.7885 55.1982 19.1577 55.1982 21.025C55.1982 22.8922 55.882 24.386 57.2494 25.3818C58.3682 26.1909 59.7356 26.6266 61.4138 26.6266C62.9056 26.6266 64.273 26.4399 65.5783 26.1287V20.0914H61.0409Z" fill="#E40520"/>
<path d="M114.246 12H111.387V14.3651H114.246V12Z" fill="#E40520"/>
<path d="M169.441 30.4853H167.825V32.0413H169.441V30.4853ZM169.441 33.1617H167.825V39.3235H169.441V33.1617ZM161.858 31.7924C162.231 32.1036 162.666 32.2903 163.225 32.2903C163.784 32.2903 164.22 32.1036 164.592 31.7924C164.965 31.4812 165.152 30.9832 165.214 30.4853H164.468C164.344 31.1077 163.909 31.4189 163.225 31.4189C162.541 31.4189 162.168 31.1077 162.044 30.4853H161.298C161.298 30.9832 161.485 31.4189 161.858 31.7924ZM164.592 33.9708C164.157 33.2862 163.536 32.9749 162.666 32.9749C161.92 32.9749 161.236 33.2861 160.801 33.8463C160.304 34.4687 160.055 35.2156 160.055 36.1492C160.055 37.1451 160.304 37.892 160.739 38.4521C161.174 39.0123 161.795 39.2613 162.603 39.2613C163.039 39.2613 163.412 39.199 163.722 39.0123C164.095 38.8256 164.344 38.5766 164.53 38.3276C164.53 39.0745 164.468 39.5725 164.282 39.9459C163.971 40.5061 163.474 40.755 162.666 40.755C162.168 40.755 161.547 40.5683 160.863 40.1949L160.739 41.5642C161.423 41.8754 162.106 41.9998 162.852 41.9998C165.028 41.9998 166.146 40.8795 166.146 38.7633V33.1617H164.592V33.9708ZM162.168 37.5808C161.92 37.2073 161.795 36.7716 161.795 36.2737C161.795 35.6513 161.92 35.2156 162.168 34.8422C162.417 34.4687 162.79 34.3442 163.225 34.3442C163.66 34.3442 163.971 34.531 164.22 34.8422C164.468 35.2156 164.592 35.6513 164.592 36.2737C164.592 36.8961 164.468 37.3318 164.22 37.7052C163.971 38.0164 163.598 38.2032 163.163 38.2032C162.728 38.0787 162.417 37.892 162.168 37.5808ZM158.75 30.4853H157.134V32.0413H158.75V30.4853ZM158.75 33.1617H157.134V39.3235H158.75V33.1617ZM155.456 30.3608H153.84V39.3857H155.456V30.3608ZM150.794 39.3235V37.0828C150.794 36.3982 150.856 35.838 150.98 35.4646C151.167 34.8422 151.54 34.531 152.099 34.531C152.41 34.531 152.659 34.5932 152.845 34.6554V33.0372C152.721 32.9749 152.596 32.9749 152.348 32.9749C151.975 32.9749 151.602 33.1617 151.229 33.4729C150.856 33.7841 150.67 34.1575 150.67 34.531V33.1617H149.24V39.3235H150.794ZM145.386 38.3276C144.889 38.3276 144.454 38.2032 144.143 37.892C143.832 37.643 143.646 37.2073 143.646 36.7716H147.935C147.935 35.4646 147.686 34.531 147.251 33.9708C146.754 33.3484 146.008 33.0372 145.013 33.0372C144.143 33.0372 143.46 33.3484 142.9 33.9086C142.403 34.531 142.154 35.2779 142.154 36.2737C142.154 37.2696 142.465 38.0787 143.024 38.6388C143.584 39.199 144.392 39.5102 145.386 39.5102C146.194 39.5102 146.94 39.3235 147.5 39.0123V37.7052C146.692 38.0787 146.008 38.3276 145.386 38.3276ZM145.013 34.2198C145.821 34.2198 146.257 34.7177 146.319 35.6513H143.584C143.708 34.6554 144.143 34.2198 145.013 34.2198ZM137.43 39.3235V36.3359L139.482 39.3235H141.533L138.922 35.9003L141.284 33.1617H139.357L137.43 35.6513V30.3608H135.814V39.3857H137.43V39.3235ZM130.158 34.7799C130.469 34.4687 130.842 34.282 131.277 34.282C131.712 34.282 132.147 34.4687 132.396 34.7799C132.707 35.0911 132.831 35.5891 132.831 36.087C132.831 37.5185 132.334 38.2032 131.277 38.2032C130.22 38.2032 129.723 37.5185 129.723 36.087C129.723 35.5891 129.91 35.0911 130.158 34.7799ZM128.977 38.5766C129.599 39.199 130.345 39.448 131.339 39.448C132.334 39.448 133.079 39.1368 133.701 38.5766C134.323 38.0164 134.571 37.2073 134.571 36.2737C134.571 35.2779 134.26 34.531 133.701 33.9086C133.079 33.2862 132.334 32.9749 131.339 32.9749C130.407 32.9749 129.599 33.2862 128.977 33.9086C128.356 34.531 128.107 35.2779 128.107 36.2737C128.045 37.2696 128.356 38.0164 128.977 38.5766ZM125.434 39.3235V37.0828C125.434 36.3982 125.496 35.838 125.621 35.4646C125.807 34.8422 126.18 34.531 126.74 34.531C127.05 34.531 127.299 34.5932 127.485 34.6554V33.0372C127.361 32.9749 127.237 32.9749 126.988 32.9749C126.615 32.9749 126.242 33.1617 125.869 33.4729C125.496 33.7841 125.31 34.1575 125.31 34.531V33.1617H123.88V39.3235H125.434ZM119.53 39.3235C120.462 39.3235 121.208 39.1368 121.705 38.7011C122.202 38.2654 122.451 37.7052 122.451 36.8961C122.451 36.3982 122.264 35.9625 121.891 35.5891C121.519 35.2156 121.083 35.0289 120.524 34.9666C121.021 34.9044 121.456 34.6554 121.705 34.3442C122.016 34.033 122.14 33.5974 122.14 33.0994C122.14 32.4148 121.891 31.8546 121.456 31.4812C121.021 31.1077 120.338 30.921 119.467 30.921H116.546V39.3235H119.53ZM118.908 32.2903C119.53 32.2903 119.902 32.3525 120.151 32.5393C120.4 32.726 120.524 32.9749 120.524 33.3484C120.524 34.033 120.027 34.3442 118.97 34.3442H118.286V32.2903H118.908ZM119.094 35.5891C120.275 35.5891 120.835 36.0247 120.835 36.8339C120.835 37.5808 120.275 38.0164 119.094 38.0164H118.286V35.5891H119.094ZM111.263 33.0372C110.517 33.0372 109.958 33.2239 109.522 33.5351C109.087 33.9086 108.839 34.3442 108.839 34.9666C108.839 35.5891 109.087 36.087 109.585 36.3982C109.709 36.4604 110.144 36.6471 110.952 36.8961C111.449 37.0828 111.698 37.2696 111.698 37.643C111.698 37.892 111.574 38.0787 111.387 38.2032C111.201 38.3276 110.952 38.3899 110.641 38.3899C110.144 38.3899 109.585 38.2654 109.087 37.9542L108.963 39.2613C109.647 39.448 110.206 39.5102 110.766 39.5102C111.574 39.5102 112.195 39.3235 112.63 38.9501C113.127 38.5766 113.314 38.0787 113.314 37.4563C113.314 36.8339 113.065 36.3359 112.568 36.0247C112.382 35.9003 111.947 35.7135 111.201 35.4646C110.703 35.2779 110.455 35.0911 110.455 34.8422C110.455 34.4065 110.766 34.1575 111.387 34.1575C111.822 34.1575 112.319 34.2198 112.817 34.4065L112.941 33.1617C112.319 33.0994 111.76 33.0372 111.263 33.0372ZM103.493 39.3235V36.2737C103.493 35.6513 103.618 35.1534 103.866 34.7799C104.115 34.4065 104.488 34.2198 104.923 34.2198C105.358 34.2198 105.669 34.4065 105.855 34.8422C105.917 35.0911 105.98 35.4646 105.98 36.0247V39.3235H107.596V35.4023C107.596 34.6554 107.409 34.033 107.036 33.5974C106.663 33.1617 106.166 32.9749 105.482 32.9749C104.612 32.9749 103.928 33.2862 103.431 33.9708V33.1617H101.877V39.3235H103.493ZM98.1479 36.4604H98.8317C98.8317 37.7052 98.3344 38.2654 97.3399 38.2654C96.6562 38.2654 96.3454 38.0164 96.3454 37.5185C96.4076 36.8339 96.967 36.4604 98.1479 36.4604ZM97.4642 34.2198C97.9615 34.2198 98.3344 34.3442 98.5209 34.531C98.7073 34.7177 98.8317 35.0911 98.8317 35.5891H97.9615C95.8482 35.5891 94.8537 36.2737 94.8537 37.7052C94.8537 38.2654 95.0402 38.7011 95.4752 39.0123C95.9103 39.3857 96.4076 39.5102 97.0291 39.5102C97.4021 39.5102 97.775 39.3857 98.1479 39.199C98.5209 39.0123 98.7695 38.7633 98.956 38.3899C99.0181 38.9501 99.0181 39.2613 99.0181 39.3235H100.448C100.386 38.5144 100.323 37.5808 100.323 36.3982V35.6513C100.323 34.7177 100.137 34.0953 99.7018 33.6596C99.2668 33.2239 98.583 33.0372 97.6507 33.0372C96.9048 33.0372 96.159 33.2239 95.4752 33.5351L95.5374 34.9044C96.159 34.4065 96.7805 34.2198 97.4642 34.2198ZM92.2431 39.3235V37.0828C92.2431 36.3982 92.3053 35.838 92.4296 35.4646C92.6161 34.8422 92.989 34.531 93.5484 34.531C93.8592 34.531 94.1078 34.5932 94.2943 34.6554V33.0372C94.17 32.9749 94.0457 32.9749 93.797 32.9749C93.4241 32.9749 93.0512 33.1617 92.6782 33.4729C92.3053 33.7841 92.1188 34.1575 92.1188 34.531V33.1617H90.6892V39.3235H92.2431ZM85.5303 30.6098H84.1629V31.9791H85.5303V30.6098ZM86.6491 32.0413H88.0165V30.672H86.6491V32.0413ZM87.3328 33.1617V36.2115C87.3328 36.8339 87.2085 37.3318 86.9599 37.7052C86.7113 38.0787 86.3383 38.2654 85.9033 38.2654C85.4682 38.2654 85.1574 38.0787 84.9709 37.643C84.9088 37.394 84.8466 37.0206 84.8466 36.4604V33.1617H83.2306V37.0828C83.2306 37.8297 83.417 38.4521 83.79 38.8878C84.1629 39.3235 84.6601 39.5102 85.3438 39.5102C86.1519 39.5102 86.8356 39.199 87.395 38.5144V39.3857H88.9489V33.1617H87.3328ZM79.9363 33.0372C79.1904 33.0372 78.631 33.2239 78.1959 33.5351C77.7608 33.9086 77.5122 34.3442 77.5122 34.9666C77.5122 35.5891 77.7608 36.087 78.2581 36.3982C78.3824 36.4604 78.8175 36.6471 79.6255 36.8961C80.1228 37.0828 80.3714 37.2696 80.3714 37.643C80.3714 37.892 80.2471 38.0787 80.0606 38.2032C79.8741 38.3276 79.6255 38.3899 79.3147 38.3899C78.8175 38.3899 78.2581 38.2654 77.7608 37.9542L77.6365 39.2613C78.3202 39.448 78.8796 39.5102 79.439 39.5102C80.2471 39.5102 80.8686 39.3235 81.3037 38.9501C81.801 38.5766 81.9874 38.0787 81.9874 37.4563C81.9874 36.8339 81.7388 36.3359 81.2416 36.0247C81.0551 35.9003 80.62 35.7135 79.8741 35.4646C79.3769 35.2779 79.1283 35.0911 79.1283 34.8422C79.1283 34.4065 79.439 34.1575 80.0606 34.1575C80.4957 34.1575 80.9929 34.2198 81.4902 34.4065L81.6145 33.1617C80.9929 33.0994 80.4335 33.0372 79.9363 33.0372ZM74.1558 36.4604H74.8395C74.8395 37.7052 74.3423 38.2654 73.3478 38.2654C72.6641 38.2654 72.3533 38.0164 72.3533 37.5185C72.4154 36.8339 72.9748 36.4604 74.1558 36.4604ZM73.4721 34.2198C73.9693 34.2198 74.3423 34.3442 74.5287 34.531C74.7152 34.7177 74.8395 35.0911 74.8395 35.5891H73.9693C71.856 35.5891 70.8615 36.2737 70.8615 37.7052C70.8615 38.2654 71.048 38.7011 71.4831 39.0123C71.9182 39.3857 72.4154 39.5102 73.037 39.5102C73.4099 39.5102 73.7829 39.3857 74.1558 39.199C74.5287 39.0123 74.7774 38.7633 74.9638 38.3899C75.026 38.9501 75.026 39.2613 75.026 39.3235H76.4556C76.3934 38.5144 76.3313 37.5808 76.3313 36.3982V35.6513C76.3313 34.7177 76.1448 34.0953 75.7097 33.6596C75.2746 33.2239 74.5909 33.0372 73.6586 33.0372C72.9127 33.0372 72.1668 33.2239 71.4831 33.5351L71.5453 34.9044C72.1668 34.4065 72.7884 34.2198 73.4721 34.2198ZM67.5051 38.3276C67.0079 38.3276 66.5728 38.2032 66.262 37.892C65.9512 37.643 65.7648 37.2073 65.7648 36.7716H70.0535C70.0535 35.4646 69.8049 34.531 69.3698 33.9708C68.8726 33.3484 68.1267 33.0372 67.1322 33.0372C66.262 33.0372 65.5783 33.3484 65.0189 33.9086C64.5217 34.531 64.273 35.2779 64.273 36.2737C64.273 37.2696 64.5838 38.0787 65.1432 38.6388C65.7026 39.199 66.5106 39.5102 67.5051 39.5102C68.3132 39.5102 69.059 39.3235 69.6184 39.0123V37.7052C68.8104 38.0787 68.1267 38.3276 67.5051 38.3276ZM67.1322 34.2198C67.9402 34.2198 68.3753 34.7177 68.4375 35.6513H65.7026C65.8269 34.6554 66.262 34.2198 67.1322 34.2198ZM63.4029 39.3235C63.2785 39.1368 63.1542 38.7633 63.0921 38.1409C63.0921 38.0787 63.0921 38.0164 63.0921 38.0164L62.8435 36.8961C62.7191 36.2737 62.5948 35.838 62.4705 35.5891C62.284 35.2779 61.9111 35.1534 61.4139 35.0911C62.5948 34.8422 63.1542 34.0953 63.1542 32.9749C63.1542 32.1036 62.9056 31.5434 62.3462 31.1077C61.9111 30.7965 61.1652 30.6098 59.9843 30.6098H56.4414V39.2613H58.1196V35.6513H59.3627C59.9221 35.6513 60.2329 35.7135 60.4194 35.7758C60.7302 35.9003 60.9166 36.2737 60.9788 36.7716L61.2274 38.2032C61.3517 38.7633 61.4139 39.1368 61.5382 39.3857H63.4029V39.3235ZM58.1196 32.0413H59.3627C60.1086 32.0413 60.5437 32.0413 60.7302 32.1036C61.2274 32.2281 61.5382 32.6015 61.5382 33.1617C61.5382 33.7218 61.2896 34.033 60.7302 34.2198C60.5437 34.282 60.0464 34.3442 59.3627 34.3442H58.1196V32.0413Z" fill="#646363"/>
</g>
<defs>
<clipPath id="clip0_1829_30335">
<rect width="158" height="30" fill="white" transform="translate(12 12)"/>
</clipPath>
</defs>
</svg>
