<svg width="239" height="230" viewBox="0 0 239 230" fill="none" xmlns="http://www.w3.org/2000/svg">
<g clip-path="url(#clip0_1174_48799)">
<path d="M184.386 139.036C180.987 130.17 175.555 132.833 169.66 135.429C174.969 129.868 174.506 125.184 168.192 120.932C172.083 120.055 174.702 123.311 177.311 122.02C179.909 120.736 179.622 116.743 182.919 114.199C182.02 121.206 182.957 126.542 191.981 125.644C184.924 127.721 182.406 132.724 184.924 140.344L184.386 139.032V139.036Z" fill="#EB4350"/>
<path d="M62.7605 142.365C62.5709 144.025 61.6229 144.993 60.099 145.011C58.561 145.035 57.5042 144.067 57.4726 142.45C57.4374 140.688 58.4592 139.692 60.2043 139.73C61.8441 139.766 62.5604 140.867 62.7605 142.365Z" fill="#EB4350"/>
<path d="M159.913 2.63608C159.723 4.29559 158.775 5.26394 157.251 5.28148C155.713 5.30604 154.657 4.33769 154.625 2.72028C154.59 0.95902 155.612 -0.0373902 157.357 0.00120313C158.996 0.036288 159.713 1.13795 159.913 2.63608Z" fill="#EB4350"/>
<path d="M165.612 92.8178C165.425 94.4773 164.474 95.4457 162.953 95.4632C161.416 95.4878 160.359 94.5195 160.327 92.902C160.292 91.1408 161.314 90.1444 163.059 90.183C164.699 90.2181 165.415 91.3197 165.612 92.8178Z" fill="#EB4350"/>
<path d="M233.21 144.358C233.024 146.018 232.072 146.986 230.549 147.003C229.011 147.028 227.954 146.06 227.926 144.442C227.891 142.681 228.912 141.685 230.657 141.723C232.297 141.758 233.013 142.86 233.21 144.358Z" fill="#EB4350"/>
<path d="M109.679 189.172C109.566 187.705 109.777 185.744 110.999 185.474C112.221 185.203 113.232 186.905 113.492 188.249C113.738 189.729 113.232 190.74 112.01 190.996C110.788 191.266 109.939 190.515 109.689 189.161L109.675 189.172H109.679Z" fill="#FEB404"/>
<path d="M110.036 191.996C109.923 190.529 110.295 189.505 111.517 189.249C112.739 188.978 113.589 189.729 113.972 191.098C114.218 192.578 113.887 194.403 112.666 194.659C111.31 194.918 110.422 193.364 110.039 191.996H110.036Z" fill="#FEB404"/>
<path d="M113.774 191.722C112.306 191.835 111.281 191.463 111.024 190.242C110.754 189.021 111.505 188.172 112.875 187.789C114.357 187.544 116.182 187.877 116.439 189.094C116.821 190.463 115.133 191.473 113.774 191.719V191.722Z" fill="#FEB404"/>
<path d="M110.419 192.168C108.951 192.28 106.988 192.07 106.718 190.849C106.448 189.628 108.147 188.618 109.495 188.358C110.974 188.112 111.988 188.618 112.245 189.839C112.529 190.923 111.774 191.775 110.408 192.158L110.422 192.172L110.419 192.168Z" fill="#FEB404"/>
<path d="M234.004 97.4668C233.653 97.5931 233.186 97.7791 232.705 97.8633C232.252 97.9335 231.736 97.6563 231.374 97.0283C231.013 96.4002 230.9 95.8108 231.153 95.3547C232.322 93.2391 233.586 91.2357 235.588 90.1551C236.153 89.8639 236.754 89.7201 237.424 90.513C238.169 91.3761 238.165 92.2462 237.87 92.9935C237.168 95.1407 235.679 96.3406 234.004 97.4703V97.4668Z" fill="#FEB402"/>
<path d="M158.051 194.333C156.893 192.768 156.931 191.182 158.216 189.958C159.512 188.716 161.183 188.702 162.497 190.06C163.929 191.533 163.848 193.2 162.328 194.55C160.902 195.82 159.414 195.452 158.051 194.333Z" fill="#EB4350"/>
<path d="M152.304 222.138C152.311 222.51 152.336 223.011 152.259 223.495C152.178 223.948 151.75 224.348 151.037 224.485C150.324 224.622 149.727 224.541 149.38 224.151C147.754 222.362 146.265 220.52 145.889 218.278C145.798 217.65 145.854 217.033 146.823 216.654C147.884 216.229 148.705 216.514 149.316 217.033C151.125 218.391 151.778 220.187 152.304 222.138Z" fill="#FEB402"/>
<path d="M70.5718 229.997C70.2066 229.93 69.708 229.856 69.248 229.688C68.8197 229.519 68.5107 229.021 68.5177 228.299C68.5212 227.576 68.7178 227.007 69.1673 226.741C71.2424 225.499 73.3422 220.552 75.6175 220.622C76.253 220.654 76.8464 220.832 77.0255 221.853C77.2361 222.976 76.7937 223.723 76.1652 224.222C74.4798 225.727 72.5872 229.863 70.5718 230V229.997Z" fill="#FEB402"/>
<path d="M202.544 192.67C202.572 192.301 202.593 191.796 202.712 191.322C202.832 190.88 203.299 190.519 204.019 190.449C204.738 190.375 205.325 190.512 205.641 190.929C207.098 192.859 212.242 194.42 212.414 196.687C212.449 197.322 212.337 197.929 211.336 198.217C210.244 198.543 209.451 198.185 208.889 197.613C207.214 196.097 202.895 194.659 202.547 192.67H202.544Z" fill="#FEB402"/>
<path d="M52.244 104.491C51.9771 104.231 51.6049 103.895 51.3135 103.498C51.0502 103.123 51.0712 102.537 51.4785 101.937C51.8823 101.337 52.3634 100.972 52.8865 101C55.3023 101.116 57.6583 101.368 59.5123 102.688C60.0214 103.067 60.4182 103.544 60.0003 104.494C59.5509 105.544 58.7679 105.922 57.9673 105.989C55.7272 106.305 53.9961 105.498 52.244 104.491Z" fill="#FEB402"/>
<path d="M9.21718 111.347C8.46226 112.269 7.65467 112.739 6.80495 113.055C5.885 113.399 5.74806 113.904 6.04301 114.774C6.34497 115.652 6.45382 116.578 6.28528 117.655C5.24946 117.002 4.8562 116.023 4.46645 115.087C4.16448 114.357 3.79931 114.199 3.07248 114.417C2.27894 114.655 1.44677 114.76 0.628648 114.904C0.432017 114.939 0.165161 115.013 0.0738686 114.722C-0.0068903 114.459 0.196763 114.304 0.375837 114.195C1.01137 113.806 1.63287 113.364 2.31756 113.083C3.17782 112.729 3.5781 112.322 3.17431 111.312C2.90043 110.627 2.87234 109.838 2.74242 109.098C2.7038 108.87 2.71433 108.617 2.94959 108.526C3.18835 108.428 3.34636 108.624 3.46223 108.82C4.04159 109.803 4.40676 111.234 5.25297 111.652C6.10621 112.073 7.38431 111.133 8.54302 111.22C8.70103 111.231 8.85552 111.28 9.21367 111.35L9.21718 111.347Z" fill="#FEB810"/>
<path d="M27.2894 180.717C27.2122 179.689 27.3597 178.317 28.2164 178.124C29.0732 177.935 29.7824 179.127 29.9615 180.068C30.1336 181.106 29.7789 181.811 28.9257 181.994C28.0689 182.183 27.472 181.657 27.3 180.706L27.2894 180.713V180.717Z" fill="#EB4350"/>
<path d="M27.5383 182.696C27.4611 181.668 27.7209 180.952 28.5776 180.77C29.4344 180.58 30.0313 181.106 30.2981 182.064C30.4702 183.103 30.2385 184.38 29.3817 184.562C28.4302 184.745 27.8087 183.653 27.5383 182.696Z" fill="#EB4350"/>
<path d="M30.1584 182.506C29.1296 182.583 28.4133 182.324 28.2307 181.471C28.0411 180.615 28.5678 180.018 29.5264 179.752C30.5657 179.58 31.8438 179.811 32.0264 180.668C32.2932 181.625 31.1099 182.334 30.1584 182.509V182.506Z" fill="#EB4350"/>
<path d="M27.8092 182.818C26.7804 182.895 25.4075 182.748 25.2144 181.892C25.0248 181.036 26.2186 180.327 27.1596 180.148C28.1954 179.976 28.9047 180.331 29.0873 181.183C29.2874 181.944 28.7608 182.541 27.7987 182.807L27.8057 182.818H27.8092Z" fill="#EB4350"/>
<path d="M185.116 40.4961C184.758 40.433 184.4 40.468 184.189 40.2996C183.821 40.0225 184.031 39.5944 184.189 39.2962C184.818 38.0332 185.478 36.7876 186.156 35.5492C189.814 28.8164 193.47 22.0836 197.146 15.3473C197.406 14.8771 197.49 13.979 198.361 14.4842C199.073 14.8947 198.757 15.4911 198.448 16.07C196.092 20.4521 193.771 24.8483 191.412 29.2233C189.698 32.4126 187.971 35.5842 186.229 38.7524C185.906 39.3383 185.513 39.8856 185.127 40.4961H185.116Z" fill="#EB4350"/>
<path d="M193.783 46.9622C193.829 46.9376 193.572 47.1025 193.295 47.2464C192.912 47.4428 192.505 47.6884 192.171 47.1586C191.845 46.6394 192.21 46.4254 192.551 46.1166C194.559 44.2747 196.957 42.9835 199.148 41.3942C204.029 37.8541 208.997 34.4439 213.98 31.0371C214.64 30.5881 215.539 29.3846 216.29 30.3846C216.996 31.3248 215.63 31.8301 215.023 32.2546C208.067 37.1209 201.072 41.931 193.79 46.9551H193.783V46.9622Z" fill="#EB4350"/>
<path d="M178.238 21.5715C178.228 22.0522 178.249 22.5434 178.203 23.0205C177.775 27.7991 177.336 32.5706 176.894 37.3457C176.894 37.4053 176.904 37.4755 176.88 37.5281C176.599 38.1105 176.999 39.3069 175.861 39.128C175.005 38.9912 175.247 38.0719 175.303 37.4088C175.472 35.5107 175.651 33.6197 175.819 31.7216C176.104 28.6025 176.374 25.48 176.669 22.3644C176.718 21.8136 176.767 21.2172 177.508 21.1259C177.845 21.0838 178.101 21.2382 178.238 21.568H178.231L178.238 21.5715Z" fill="#EB4350"/>
<path d="M199.837 54.1478C203.334 52.9724 207.119 51.7024 210.908 50.4358C211.413 50.2674 212.07 49.9516 212.298 50.748C212.512 51.4813 211.835 51.6743 211.329 51.8427C207.551 53.1549 203.762 54.4355 199.984 55.7371C199.391 55.9441 198.573 56.2353 198.334 55.5968C198.025 54.7582 198.998 54.6074 199.84 54.1478H199.837Z" fill="#EB4350"/>
<path d="M68.1919 52.3201C74.6246 52.3201 81.0572 52.3201 87.4898 52.3201C87.7637 52.3201 88.0376 52.3201 88.3079 52.3201C88.4168 52.3201 88.5256 52.3201 88.6345 52.3201C89.4526 52.3201 90.2707 52.3201 91.0853 52.3201C91.6296 52.3201 92.1773 52.3201 92.7216 52.3201C94.8459 52.3201 96.9737 52.3201 99.098 52.3201C99.2631 52.3201 99.4246 52.3201 99.5896 52.3201C100.243 52.3201 100.896 52.3201 101.552 52.3201C106.826 52.3201 112.097 52.3201 117.371 52.3201C117.49 52.3341 117.613 52.3516 117.732 52.3657C117.732 73.6166 117.732 94.871 117.736 116.122C117.476 115.89 117.202 115.673 116.953 115.427C114.541 113.045 112.132 110.656 109.72 108.27C109.003 107.554 108.29 106.835 107.574 106.119C103.922 102.47 100.267 98.8251 96.6156 95.1762C95.0425 93.6009 93.4695 92.0256 91.8964 90.4503C90.7482 89.303 89.5966 88.1523 88.4484 87.005C85.987 84.5526 83.5221 82.0966 81.0607 79.6442C77.4757 76.0585 73.8907 72.4693 70.3092 68.8836C65.1442 63.7016 59.9791 58.5161 54.807 53.341C54.5261 53.0604 54.175 52.8498 54.0205 52.3271H67.7039C67.8689 52.3271 68.0304 52.3271 68.1954 52.3271L68.1919 52.3201Z" fill="#ED1C2E"/>
<path d="M127.213 16.779C128.021 17.586 128.828 18.3894 129.636 19.1964C130.071 19.6314 130.507 20.07 130.942 20.5051C133.899 23.4592 136.852 26.4098 139.808 29.364C140.633 30.0201 139.77 30.3428 139.527 30.7849C136.413 33.8864 133.295 36.9914 130.18 40.0929C129.963 40.3105 129.745 40.528 129.527 40.7455C127.947 42.2787 126.371 43.8084 124.791 45.3416C124.787 45.0154 124.84 44.675 124.766 44.3663C124.65 43.8856 124.45 43.4295 124.285 42.9629C123.934 43.3172 123.586 43.6716 123.232 44.0224C123.2 44.0505 123.137 44.047 122.958 44.0891C122.909 43.5418 123 42.9453 122.775 42.5068C122.55 42.0682 122.017 41.791 121.616 41.4402C121.581 41.7419 121.557 42.0472 121.5 42.3454C121.451 42.598 121.367 42.8436 121.297 43.0927C121.055 43.005 120.7 42.9874 120.595 42.8155C120.25 42.2507 119.963 41.6437 119.72 41.0262C119.573 40.6543 119.675 40.0017 119.45 39.8824C118.709 39.486 117.852 39.3211 117.396 38.472C117.28 38.258 116.89 38.1949 116.627 38.0615C116.788 37.7668 116.974 37.4826 117.101 37.1739C117.294 36.7002 117.645 36.1705 117.557 35.7354C117.463 35.2618 116.936 34.8828 116.62 34.4443C116.43 34.1811 116.286 33.8829 116.121 33.6022C115.911 33.8513 115.714 34.111 115.489 34.346C115.264 34.5846 115.012 34.7986 114.769 35.0232C114.615 34.7671 114.471 34.5039 114.302 34.2583C114.144 34.0268 113.972 33.6373 113.793 33.6303C113.453 33.6163 113.073 33.7812 112.768 33.9671C112.659 34.0338 112.68 34.3741 112.701 34.5846C112.733 34.8618 112.828 35.1319 112.894 35.4021C112.666 35.2933 112.445 35.139 112.203 35.0898C111.978 35.0442 111.694 35.0477 111.497 35.146C110.861 35.4758 110.665 35.2653 110.693 34.6127C110.7 34.4618 110.563 34.3039 110.493 34.1496C110.415 34.2197 110.268 34.2969 110.275 34.3531C110.419 35.4582 109.899 35.795 108.87 35.6442C108.716 35.6231 108.512 35.8652 108.347 35.9985C107.294 36.8476 107.283 38.0896 107.104 39.272C107.059 39.5772 106.953 39.8719 106.873 40.1701C106.634 40.0193 106.413 39.7982 106.149 39.7281C105.647 39.5947 105.12 39.5491 104.601 39.4649C104.281 39.2404 103.962 39.0123 103.642 38.7878C102.996 38.0896 102.347 37.3879 101.701 36.6897C101.483 36.4687 101.262 36.2511 101.044 36.0301C99.2286 34.1952 97.4308 32.3462 95.5874 30.5393C95.1099 30.0727 95.0818 29.8201 95.5734 29.3324C98.8564 26.0835 102.104 22.7961 105.363 19.5227C107.477 17.4106 109.59 15.2985 111.704 13.1863C111.925 12.9653 112.143 12.7478 112.364 12.5267C113.073 11.818 113.779 11.1128 114.489 10.4041C114.934 9.95853 115.38 9.51646 115.826 9.07089C117.118 7.96454 118.387 8.03237 119.632 9.27438C121.17 10.8041 122.719 12.3197 124.264 13.8424C125.071 14.6494 125.876 15.4528 126.683 16.2598C126.859 16.4352 127.031 16.6106 127.206 16.7825L127.213 16.779Z" fill="#FEB810"/>
<path d="M117.74 116.115C117.74 94.8638 117.74 73.6094 117.736 52.3585C117.813 52.3445 117.887 52.3304 117.964 52.3164C119.636 52.3164 121.311 52.3164 122.982 52.3164C123.474 52.3164 123.969 52.3164 124.46 52.3164C130.127 52.3339 135.798 52.3515 141.465 52.3725C141.416 52.8813 141.255 53.4181 141.363 53.8882C141.43 54.1794 141.883 54.4952 142.224 54.5864C142.88 54.7653 143.576 54.7899 144.253 54.8811C145.591 55.0636 144.524 55.9723 144.734 56.495C144.773 56.5933 144.741 56.7336 144.797 56.8073C145.335 57.5195 145.865 58.2422 146.462 58.8983C146.55 58.9966 147.248 58.7089 147.248 58.6948C146.918 57.2599 147.933 57.4353 148.769 57.4072C149.545 57.3827 149.941 57.1371 150.022 56.2108C150.089 55.4355 150.433 54.3233 150.998 54.0356C151.887 53.583 151.753 53.0286 151.767 52.369C152.312 52.3515 152.856 52.3339 153.4 52.3164C153.892 52.3164 154.383 52.3164 154.875 52.3164C155.201 52.3164 155.528 52.3164 155.851 52.3164C156.125 52.3164 156.399 52.3164 156.673 52.3164L156.834 52.369C156.546 52.748 156.23 53.1093 155.981 53.5128C155.84 53.7409 155.7 54.0742 155.763 54.3057C155.932 54.9302 156.532 55.6354 156.371 56.1021C156.065 56.9862 155.422 57.7967 154.759 58.4843C154.538 58.7124 153.835 58.4773 153.354 58.4633C153.281 58.4633 153.203 58.565 153.137 58.5545C152.35 58.4528 151.564 58.3615 150.788 58.2107C150.472 58.1475 150.18 57.9475 149.878 57.8072C149.755 58.1545 149.513 58.5159 149.555 58.8422C149.58 59.0457 150.036 59.1931 150.289 59.3755C150.447 59.4913 150.623 59.6071 150.724 59.7684C150.756 59.8176 150.595 60.0737 150.475 60.1193C149.373 60.5368 148.231 60.8596 147.168 61.3578C146.802 61.5297 146.599 62.0981 146.388 62.5191C146.332 62.6314 146.528 63.0243 146.588 63.0208C147.613 62.9401 146.946 63.4173 146.883 63.7681C146.813 64.1646 146.89 64.5856 146.904 64.9961C147.206 64.9505 147.512 64.9189 147.81 64.8557C148.523 64.7119 149.162 64.5575 149.566 65.4838C149.804 66.0311 150.278 66.5293 150.767 66.8977C151.567 67.5011 151.585 68.1643 151.198 68.9677C151.135 69.0975 151.114 69.2449 151.076 69.3852C151.23 69.3712 151.423 69.4063 151.536 69.3291C152.831 68.473 154.187 67.6871 155.359 66.6837C155.76 66.3398 155.731 65.4522 155.816 64.8031C155.868 64.3961 155.763 63.9681 155.728 63.5506C156.191 63.712 156.946 63.7541 157.069 64.0523C157.708 65.6311 159.302 65.782 160.475 66.5468C160.735 66.7152 161.086 67.0977 161.044 67.3082C160.883 68.0976 161.318 68.0765 161.88 68.2134C162.838 68.4484 163.755 68.8519 164.689 69.1817C164.067 69.8588 163.47 70.5605 162.824 71.2096C157.926 76.1355 153.017 81.0509 148.112 85.9698C147.729 86.3522 147.343 86.7382 146.96 87.1206C146.578 87.4995 146.195 87.8784 145.812 88.2574C142.062 92.0079 138.316 95.755 134.566 99.5056C132.919 101.148 131.269 102.793 129.622 104.435C128.965 105.091 128.312 105.747 127.655 106.403C127.276 106.782 126.901 107.161 126.521 107.54C125.605 108.456 124.688 109.371 123.769 110.287C121.799 112.262 119.829 114.241 117.859 116.216C117.827 116.224 117.796 116.22 117.764 116.216C117.726 116.188 117.712 116.15 117.729 116.104L117.74 116.115ZM152.108 56.6845C152.505 56.3442 153.007 56.0249 152.968 55.9302C152.761 55.4319 152.417 54.9934 152.122 54.5338C151.848 54.9969 151.518 55.439 151.342 55.9372C151.3 56.0565 151.764 56.3582 152.111 56.6845H152.108ZM144.994 76.7004C145.331 76.2057 145.686 75.8513 145.623 75.7461C145.394 75.3672 145.026 75.0725 144.713 74.7462C144.506 74.9602 144.092 75.2514 144.134 75.3742C144.278 75.7742 144.594 76.1145 144.994 76.7004Z" fill="#CC1517"/>
<path d="M164.692 69.1922C163.758 68.8589 162.841 68.4554 161.883 68.2239C161.324 68.087 160.889 68.1046 161.047 67.3187C161.089 67.1082 160.738 66.7257 160.478 66.5573C159.302 65.789 157.711 65.6416 157.072 64.0628C156.953 63.7646 156.194 63.7225 155.731 63.5611C155.766 63.9786 155.871 64.4066 155.819 64.8136C155.734 65.4627 155.762 66.3538 155.362 66.6942C154.189 67.6976 152.834 68.4835 151.538 69.3396C151.422 69.4168 151.233 69.3782 151.078 69.3957C151.117 69.2554 151.138 69.1045 151.201 68.9782C151.587 68.1748 151.57 67.5117 150.769 66.9082C150.285 66.5433 149.807 66.0416 149.569 65.4943C149.165 64.568 148.526 64.7224 147.813 64.8662C147.514 64.9259 147.209 64.961 146.907 65.0066C146.893 64.5961 146.812 64.1751 146.886 63.7786C146.949 63.4278 147.616 62.9506 146.591 63.0313C146.531 63.0348 146.335 62.6419 146.391 62.5296C146.602 62.1086 146.802 61.5402 147.17 61.3683C148.231 60.8701 149.375 60.5438 150.478 60.1298C150.594 60.0842 150.755 59.8281 150.727 59.7789C150.625 59.6211 150.45 59.5018 150.292 59.386C150.039 59.2036 149.583 59.0562 149.558 58.8527C149.516 58.5264 149.758 58.165 149.881 57.8177C150.183 57.9545 150.471 58.158 150.79 58.2212C151.566 58.372 152.356 58.4632 153.139 58.565C153.206 58.5755 153.287 58.4703 153.357 58.4738C153.838 58.4843 154.54 58.7229 154.762 58.4948C155.422 57.8037 156.068 56.9967 156.373 56.1126C156.535 55.6424 155.934 54.9372 155.766 54.3162C155.703 54.0847 155.843 53.7549 155.984 53.5233C156.229 53.1198 156.549 52.7585 156.837 52.3795C157.055 52.3795 157.272 52.3795 157.49 52.3795C157.283 52.8532 157.04 53.3163 156.889 53.8075C156.816 54.0496 156.897 54.3443 156.942 54.6074C156.949 54.6425 157.241 54.6916 157.265 54.653C157.736 53.9022 158.182 53.1409 158.635 52.383C158.908 52.3655 159.182 52.348 159.453 52.3269C160.759 52.3269 162.069 52.3269 163.375 52.3269C163.701 52.3269 164.028 52.3269 164.354 52.3269C166.591 52.3444 168.824 52.362 171.061 52.383C170.836 52.9549 170.587 53.5163 170.394 54.0987C170.324 54.3092 170.359 54.5759 170.411 54.8004C170.453 54.9863 170.587 55.1512 170.678 55.3267C170.475 55.4249 170.264 55.5161 170.064 55.6214C169.797 55.7617 169.347 55.867 169.298 56.067C169.045 57.0809 168.835 58.1159 168.754 59.1579C168.733 59.4246 169.196 59.7895 169.512 60.007C169.937 60.3017 170.762 60.4245 170.836 60.7473C171.033 61.6279 171.114 62.6769 169.642 62.6699C169.372 62.6699 168.961 62.8804 168.873 63.0945C168.793 63.3015 169.024 63.6558 169.165 63.9225C169.263 64.1084 169.439 64.2558 169.583 64.4172C168.715 65.2487 167.852 66.0802 166.984 66.9117C166.567 66.8731 165.85 66.6871 165.784 66.824C165.527 67.3362 165.482 67.9537 165.355 68.5326L164.692 69.1957V69.1922ZM152.174 63.7856C152.476 64.0032 152.683 64.1435 152.873 64.2944C153.322 64.6487 153.754 65.0241 154.217 65.3574C154.277 65.3995 154.477 65.2452 154.611 65.182C154.523 65.0662 154.435 64.9505 154.347 64.8347C154.228 64.6768 154.109 64.5189 153.989 64.361C155.717 63.0664 154.927 62.7612 153.361 62.7471C153.29 62.7471 153.199 62.684 153.157 62.6243C152.462 61.6419 151.879 62.1682 151.24 62.7191C151.05 62.8804 150.696 62.912 150.429 62.891C150.323 62.8804 150.208 62.5717 150.158 62.3822C150.092 62.1261 150.088 61.8525 150.057 61.5858C149.86 61.6525 149.537 61.6735 149.495 61.7928C149.4 62.0735 149.372 62.4138 149.446 62.698C149.583 63.2348 149.758 63.7751 150.018 64.2628C150.183 64.575 150.495 64.8592 150.812 65.0136C150.91 65.0627 151.236 64.6557 151.458 64.4522C151.679 64.2488 151.893 64.0453 152.174 63.7856ZM154.056 60.3684C153.821 60.0982 153.666 59.9193 153.512 59.7403C153.375 59.9473 153.168 60.1438 153.132 60.3684C153.111 60.4982 153.354 60.7929 153.487 60.7999C153.638 60.8069 153.803 60.5754 154.056 60.3684ZM168.305 54.7232C168.14 54.9407 168.041 55.0284 168.006 55.1372C167.989 55.1898 168.097 55.2811 168.15 55.3582C168.217 55.2811 168.308 55.2144 168.347 55.1232C168.375 55.053 168.333 54.9548 168.308 54.7232H168.305Z" fill="#CC1517"/>
<path d="M144.243 52.3164H146.859C147.621 52.3339 148.386 52.355 149.148 52.3725C149.485 52.783 149.826 53.19 150.163 53.6005C150.205 53.19 150.251 52.783 150.293 52.3725C150.784 52.3725 151.276 52.3725 151.764 52.3725C151.75 53.0321 151.88 53.5865 150.995 54.0391C150.43 54.3268 150.086 55.439 150.019 56.2143C149.938 57.1406 149.541 57.3862 148.765 57.4107C147.926 57.4388 146.915 57.2634 147.245 58.6983C147.245 58.7124 146.55 59.0001 146.459 58.9018C145.858 58.2458 145.331 57.5195 144.794 56.8108C144.738 56.7336 144.77 56.5933 144.731 56.4985C144.52 55.9758 145.584 55.0671 144.25 54.8846C143.572 54.7934 142.874 54.7653 142.22 54.5899C141.883 54.4987 141.43 54.1829 141.36 53.8917C141.251 53.4181 141.413 52.8848 141.462 52.3761C141.736 52.3585 142.006 52.341 142.28 52.3234C142.607 52.3234 142.933 52.3234 143.26 52.3234C143.586 52.3234 143.916 52.3234 144.243 52.3234V52.3164ZM149.408 55.7477C149.362 55.7302 149.32 55.7091 149.278 55.6986C149.268 55.6986 149.232 55.7442 149.239 55.7547C149.261 55.7898 149.296 55.8214 149.324 55.8565C149.352 55.8214 149.38 55.7863 149.411 55.7477H149.408Z" fill="#CC1517"/>
<path d="M158.634 52.3725C158.181 53.1304 157.732 53.8952 157.265 54.6425C157.24 54.6811 156.949 54.632 156.942 54.5969C156.896 54.3338 156.815 54.0391 156.889 53.797C157.04 53.3058 157.286 52.8427 157.49 52.369C157.872 52.369 158.252 52.369 158.634 52.369V52.3725Z" fill="#CC1517"/>
<path d="M150.296 52.3722C150.254 52.7827 150.208 53.1897 150.166 53.6002C149.829 53.1897 149.488 52.7827 149.151 52.3722C149.534 52.3722 149.913 52.3722 150.296 52.3722Z" fill="#ED1C2E"/>
<path d="M171.858 161.276C173.284 161.276 174.709 161.276 176.138 161.276C176.521 161.276 176.9 161.276 177.283 161.276C179.351 161.287 181.419 161.276 183.484 161.339C183.712 161.346 184.123 161.76 184.123 161.988C184.155 172.349 184.155 182.709 184.144 193.073C184.144 193.284 184.025 193.498 183.961 193.708C179.586 189.34 175.211 184.969 170.84 180.601C169.941 179.734 169.039 178.871 168.14 178.004C167.954 177.79 167.768 177.576 167.581 177.362L166.089 175.843C165.612 175.37 165.138 174.899 164.66 174.426C163.898 173.661 163.133 172.9 162.371 172.135C162.171 171.917 161.977 171.689 161.767 171.479C158.414 168.104 155.06 164.732 151.707 161.36C155.443 161.343 159.179 161.322 162.911 161.304C163.666 161.294 164.418 161.283 165.173 161.273C165.503 161.273 165.829 161.273 166.159 161.269C166.595 161.269 167.03 161.273 167.466 161.276C167.739 161.273 168.013 161.269 168.287 161.266H168.779C168.94 161.269 169.105 161.273 169.267 161.273C169.867 161.273 170.468 161.273 171.072 161.273C171.237 161.273 171.402 161.273 171.57 161.269C171.669 161.269 171.763 161.269 171.862 161.273L171.858 161.276Z" fill="#CC1517"/>
<path d="M141.787 161.367C137.317 161.367 132.848 161.367 128.378 161.367C125.084 161.36 121.791 161.367 118.501 161.315C118.244 161.311 117.777 160.855 117.774 160.603C117.721 156.715 117.732 152.824 117.725 148.937C117.725 146.425 117.725 143.916 117.725 141.404C117.742 139.769 117.756 138.134 117.774 136.499C118.497 136.689 119.189 136.857 119.319 135.755C119.333 135.636 119.73 135.527 119.961 135.482C120.288 135.419 120.902 135.468 120.92 135.38C121.05 134.699 121.131 133.991 121.088 133.299C121.064 132.907 120.779 132.528 120.611 132.145C120.902 132.054 121.404 131.815 121.457 131.889C121.749 132.31 122.145 132.826 122.103 133.271C122.019 134.149 121.64 134.991 121.44 135.861C121.376 136.138 121.492 136.457 121.524 136.759C121.826 136.661 122.138 136.594 122.423 136.461C123.03 136.18 123.631 135.889 124.213 135.559C124.628 135.327 124.996 135.008 125.407 134.766C126.001 134.422 126.591 134.047 127.23 133.812C127.704 133.636 128.283 133.745 128.753 133.566C128.975 133.482 129.133 133.029 129.182 132.724C129.315 131.854 128.817 131.191 128.508 130.426C128.111 129.451 128.501 128.153 128.553 126.991C129.112 127.581 129.67 128.17 130.228 128.759C129.898 129.037 129.565 129.317 129.235 129.595C129.34 129.693 129.449 129.794 129.554 129.893C129.775 129.545 129.993 129.198 130.214 128.847C130.228 128.826 130.232 128.798 130.242 128.77C130.776 129.272 131.31 129.773 131.843 130.275C131.31 131.012 130.548 131.682 130.295 132.507C129.909 133.763 129.568 135.177 129.765 136.436C130.046 138.236 130.65 140.046 131.461 141.681C132.068 142.906 131.966 143.783 131.236 144.783C131.11 144.958 131.06 145.337 131.166 145.495C131.285 145.674 131.742 145.856 131.836 145.776C132.166 145.502 132.433 145.134 132.665 144.769C132.935 144.341 133.143 143.878 133.378 143.428C133.62 143.944 133.88 144.449 134.091 144.976C134.189 145.221 134.143 145.523 134.249 145.762C134.315 145.912 134.547 146.095 134.702 146.091C135.769 146.074 136.601 146.214 136.113 147.632C136.064 147.779 136.197 148.074 136.338 148.186C136.886 148.621 137.437 149.063 138.051 149.382C138.28 149.502 138.954 149.319 138.961 149.239C139.003 148.663 139.013 147.607 138.873 147.579C138.037 147.428 138.027 146.933 137.995 146.288C137.978 145.87 137.827 145.425 137.619 145.056C137.026 143.997 137.651 143.502 138.466 143.081C138.747 142.937 139.087 142.899 139.35 142.73C139.596 142.576 139.979 142.25 139.937 142.116C139.842 141.832 139.519 141.622 139.284 141.383C139.164 141.26 138.971 141.166 138.933 141.025C138.908 140.941 139.119 140.681 139.214 140.688C140.376 140.751 140.298 139.731 140.646 139.088C140.811 139.253 140.973 139.415 141.138 139.58C141.201 140.039 141.261 140.495 141.324 140.955C141.482 140.766 141.64 140.573 141.798 140.383C141.903 140.394 142.008 140.408 142.11 140.418C143.799 142.106 145.492 143.797 147.181 145.484C147.454 145.755 147.725 146.028 147.999 146.298C150.123 148.425 152.251 150.547 154.375 152.673C154.66 152.996 154.944 153.319 155.225 153.642C155.07 153.779 154.779 153.926 154.789 154.049C154.87 155.006 154.185 155.206 153.546 155.652C152.928 156.084 151.71 156.898 153.392 157.712C153.473 157.75 153.466 158.287 153.371 158.336C152.289 158.876 149.47 157.943 148.88 156.869C148.764 156.662 148.648 156.406 148.669 156.182C148.782 154.845 148.048 154.207 146.886 153.817C146.696 153.754 146.541 153.28 146.556 153.003C146.58 152.508 146.826 152.024 146.833 151.533C146.843 151.01 146.682 150.484 146.598 149.958C146.461 150.449 146.383 150.972 146.166 151.428C145.955 151.87 145.639 152.284 145.284 152.617C145.218 152.68 144.765 152.217 144.459 152.168C144.087 152.108 143.406 152.112 143.336 152.28C142.858 153.452 142.707 154.698 143.68 155.698C143.982 156.01 144.652 155.933 145.102 156.143C145.351 156.259 145.495 156.599 145.688 156.841C145.397 157.066 145.074 157.515 144.821 157.476C143.736 157.315 142.939 156.778 142.9 155.515C142.893 155.329 142.598 155.006 142.437 155.01C142.188 155.01 141.735 155.224 141.728 155.368C141.671 156.312 141.324 157.606 141.801 158.14C142.739 159.192 142.419 160.227 142.44 161.311C142.223 161.329 142.001 161.346 141.784 161.364L141.787 161.367ZM139.884 152.856C139.993 152.789 140.102 152.726 140.207 152.659C140.112 152.477 140.067 152.196 139.919 152.133C139.252 151.835 138.55 151.61 137.876 151.323C137.693 151.245 137.57 151.042 137.405 150.909C137.089 150.649 136.763 150.4 136.443 150.147C136.232 150.695 135.987 151.231 135.822 151.796C135.758 152.01 135.888 152.277 135.927 152.519C135.804 152.53 135.597 152.589 135.572 152.547C135.439 152.298 135.246 152.024 135.26 151.765C135.312 150.617 135.446 149.474 135.506 148.326C135.516 148.109 135.334 147.884 135.239 147.663C135.098 147.828 134.877 147.975 134.828 148.165C134.702 148.632 134.695 149.133 134.558 149.596C134.494 149.81 134.242 149.968 134.073 150.151C133.971 149.954 133.799 149.761 133.785 149.558C133.743 149.018 133.81 148.467 133.743 147.93C133.722 147.754 133.441 147.533 133.244 147.491C133.128 147.467 132.802 147.772 132.816 147.898C132.907 148.596 133.079 149.281 133.216 149.972C133.336 150.572 133.546 151.179 133.525 151.775C133.501 152.487 135.063 154.235 135.787 154.129C135.934 154.108 136.06 153.964 136.208 153.915C136.664 153.764 137.128 153.631 137.588 153.491C137.711 154.031 137.798 154.582 137.974 155.101C138.1 155.48 138.459 156.15 138.522 156.129C139.235 155.887 139.895 155.617 140.513 156.326C140.544 156.364 140.888 156.227 140.888 156.182C140.86 155.55 140.888 154.891 140.713 154.294C140.562 153.779 140.169 153.333 139.881 152.852L139.884 152.856ZM130.537 142.123C130.221 142.934 130.183 143.481 129.912 143.646C128.768 144.337 129.094 145.116 129.663 145.93C129.786 146.105 130.067 146.169 130.274 146.284C130.4 146.053 130.6 145.828 130.639 145.583C130.748 144.884 130.822 144.176 130.846 143.471C130.857 143.165 130.713 142.853 130.541 142.127L130.537 142.123ZM132.609 148.186C132.458 147.783 132.31 147.4 132.166 147.018C131.994 147.302 131.661 147.607 131.689 147.87C131.745 148.372 132.008 148.853 132.187 149.344C132.321 148.979 132.451 148.618 132.609 148.186ZM142.36 152.593C141.622 152.228 141.426 152.052 141.243 152.066C141.103 152.077 140.839 152.4 140.867 152.452C140.976 152.656 141.166 152.908 141.362 152.947C141.566 152.986 141.815 152.8 142.356 152.589L142.36 152.593ZM139.614 146.909C139.522 147.028 139.41 147.147 139.424 147.165C139.498 147.26 139.6 147.354 139.709 147.397C139.747 147.411 139.842 147.288 139.912 147.225C139.828 147.133 139.744 147.042 139.617 146.905L139.614 146.909ZM118.385 138.52C118.353 138.573 118.329 138.611 118.314 138.65C118.314 138.657 118.357 138.699 118.367 138.696C118.406 138.678 118.441 138.65 118.48 138.625C118.451 138.594 118.423 138.559 118.388 138.52H118.385Z" fill="#ED1C2E"/>
<path d="M93.441 175.075C93.441 175.454 93.441 175.833 93.441 176.212V182.587C93.441 184.109 93.441 185.636 93.441 187.158C93.441 187.702 93.441 188.249 93.441 188.793C93.441 189.067 93.441 189.344 93.441 189.618C93.441 190.109 93.441 190.597 93.441 191.088C93.441 191.523 93.441 191.961 93.441 192.396C93.441 192.61 93.4375 192.828 93.434 193.042C93.434 193.154 93.434 193.267 93.434 193.375C93.434 193.863 93.4375 194.351 93.441 194.835V196.319C93.441 196.915 93.441 197.515 93.441 198.112C93.441 199.634 93.441 201.161 93.441 202.683C93.4305 203.006 93.4059 203.325 93.4059 203.648C93.3989 205.232 92.6264 206.064 91.0884 206.146C90.8146 206.146 90.5407 206.146 90.2668 206.146C81.4887 206.146 72.714 206.146 63.9359 206.146C63.7182 206.146 63.5005 206.146 63.2828 206.146H60.7617C62.5349 204.388 64.136 202.803 65.7337 201.217C65.7898 201.161 65.8425 201.108 65.8987 201.052C66.3341 200.617 66.7695 200.182 67.2049 199.747C67.9563 199.003 68.7077 198.259 69.4591 197.515C70.1262 196.842 70.7934 196.172 71.4605 195.498C71.7871 195.172 72.1136 194.845 72.4402 194.516C72.5771 194.386 72.714 194.256 72.8475 194.13L72.8685 194.105C73.0406 193.916 73.2091 193.723 73.3812 193.533C73.4479 193.467 73.5146 193.403 73.5813 193.337C74.6733 192.26 75.7653 191.182 76.8573 190.105C77.6087 189.358 78.3601 188.611 79.1116 187.863C81.0463 185.93 82.9845 183.997 84.9192 182.064C85.3159 181.534 85.7127 181.004 86.1095 180.475H86.0884C86.2815 180.447 86.5449 180.489 86.6572 180.376C88.5639 178.496 90.4494 176.594 92.349 174.703C92.651 174.401 92.9775 174.131 93.2935 173.847C93.3427 174.258 93.3953 174.672 93.4445 175.082L93.441 175.075Z" fill="#ED1C2E"/>
<path d="M124.79 45.3383C124.783 45.3874 124.78 45.433 124.783 45.4821C124.292 45.9803 123.803 46.4785 123.312 46.9802C121.528 48.759 119.744 50.5414 117.961 52.3202C117.883 52.3342 117.81 52.3482 117.732 52.3623C117.613 52.3482 117.49 52.3307 117.371 52.3167C113.393 48.3275 109.414 44.3384 105.44 40.3492C105.155 40.0615 104.885 39.7563 104.607 39.4616C105.124 39.5458 105.65 39.5914 106.156 39.7247C106.416 39.7949 106.637 40.0159 106.879 40.1668C106.956 39.8685 107.065 39.5738 107.111 39.2686C107.29 38.0862 107.301 36.8442 108.354 35.9952C108.522 35.8583 108.723 35.6162 108.877 35.6408C109.906 35.7917 110.426 35.4549 110.282 34.3497C110.275 34.2936 110.422 34.2129 110.499 34.1462C110.57 34.3006 110.706 34.4584 110.699 34.6093C110.668 35.2654 110.864 35.4724 111.504 35.1426C111.7 35.0409 111.985 35.0409 112.209 35.0865C112.452 35.1356 112.669 35.29 112.901 35.3987C112.834 35.1251 112.739 34.8584 112.708 34.5812C112.683 34.3707 112.662 34.0304 112.775 33.9638C113.08 33.7778 113.456 33.6129 113.8 33.6269C113.979 33.634 114.151 34.0269 114.309 34.255C114.478 34.5041 114.622 34.7637 114.776 35.0198C115.018 34.7953 115.268 34.5813 115.496 34.3427C115.721 34.1076 115.917 33.848 116.128 33.5989C116.293 33.8796 116.437 34.1778 116.626 34.4409C116.942 34.8795 117.469 35.2584 117.564 35.732C117.652 36.1671 117.301 36.6969 117.107 37.1705C116.981 37.4793 116.795 37.7634 116.633 38.0582C116.897 38.1915 117.287 38.2546 117.402 38.4686C117.859 39.3177 118.716 39.4826 119.457 39.8791C119.685 40.0019 119.579 40.6544 119.727 41.0228C119.969 41.6403 120.257 42.2473 120.601 42.8122C120.707 42.9841 121.061 43.0016 121.303 43.0893C121.374 42.8402 121.458 42.5946 121.507 42.342C121.563 42.0438 121.584 41.7386 121.623 41.4368C122.023 41.7842 122.557 42.0648 122.782 42.5034C123.006 42.942 122.915 43.5384 122.964 44.0857C123.143 44.0436 123.207 44.0507 123.238 44.0191C123.593 43.6682 123.94 43.3139 124.292 42.9595C124.457 43.4261 124.657 43.8858 124.773 44.3629C124.846 44.6717 124.794 45.012 124.797 45.3383H124.79ZM111.655 36.6793C111.63 36.6934 111.363 36.8267 111.1 36.96C111.159 37.0653 111.233 37.2652 111.279 37.2582C112.68 37.0618 112.381 38.0827 112.61 38.8827C112.711 39.23 113.568 39.3949 114.112 39.5493C114.2 39.5738 114.597 39.0897 114.562 38.8897C114.418 38.0511 112.841 36.5776 111.658 36.6758L111.655 36.6793Z" fill="#FEB810"/>
<path d="M117.87 116.231C121.318 119.666 124.769 123.1 128.217 126.535C128.33 126.69 128.442 126.844 128.551 126.998C128.498 128.16 128.109 129.454 128.505 130.433C128.818 131.198 129.313 131.858 129.179 132.731C129.134 133.036 128.976 133.489 128.751 133.573C128.281 133.752 127.701 133.647 127.227 133.819C126.588 134.054 125.998 134.429 125.405 134.773C124.994 135.012 124.625 135.331 124.211 135.566C123.628 135.892 123.024 136.187 122.42 136.468C122.136 136.597 121.823 136.668 121.521 136.766C121.49 136.464 121.374 136.145 121.437 135.868C121.637 134.998 122.017 134.152 122.101 133.278C122.143 132.833 121.746 132.317 121.455 131.896C121.406 131.822 120.903 132.058 120.609 132.152C120.777 132.538 121.061 132.914 121.086 133.307C121.128 133.998 121.047 134.706 120.918 135.387C120.9 135.475 120.285 135.426 119.959 135.489C119.727 135.534 119.33 135.643 119.316 135.762C119.183 136.861 118.491 136.696 117.768 136.506C117.761 135.826 117.743 135.145 117.743 134.464C117.733 128.447 117.726 122.434 117.719 116.417C117.736 116.354 117.754 116.294 117.771 116.231C117.803 116.238 117.835 116.238 117.866 116.231H117.87Z" fill="#ED1C2E"/>
<path d="M152.108 56.6878C151.763 56.3615 151.296 56.0633 151.339 55.9405C151.514 55.4423 151.844 55.0002 152.118 54.5371C152.413 54.9967 152.757 55.4353 152.964 55.9335C153.003 56.0282 152.501 56.351 152.104 56.6878H152.108Z" fill="#CC1517"/>
<path d="M144.995 76.7041C144.594 76.1182 144.278 75.7779 144.134 75.3779C144.089 75.2551 144.507 74.9639 144.714 74.7499C145.03 75.0762 145.395 75.3709 145.623 75.7498C145.686 75.8551 145.332 76.2094 144.995 76.7041Z" fill="#ED1C2E"/>
<path d="M170.243 63.7646C170.022 63.9786 169.804 64.1961 169.583 64.4102C169.443 64.2453 169.264 64.1014 169.165 63.912C169.025 63.6453 168.793 63.291 168.874 63.084C168.958 62.8699 169.373 62.6559 169.643 62.6594C171.114 62.6664 171.033 61.6174 170.837 60.7368C170.763 60.4105 169.941 60.2877 169.513 59.9965C169.201 59.779 168.734 59.4141 168.755 59.1474C168.835 58.1089 169.046 57.0739 169.299 56.0565C169.348 55.8565 169.794 55.7512 170.064 55.6109C170.264 55.5056 170.475 55.4144 170.679 55.3162C170.587 55.1407 170.454 54.9758 170.412 54.7899C170.363 54.5618 170.328 54.2987 170.394 54.0882C170.584 53.5058 170.833 52.9409 171.061 52.3725C171.715 52.355 172.368 52.3339 173.024 52.3164C173.488 52.3269 173.948 52.3375 174.411 52.3445C175.983 52.3673 177.556 52.3916 179.128 52.4155C180.077 52.4299 180.546 53.5789 179.875 54.2496C179.664 54.4882 179.45 54.7232 179.239 54.9618C179.165 55.1162 179.095 55.2741 179.022 55.4284C178.54 55.8003 178.059 56.1722 177.578 56.5441C177.164 56.9195 176.75 57.2985 176.332 57.6739C175.939 57.4037 175.556 57.116 175.145 56.8704C174.941 56.7476 174.622 56.7722 174.478 56.6178C173.642 55.7302 173.049 55.8705 172.487 56.9231C172.354 57.1722 171.869 57.2388 171.539 57.3757C171.223 57.509 170.9 57.6283 170.577 57.7546C170.798 58.2387 170.991 58.7369 171.255 59.1966C171.371 59.3965 171.62 59.5404 171.837 59.6492C172.038 59.7509 172.287 59.8316 172.501 59.8105C173.116 59.7544 173.723 59.6421 174.334 59.5544C174.109 59.814 173.888 60.0737 173.663 60.3333C172.519 61.4771 171.374 62.6208 170.233 63.7646H170.243Z" fill="#CC1517"/>
<path d="M152.177 63.7862C151.9 64.0459 151.682 64.2529 151.461 64.4529C151.24 64.6528 150.917 65.0633 150.815 65.0142C150.499 64.8598 150.186 64.5757 150.021 64.2634C149.762 63.7757 149.586 63.2354 149.449 62.6986C149.375 62.4144 149.403 62.0706 149.498 61.7934C149.537 61.6741 149.863 61.6531 150.06 61.5864C150.092 61.8531 150.095 62.1267 150.162 62.3828C150.211 62.5723 150.327 62.8811 150.432 62.8916C150.703 62.9161 151.057 62.8846 151.243 62.7197C151.879 62.1688 152.465 61.6426 153.161 62.6249C153.203 62.6846 153.294 62.7477 153.364 62.7477C154.93 62.7583 155.72 63.067 153.993 64.3616C154.112 64.5195 154.231 64.6774 154.351 64.8353C154.439 64.9511 154.526 65.0668 154.614 65.1826C154.481 65.2458 154.281 65.4002 154.221 65.3581C153.757 65.0247 153.326 64.6493 152.876 64.295C152.683 64.1406 152.479 64.0038 152.177 63.7862Z" fill="#CC1517"/>
<path d="M166.985 66.9047C166.982 66.9468 166.975 66.9889 166.971 67.031C166.434 67.5292 165.897 68.0274 165.359 68.5256C165.486 67.9467 165.528 67.3292 165.788 66.817C165.854 66.6802 166.571 66.8661 166.989 66.9047H166.985Z" fill="#ED1C2E"/>
<path d="M154.06 60.3685C153.807 60.5755 153.642 60.8071 153.491 60.8C153.358 60.793 153.112 60.4983 153.136 60.3685C153.175 60.144 153.382 59.9475 153.516 59.7405C153.67 59.9194 153.825 60.0983 154.06 60.3685Z" fill="#ED1C2E"/>
<path d="M168.305 54.7234C168.333 54.9549 168.372 55.0532 168.344 55.1234C168.309 55.2146 168.214 55.2812 168.147 55.3584C168.095 55.2847 167.989 55.19 168.003 55.1374C168.038 55.0286 168.14 54.9409 168.302 54.7234H168.305Z" fill="#ED1C2E"/>
<path d="M149.412 55.7481C149.381 55.7868 149.352 55.8221 149.324 55.8573C149.296 55.8256 149.264 55.7939 149.24 55.7551C149.236 55.7481 149.268 55.6987 149.278 55.6987C149.321 55.7058 149.363 55.7269 149.409 55.7481H149.412Z" fill="#ED1C2E"/>
<path d="M151.711 161.36C148.621 161.346 145.534 161.329 142.445 161.315C142.424 160.231 142.743 159.196 141.806 158.143C141.332 157.61 141.676 156.315 141.732 155.371C141.739 155.227 142.195 155.013 142.441 155.013C142.603 155.013 142.898 155.336 142.905 155.519C142.943 156.782 143.74 157.322 144.825 157.48C145.078 157.518 145.401 157.069 145.692 156.845C145.499 156.606 145.355 156.266 145.106 156.147C144.657 155.936 143.986 156.013 143.684 155.701C142.711 154.701 142.862 153.459 143.34 152.284C143.41 152.112 144.088 152.108 144.464 152.172C144.766 152.221 145.222 152.68 145.289 152.621C145.643 152.284 145.959 151.873 146.17 151.431C146.384 150.975 146.465 150.456 146.602 149.961C146.686 150.487 146.844 151.014 146.837 151.536C146.83 152.028 146.584 152.512 146.56 153.007C146.546 153.28 146.704 153.757 146.89 153.821C148.052 154.21 148.786 154.849 148.674 156.185C148.656 156.41 148.772 156.666 148.884 156.873C149.474 157.947 152.29 158.88 153.375 158.339C153.47 158.29 153.48 157.754 153.396 157.715C151.714 156.897 152.933 156.087 153.551 155.655C154.186 155.213 154.874 155.01 154.794 154.052C154.783 153.929 155.078 153.782 155.229 153.645C157.789 156.196 160.352 158.75 162.912 161.301C159.176 161.318 155.44 161.339 151.707 161.357L151.711 161.36Z" fill="#ED1C2E"/>
<path d="M117.721 116.413C117.728 122.43 117.739 128.444 117.746 134.461C117.746 135.142 117.764 135.822 117.771 136.503C117.753 138.138 117.739 139.773 117.721 141.408C117.546 141.559 117.282 141.674 117.209 141.864C116.643 143.327 115.562 143.53 114.396 142.804C114.031 142.576 114.087 141.646 113.992 141.032C113.943 140.713 114.01 140.376 113.957 140.057C113.926 139.864 113.764 139.692 113.659 139.513C113.504 139.633 113.35 139.752 113.195 139.871C112.409 140.492 111.696 141.45 110.815 141.643C109.867 141.85 109.47 142.134 109.456 143.011C109.452 143.313 109.603 143.618 109.684 143.923C109.912 143.723 110.144 143.53 110.362 143.323C110.502 143.19 110.706 142.892 110.745 142.913C111.714 143.45 112.644 143.432 113.561 142.801C113.701 143.751 114.61 143.544 115.12 143.913C115.309 144.05 115.035 144.93 114.86 145.436C114.779 145.664 114.424 145.793 114.196 145.969C113.975 145.664 113.757 145.358 113.532 145.06C113.413 144.902 113.283 144.751 113.157 144.597C113.051 144.79 112.869 144.983 112.862 145.183C112.848 145.523 112.957 145.867 112.995 146.211C113.062 146.811 113.164 147.411 113.157 148.007C113.157 148.341 113.062 148.779 112.837 148.986C112.307 149.484 111.707 150.179 111.082 150.239C110.144 150.326 109.164 149.891 108.195 149.765C107.353 149.656 106.956 150.039 107.202 150.933C107.272 151.189 107.279 151.474 107.265 151.74C107.258 151.877 107.138 152.01 107.072 152.144C106.977 152.039 106.851 151.944 106.787 151.821C106.398 151.021 105.983 151.207 105.502 151.747C105.341 151.93 105.088 152.024 104.874 152.161C104.768 151.895 104.498 151.512 104.586 151.386C105.123 150.632 105.752 149.944 106.334 149.221C106.468 149.056 106.678 148.744 106.622 148.667C106.11 147.958 103.532 148.148 102.957 148.853C102.788 149.056 102.395 149.077 102.103 149.183C102.11 148.926 102.037 148.628 102.142 148.425C102.346 148.035 102.665 147.709 102.918 147.344C103.013 147.207 103.115 147.028 103.101 146.878C103.09 146.755 102.911 146.646 102.806 146.534C102.662 146.667 102.514 146.793 102.377 146.93C102.202 147.102 102.033 147.277 101.868 147.46C101.594 147.765 101.134 148.056 101.099 148.39C101.025 149.126 100.906 149.512 100.074 149.126C99.972 149.077 99.6279 149.267 99.5928 149.397C99.3575 150.284 98.7747 150.491 97.932 150.425C97.335 150.375 96.7206 150.54 96.1237 150.488C95.4144 150.425 94.7227 150.225 94.0169 150.105C93.6868 150.049 93.1145 149.923 93.0548 150.035C92.8687 150.397 92.8196 150.856 92.8371 151.277C92.8406 151.379 93.2936 151.46 93.5394 151.554C93.729 151.632 93.9151 151.716 94.1012 151.8C93.9677 151.933 93.7852 152.049 93.7149 152.21C93.6447 152.379 93.6693 152.596 93.6763 152.789C93.6904 153.126 93.7325 153.463 93.75 153.803C93.7676 154.158 93.6307 154.621 93.8062 154.845C94.1574 155.294 94.1047 156.929 93.592 157.192C93.4621 157.259 93.1883 157.301 93.1321 157.231C92.0787 155.933 91.5696 157.27 90.9165 157.712C90.7093 157.852 90.5127 158.298 90.5934 158.484C90.6847 158.694 91.0991 158.891 91.3554 158.87C91.5941 158.848 91.8364 158.561 92.0295 158.347C92.2016 158.161 92.3034 157.912 92.4544 157.705C92.4614 157.694 92.7318 157.806 92.7423 157.884C92.788 158.196 92.9038 158.589 92.7669 158.817C92.3315 159.54 91.6714 160.154 91.3483 160.915C91.1798 161.311 91.5415 161.932 91.6609 162.452C92.3982 162.276 93.1426 162.122 93.8765 161.925C94.3996 161.782 94.9088 161.582 95.4249 161.41C95.4846 161.95 95.4776 162.511 95.6321 163.024C95.769 163.483 96.0921 163.887 96.3308 164.315C96.8716 163.978 97.4123 163.641 97.953 163.304C98.1918 163.157 98.427 163.01 98.6658 162.859C98.6728 163.118 98.6623 163.378 98.6869 163.638C98.7255 164.02 98.7079 164.445 98.8835 164.757C98.9572 164.887 99.6349 164.904 99.7403 164.757C100.464 163.736 101.492 164.259 102.388 164.146C100.579 165.995 98.7712 167.844 96.9629 169.69C93.3357 173.289 89.7051 176.889 86.078 180.489H86.099C86.0464 180.429 85.9937 180.373 85.941 180.313C85.941 178.356 85.941 176.394 85.941 174.437C85.941 174.272 85.9445 174.107 85.948 173.946C85.948 173.781 85.948 173.616 85.948 173.451C85.948 173.233 85.948 173.016 85.9445 172.798C85.9445 172.637 85.9445 172.472 85.9445 172.311V171.16C85.9445 169.42 85.9445 167.679 85.9445 165.936V164.118L86.0112 164.136C86.8118 164.697 87.5843 165.318 88.434 165.792C88.7535 165.971 89.2627 165.809 89.6875 165.802C89.4909 165.613 89.2592 165.448 89.1117 165.227C88.9607 165.002 88.8167 164.718 88.8238 164.466C88.8273 164.329 89.1608 164.209 89.3364 164.073C89.677 163.81 90.0422 163.564 90.3301 163.248C90.4108 163.16 90.3371 162.76 90.2142 162.676C89.5295 162.21 88.7816 161.831 88.111 161.347C87.7774 161.104 87.4719 160.736 87.328 160.357C87.2507 160.154 87.5492 159.81 87.6791 159.529C87.809 159.252 87.9389 158.975 88.0723 158.698C87.8371 158.603 87.6018 158.424 87.3701 158.427C86.6292 158.445 86.394 158.168 86.545 157.428C86.5801 157.252 86.2044 156.996 86.0147 156.778C85.9902 156.287 85.9621 155.8 85.9375 155.308C85.9375 154.277 85.941 153.242 85.9445 152.21C85.9445 151.881 85.9445 151.547 85.9445 151.218C85.9445 150.94 85.9445 150.663 85.9445 150.39L86.0147 150.411C87.4473 150.404 87.8722 151.095 87.6194 152.761C87.5457 153.259 87.7739 153.817 87.9424 154.323C87.9565 154.368 88.8167 154.221 88.8167 154.175C88.7816 152.986 88.6868 151.796 88.5885 150.611C88.5815 150.516 88.4972 150.383 88.4165 150.344C87.6229 149.972 86.8188 149.621 86.0183 149.26C85.9937 149.098 85.9691 148.937 85.9445 148.772C86.1412 148.355 86.2535 147.856 86.5555 147.534C88.0302 145.958 89.5541 144.429 91.0604 142.881C91.6679 142.278 92.2753 141.674 92.8793 141.071C93.1075 140.811 93.3357 140.548 93.5639 140.289C93.6833 140.239 93.8378 140.222 93.9221 140.134C97.8336 136.215 101.738 132.293 105.646 128.367C109.431 124.606 113.213 120.845 117.002 117.083C117.233 116.855 117.479 116.641 117.714 116.42L117.721 116.413ZM111.65 145.102C111.408 144.713 111.275 144.502 111.145 144.292C111.054 144.471 110.997 144.692 110.86 144.822C110.727 144.944 110.502 145.029 110.32 145.029C110.102 145.029 109.884 144.923 109.667 144.864C109.614 145.137 109.463 145.443 109.537 145.674C109.61 145.902 110.032 146.246 110.105 146.204C110.625 145.902 111.092 145.516 111.65 145.099V145.102ZM92.9986 155.242C92.479 155.056 92.1665 154.852 91.8715 154.873C91.6644 154.887 91.2781 155.287 91.3132 155.372C91.4326 155.649 91.6784 155.894 91.9347 156.066C91.9944 156.105 92.2823 155.803 92.9986 155.242ZM107.465 147.186C107.286 147.667 107.107 147.909 107.145 148.113C107.177 148.291 107.451 148.428 107.616 148.583C107.746 148.425 107.999 148.246 107.978 148.109C107.939 147.863 107.735 147.646 107.465 147.183V147.186Z" fill="#CC1517"/>
<path d="M102.402 164.128C101.506 164.241 100.478 163.721 99.7542 164.739C99.6524 164.883 98.9712 164.869 98.8975 164.739C98.7219 164.427 98.7395 164.002 98.7009 163.62C98.6763 163.363 98.6833 163.1 98.6798 162.841C98.441 162.988 98.2058 163.135 97.967 163.286C97.4263 163.623 96.8856 163.96 96.3448 164.297C96.1061 163.869 95.783 163.465 95.6461 163.006C95.4916 162.493 95.5021 161.932 95.4389 161.392C94.9228 161.567 94.4136 161.767 93.8905 161.907C93.1601 162.107 92.4157 162.262 91.6749 162.434C91.552 161.914 91.1938 161.293 91.3623 160.897C91.6854 160.136 92.3455 159.525 92.7809 158.799C92.9178 158.571 92.802 158.178 92.7563 157.866C92.7458 157.792 92.4754 157.676 92.4684 157.687C92.3174 157.894 92.2156 158.143 92.0435 158.329C91.8504 158.543 91.6081 158.831 91.3694 158.852C91.113 158.873 90.6987 158.676 90.6074 158.466C90.5267 158.28 90.7233 157.834 90.9305 157.694C91.5835 157.252 92.0892 155.915 93.1461 157.213C93.2022 157.283 93.4761 157.245 93.606 157.174C94.1152 156.911 94.1713 155.276 93.8202 154.827C93.6447 154.603 93.7816 154.14 93.764 153.785C93.7465 153.448 93.7044 153.112 93.6903 152.771C93.6833 152.575 93.6552 152.361 93.7289 152.192C93.7956 152.031 93.9817 151.915 94.1152 151.782C93.9291 151.701 93.743 151.614 93.5534 151.536C93.3111 151.438 92.8546 151.357 92.8511 151.259C92.8371 150.842 92.8827 150.379 93.0688 150.017C93.1285 149.905 93.7008 150.031 94.0309 150.087C94.7332 150.207 95.4284 150.41 96.1377 150.47C96.7346 150.522 97.349 150.358 97.9459 150.407C98.7887 150.473 99.3715 150.266 99.6068 149.379C99.6419 149.249 99.986 149.059 100.088 149.108C100.92 149.494 101.036 149.108 101.113 148.372C101.148 148.038 101.608 147.747 101.882 147.442C102.047 147.26 102.216 147.084 102.391 146.912C102.528 146.775 102.676 146.646 102.82 146.516C102.925 146.631 103.104 146.737 103.115 146.86C103.129 147.007 103.027 147.189 102.932 147.326C102.679 147.691 102.363 148.017 102.156 148.407C102.047 148.61 102.124 148.909 102.117 149.165C102.409 149.059 102.802 149.042 102.971 148.835C103.546 148.13 106.124 147.94 106.636 148.649C106.692 148.726 106.482 149.038 106.348 149.203C105.766 149.926 105.137 150.614 104.6 151.368C104.508 151.494 104.782 151.88 104.888 152.143C105.098 152.007 105.355 151.912 105.516 151.729C105.994 151.189 106.408 151.003 106.801 151.803C106.861 151.926 106.987 152.021 107.086 152.126C107.152 151.992 107.272 151.859 107.279 151.722C107.293 151.456 107.286 151.171 107.216 150.915C106.97 150.021 107.367 149.635 108.209 149.747C109.182 149.873 110.158 150.308 111.096 150.221C111.721 150.161 112.321 149.466 112.851 148.968C113.072 148.758 113.167 148.323 113.171 147.989C113.178 147.389 113.076 146.789 113.009 146.193C112.971 145.849 112.862 145.505 112.876 145.165C112.883 144.968 113.069 144.776 113.171 144.579C113.297 144.733 113.427 144.884 113.546 145.042C113.771 145.344 113.989 145.649 114.21 145.951C114.442 145.775 114.796 145.646 114.874 145.418C115.049 144.916 115.327 144.035 115.134 143.895C114.624 143.526 113.719 143.733 113.575 142.783C112.658 143.418 111.728 143.435 110.759 142.895C110.72 142.874 110.516 143.172 110.376 143.305C110.158 143.512 109.926 143.705 109.698 143.905C109.617 143.6 109.466 143.298 109.47 142.993C109.48 142.116 109.881 141.832 110.829 141.625C111.71 141.432 112.423 140.474 113.209 139.853C113.364 139.734 113.518 139.615 113.673 139.495C113.775 139.678 113.936 139.846 113.971 140.039C114.024 140.358 113.957 140.695 114.006 141.014C114.105 141.628 114.049 142.562 114.41 142.786C115.572 143.509 116.654 143.305 117.223 141.846C117.296 141.656 117.56 141.541 117.735 141.39C117.735 143.902 117.735 146.41 117.735 148.923C113.424 153.21 109.112 157.497 104.796 161.781C104.006 162.564 103.206 163.335 102.412 164.111L102.402 164.128Z" fill="#CC1517"/>
<path d="M140.651 139.099C140.3 139.741 140.38 140.762 139.218 140.699C139.123 140.695 138.913 140.955 138.937 141.036C138.979 141.176 139.169 141.274 139.288 141.393C139.524 141.632 139.847 141.842 139.941 142.127C139.984 142.256 139.601 142.586 139.355 142.741C139.092 142.906 138.751 142.948 138.47 143.092C137.652 143.509 137.027 144.007 137.624 145.067C137.831 145.435 137.982 145.881 138 146.298C138.028 146.944 138.038 147.439 138.878 147.589C139.018 147.614 139.007 148.674 138.965 149.249C138.958 149.33 138.288 149.516 138.056 149.393C137.441 149.073 136.89 148.628 136.342 148.196C136.202 148.084 136.069 147.789 136.118 147.642C136.602 146.228 135.774 146.088 134.706 146.102C134.552 146.102 134.323 145.923 134.253 145.772C134.148 145.533 134.194 145.232 134.095 144.986C133.885 144.46 133.625 143.951 133.382 143.439C133.147 143.888 132.94 144.355 132.67 144.779C132.438 145.147 132.171 145.512 131.841 145.786C131.746 145.863 131.286 145.681 131.17 145.505C131.065 145.347 131.111 144.965 131.241 144.793C131.971 143.793 132.069 142.916 131.465 141.692C130.654 140.057 130.05 138.246 129.769 136.446C129.573 135.187 129.913 133.773 130.3 132.517C130.552 131.692 131.314 131.026 131.848 130.286C131.894 130.289 131.939 130.293 131.985 130.296L133.295 131.601C133.449 131.794 133.607 131.987 133.762 132.18C133.249 132.794 132.673 133.369 132.262 134.047C132.143 134.243 132.512 134.731 132.656 135.082C132.849 134.983 133.109 134.931 133.217 134.776C133.642 134.173 134.021 133.534 134.415 132.91C134.474 132.948 134.538 132.984 134.597 133.022C134.815 133.201 135.036 133.384 135.254 133.562C135.528 133.885 135.802 134.204 136.076 134.527C136.68 135.131 137.283 135.731 137.887 136.334C138.481 136.924 139.078 137.513 139.671 138.102C140.001 138.436 140.328 138.769 140.658 139.102L140.651 139.099ZM134.436 139.808C134.218 139.488 134.06 139.253 133.906 139.022C133.698 139.257 133.323 139.502 133.333 139.73C133.344 140.011 133.677 140.281 133.871 140.555C134.043 140.33 134.211 140.106 134.439 139.808H134.436Z" fill="#ED1C2E"/>
<path d="M139.885 152.856C140.173 153.333 140.566 153.778 140.717 154.298C140.892 154.894 140.864 155.55 140.892 156.185C140.892 156.231 140.552 156.368 140.517 156.329C139.899 155.62 139.239 155.891 138.526 156.133C138.463 156.154 138.104 155.484 137.978 155.105C137.802 154.582 137.718 154.031 137.592 153.494C137.132 153.635 136.668 153.768 136.212 153.919C136.064 153.968 135.938 154.112 135.791 154.133C135.067 154.235 133.508 152.491 133.529 151.779C133.55 151.182 133.34 150.575 133.22 149.975C133.083 149.284 132.911 148.596 132.82 147.902C132.802 147.775 133.129 147.47 133.248 147.495C133.445 147.537 133.726 147.758 133.747 147.933C133.814 148.47 133.747 149.021 133.789 149.561C133.807 149.765 133.979 149.958 134.077 150.154C134.246 149.972 134.498 149.814 134.562 149.6C134.699 149.137 134.706 148.639 134.832 148.168C134.885 147.979 135.102 147.832 135.243 147.667C135.338 147.888 135.52 148.116 135.51 148.33C135.45 149.477 135.317 150.621 135.264 151.768C135.253 152.028 135.443 152.301 135.576 152.551C135.597 152.593 135.808 152.533 135.931 152.522C135.889 152.28 135.762 152.01 135.826 151.8C135.987 151.238 136.233 150.698 136.447 150.151C136.77 150.403 137.093 150.652 137.409 150.912C137.571 151.045 137.697 151.249 137.88 151.326C138.554 151.61 139.256 151.835 139.923 152.137C140.067 152.203 140.116 152.484 140.211 152.663C140.102 152.729 139.994 152.793 139.888 152.859L139.885 152.856Z" fill="#ED1C2E"/>
<path d="M130.539 142.127C130.711 142.85 130.855 143.162 130.844 143.471C130.82 144.176 130.746 144.885 130.637 145.583C130.598 145.828 130.398 146.053 130.272 146.284C130.065 146.169 129.784 146.106 129.661 145.93C129.092 145.116 128.765 144.337 129.91 143.646C130.18 143.481 130.219 142.934 130.535 142.123L130.539 142.127Z" fill="#ED1C2E"/>
<path d="M132.609 148.19C132.455 148.618 132.321 148.982 132.188 149.347C132.009 148.856 131.745 148.379 131.689 147.874C131.661 147.611 131.995 147.305 132.167 147.021C132.311 147.404 132.455 147.786 132.609 148.19Z" fill="#ED1C2E"/>
<path d="M141.145 139.59C141.363 139.857 141.584 140.124 141.802 140.39C141.644 140.58 141.486 140.773 141.328 140.962C141.264 140.503 141.205 140.046 141.142 139.587L141.145 139.59Z" fill="#ED1C2E"/>
<path d="M142.36 152.596C141.816 152.807 141.566 152.993 141.366 152.954C141.17 152.915 140.98 152.663 140.871 152.459C140.843 152.403 141.103 152.084 141.247 152.073C141.43 152.059 141.626 152.235 142.364 152.6L142.36 152.596Z" fill="#ED1C2E"/>
<path d="M130.236 128.777C130.226 128.801 130.222 128.83 130.208 128.854C129.99 129.201 129.769 129.552 129.548 129.9C129.443 129.801 129.334 129.7 129.229 129.601C129.559 129.324 129.892 129.047 130.222 128.766L130.233 128.777H130.236Z" fill="#ED1C2E"/>
<path d="M139.614 146.916C139.744 147.053 139.825 147.144 139.909 147.235C139.839 147.295 139.744 147.421 139.706 147.407C139.597 147.362 139.495 147.27 139.421 147.176C139.407 147.158 139.519 147.039 139.611 146.92L139.614 146.916Z" fill="#ED1C2E"/>
<path d="M118.384 138.527C118.419 138.565 118.447 138.6 118.475 138.632C118.44 138.656 118.405 138.684 118.363 138.702C118.353 138.705 118.307 138.663 118.311 138.656C118.325 138.614 118.353 138.576 118.381 138.527H118.384Z" fill="#D62426"/>
<path d="M72.4414 194.515C72.5783 194.385 72.7153 194.256 72.8487 194.13C72.7118 194.26 72.5748 194.389 72.4414 194.515Z" fill="#D8D8D8"/>
<path d="M111.658 36.6827C112.841 36.5844 114.418 38.058 114.562 38.8965C114.597 39.0965 114.2 39.5807 114.112 39.5561C113.572 39.4017 112.711 39.2368 112.609 38.8895C112.378 38.0931 112.68 37.0686 111.279 37.2651C111.233 37.2721 111.163 37.0686 111.1 36.9668C111.366 36.8335 111.63 36.6967 111.654 36.6862L111.658 36.6827Z" fill="#E4A205"/>
<path d="M176.338 57.6702C175.675 58.2982 175.008 58.9263 174.344 59.5508C173.733 59.642 173.126 59.7508 172.511 59.8069C172.293 59.8279 172.048 59.7473 171.847 59.6455C171.63 59.5367 171.38 59.3929 171.265 59.1929C170.998 58.7368 170.808 58.2351 170.587 57.7509C170.906 57.6246 171.229 57.5053 171.549 57.372C171.879 57.2317 172.364 57.1685 172.497 56.9194C173.055 55.8669 173.652 55.723 174.488 56.6142C174.635 56.7685 174.955 56.7475 175.155 56.8668C175.562 57.1124 175.949 57.4001 176.342 57.6702H176.338Z" fill="#ED1C2E"/>
<path d="M85.9629 161.343C85.984 159.817 86.0085 158.29 86.0296 156.764C86.2157 156.982 86.5949 157.241 86.5598 157.413C86.4123 158.154 86.6476 158.431 87.385 158.413C87.6167 158.41 87.8555 158.589 88.0872 158.683C87.9573 158.961 87.8239 159.238 87.6939 159.515C87.564 159.796 87.2656 160.139 87.3428 160.343C87.4833 160.722 87.7923 161.09 88.1258 161.332C88.7965 161.817 89.5444 162.195 90.2291 162.662C90.352 162.746 90.4257 163.146 90.3449 163.234C90.057 163.546 89.6918 163.792 89.3513 164.058C89.1757 164.195 88.8421 164.318 88.8386 164.451C88.8316 164.704 88.9756 164.988 89.1265 165.213C89.274 165.434 89.5057 165.599 89.7024 165.788C89.2775 165.795 88.7684 165.957 88.4489 165.778C87.5991 165.304 86.8267 164.683 86.0261 164.122C86.005 163.36 85.984 162.595 85.9629 161.834C85.9629 161.669 85.9629 161.508 85.9629 161.343Z" fill="#ED1C2E"/>
<path d="M86.025 150.396C86.025 150.014 86.025 149.632 86.025 149.249C86.8256 149.607 87.6261 149.961 88.4232 150.333C88.5075 150.372 88.5882 150.505 88.5952 150.6C88.6935 151.786 88.7883 152.975 88.8235 154.165C88.8235 154.207 87.9667 154.358 87.9492 154.312C87.7806 153.807 87.5524 153.249 87.6261 152.751C87.8789 151.081 87.4541 150.389 86.0215 150.4L86.025 150.396Z" fill="#ED1C2E"/>
<path d="M111.652 145.102C111.093 145.516 110.626 145.905 110.107 146.207C110.033 146.249 109.612 145.902 109.538 145.677C109.461 145.445 109.615 145.14 109.668 144.867C109.885 144.926 110.103 145.031 110.321 145.031C110.503 145.031 110.728 144.947 110.862 144.824C111.002 144.695 111.055 144.474 111.146 144.295C111.276 144.505 111.409 144.716 111.652 145.105V145.102Z" fill="#ED1C2E"/>
<path d="M93.0031 155.242C92.2868 155.806 91.9989 156.108 91.9392 156.066C91.6828 155.894 91.4371 155.645 91.3177 155.371C91.2826 155.287 91.6688 154.887 91.876 154.873C92.1709 154.852 92.4834 155.056 93.0031 155.242Z" fill="#ED1C2E"/>
<path d="M107.469 147.186C107.74 147.649 107.943 147.867 107.982 148.112C108.003 148.249 107.75 148.428 107.62 148.586C107.455 148.432 107.181 148.295 107.15 148.116C107.111 147.912 107.29 147.67 107.469 147.19V147.186Z" fill="#ED1C2E"/>
<path d="M134.411 132.91C134.014 133.535 133.639 134.173 133.214 134.777C133.105 134.935 132.842 134.984 132.652 135.082C132.508 134.728 132.139 134.24 132.259 134.047C132.666 133.37 133.245 132.794 133.758 132.18C133.976 132.423 134.197 132.668 134.415 132.91H134.411Z" fill="#ED1C2E"/>
<path d="M134.435 139.808C134.207 140.106 134.039 140.331 133.867 140.555C133.673 140.282 133.343 140.011 133.329 139.731C133.319 139.503 133.698 139.261 133.902 139.022C134.06 139.257 134.218 139.489 134.432 139.808H134.435Z" fill="#ED1C2E"/>
<path d="M178.552 173.033C178.036 172.85 177.53 172.626 177 172.496C176.691 172.419 176.452 172.433 176.54 171.994C176.564 171.879 176.368 171.668 176.227 171.573C175.578 171.149 174.7 171.068 174.349 170.194C174.282 170.03 173.864 170.005 173.608 169.917C173.629 170.149 173.685 170.384 173.657 170.608C173.611 170.966 173.625 171.458 173.404 171.647C172.758 172.201 172.01 172.633 171.294 173.107C171.231 173.149 171.125 173.128 171.041 173.138C171.062 173.061 171.076 172.977 171.108 172.907C171.322 172.464 171.312 172.096 170.869 171.766C170.602 171.563 170.339 171.289 170.205 170.987C169.984 170.475 169.63 170.563 169.236 170.64C169.071 170.672 168.903 170.693 168.738 170.717C168.731 170.489 168.685 170.258 168.727 170.04C168.762 169.847 169.131 169.584 168.566 169.626C168.534 169.626 168.425 169.412 168.457 169.349C168.573 169.117 168.685 168.802 168.885 168.707C169.472 168.433 170.1 168.251 170.711 168.023C170.774 167.998 170.866 167.854 170.848 167.83C170.792 167.742 170.697 167.679 170.606 167.612C170.465 167.51 170.216 167.43 170.202 167.318C170.181 167.139 170.314 166.939 170.381 166.746C170.546 166.823 170.708 166.935 170.883 166.967C171.312 167.051 171.747 167.1 172.179 167.156C172.217 167.16 172.26 167.103 172.298 167.107C172.565 167.114 172.951 167.244 173.074 167.118C173.439 166.739 173.794 166.29 173.963 165.802C174.05 165.542 173.72 165.153 173.629 164.809C173.594 164.683 173.671 164.497 173.748 164.37C173.885 164.146 174.061 163.949 174.219 163.739C174.338 163.739 174.461 163.739 174.58 163.739C174.468 164.002 174.335 164.255 174.25 164.525C174.208 164.658 174.254 164.819 174.279 164.967C174.279 164.988 174.444 165.012 174.458 164.991C174.717 164.577 174.963 164.156 175.213 163.739C175.364 163.728 175.514 163.718 175.665 163.707C176.385 163.707 177.109 163.707 177.828 163.707C178.007 163.707 178.19 163.707 178.369 163.707C179.602 163.718 180.838 163.728 182.07 163.739C181.944 164.055 181.807 164.363 181.701 164.686C181.663 164.802 181.684 164.949 181.712 165.072C181.733 165.174 181.807 165.265 181.859 165.363C181.747 165.416 181.631 165.469 181.519 165.525C181.371 165.602 181.125 165.658 181.097 165.77C180.957 166.332 180.841 166.9 180.795 167.475C180.785 167.623 181.041 167.823 181.213 167.942C181.449 168.103 181.901 168.174 181.944 168.353C182.052 168.837 182.098 169.419 181.283 169.412C181.136 169.412 180.908 169.528 180.859 169.647C180.813 169.763 180.943 169.959 181.02 170.103C181.076 170.205 181.171 170.286 181.248 170.377C180.771 170.837 180.293 171.296 179.816 171.752C179.584 171.731 179.191 171.629 179.152 171.703C179.012 171.987 178.987 172.328 178.917 172.647L178.552 173.015V173.033ZM171.645 170.051C171.814 170.17 171.926 170.247 172.031 170.331C172.277 170.528 172.519 170.735 172.772 170.917C172.804 170.942 172.916 170.858 172.99 170.822C172.941 170.759 172.892 170.696 172.846 170.63C172.779 170.542 172.716 170.454 172.649 170.366C173.604 169.654 173.165 169.482 172.302 169.475C172.263 169.475 172.214 169.44 172.189 169.405C171.807 168.865 171.484 169.152 171.132 169.458C171.027 169.549 170.834 169.566 170.683 169.552C170.623 169.549 170.56 169.377 170.532 169.272C170.497 169.131 170.493 168.981 170.476 168.833C170.367 168.868 170.188 168.882 170.167 168.949C170.114 169.103 170.1 169.293 170.139 169.451C170.216 169.745 170.311 170.047 170.455 170.314C170.546 170.486 170.718 170.644 170.894 170.728C170.95 170.756 171.129 170.531 171.248 170.419C171.371 170.307 171.491 170.194 171.642 170.051H171.645ZM172.684 168.167C172.554 168.016 172.47 167.917 172.382 167.819C172.309 167.935 172.193 168.04 172.172 168.167C172.161 168.24 172.295 168.402 172.368 168.405C172.453 168.409 172.54 168.282 172.681 168.167H172.684ZM180.546 165.051C180.455 165.17 180.399 165.219 180.381 165.279C180.371 165.307 180.43 165.36 180.458 165.402C180.497 165.36 180.546 165.321 180.567 165.272C180.581 165.233 180.56 165.181 180.546 165.051Z" fill="#CC1517"/>
<path d="M55.6632 45.4853C54.1534 47.3273 52.5382 48.2711 50.8388 48.9026C48.9954 49.5938 48.7215 50.6007 49.3184 52.3374C49.9258 54.0952 50.1365 55.9406 49.8029 58.0984C47.7348 56.7932 46.9413 54.832 46.1653 52.9654C45.5578 51.5024 44.831 51.1866 43.3773 51.6252C41.7938 52.1024 40.1259 52.3164 38.4897 52.6006C38.0999 52.6707 37.5592 52.8146 37.3801 52.2357C37.2151 51.7094 37.6294 51.4007 37.9876 51.1796C39.2586 50.4042 40.4981 49.5201 41.8675 48.9588C43.588 48.2465 44.3851 47.4396 43.5845 45.4152C43.0368 44.0434 42.9771 42.4716 42.7172 40.9875C42.6365 40.5314 42.6575 40.0296 43.1351 39.8437C43.6161 39.6507 43.9251 40.0402 44.1604 40.4331C45.3226 42.3979 46.0494 45.2573 47.7453 46.0923C49.4518 46.9344 52.0115 45.0538 54.3254 45.2292C54.6415 45.2503 54.954 45.3485 55.6667 45.4853H55.6597H55.6632Z" fill="#FEB810"/>
<path d="M79.7091 7.89865C79.523 9.55816 78.5715 10.5265 77.0511 10.5441C75.5132 10.5686 74.4563 9.60027 74.4247 7.98285C74.3896 6.22159 75.4114 5.22518 77.1565 5.26378C78.7962 5.29886 79.5125 6.40052 79.7091 7.89865Z" fill="#EB4350"/>
</g>
<defs>
<clipPath id="clip0_1174_48799">
<rect width="238" height="230" fill="white" transform="translate(0.0556641)"/>
</clipPath>
</defs>
</svg>
