<svg width="414" height="365" viewBox="0 0 414 365" fill="none" xmlns="http://www.w3.org/2000/svg">
<path d="M325.695 71.2322C321.645 72.9828 318.186 73.1625 314.852 72.7591C311.233 72.3316 309.926 73.7561 309.428 77.1282C308.934 80.5358 307.712 83.7569 305.33 87.0276C303.036 83.1186 303.399 79.2191 303.71 75.4829C303.954 72.5602 303.024 71.4213 300.262 70.9112C297.251 70.3507 294.324 69.2865 291.39 68.3638C290.689 68.1466 289.68 67.9273 289.876 66.8227C290.053 65.8196 290.994 65.658 291.771 65.6014C294.525 65.4035 297.317 65.0025 300.044 65.238C303.481 65.5271 305.48 64.8728 305.88 60.8585C306.142 58.1351 307.385 55.4936 308.22 52.8316C308.477 52.0149 308.939 51.2041 309.88 51.299C310.834 51.3897 311.015 52.2979 311.065 53.1388C311.305 57.361 310.073 62.688 312.152 65.5027C314.243 68.3353 320.053 67.4152 323.716 69.6746C324.219 69.9789 324.649 70.4022 325.703 71.2367L325.695 71.2322Z" fill="#FEB810"/>
<path d="M339.445 222.408C338.46 221.007 338.53 219.616 339.685 218.568C340.848 217.503 342.319 217.528 343.442 218.75C344.667 220.077 344.563 221.539 343.197 222.693C341.916 223.779 340.618 223.422 339.445 222.408Z" fill="#EB4350"/>
<path d="M98.8161 302.95C97.6809 301.335 97.7616 299.732 99.0923 298.524C100.434 297.297 102.129 297.326 103.423 298.734C104.835 300.264 104.716 301.948 103.141 303.279C101.664 304.531 100.168 304.12 98.8161 302.95Z" fill="#FFC727"/>
<path d="M81.7823 221.814C84.3969 222.31 87.7218 223.599 87.6209 225.859C87.52 228.118 84.0727 229.083 81.6038 228.902C78.9038 228.637 77.3761 227.278 77.4985 225.024C77.5994 222.765 79.3134 221.633 81.798 221.841L81.7823 221.814Z" fill="#EB4350"/>
<path d="M76.6825 221.108C79.297 221.605 80.9101 222.733 80.7877 224.986C80.6868 227.246 78.9729 228.377 76.4029 228.401C73.7029 228.135 70.6728 226.694 70.7952 224.441C70.9815 221.95 74.1125 221.131 76.6825 221.108Z" fill="#EB4350"/>
<path d="M75.3982 227.76C75.895 225.146 77.0227 223.533 79.2763 223.655C81.5357 223.756 82.6674 225.47 82.6906 228.04C82.4248 230.74 80.9845 233.77 78.7309 233.648C76.1609 233.671 75.1904 230.245 75.3982 227.76Z" fill="#EB4350"/>
<path d="M76.1997 221.698C76.6966 219.083 77.9855 215.758 80.2449 215.859C82.5043 215.96 83.4689 219.408 83.2885 221.876C83.0227 224.576 81.6639 226.104 79.4103 225.982C77.382 225.966 76.2503 224.252 76.2271 221.682L76.1997 221.698Z" fill="#EB4350"/>
<path d="M324 289.288C325.939 289.656 328.404 290.612 328.329 292.287C328.254 293.962 325.698 294.677 323.868 294.543C321.866 294.346 320.733 293.339 320.824 291.668C320.899 289.993 322.17 289.154 324.012 289.308L324 289.288Z" fill="#EB4350"/>
<path d="M320.219 288.764C322.157 289.133 323.353 289.969 323.262 291.64C323.188 293.315 321.917 294.154 320.011 294.171C318.01 293.974 315.763 292.906 315.854 291.235C315.992 289.389 318.313 288.782 320.219 288.764Z" fill="#EB4350"/>
<path d="M319.266 293.696C319.635 291.757 320.471 290.561 322.142 290.652C323.817 290.727 324.656 291.997 324.673 293.903C324.476 295.905 323.408 298.151 321.737 298.06C319.832 298.078 319.112 295.538 319.266 293.696Z" fill="#EB4350"/>
<path d="M319.861 289.201C320.229 287.262 321.185 284.797 322.86 284.872C324.535 284.947 325.25 287.503 325.117 289.333C324.919 291.335 323.912 292.468 322.241 292.377C320.737 292.365 319.898 291.095 319.881 289.189L319.861 289.201Z" fill="#EB4350"/>
<circle cx="208.39" cy="185.743" r="83.8531" fill="#EB4350"/>
<path d="M255.802 257.183C253.336 258.404 251.228 260.281 248.617 261.243C249.272 258.085 248.958 254.803 247.715 251.828C247.433 251.055 247.379 250.032 246.52 249.862C245.404 249.641 245.409 250.833 245.102 251.52C244.482 252.925 243.299 254.626 242.057 254.001C240.321 253.138 237.484 253.344 237.159 250.408C238.693 249.167 237.266 245.582 240.822 245.909C241.286 245.952 241.607 245.188 240.937 244.716C240.586 244.451 240.179 244.269 239.747 244.185C239.315 244.1 238.87 244.114 238.444 244.227C238.019 244.339 237.625 244.547 237.291 244.834C236.957 245.121 236.693 245.479 236.518 245.883C235.901 245.045 234.971 244.357 236.1 243.351C237.23 242.345 236.759 241.197 236.711 240.009C237.716 238.051 239.849 236.205 237.814 233.817C236.962 232.804 235.727 232.364 236.168 230.57C236.407 229.639 235.419 229.952 234.918 230.438C233.859 231.558 233.027 232.872 232.465 234.307C232.214 234.889 232.104 235.797 231.277 235.154C230.088 234.173 229.09 234.039 228.204 235.525C227.317 237.011 227.48 238.025 228.928 238.97C229.268 239.211 229.515 239.562 229.627 239.964C229.739 240.366 229.71 240.794 229.544 241.177C229.2 242.151 228.344 241.554 227.678 241.574C226.03 241.623 225.904 242.478 226.678 243.706L226.782 244.791C226.175 244.849 225.556 244.908 225.207 245.489C221.861 244.835 218.178 248.669 215.264 244.526C215.264 244.526 215.08 244.543 215.015 244.549C213.494 245.582 210.939 245.651 211.319 248.472L211.371 249.014C210.621 249.185 209.522 248.907 209.421 250.022C209.32 251.137 209.016 252.305 210.308 252.882C211.6 253.459 211.281 254.244 210.635 255.04C208.848 257.181 209.548 258.778 211.627 260.144C212.105 260.449 212.534 260.813 212.375 261.441C212.157 262.25 211.412 262.124 210.806 262.204C209.543 262.38 209.396 261.529 209.161 260.567C208.661 258.425 206.58 257.847 204.94 257.172C203.528 256.607 203.003 258.091 202.251 259.159C201.811 259.666 201.235 260.034 200.592 260.222C199.948 260.41 199.264 260.409 198.621 260.219C197.659 260.004 197.129 259.048 198.369 258.623C199.907 258.103 199.421 255.895 201.197 255.692C201.566 255.657 201.55 254.925 201.333 254.486C201.275 254.36 201.192 254.247 201.089 254.155C200.986 254.063 200.864 253.993 200.733 253.95C200.601 253.907 200.462 253.892 200.324 253.906C200.186 253.919 200.053 253.961 199.932 254.029C198.317 255.223 196.625 254.696 194.927 254.453L194.773 252.848C196.14 252.378 198.418 252.499 198.517 251.023C198.616 249.546 196.111 249.677 195.009 248.677C194.935 248.626 194.849 248.596 194.76 248.591C193.464 248.431 192.591 248.799 192.854 250.295L190.685 250.503L190.529 248.876C191.241 248.074 192.644 248.093 192.851 246.607C192.993 245.685 193.981 246.061 194.649 246.292C195.118 246.849 195.73 246.725 196.328 246.679C196.981 249.955 199.006 245.612 199.936 247.329C201.239 246.186 199.832 245.555 199.436 244.739L199.386 244.207C200.744 243.88 201.577 244.808 202.508 245.496C202.92 245.788 203.407 245.956 203.911 245.982C204.416 246.007 204.917 245.888 205.356 245.639C206.331 245.184 205.91 244.217 205.859 243.456C205.683 241.623 205.508 239.79 205.333 237.968C207.113 239.572 208.441 241.615 209.184 243.893C209.433 244.668 209.812 245.19 210.659 245.24C211.507 245.291 212.224 244.784 212.033 244.266C211.395 242.521 212.087 240.035 210.375 239.072C209.681 238.79 209.071 238.334 208.605 237.748C208.139 237.162 207.831 236.465 207.712 235.726C207.632 234.89 205.892 234.094 207.479 233.296C209.067 232.498 208.82 234.262 209.357 234.955C210.053 235.83 209.834 237.876 210.958 237.735C212.546 237.517 211.358 235.508 211.98 234.463C212.042 234.339 212.078 234.204 212.085 234.066C212.092 233.928 212.072 233.789 212.024 233.66C210.793 230.756 213.727 230.65 214.95 229.931C216.173 229.212 217.063 231.995 218.265 231.628C219.466 231.261 219.499 229.091 221.524 229.893C222.321 230.069 223.155 229.962 223.881 229.59C224.71 229.215 224.747 227.997 223.929 228.031C222.239 228.095 221.466 227.567 221.073 225.984C220.967 225.557 220.24 225.287 219.652 225.54C218.129 226.211 216.629 225.523 215.123 225.449C214.133 225.401 212.889 224.984 212.311 225.805C211.733 226.627 213.373 227.061 213.448 227.962C213.462 228.103 213.312 228.26 213.24 228.42C210.988 227.76 210.988 227.76 210.73 225.07C211.633 223.504 212.784 222.096 214.14 220.901C215.154 220.859 215.426 221.763 215.982 222.312C216.538 222.861 218.054 222.803 217.815 222.137C217.135 220.286 218.657 218.466 217.589 216.685C217.738 216.228 218.001 215.816 218.352 215.488C218.703 215.16 219.132 214.925 219.598 214.807C220.601 216.254 222.613 217.036 222.52 219.267C222.551 219.581 223.246 220.106 223.709 220.248C225.848 220.875 228.959 217.928 228.398 215.726C227.902 214.371 227.611 212.949 227.534 211.507C227.663 209.656 229.198 210.253 230.229 210.045C231.023 209.881 231.797 210.081 231.431 211.167C230.823 213.163 231.53 215.054 231.705 216.997C231.751 217.485 231.277 218.133 232.002 218.391C232.561 218.623 233.078 218.19 233.478 217.911C234.88 217.01 234.366 215.757 234.245 214.499C234.182 213.837 232.563 213.16 233.85 212.654C234.903 212.224 235.052 213.776 235.319 214.505C235.586 215.235 235.326 215.95 235.526 216.675C235.782 217.854 236.805 218.599 237.681 217.804C239.042 216.579 242.309 216.069 240.32 212.899C240.148 212.382 240.096 211.833 240.166 211.293C240.082 210.415 239.741 209.364 240.706 208.812C241.67 208.26 242.202 209.238 242.963 209.526C244.022 209.961 244.039 210.824 243.673 211.8C243.307 212.777 242.747 213.553 243.522 214.333C244.297 215.112 244.762 213.338 245.668 213.886C245.879 217.577 247.307 218.425 250.915 217.018C251.258 216.882 251.617 216.788 251.983 216.74C252.56 216.654 253.113 216.452 253.611 216.147C254.108 215.842 254.539 215.441 254.879 214.966C255.218 214.492 255.459 213.954 255.586 213.385C255.714 212.815 255.726 212.226 255.622 211.652C255.611 211.472 255.561 211.296 255.475 211.137C255.389 210.978 255.27 210.84 255.125 210.732C254.98 210.624 254.814 210.548 254.637 210.511C254.46 210.474 254.277 210.476 254.101 210.517C251.075 210.807 250.173 207.215 247.407 206.9C246.831 206.835 246.95 205.674 247.131 204.934C247.669 203.142 248.053 201.307 248.28 199.449C248.388 197.491 250.019 194.751 246.269 194.103C246.086 194.064 245.914 193.986 245.764 193.874C245.614 193.763 245.49 193.621 245.399 193.457C245.309 193.294 245.255 193.113 245.24 192.926C245.226 192.74 245.251 192.553 245.315 192.377C246.534 189.557 245.531 187.091 244.279 184.639C244.726 183.697 245.4 182.88 246.24 182.262C246.766 182.617 247.272 182.984 247.817 183.304C248.538 183.739 249.14 185.005 250.101 184.289C251.018 183.584 251.69 182.609 252.023 181.5C252.283 180.446 251.302 179.807 250.21 179.484C249.818 179.391 249.522 178.937 249.189 178.652C249.229 177.017 250.542 176.442 251.641 175.691C253.164 176.279 254.576 175.596 255.979 175.276C256.083 176.36 257.286 176.114 257.762 176.747C256.123 177.692 258.157 178.701 257.789 179.766C256.837 179.999 256.27 179.221 255.528 179.019C254.55 178.751 254.195 178.928 254.366 180.028C254.817 182.798 253.046 184.533 251.228 186.119C249.857 187.345 248.325 190.776 249.039 192.065C251.148 193.249 253.368 194.224 255.666 194.976C257.011 194.158 257.933 193.96 257.481 196.094C257.421 196.361 257.448 196.64 257.556 196.891C257.665 197.143 257.85 197.353 258.085 197.492C258.214 198.258 258.131 199.044 257.845 199.766C257.559 200.488 257.082 201.118 256.464 201.588C254.144 203.54 255.057 204.722 256.835 206.15C257.519 205.286 257.992 204.274 258.216 203.194C258.635 201.512 258.969 199.63 260.964 198.859C261.356 199.073 261.76 199.286 262.122 199.525C264.638 201.002 264.392 202.318 263.04 204.768C261.883 206.86 260.332 208.837 259.659 211.178C259.205 212.721 260.286 213.843 261.563 214.378C263.685 215.269 264.211 216.423 263.237 218.596C262.614 219.98 263.155 221.625 263.772 222.924C264.389 224.222 265.376 222.649 266.299 222.682C269.181 222.723 269.395 221.87 268.026 219.232C267.381 217.98 265.453 217.508 265.882 215.705C266.05 214.951 266.054 214.17 265.893 213.415C265.732 212.659 265.41 211.948 264.949 211.328C263.548 209.273 266.181 207.51 265.045 205.594C265.045 205.594 265.451 205.139 265.638 205.154C266.747 205.31 267.264 206.476 268.203 207.021C269.142 207.566 268.111 208.004 267.851 208.489C266.995 210.07 267.644 213.642 268.921 213.608C271.202 213.542 270.676 214.786 270.528 215.982C270.38 217.179 271.18 217.54 272.192 217.476C273.204 217.412 274.05 217.221 273.622 215.839C273.428 215.179 273.026 214.298 273.784 213.864C274.541 213.431 274.999 214.438 275.644 214.66C275.988 214.76 276.338 214.832 276.693 214.877C277.007 215.296 277.318 215.912 277.932 215.58C278.546 215.247 278.262 214.683 278.279 214.178C278.378 213.95 278.623 213.653 278.553 213.495C277.875 212.017 277.754 210.638 279.554 210.006C281.354 209.374 281.057 211.526 281.953 212.195L281.461 212.779C280.915 213.247 281.034 213.914 281.075 214.458C281.32 215.989 278.44 214.71 279.114 216.835C279.621 218.472 278.175 219.267 276.999 219.435C275.455 219.659 276.408 217.838 275.693 217.228C275.59 217.164 275.479 217.115 275.362 217.085C273.573 220.124 272.137 223.414 268.311 224.492C268.101 224.517 267.904 224.603 267.742 224.738C267.58 224.873 267.461 225.053 267.399 225.255C267.337 225.457 267.335 225.672 267.393 225.875C267.452 226.078 267.568 226.26 267.727 226.398C270.122 228.544 269.923 232.066 272.095 234.288C273.067 235.289 272.614 236.734 273.237 237.867C273.298 237.992 273.33 238.128 273.331 238.266C273.331 238.405 273.301 238.541 273.241 238.666C273.181 238.791 273.094 238.9 272.986 238.987C272.878 239.073 272.752 239.133 272.617 239.164C271.792 239.462 271.501 238.942 271.342 238.191C270.97 235.797 269.593 233.882 268.397 231.905C267.095 229.731 265.788 229.692 264.457 231.79C263.924 232.629 263.45 233.507 262.882 234.316C262.314 235.126 261.947 235.982 260.852 235.978C259.637 235.974 259.652 234.878 259.3 234.057C258.948 233.237 258.545 232.805 258.274 232.142C258.002 231.478 257.549 230.974 256.639 231.412C255.729 231.849 254.969 231.801 254.908 233.11C254.839 234.791 256.111 235.271 257.121 235.875C256.496 237.347 254.264 235.295 254.351 237.235C254.437 238.935 253.637 241.212 256.215 242.07C257.21 242.402 256.688 243.24 256.698 243.918C256.756 247.492 255.311 251.604 260.059 253.524L260.302 253.654L259.65 254.505L255.802 257.183ZM215.045 232.976C215.031 232.835 214.934 232.626 214.833 232.592C214.731 232.557 214.57 232.704 214.434 232.772C214.448 232.913 214.544 233.123 214.646 233.157C214.748 233.191 214.909 233.044 215.045 232.976Z" fill="#DF2A2F"/>
<path d="M281.721 229.195L274.037 240.396C271.046 243.441 268.57 246.962 265.06 249.509C265.077 248.884 265.082 248.259 265.121 247.632C265.139 247.131 264.994 246.639 264.708 246.228C264.422 245.817 264.01 245.51 263.534 245.353C262.622 244.97 262.428 246.029 262.109 246.585C261.91 246.997 261.557 247.316 261.126 247.472C260.695 247.627 260.22 247.608 259.803 247.419C259.264 247.273 258.799 246.42 258.163 247.203C257.526 247.987 258.375 248.278 258.538 248.842C259.008 250.428 260.944 251.108 260.96 252.989L260.055 253.71L259.813 253.58C255.065 251.66 256.51 247.548 256.452 243.974C256.388 243.301 256.964 242.458 255.969 242.126C253.371 241.281 254.193 239.013 254.105 237.292C254.013 235.308 256.246 237.36 256.875 235.932C255.865 235.328 254.582 234.849 254.662 233.166C254.723 231.858 255.629 231.837 256.393 231.468C257.156 231.099 257.683 231.344 258.028 232.198C258.372 233.052 258.792 233.438 259.054 234.114C259.316 234.789 259.391 236.03 260.606 236.034C261.701 236.039 262.093 235.103 262.636 234.373C263.179 233.642 263.678 232.686 264.211 231.846C265.542 229.749 266.848 229.788 268.151 231.962C269.35 233.97 270.716 235.887 271.095 238.248C271.165 238.974 271.542 239.485 272.371 239.22C272.506 239.19 272.632 239.129 272.74 239.043C272.848 238.957 272.935 238.847 272.995 238.722C273.054 238.597 273.085 238.461 273.084 238.322C273.084 238.184 273.052 238.048 272.991 237.924C272.368 236.79 272.819 235.335 271.849 234.344C269.677 232.122 269.887 228.599 267.481 226.454C267.322 226.316 267.206 226.134 267.147 225.931C267.089 225.728 267.091 225.513 267.153 225.311C267.214 225.109 267.334 224.93 267.496 224.794C267.658 224.659 267.855 224.573 268.065 224.548C271.891 223.47 273.327 220.18 275.115 217.141C275.232 217.172 275.344 217.22 275.447 217.284C276.129 217.898 275.176 219.718 276.752 219.491C277.929 219.323 279.375 218.528 278.868 216.891C278.243 214.827 281.118 216.051 280.829 214.514C282.159 214.233 281.597 213.51 281.215 212.835L281.707 212.251C282.919 212.223 283.022 213.297 283.333 214.033C283.488 214.525 283.747 214.978 284.091 215.363C284.436 215.747 284.858 216.053 285.33 216.261C284.739 216.955 283.903 217.395 282.997 217.492C280.902 217.791 281.246 218.754 281.703 220.33C282.161 221.906 283.786 222.189 284.39 223.466L283.936 225.13C283.202 226.492 282.456 227.844 281.721 229.195Z" fill="#DA0C0C"/>
<path d="M237.16 250.408C237.437 253.304 240.322 253.137 242.057 254C243.299 254.625 244.482 252.925 245.103 251.519C245.409 250.833 245.415 249.639 246.52 249.862C247.379 250.031 247.434 251.055 247.715 251.827C248.958 254.803 249.272 258.085 248.617 261.242C244.522 263.71 240.107 265.606 235.498 266.877C236.46 265.493 238.016 264.37 237.792 262.377L239.386 262.225C241.068 263.333 241.958 261.65 242.709 260.921C243.62 260.035 242.104 259.293 241.615 258.53C241.309 258.14 240.913 257.829 240.461 257.625C240.009 257.421 239.514 257.328 239.018 257.356C238.357 257.31 237.64 257.247 237.413 256.59C236.674 254.472 234.815 253.807 233.039 252.981L233.374 250.759L237.16 250.408Z" fill="#DA0C0C"/>
<path d="M233.028 252.982C234.804 253.808 236.663 254.473 237.402 256.592C237.629 257.249 238.346 257.311 239.008 257.358C239.503 257.33 239.998 257.422 240.45 257.627C240.902 257.831 241.298 258.142 241.605 258.532C242.094 259.295 243.609 260.037 242.698 260.923C241.947 261.652 241.058 263.335 239.375 262.226C239.983 261.369 241.548 260.683 240.092 259.421C239.197 258.653 237.78 258.143 236.878 258.897C235.688 259.843 236.948 260.762 237.5 261.618C237.615 261.862 237.702 262.118 237.759 262.381C237.951 264.377 236.47 265.493 235.465 266.881L234.86 267.42L227.476 269.288C227.64 267.346 225.601 267.421 224.507 266.288C225.74 265.935 226.809 265.159 227.526 264.095C228.528 264.842 228.232 266.895 230 266.156C231.053 265.727 232.031 261.419 231.621 260.232C231.604 259.019 229.805 259.432 229.787 258.219C230.359 257.223 230.248 255.723 232.038 255.672C232.836 255.661 232.682 254.734 232.677 254.111C232.632 253.908 232.641 253.698 232.702 253.5C232.764 253.302 232.876 253.123 233.028 252.982Z" fill="#DA0C0C"/>
<path d="M260.951 253.012C260.972 251.171 259.003 250.494 258.529 248.865C258.368 248.322 257.575 247.927 258.153 247.226C258.732 246.525 259.255 247.296 259.794 247.441C260.211 247.631 260.686 247.65 261.117 247.494C261.548 247.338 261.901 247.02 262.1 246.607C262.414 245.997 262.608 244.939 263.525 245.376C264.001 245.533 264.413 245.839 264.699 246.25C264.985 246.661 265.13 247.154 265.112 247.654C265.073 248.282 265.067 248.906 265.051 249.532C263.872 250.897 262.489 252.071 260.951 253.012Z" fill="#DA0C0C"/>
<path d="M134.942 148.108L138.107 142.868C141.587 138.178 144.594 133.117 148.933 129.166L151.979 126.685C152.986 128.285 153.88 129.392 155.829 127.465C156.738 126.557 158.432 127.216 159.666 127.755C160.673 128.216 160.568 129.288 160.465 130.152C160.282 131.56 159.093 131.947 157.928 132.234C156.87 132.462 155.94 133.09 155.333 133.986C154.726 134.882 154.487 135.978 154.667 137.045C154.709 137.479 154.686 138.04 155.223 138.163C155.94 138.335 156.044 137.702 156.228 137.224C157.728 134.037 159.407 133.395 162.863 134.739C163.109 134.845 163.381 134.876 163.645 134.83C163.909 134.783 164.153 134.66 164.348 134.476C166.173 133.075 166.877 133.457 166.587 135.794C166.441 136.903 167.175 137.478 168.302 137.25C169.269 137.059 171.019 137.504 170.78 135.918C170.407 133.392 171.481 131.812 173.162 130.282C173.274 130.201 173.365 130.094 173.426 129.97C173.488 129.846 173.519 129.709 173.516 129.571C173.514 129.432 173.478 129.297 173.412 129.175C173.346 129.054 173.251 128.95 173.137 128.873C172.723 128.551 172.297 128.789 171.906 129.045C171.165 129.543 170.689 131.088 169.543 130.092C169.094 129.637 168.792 129.058 168.675 128.429C168.559 127.8 168.633 127.151 168.888 126.565C169.19 125.605 169.517 124.786 168.169 123.853C166.821 122.921 167.567 120.89 168.332 119.733C168.537 119.486 168.79 119.283 169.075 119.136C169.359 118.988 169.671 118.899 169.991 118.873C170.31 118.848 170.632 118.887 170.937 118.987C171.241 119.088 171.523 119.248 171.764 119.459C173.336 120.556 174.202 122.049 173.486 124.066C173.285 124.589 173.03 125.128 173.624 125.509C174.219 125.89 174.719 125.514 175.066 125.13C176.347 123.99 177.833 123.105 179.446 122.521C180.003 122.282 180.546 121.672 181.152 122.281C182.047 123.17 180.938 123.473 180.558 123.969C180.179 124.465 179.578 125.158 180.311 125.843C180.771 126.302 181.283 126.735 181.984 126.515C183.049 126.205 183.229 125.224 183.387 124.366C183.546 123.508 184.305 122.516 183.153 121.915C182 121.313 181.276 120.715 181.796 119.177C181.937 118.508 182.328 117.919 182.888 117.528C183.448 117.137 184.136 116.973 184.812 117.071C186.806 117.208 186.318 115.427 186.905 114.473C187.2 114.001 187.296 113.432 187.172 112.89C187.048 112.348 186.715 111.877 186.245 111.581C184.838 110.918 183.384 110.363 181.894 109.917C181.074 109.58 181.099 111.329 180.328 111.852C179.979 112.093 179.791 112.647 179.298 112.52C178.48 112.324 178.89 111.694 178.908 111.2C178.927 110.705 178.867 110.306 178.826 109.883L182.575 108.232L186.836 107.003C191.665 106.114 196.465 104.691 201.389 104.679C201.744 107.469 204.239 109.638 203.832 112.709C203.797 113.03 204.23 113.547 204.565 113.734C205.178 114.069 205.65 113.63 205.829 113.098C206.355 111.625 207.201 112.222 208.357 112.298C210.559 112.437 210.774 113.993 211.684 115.263C212.593 116.533 212.033 117.649 211.333 118.69C210.904 119.344 210.39 120.269 209.474 119.963C208.215 119.613 208.163 118.381 208.016 117.311C207.935 116.465 207.513 115.936 206.59 116.134C205.668 116.332 205.061 117.08 205.536 117.921C206.302 119.292 205.762 120.286 205.058 121.393C204.724 121.906 204.48 122.674 205.216 123.042C205.952 123.409 206.168 122.808 206.366 122.253C206.453 121.996 206.631 121.781 206.868 121.649C207.104 121.518 207.381 121.478 207.644 121.539C207.789 121.545 207.93 121.583 208.058 121.652C208.185 121.72 208.295 121.817 208.379 121.935C208.463 122.053 208.519 122.188 208.543 122.331C208.567 122.473 208.558 122.62 208.516 122.758C207.328 126.233 210.462 125.473 211.938 126.262C212.573 126.606 213.523 126.581 213.601 125.566C213.679 124.552 213.002 124.343 212.142 124.392C211.557 124.448 210.685 125.408 210.47 124.071C210.331 123.197 211.075 122.853 211.848 122.691C211.983 122.856 212.159 122.984 212.358 123.061C212.557 123.138 212.773 123.161 212.984 123.129C213.426 123.514 214.096 123.308 213.895 122.922C212.754 120.842 214.335 119.289 214.749 117.553C215.43 114.718 218.195 115.712 219.995 115.19C221.518 114.748 220.901 116.537 221.174 117.332C221.447 118.126 221.788 118.367 222.522 118.374C223.256 118.38 223.937 118.413 224.002 119.206C224.196 121.224 225.47 121.386 227.066 121.365C228.055 121.377 229.039 121.499 230.001 121.729C230.139 121.747 230.271 121.794 230.39 121.866C230.509 121.938 230.611 122.034 230.69 122.149C230.769 122.263 230.823 122.392 230.849 122.529C230.875 122.665 230.871 122.806 230.839 122.941C230.823 123.079 230.77 123.211 230.687 123.322C230.603 123.433 230.491 123.52 230.362 123.574C230.233 123.627 230.093 123.646 229.955 123.627C229.817 123.608 229.686 123.553 229.576 123.467C226.766 121.777 225.484 125.424 223.117 125.279C222.998 125.29 222.681 125.747 222.73 125.918C223.185 127.702 223.136 130.159 224.321 131.107C226.884 133.182 229.044 136.303 232.996 136.198C233.701 136.131 234.265 136.876 234.51 137.608C234.874 138.668 234.414 140.376 236.288 140.514C238.162 140.651 237.71 138.681 238.578 137.919C239.648 136.973 239.523 136.351 238.288 135.692C237.407 135.21 236.678 134.491 236.185 133.616C235.572 132.58 234.465 131.427 235.866 130.286C236.401 129.72 237.136 129.386 237.914 129.354C238.692 129.323 239.452 129.596 240.031 130.117C241.965 131.793 244.277 131.133 246.124 130.541C247.547 130.087 248.333 129.946 249.442 130.901C250.032 131.458 251.504 131.744 251.231 130.84C250.633 128.817 251.803 127.556 252.355 126.003C252.433 125.861 252.475 125.703 252.478 125.541C252.481 125.38 252.445 125.22 252.374 125.075C252.302 124.931 252.196 124.805 252.065 124.71C251.934 124.615 251.783 124.553 251.623 124.53C250.127 124.224 250.237 123.086 250.123 122.013C249.994 120.668 249.865 119.313 249.735 117.957C249.652 117.089 248.913 116.809 248.187 116.649C248.057 116.602 247.919 116.585 247.782 116.597C247.644 116.61 247.512 116.653 247.393 116.723C247.274 116.793 247.172 116.888 247.095 117.002C247.017 117.116 246.965 117.245 246.943 117.381C246.826 119.582 244.594 120.507 243.895 122.347C243.572 123.21 242.948 123.894 242.055 123.366C241.866 123.238 241.707 123.071 241.587 122.876C241.467 122.682 241.39 122.464 241.36 122.237C241.33 122.011 241.348 121.781 241.413 121.562C241.478 121.343 241.589 121.14 241.738 120.967C242.141 120.506 242.613 120.111 243.136 119.793C241.04 118.483 240.487 116.018 240.811 113.24C241.057 111.114 242.727 112.903 243.213 111.915C244.702 111.575 245.783 112.577 246.964 113.143C252.699 115.878 257.685 119.713 262.788 123.395C263.072 123.849 263.346 124.315 263.62 124.771C262.519 125.73 261.695 126.729 262.977 128.116C263.136 128.287 263.256 128.746 263.167 128.843C262.271 129.771 262.367 131.918 260.23 131.313C259.787 131.191 259.315 131.245 258.912 131.463C258.508 131.681 258.205 132.047 258.065 132.484C257.917 132.761 257.861 133.324 258.031 133.494C258.79 134.221 259.292 133.297 259.919 133.094C261.169 132.668 261.046 133.435 260.935 134.223C260.693 135.921 259.174 137.435 259.182 138.77C259.061 141.857 257.661 144.257 256.416 146.806C253.68 145.317 251.878 142.501 248.804 141.493C248.774 140.146 249.123 138.818 249.811 137.661C250.5 136.503 251.5 135.563 252.697 134.946C253.207 134.668 253.569 134.217 253.205 133.617C252.841 133.017 252.361 133.041 251.815 133.389C251.473 133.667 251.08 133.875 250.659 134.003C247.281 134.502 247.102 134.694 247.379 138.039C247.491 139.211 247.603 140.382 247.714 141.543C246.726 141.58 245.759 141.846 244.891 142.32C244.023 142.795 243.277 143.465 242.712 144.277C239.776 147.908 236.698 151.421 233.69 154.993C229.877 154.942 232.1 151.073 230.411 149.549C229.626 150.609 230.102 151.582 230.18 152.505C230.32 153.969 230.338 155.533 229.481 156.633C228.393 157.963 228.806 159.073 229.321 160.337C220.489 171.319 212.032 182.32 202.959 192.954C202.56 193.397 202.077 193.755 201.537 194.008C200.997 194.261 200.412 194.403 199.817 194.426C196.357 194.757 194.306 192.765 192.527 190.198C194.03 188.401 193.934 186.944 191.796 185.649C190.704 184.987 189.739 183.821 190.519 182.487C191.178 181.542 191.565 180.434 191.636 179.284C191.708 178.135 191.461 176.987 190.924 175.968C190.471 175.125 191.014 174.394 191.518 173.722C191.632 173.576 191.797 173.479 191.98 173.451C192.162 173.423 192.349 173.467 192.5 173.573C193.28 174.057 193.171 174.746 193.002 175.495C192.914 175.937 192.887 176.389 192.922 176.839C192.89 177.16 192.972 177.482 193.154 177.749C193.335 178.016 193.605 178.21 193.916 178.298C194.597 178.441 195.109 177.954 195.583 177.536C195.698 177.464 195.795 177.366 195.867 177.25C195.938 177.134 195.982 177.004 195.996 176.868C196.009 176.733 195.992 176.596 195.944 176.469C195.897 176.341 195.821 176.226 195.722 176.133C194.697 175.136 195.1 174.32 195.721 173.265C196.917 171.235 196.397 170.496 194.022 170.603C193.664 170.638 193.035 170.698 193.098 170.44C193.735 168.409 191.923 166.174 193.303 164.356C196.048 160.678 198.06 156.884 197.982 152.075C197.94 150.262 197.829 149.221 195.767 149.397C195.127 149.458 194.4 149.528 194.171 148.74C193.11 145.087 192.41 147.945 191.84 148.963C191.424 149.649 190.382 150.197 190.822 151.25C191.74 152.038 193.262 149.757 193.77 151.865C194.225 153.759 192.623 153.486 191.567 153.773C190.511 154.06 190.413 154.639 190.464 155.63C190.559 157.462 190.497 159.299 190.279 161.121C190.133 162.23 189.982 163.963 188.081 162.284C187.221 161.534 187.138 162.724 186.826 163.126C186.514 163.528 186.117 164.289 187.127 164.553C188.137 164.818 188.757 165.229 188.447 166.222C188.3 166.734 188.016 167.196 187.627 167.559C187.238 167.922 186.757 168.172 186.237 168.284C185.161 168.485 184.557 167.887 184.304 166.849C184.147 166.24 183.54 165.729 183.166 166.389C182.362 167.943 180.493 168.998 180.861 171.119C181.228 173.241 180.881 175.222 178.777 175.873C176.427 176.59 175.899 174.058 175.529 172.703C174.903 170.398 172.472 168.212 174.542 165.485C174.641 165.356 174.71 165.207 174.743 165.048C174.777 164.889 174.774 164.724 174.736 164.566C174.698 164.408 174.625 164.261 174.522 164.135C174.42 164.009 174.29 163.907 174.143 163.838C173.482 163.441 173.034 163.681 172.548 164.319C171.922 165.211 171.573 166.601 169.884 165.417C167.988 164.132 166.707 165.042 166.693 167.408C166.728 168 166.553 168.586 166.198 169.061C165.842 169.536 165.33 169.87 164.752 170.002C164.167 170.179 163.122 170.695 163.117 170.071C163.065 167.362 161.147 165.958 159.611 164.211C159.414 163.897 159.315 163.53 159.326 163.159C159.337 162.788 159.458 162.428 159.674 162.126C160.406 160.961 159.994 160.092 159.46 158.862C158.339 156.299 155.988 154.148 156.184 151.163C156.379 148.178 153.937 148.959 152.665 148.709C151.114 148.398 150.567 149.654 150.522 151.355C150.518 153.72 150.169 155.899 146.919 156.363C144.684 156.687 142.6 158.693 143.027 160.863C143.553 163.505 142.041 164.625 140.844 166.184C140.463 166.669 139.553 166.647 140.069 167.813C140.923 169.756 139.785 170.095 138.071 169.799C136.568 169.538 134.969 168.039 134.122 168.229C131.915 168.725 129.773 167.846 127.675 168.452C128.173 166.216 128.681 163.978 129.221 161.737L134.942 148.108ZM200.325 117.227C200.215 116.077 200.104 114.916 199.918 113.774C199.774 113.076 199.396 112.324 198.45 112.962C197.792 113.408 196.854 118.128 197.457 118.596C199.042 119.834 198.831 117.052 200.065 117.252C200.152 117.264 200.241 117.256 200.325 117.227C200.395 120.811 200.004 121.187 196.425 122.22C196.085 122.291 195.763 122.432 195.481 122.635C195.198 122.837 194.96 123.096 194.783 123.395C194.606 123.694 194.493 124.027 194.451 124.372C194.409 124.717 194.44 125.067 194.541 125.399C195.019 127.193 196.206 125.875 196.867 125.571C197.332 125.287 197.886 125.187 198.421 125.292C198.956 125.397 199.432 125.698 199.756 126.137C200.175 126.633 200.597 127.151 201.339 126.784C201.64 126.647 201.887 126.412 202.039 126.118C202.192 125.823 202.241 125.486 202.179 125.16C201.947 123.726 202.157 122.255 202.782 120.943C203.481 119.782 204.255 118.722 203.408 117.534C202.561 116.345 201.425 117.286 200.325 117.227ZM222.522 143.288C223.305 145.632 222.488 147.965 222.686 150.256C222.771 151.145 222.72 152.322 223.829 152.478C225.749 152.754 226.469 151.131 227.084 149.78C227.699 148.429 227.895 146.823 226.22 146.36C225.43 146.12 224.696 145.724 224.061 145.197C223.426 144.669 222.903 144.02 222.522 143.288ZM139.918 160.745C143.369 161.126 140.116 157.442 142.077 156.773C142.66 156.574 142.633 155.953 142.284 155.395C141.854 154.681 141.337 154.764 140.673 155.035C140.01 155.307 139.257 155.444 138.852 154.531C138.572 153.89 138.742 152.472 137.619 153.084C136.495 153.695 137.135 154.892 137.547 155.761C137.959 156.631 138.77 157.1 138.014 158.355C136.795 160.365 137.341 160.926 139.918 160.745ZM240.067 140.206L240.465 139.566C240.258 139.455 240.04 139.235 239.867 139.262C239.695 139.29 239.569 139.575 239.422 139.754L240.067 140.206Z" fill="#DF2A2F"/>
<path d="M178.826 109.881C178.87 110.337 178.912 110.782 178.868 111.235C178.824 111.688 178.441 112.37 179.257 112.555C179.794 112.679 179.982 112.124 180.288 111.887C181.059 111.364 181.034 109.626 181.854 109.953C183.348 110.4 184.806 110.96 186.217 111.626C186.685 111.914 187.022 112.374 187.155 112.908C187.287 113.441 187.206 114.006 186.928 114.48C186.341 115.434 186.829 117.215 184.835 117.078C184.159 116.981 183.471 117.144 182.911 117.535C182.351 117.926 181.96 118.516 181.819 119.184C181.309 120.721 182.02 121.288 183.175 121.922C184.33 122.556 183.562 123.56 183.41 124.373C183.258 125.187 183.05 126.214 182.007 126.522C181.306 126.742 180.794 126.31 180.334 125.85C179.608 125.132 180.134 124.567 180.581 123.977C181.028 123.386 182.07 123.177 181.175 122.289C180.569 121.679 180.025 122.289 179.468 122.529C177.856 123.112 176.369 123.997 175.088 125.138C174.699 125.525 174.207 125.879 173.647 125.516C173.087 125.154 173.329 124.595 173.509 124.074C174.257 122.054 173.359 120.563 171.787 119.466C171.545 119.255 171.264 119.095 170.959 118.994C170.655 118.894 170.333 118.855 170.013 118.881C169.694 118.906 169.382 118.995 169.097 119.143C168.812 119.291 168.56 119.494 168.355 119.74C167.591 120.908 166.749 122.86 168.191 123.861C169.633 124.861 169.213 125.613 168.911 126.572C168.655 127.158 168.581 127.808 168.698 128.436C168.815 129.065 169.117 129.644 169.566 130.1C170.754 131.081 171.188 129.55 171.928 129.053C172.32 128.796 172.746 128.558 173.159 128.88C173.274 128.957 173.368 129.061 173.434 129.183C173.501 129.304 173.536 129.44 173.539 129.578C173.541 129.716 173.511 129.853 173.449 129.977C173.387 130.101 173.297 130.208 173.185 130.29C171.514 131.818 170.429 133.4 170.802 135.925C171.039 137.479 169.289 137.034 168.325 137.257C167.198 137.486 166.466 136.932 166.61 135.801C166.9 133.464 166.196 133.083 164.371 134.483C164.176 134.667 163.932 134.79 163.668 134.837C163.404 134.884 163.132 134.852 162.886 134.746C159.473 133.398 157.751 134.045 156.25 137.231C156.023 137.713 155.92 138.358 155.246 138.171C154.709 138.047 154.764 137.483 154.69 137.053C154.501 135.975 154.738 134.867 155.352 133.962C155.967 133.057 156.909 132.427 157.98 132.206C159.145 131.919 160.334 131.531 160.517 130.124C160.62 129.26 160.725 128.188 159.718 127.726C158.481 127.155 156.79 126.529 155.881 127.437C153.877 129.369 153.038 128.257 152.031 126.656L152.58 125.761L165.295 115.786C167.028 115.718 168.27 114.625 169.607 113.731L177.742 109.985L178.826 109.881Z" fill="#DA0C0C"/>
<path d="M189.299 269.627C189.206 269.34 189.102 269.055 189.01 268.779C190.879 267.155 191.806 263.125 195.545 266.281C195.819 266.507 196.638 266.264 197.08 266.079C197.274 265.974 197.419 265.797 197.484 265.586C197.55 265.376 197.531 265.148 197.432 264.951C197.306 264.667 196.862 264.261 196.724 264.307C194.521 265.186 194.289 263.446 194.055 262.144C193.761 260.563 192.819 260.675 191.683 260.806C191.428 259.177 193.91 258.917 193.532 257.257C193.19 255.856 194.045 255.183 194.941 254.484C196.639 254.726 198.298 255.257 199.946 254.059C200.067 253.992 200.2 253.95 200.338 253.936C200.476 253.923 200.615 253.938 200.746 253.981C200.878 254.024 200.999 254.093 201.103 254.186C201.206 254.278 201.289 254.39 201.347 254.516C201.564 254.955 201.579 255.687 201.211 255.722C199.432 255.893 199.92 258.134 198.383 258.653C197.143 259.078 197.672 260.035 198.634 260.249C199.277 260.439 199.961 260.441 200.605 260.253C201.249 260.065 201.825 259.696 202.265 259.19C203.016 258.122 203.542 256.637 204.953 257.203C206.594 257.878 208.671 258.423 209.175 260.597C209.409 261.56 209.556 262.41 210.82 262.235C211.427 262.176 212.171 262.28 212.389 261.471C212.547 260.843 212.119 260.479 211.641 260.175C209.562 258.808 208.861 257.212 210.648 255.07C211.298 254.307 211.596 253.535 210.321 252.912C209.047 252.29 209.334 251.058 209.434 250.053C209.535 249.047 210.635 249.215 211.385 249.045C212.109 250.442 212.564 252.106 213.622 253.209C214.68 254.312 215.488 255.318 213.961 256.745C214.336 256.791 214.707 256.858 215.075 256.945C216.863 257.562 217.897 257.047 218.549 255.167C219.201 253.288 218.335 252.933 216.841 252.759C216.61 252.717 216.405 252.586 216.269 252.394C216.134 252.202 216.08 251.965 216.119 251.733C216.245 248.141 213.889 248.225 211.432 248.515C211.053 245.694 213.607 245.625 215.128 244.592C215.193 244.586 215.345 244.572 215.378 244.568C218.342 248.663 222.072 244.869 225.32 245.532L225.476 247.159C224.871 247.927 224.167 248.613 223.384 249.198C221.711 250.125 222.042 250.728 222.964 252.238C224.43 254.637 225.444 254.474 226.977 252.543C227.398 252.021 227.778 251.306 228.602 251.227L229.197 251.728C229.648 253.579 230.675 254.586 232.71 254.118C232.769 254.736 232.858 255.669 232.071 255.678C230.281 255.729 230.392 257.229 229.82 258.226C229.108 258.183 228.438 257.876 227.941 257.364C227.445 256.853 227.157 256.174 227.136 255.461C225.43 256.161 224.88 257.735 223.759 258.708C222.414 259.865 223.192 261.477 223.492 262.663C223.739 263.646 225.251 262.976 226.187 262.919C228.732 262.752 228.423 261.008 227.8 259.076C228.97 259.681 230.233 260.085 231.537 260.272C231.99 261.455 230.972 265.8 229.915 266.196C228.147 266.935 228.443 264.881 227.441 264.135C226.724 265.169 225.671 265.924 224.461 266.27C225.56 267.456 227.599 267.381 227.43 269.27L225.261 269.477C225.133 269.063 224.992 268.616 224.447 268.636C223.731 268.704 223.692 269.212 223.683 269.804C223.639 269.974 223.656 270.154 223.732 270.313L223.168 270.258L219.931 270.743L217.744 270.756C219.048 268.376 217.828 267.069 215.639 267.29C213.773 267.469 211.615 265.738 209.949 267.999C209.592 268.493 208.658 268.002 208.306 267.522C206.268 264.641 205.299 265.5 204.771 268.44C204.599 269.387 203.449 269.946 203.545 271.065C202.937 271.123 202.31 271.084 201.684 271.068C197.535 270.94 193.521 269.485 189.299 269.627Z" fill="#DA0C0C"/>
<path d="M208.001 271.427C206.537 271.228 205.019 271.712 203.588 271.061C203.484 269.977 204.642 269.384 204.814 268.437C205.343 265.497 206.311 264.638 208.349 267.518C208.702 267.999 209.635 268.49 209.993 267.996C211.659 265.735 213.818 267.476 215.682 267.287C217.851 267.079 219.07 268.374 217.787 270.752L209.631 271.533C209.383 271.4 209.109 271.322 208.828 271.303C208.546 271.285 208.265 271.327 208.001 271.427Z" fill="#DA0C0C"/>
<path d="M243.108 111.968C242.619 112.913 240.944 111.081 240.707 113.293C240.382 116.071 240.935 118.536 243.031 119.846C242.508 120.164 242.036 120.56 241.633 121.02C241.484 121.193 241.374 121.396 241.308 121.615C241.243 121.834 241.225 122.064 241.255 122.291C241.285 122.517 241.362 122.735 241.482 122.929C241.602 123.124 241.762 123.291 241.95 123.42C242.854 123.946 243.469 123.274 243.79 122.4C244.489 120.56 246.725 119.678 246.839 117.434C246.861 117.298 246.912 117.169 246.99 117.055C247.068 116.941 247.17 116.846 247.288 116.776C247.407 116.706 247.54 116.663 247.677 116.651C247.814 116.638 247.952 116.655 248.082 116.702C248.809 116.863 249.514 117.145 249.63 118.01C249.76 119.366 249.89 120.722 250.019 122.067C250.122 123.151 250.02 124.256 251.518 124.583C251.678 124.607 251.83 124.669 251.96 124.764C252.091 124.859 252.197 124.984 252.269 125.128C252.341 125.273 252.377 125.433 252.373 125.595C252.37 125.756 252.328 125.915 252.25 126.056C251.699 127.609 250.528 128.87 251.127 130.893C251.399 131.797 249.927 131.511 249.338 130.955C248.279 129.961 247.497 130.135 246.019 130.594C244.172 131.187 241.86 131.846 239.926 130.17C239.347 129.65 238.588 129.376 237.81 129.408C237.032 129.439 236.297 129.773 235.762 130.339C234.371 131.48 235.47 132.557 236.081 133.669C236.573 134.545 237.302 135.264 238.184 135.745C239.407 136.405 239.543 137.027 238.474 137.972C237.605 138.734 238.047 140.717 236.183 140.567C234.319 140.417 234.775 138.775 234.405 137.661C234.16 136.929 233.6 136.228 232.891 136.252C228.939 136.357 226.78 133.236 224.217 131.161C223.028 130.18 223.07 127.757 222.625 125.971C222.609 125.798 222.891 125.322 223.013 125.332C225.38 125.477 226.661 121.83 229.472 123.52C229.581 123.606 229.712 123.661 229.85 123.68C229.988 123.699 230.129 123.68 230.257 123.627C230.386 123.573 230.498 123.486 230.582 123.375C230.666 123.264 230.719 123.132 230.735 122.994C230.767 122.859 230.77 122.719 230.744 122.582C230.718 122.446 230.664 122.316 230.585 122.202C230.506 122.088 230.404 121.991 230.285 121.919C230.167 121.847 230.034 121.8 229.896 121.783C228.935 121.553 227.95 121.43 226.961 121.418C225.365 121.44 224.069 121.279 223.898 119.259C223.822 118.468 223.083 118.407 222.417 118.427C221.751 118.447 221.291 118.097 221.069 117.385C220.848 116.673 221.413 114.801 219.89 115.243C218.08 115.766 215.314 114.773 214.644 117.606C214.313 119.291 212.713 120.867 213.875 122.945C214.098 123.329 213.406 123.537 212.964 123.153C212.82 122.674 213.045 121.941 212.286 121.893C211.878 121.867 211.849 122.362 211.828 122.714C211.055 122.876 210.311 123.221 210.45 124.094C210.665 125.431 211.577 124.435 212.122 124.416C212.979 124.334 213.652 124.729 213.581 125.589C213.51 126.45 212.586 126.626 211.918 126.285C210.442 125.496 207.308 126.256 208.496 122.782C208.532 122.648 208.538 122.507 208.514 122.371C208.49 122.234 208.436 122.105 208.356 121.991C208.276 121.878 208.173 121.783 208.052 121.714C207.932 121.645 207.798 121.603 207.66 121.592C207.396 121.531 207.12 121.57 206.883 121.702C206.647 121.834 206.468 122.049 206.382 122.305C206.183 122.861 205.868 123.449 205.232 123.094C204.596 122.739 204.729 121.96 205.074 121.445C205.799 120.336 206.317 119.345 205.551 117.974C205.077 117.132 205.651 116.388 206.606 116.187C207.561 115.986 207.918 116.521 208.032 117.364C208.136 118.448 208.252 119.663 209.49 120.015C210.435 120.286 210.916 119.364 211.349 118.743C212.048 117.702 212.685 116.688 211.699 115.316C210.714 113.943 210.521 112.495 208.373 112.35C207.271 112.27 206.385 111.709 205.844 113.151C205.642 113.663 205.193 114.122 204.581 113.786C204.246 113.6 203.813 113.083 203.848 112.762C204.238 109.638 201.743 107.468 201.309 104.653L202.949 104.288C216.237 103.446 229.542 105.626 241.867 110.664C242.229 111.133 243.043 111.175 243.108 111.968Z" fill="#DA0C0C"/>
<path d="M162.92 257.497L162.228 257.355C157.762 254.145 153.526 250.626 149.552 246.824L141.93 238.206L139.66 235.073C139.643 234.9 139.626 234.726 139.611 234.564C139.968 233.949 140.364 233.397 140.681 232.71C141.458 231.223 142.277 230.061 143.692 232.148C144.202 232.909 144.775 232.832 145.572 232.581C147.34 232.202 148.946 231.283 150.169 229.951C151.832 228.117 153.387 226.873 153.798 224.196C154.087 222.296 153.658 220.674 151.503 220.453C150.692 220.448 149.886 220.585 149.122 220.856C148.546 221.01 148.051 221.101 147.701 220.533C147.352 219.964 147.818 219.35 148.258 218.914C148.98 218.221 149.977 218.465 150.829 218.219C151.703 217.999 152.49 217.519 153.086 216.842C153.681 216.166 154.058 215.324 154.165 214.429C154.282 213.477 152.978 211.971 152.105 212.339C150.002 213.241 146.915 211.862 145.892 215.123C145.614 215.993 145.102 215.899 144.504 215.256C143.147 213.887 141.987 215.267 140.816 215.609C140.275 215.782 140.333 216.619 140.649 217.059C141.382 218.084 142.133 219.183 143.704 218.682C143.965 218.657 144.238 218.423 144.473 218.477C145.737 218.761 146.048 219.837 146.281 220.899C146.417 221.52 146.197 222.647 145.618 222.319C143.192 220.986 142.218 223.05 140.899 224.129C138.98 225.692 136.644 225.412 134.495 225.837C132.6 222.241 130.946 218.523 129.544 214.708C129.085 212.77 128.615 210.834 128.11 208.879C128.642 208.828 129.195 208.775 129.736 208.822C130.276 208.869 131.233 209.489 131.677 208.636C132.121 207.784 131.292 207.359 130.785 206.861C129.802 205.86 130.421 205.582 131.386 205.26C131.912 205.1 132.363 204.76 132.66 204.298C132.956 203.836 133.079 203.284 133.006 202.74C133.021 202.201 132.871 201.67 132.575 201.218C132.28 200.767 131.853 200.418 131.352 200.217C127.706 198.376 127.594 197.205 130.629 194.725C131.289 194.191 132.694 193.433 131.536 192.766C130 191.819 130.86 188.562 127.902 189.108C127.805 189.117 127.471 188.602 127.509 188.544C128.369 187.465 128.649 185.709 130.297 185.54C131.944 185.371 131.28 186.891 131.477 187.693C132.337 191.19 133.852 194.208 137.344 195.702C138.487 196.205 140.112 196.947 139.833 194.369C139.664 192.612 140.899 191.902 142.366 191.335C142.607 193.852 142.608 193.862 144.807 192.831C145.163 192.627 145.561 192.51 145.97 192.49C146.379 192.47 146.787 192.547 147.16 192.715C147.451 192.854 147.683 193.092 147.813 193.386C147.944 193.681 147.965 194.013 147.873 194.321C147.64 195.208 147.005 195.094 146.376 194.804C145.746 194.514 145.057 193.836 144.474 194.723C144.052 195.344 144.589 195.917 144.955 196.429C145.456 197.202 146.169 197.681 146.993 197.022C148.108 196.094 148.254 196.595 149.07 197.567C150.415 199.157 151.155 200.257 149.301 201.924C148.966 202.197 148.961 202.941 148.946 203.468C148.93 203.995 148.921 204.697 149.627 204.979C150.332 205.262 150.711 204.876 151.028 204.407C152.219 203.023 155.055 202.117 152.469 199.573C152.408 199.452 152.377 199.318 152.38 199.182C152.382 199.047 152.417 198.914 152.482 198.795C153.909 196.556 154.394 193.62 157.182 192.445C157.061 194.952 158.368 196.71 160.206 198.186C165.068 202.099 169.912 206.167 174.75 210.17C182.827 216.796 190.887 223.428 198.928 230.064C201.804 232.438 204.186 232.276 206.735 229.525C208.084 228.071 209.372 226.547 210.685 225.052C211.008 227.736 211.008 227.736 213.195 228.403C213.267 228.242 213.416 228.086 213.403 227.945C213.316 227.044 211.581 226.751 212.266 225.788C212.95 224.825 214.088 225.383 215.077 225.431C216.584 225.506 218.088 226.237 219.606 225.523C220.195 225.269 220.921 225.539 221.028 225.967C221.42 227.549 222.19 228.045 223.883 228.014C224.697 227.936 224.665 229.198 223.836 229.573C223.109 229.945 222.276 230.052 221.479 229.875C219.454 229.073 219.262 231.302 218.219 231.61C217.176 231.918 216.004 229.283 214.905 229.914C213.805 230.544 210.726 230.741 211.978 233.642C212.026 233.772 212.047 233.91 212.039 234.048C212.032 234.186 211.996 234.321 211.935 234.445C211.313 235.501 212.501 237.5 210.913 237.718C209.828 237.821 210.008 235.812 209.311 234.937C208.777 234.277 208.904 232.513 207.434 233.278C205.964 234.043 207.587 234.873 207.667 235.708C207.786 236.447 208.093 237.144 208.559 237.73C209.026 238.316 209.635 238.772 210.329 239.054C212.038 239.985 211.349 242.503 211.987 244.248C212.179 244.766 211.34 245.263 210.614 245.223C209.888 245.183 209.388 244.65 209.138 243.875C208.395 241.597 207.067 239.554 205.287 237.95C205.462 239.772 205.638 241.605 205.813 243.438C205.886 244.198 206.285 245.167 205.311 245.621C204.871 245.87 204.37 245.989 203.866 245.964C203.361 245.939 202.874 245.77 202.462 245.478C201.532 244.79 200.699 243.863 199.34 244.19C198.41 243.392 196.232 244.082 196.451 242.025C196.67 239.968 196.471 238.805 194.055 239.059C193.794 239.083 193.433 238.505 193.16 238.17C192.041 236.554 190.586 235.2 188.894 234.2C188.1 233.794 187.618 232.308 186.507 233.159C185.395 234.01 183.7 234.369 183.109 236.538C182.4 239.19 184.194 242.039 182.147 244.435C181.832 244.805 182.231 245.314 182.663 245.481C183.095 245.647 183.509 245.279 183.697 244.845C184.596 242.121 185.702 242.924 186.872 244.629C187.673 245.789 188.695 246.063 189.341 244.699C189.988 243.334 191.466 242.087 191.982 242.563C193.041 243.556 194.544 244.507 194.649 246.292C193.981 246.06 192.993 245.684 192.851 246.606C192.622 248.095 191.241 248.074 190.529 248.876L186.785 249.782C186.688 249.452 186.652 249.072 186.212 249.049C186.125 249.057 185.928 249.284 185.957 249.358C186.063 249.785 186.444 249.76 186.785 249.782C186.631 252.511 189.065 255.179 187.01 257.959C184.696 257.907 182.984 257.173 182.814 254.486C182.739 253.705 182.281 253.037 181.39 253.21C180.498 253.383 180.691 254.372 180.728 254.992C180.876 256.532 181.022 258.062 181.17 259.602C181.253 260 181.188 260.414 180.985 260.767C180.783 261.119 180.458 261.385 180.073 261.513C179.151 261.952 178.63 261.652 177.935 261.018C176.284 259.556 176.538 257.867 177.043 256.057C177.95 252.839 177.116 251.671 173.857 251.589C172.76 251.563 172.099 251.396 172.131 250.134C172.154 249.464 173.039 248.187 171.63 248.332C170.546 248.436 170.927 249.79 171.1 250.682C171.146 250.855 171.214 251.021 171.301 251.177C172.107 252.742 171.13 253.624 169.962 254.228C167.96 255.263 169.177 253.34 168.813 252.86C168.085 251.89 167.328 252.434 166.619 252.808C165.194 253.579 164.064 253.666 163.43 251.854C163.312 251.509 163.08 251.213 162.774 251.014C162.467 250.815 162.102 250.725 161.738 250.758C161.509 250.767 161.291 250.858 161.123 251.015C160.955 251.172 160.849 251.383 160.824 251.611C160.754 251.782 160.721 251.965 160.725 252.15C160.729 252.334 160.772 252.516 160.849 252.683C160.927 252.85 161.038 252.999 161.176 253.122C161.314 253.244 161.476 253.336 161.651 253.393C164.091 254.178 163.571 255.836 162.92 257.497ZM185.783 224.799C185.491 224.432 185.121 224.135 184.7 223.929C184.279 223.723 183.817 223.614 183.348 223.61C182.405 223.59 182.95 224.48 183.071 225.059C183.539 227.204 184.637 229.288 182.757 231.263C182.636 231.399 182.545 231.559 182.49 231.732C182.436 231.906 182.418 232.089 182.438 232.27C182.459 232.45 182.517 232.625 182.609 232.782C182.701 232.939 182.825 233.074 182.974 233.18C183.846 233.83 184.275 233.165 184.603 232.477C184.931 231.788 185.345 231.311 186.257 231.464C187.169 231.618 187.213 231.044 186.822 230.512C185.523 228.831 184.343 227.138 185.783 224.799ZM146.921 199.59C146.538 198.904 145.985 197.928 145.195 198.245C144.505 198.467 143.903 198.904 143.479 199.492C143.055 200.08 142.83 200.789 142.837 201.514C142.85 202.334 143.516 202.543 144.199 202.358C144.885 202.239 145.516 201.908 146.004 201.411C146.493 200.915 146.813 200.278 146.921 199.59Z" fill="#DF2A2F"/>
<path d="M157.182 192.445C154.351 193.624 153.864 196.539 152.482 198.795C152.417 198.914 152.382 199.047 152.38 199.183C152.378 199.318 152.408 199.452 152.469 199.573C155.055 202.117 152.22 203.024 151.028 204.408C150.663 204.826 150.231 205.228 149.627 204.98C149.023 204.731 148.97 203.948 149 203.343C149.029 202.738 149.02 202.071 149.355 201.798C151.215 200.186 150.474 199.086 149.124 197.442C148.304 196.426 148.162 195.969 147.047 196.896C146.245 197.553 145.507 197.044 145.009 196.304C144.664 195.789 144.106 195.219 144.528 194.598C145.114 193.743 145.789 194.39 146.43 194.679C147.07 194.968 147.694 195.083 147.927 194.196C148.019 193.887 147.998 193.556 147.867 193.261C147.737 192.967 147.505 192.728 147.214 192.589C146.841 192.422 146.433 192.345 146.024 192.365C145.615 192.385 145.217 192.502 144.861 192.705C142.673 193.736 142.672 193.725 142.42 191.21C140.953 191.777 139.697 192.489 139.887 194.244C140.138 196.869 138.567 196.121 137.398 195.577C133.959 194.176 132.444 191.158 131.551 187.664C131.354 186.862 132.007 185.344 130.371 185.511C128.734 185.679 128.443 187.436 127.583 188.515C127.588 188.569 127.879 189.089 127.976 189.079C130.891 188.537 130.028 191.762 131.61 192.738C132.772 193.436 131.342 194.164 130.703 194.696C127.657 197.177 127.774 198.392 131.426 200.188C131.921 200.394 132.342 200.746 132.631 201.198C132.921 201.649 133.066 202.178 133.047 202.714C133.132 203.265 133.015 203.827 132.719 204.298C132.422 204.769 131.965 205.116 131.432 205.277C130.467 205.6 129.85 205.9 130.83 206.878C131.338 207.377 132.138 207.848 131.723 208.654C131.307 209.46 130.455 208.907 129.781 208.84C129.107 208.773 128.691 208.879 128.111 208.879C127.486 207.736 127.178 206.447 127.217 205.145C127.376 205.132 127.531 205.084 127.67 205.004C127.809 204.925 127.929 204.816 128.021 204.684C128.112 204.553 128.174 204.404 128.202 204.246C128.229 204.088 128.222 203.926 128.18 203.772C128.014 202.956 127.347 202.965 126.711 202.949L126.5 203.035C125.859 196.342 124.935 189.666 125.154 182.924C125.558 179.601 125.951 176.28 126.388 172.954C126.435 172.877 126.466 172.791 126.478 172.701C126.49 172.611 126.484 172.52 126.459 172.433L127.404 168.588L127.667 168.475C129.797 167.866 131.906 168.747 134.114 168.251C134.96 168.061 136.559 169.561 138.062 169.822C139.797 170.115 140.936 169.776 140.061 167.835C139.544 166.67 140.456 166.703 140.835 166.207C142.032 164.647 143.544 163.528 143.018 160.886C142.593 158.737 144.675 156.709 146.91 156.386C150.149 155.922 150.509 153.742 150.513 151.378C150.525 149.68 151.105 148.42 152.656 148.731C153.917 148.983 156.356 148.158 156.175 151.186C155.994 154.213 158.33 156.321 159.451 158.885C159.981 160.071 160.397 160.983 159.666 162.148C159.45 162.45 159.328 162.81 159.317 163.181C159.306 163.553 159.405 163.919 159.603 164.234C161.138 165.981 163.057 167.384 163.108 170.094C163.113 170.717 164.158 170.201 164.743 170.025C165.321 169.892 165.834 169.558 166.189 169.083C166.544 168.608 166.72 168.023 166.684 167.431C166.698 165.065 167.979 164.154 169.875 165.439C171.559 166.57 171.914 165.244 172.539 164.341C172.982 163.708 173.473 163.464 174.135 163.86C174.286 163.923 174.421 164.02 174.529 164.143C174.638 164.265 174.718 164.411 174.762 164.569C174.807 164.727 174.815 164.892 174.787 165.054C174.758 165.215 174.694 165.368 174.598 165.501C172.528 168.228 174.959 170.415 175.585 172.719C175.956 174.074 176.483 176.607 178.833 175.889C180.959 175.236 181.266 173.182 180.917 171.136C180.568 169.089 182.419 167.96 183.222 166.405C183.553 165.749 184.165 166.315 184.36 166.865C184.616 167.935 185.207 168.503 186.293 168.3C186.828 168.175 187.318 167.902 187.706 167.513C188.095 167.124 188.366 166.633 188.49 166.097C188.8 165.104 188.056 164.65 187.17 164.429C186.284 164.207 186.437 163.525 186.869 163.002C187.3 162.479 187.264 161.409 188.123 162.159C190.025 163.838 190.175 162.094 190.321 160.996C190.54 159.174 190.602 157.337 190.507 155.505C190.412 154.518 190.672 153.913 191.61 153.648C192.547 153.383 194.268 153.634 193.813 151.74C193.302 149.6 191.785 151.935 190.865 151.125C190.424 150.073 191.47 149.557 191.882 148.838C192.457 147.864 193.157 145.005 194.214 148.615C194.443 149.403 195.169 149.334 195.809 149.272C197.87 149.075 197.985 150.159 198.025 151.95C198.135 156.756 196.091 160.553 193.346 164.231C191.969 166.082 193.734 168.288 193.14 170.315C193.073 170.53 193.706 170.502 194.064 170.478C196.44 170.371 196.96 171.11 195.764 173.14C195.143 174.195 194.739 175.011 195.765 176.008C195.869 176.098 195.951 176.211 196.004 176.339C196.057 176.466 196.08 176.604 196.071 176.742C196.062 176.879 196.021 177.013 195.952 177.132C195.883 177.251 195.787 177.353 195.671 177.429C195.197 177.846 194.664 178.335 194.004 178.191C193.693 178.103 193.423 177.909 193.242 177.642C193.06 177.375 192.978 177.053 193.011 176.731C192.975 176.282 193.002 175.83 193.09 175.388C193.259 174.639 193.368 173.949 192.588 173.466C192.437 173.36 192.251 173.316 192.068 173.344C191.885 173.371 191.72 173.468 191.607 173.615C191.098 174.244 190.555 174.974 191.012 175.861C191.549 176.88 191.796 178.027 191.724 179.177C191.653 180.327 191.267 181.435 190.607 182.38C189.829 183.735 190.849 184.896 191.884 185.542C194.022 186.836 194.118 188.294 192.616 190.091C187.385 186.431 182.484 182.322 177.966 177.811C175.532 175.253 171.397 174.587 169.482 176.872C165.199 181.978 160.467 186.624 157.182 192.445ZM187.694 171.844C188.531 172.355 187.146 173.779 188.579 174.003C188.855 174.014 189.126 173.934 189.352 173.776C189.578 173.618 189.746 173.39 189.831 173.128C190.363 171.916 190.748 170.644 190.978 169.34C191.079 168.444 190.283 167.677 189.396 168.474C188.509 169.27 187.195 170.173 187.694 171.844ZM172.112 174.737C172.446 173.085 173.304 171.876 172.297 170.615C171.998 170.238 171.473 170.694 171.244 171.044C170.227 172.313 170.678 173.364 172.112 174.737Z" fill="#DA0C0C"/>
<path d="M187.967 103.731C187.967 103.731 187.821 103.81 187.793 103.747C187.765 103.684 187.781 103.617 187.709 103.558C187.638 103.499 187.861 103.544 187.883 103.542C187.922 103.599 187.95 103.663 187.967 103.731Z" fill="#E9E9E9"/>
<path d="M134.433 225.875C136.581 225.44 138.939 225.717 140.837 224.167C142.156 223.088 143.13 221.025 145.556 222.358C146.135 222.685 146.355 221.559 146.219 220.937C145.985 219.865 145.675 218.8 144.411 218.516C144.176 218.462 143.898 218.642 143.642 218.721C142.071 219.222 141.318 218.111 140.587 217.098C140.271 216.657 140.212 215.82 140.754 215.648C141.921 215.262 143.08 213.882 144.442 215.295C145.035 215.895 145.548 215.988 145.83 215.162C146.856 211.933 150.03 213.303 152.043 212.377C152.916 212.009 154.22 213.515 154.103 214.468C153.996 215.363 153.619 216.204 153.024 216.881C152.428 217.557 151.641 218.037 150.767 218.257C149.915 218.503 148.917 218.259 148.196 218.952C147.756 219.389 147.188 219.859 147.639 220.571C148.091 221.283 148.484 221.048 149.06 220.895C149.824 220.623 150.63 220.487 151.441 220.492C153.596 220.712 154.025 222.335 153.736 224.234C153.325 226.912 151.77 228.155 150.107 229.989C148.884 231.322 147.278 232.241 145.51 232.619C144.713 232.87 144.14 232.947 143.63 232.186C142.218 230.132 141.357 231.309 140.619 232.748C140.296 233.381 139.906 233.988 139.549 234.602C137.56 231.869 135.847 228.946 134.433 225.875Z" fill="#DA0C0C"/>
<path d="M157.183 192.444C160.427 186.66 165.155 181.982 169.391 176.957C171.361 174.667 175.426 175.284 177.876 177.896C182.394 182.407 187.295 186.515 192.526 190.176C194.299 192.699 196.355 194.735 199.815 194.404C200.41 194.381 200.995 194.239 201.535 193.986C202.075 193.733 202.559 193.374 202.957 192.931C212.032 182.32 220.49 171.319 229.121 160.421C230.816 158.832 232.302 157.034 233.545 155.072C236.552 151.5 239.63 147.987 242.566 144.356C243.125 143.545 243.865 142.875 244.728 142.399C245.59 141.923 246.551 141.654 247.535 141.614L248.62 141.51C251.693 142.518 253.495 145.334 256.232 146.823C258.847 149.671 262.406 151.519 264.655 154.774C265.192 157.065 264.366 158.841 263.043 160.796C260.373 164.806 256.861 168.131 254.279 172.143C253.1 173.153 252.105 174.36 251.337 175.709C250.238 176.46 248.925 177.035 248.884 178.67C247.711 179.685 246.717 180.89 245.943 182.235C245.103 182.854 244.429 183.67 243.981 184.613C243.758 184.761 243.551 184.931 243.362 185.121L220.438 212.942C220.166 213.185 219.946 213.479 219.79 213.808C219.633 214.137 219.544 214.494 219.527 214.857C219.061 214.976 218.632 215.21 218.281 215.538C217.93 215.867 217.667 216.279 217.517 216.735C216.154 217.928 214.988 219.329 214.062 220.887C212.707 222.082 211.555 223.49 210.653 225.055C209.34 226.549 208.053 228.074 206.703 229.528C204.154 232.279 201.773 232.441 198.896 230.067C190.863 223.437 182.828 216.803 174.794 210.166C169.956 206.163 165.117 202.149 160.245 198.139C158.41 196.684 157.105 194.948 157.183 192.444Z" fill="#E1D1C6"/>
<path d="M254.284 172.197C256.909 168.18 260.422 164.856 263.048 160.85C264.339 158.898 265.164 157.122 264.66 154.828C265.844 153.018 267.293 152.036 269.57 152.956C270.711 153.438 271.642 152.648 272.264 151.713C272.55 151.27 272.16 150.628 271.802 150.663C268.7 151.529 268.572 150.075 269.4 147.751C269.417 147.661 269.411 147.569 269.384 147.482C269.356 147.395 269.308 147.316 269.243 147.252C265.769 144.235 268.107 140.99 269.678 138.65C271.087 136.567 270.806 135.346 269.691 133.767C268.948 132.743 269.114 131.961 270.145 131.304L271.781 132.384C276.558 138.092 280.701 144.302 284.138 150.904C286.882 157.003 289.088 163.33 290.732 169.812C292.686 179.304 293.065 189.054 291.855 198.669C291.393 202.695 290.511 206.661 289.223 210.502C288.883 210.382 288.542 210.25 288.204 210.151C283.309 208.868 282.612 207.074 285.45 203.103C285.545 202.949 285.621 202.783 285.676 202.61C285.942 202.653 286.204 202.715 286.46 202.798C287.169 203.113 287.282 204.635 288.189 204.165C289.096 203.695 288.655 202.522 288.57 201.512C288.248 197.35 284.591 195.511 282.639 192.502C282.501 192.317 282.297 192.192 282.069 192.153C281.841 192.114 281.607 192.163 281.415 192.291C280.938 192.566 281.038 193.038 280.982 193.482C280.752 195.08 282.539 195.916 282.457 197.456C281.943 200.198 279.67 200.58 277.644 201.365C277.534 201.191 277.49 200.983 277.521 200.779C277.552 200.575 277.655 200.389 277.811 200.255C279.956 198.079 279.985 197.584 278.207 195.368C278.069 195.184 277.939 194.736 278.019 194.663C279.38 193.438 278.976 190.937 281.364 190.501C282.328 190.241 283.242 189.824 284.07 189.267C284.776 188.871 284.91 187.983 284.112 187.884C282.63 187.719 281.595 186.516 280.333 186.363C278.651 186.174 277.176 185.516 277.157 184.062C277.138 182.608 278.511 181.623 280.049 181.344C281.071 181.158 281.569 180.64 281.19 179.658C280.497 177.908 279.761 176.161 278.919 174.457C278.63 173.839 277.883 172.893 277.326 173.712C276.373 175.183 274.589 175.419 273.455 176.601C272.042 178.082 272.186 180.948 273.834 181.928C276.051 183.248 275.967 185.008 273.588 186.33C272.083 187.186 270.902 188 271.762 190.128C272.623 192.257 271.005 192.5 269.098 192.704C269.44 192.188 269.754 191.654 270.039 191.104C270.33 190.375 270.837 189.604 270.113 188.907C269.975 188.793 269.815 188.709 269.643 188.662C269.47 188.614 269.289 188.603 269.113 188.631C268.04 188.854 268.23 189.81 267.998 190.588C267.687 191.57 268.391 192.52 267.645 193.653C266.254 195.812 266.858 196.86 269.387 197.778C269.898 197.97 271.582 197.841 270.519 199.081C269.673 200.082 269.89 200.171 270.908 200.292C272.381 200.468 272.8 201.304 272.22 202.564C271.64 203.823 270.649 204.673 269.425 203.773C266.953 201.962 264.877 199.72 264.449 196.499C264.249 194.986 264.111 193.664 262.072 194.538C263.592 192.695 263.537 191.212 261.103 190.252C260.944 189.282 260.045 189.488 259.475 189.138C259.226 189.028 259.001 188.869 258.815 188.671C258.628 188.472 258.484 188.238 258.39 187.982C258.296 187.727 258.254 187.455 258.268 187.183C258.281 186.911 258.35 186.644 258.468 186.399C259.222 184.893 259.996 186.122 260.557 186.604C261.745 187.585 262.656 187.388 263.126 186.117C263.715 184.496 264.919 184.38 266.496 184.623C265.679 182.611 265.512 180.405 262.605 181.822C261.56 182.338 260.623 181.814 260.113 180.484C259.602 179.154 259.374 177.457 257.582 176.917C257.105 176.284 255.854 176.59 255.799 175.446C256.758 173.57 255.587 172.883 254.284 172.197ZM271.782 142.685C270.779 142.726 269.321 143.73 269.318 144.497C269.317 145.854 270.25 146.345 271.435 146.484C272.044 146.557 272.66 146.366 273.147 146.987C274.4 148.641 274.718 147.056 274.973 146.287C275.446 144.83 273.396 142.618 271.782 142.685Z" fill="#DA0C0C"/>
<path d="M285.669 202.545C285.615 202.718 285.539 202.883 285.443 203.037C282.605 207.009 283.303 208.803 288.197 210.086C288.535 210.185 288.876 210.316 289.216 210.437C288.974 212.401 288.394 214.309 287.501 216.075L285.332 216.282C284.851 216.079 284.42 215.774 284.067 215.388C283.715 215.002 283.45 214.545 283.291 214.048C282.979 213.311 282.876 212.237 281.664 212.266C280.812 211.592 281.247 209.394 279.266 210.077C277.284 210.759 277.587 212.087 278.264 213.566C278.28 213.729 278.089 214.021 277.991 214.249C277.383 214.307 276.765 214.366 276.405 214.948C276.05 214.903 275.699 214.83 275.355 214.731C274.71 214.508 274.262 213.489 273.495 213.935C272.728 214.381 273.139 215.25 273.334 215.91C273.762 217.292 272.871 217.476 271.904 217.547C270.936 217.617 270.082 217.382 270.239 216.053C270.397 214.724 270.914 213.613 268.633 213.678C267.355 213.713 266.707 210.141 267.562 208.559C267.822 208.075 268.865 207.646 267.914 207.092C266.964 206.537 266.513 205.376 265.349 205.225C265.165 205.242 264.743 205.633 264.757 205.665C265.893 207.581 263.262 209.365 264.66 211.399C265.121 212.018 265.443 212.73 265.604 213.485C265.766 214.241 265.762 215.022 265.594 215.776C265.165 217.579 267.092 218.051 267.738 219.303C269.087 221.965 268.895 222.815 266.01 222.752C265.089 222.731 264.154 224.397 263.483 222.994C262.813 221.592 262.325 220.04 262.948 218.667C263.923 216.505 263.396 215.34 261.275 214.449C259.998 213.914 258.927 212.791 259.37 211.249C260.044 208.907 261.595 206.931 262.751 204.839C264.104 202.388 264.35 201.073 261.833 199.596C261.449 199.359 261.046 199.146 260.675 198.929C260.607 197.305 261.764 196.012 261.897 194.434C264 193.532 264.126 194.855 264.274 196.395C264.705 199.638 266.778 201.859 269.25 203.669C270.431 204.574 271.489 203.619 272.046 202.46C272.602 201.301 272.228 200.362 270.734 200.188C269.715 200.067 269.499 199.978 270.344 198.978C271.379 197.784 269.723 197.866 269.212 197.674C266.705 196.754 266.08 195.708 267.471 193.55C268.213 192.384 267.512 191.466 267.823 190.484C268.059 189.75 267.876 188.749 268.938 188.527C269.115 188.5 269.296 188.51 269.468 188.558C269.641 188.605 269.801 188.689 269.939 188.803C270.664 189.522 270.158 190.293 269.864 191C269.58 191.55 269.266 192.084 268.923 192.601C270.832 192.418 272.353 192.075 271.588 190.025C270.822 187.974 271.962 187.077 273.413 186.227C275.793 184.904 275.876 183.145 273.659 181.824C272.015 180.887 271.868 177.979 273.28 176.497C274.413 175.294 276.159 175.127 277.152 173.608C277.708 172.789 278.455 173.735 278.744 174.354C279.564 176.059 280.323 177.804 281.016 179.554C281.394 180.536 280.897 181.055 279.875 181.24C278.336 181.519 276.953 182.615 276.983 183.958C277.013 185.302 278.477 186.07 280.158 186.259C281.421 186.412 282.477 187.613 283.938 187.78C284.735 187.879 284.606 188.811 283.895 189.163C283.067 189.72 282.153 190.137 281.189 190.397C278.801 190.833 279.21 193.389 277.845 194.559C277.764 194.633 277.895 195.08 278.033 195.264C279.81 197.48 279.781 197.975 277.636 200.151C277.48 200.285 277.377 200.471 277.347 200.675C277.316 200.879 277.359 201.087 277.469 201.262C279.495 200.476 281.736 200.098 282.282 197.352C284.102 198.754 284.215 201.075 285.669 202.545ZM265.273 219.506C265.285 219.636 265.106 219.829 265.159 219.922C265.212 220.016 265.421 220.028 265.567 220.069C265.555 219.939 265.733 219.747 265.681 219.653C265.628 219.56 265.42 219.558 265.274 219.517L265.273 219.506Z" fill="#DA0C0C"/>
<path d="M219.526 214.857C219.543 214.493 219.633 214.136 219.789 213.808C219.946 213.479 220.166 213.184 220.437 212.941L243.389 185.172C243.572 184.976 243.775 184.799 243.995 184.644C245.248 187.096 246.25 189.561 245.031 192.382C244.968 192.557 244.942 192.745 244.956 192.931C244.971 193.117 245.025 193.298 245.116 193.462C245.206 193.625 245.33 193.768 245.48 193.879C245.63 193.99 245.802 194.068 245.985 194.108C249.768 194.752 248.104 197.495 247.996 199.454C247.769 201.312 247.385 203.146 246.847 204.939C246.666 205.679 246.547 206.839 247.123 206.905C249.889 207.22 250.783 210.834 253.817 210.522C253.993 210.481 254.176 210.479 254.353 210.516C254.53 210.553 254.696 210.628 254.841 210.736C254.986 210.844 255.105 210.983 255.191 211.141C255.277 211.3 255.327 211.476 255.338 211.657C255.442 212.231 255.43 212.82 255.302 213.389C255.175 213.958 254.934 214.496 254.595 214.971C254.255 215.445 253.824 215.847 253.327 216.151C252.829 216.456 252.276 216.658 251.699 216.745C251.333 216.793 250.974 216.886 250.631 217.022C247.026 218.462 245.595 217.581 245.384 213.891C244.521 213.338 244.056 215.113 243.238 214.337C242.419 213.562 243.074 212.623 243.389 211.805C243.705 210.987 243.739 209.965 242.679 209.53C241.972 209.237 241.338 208.323 240.422 208.816C239.506 209.309 239.831 210.416 239.882 211.298C239.812 211.838 239.865 212.387 240.036 212.903C242.025 216.073 238.755 216.551 237.397 217.808C236.543 218.602 235.498 217.859 235.243 216.679C235.089 215.993 235.339 215.17 235.035 214.51C234.731 213.849 234.641 212.227 233.566 212.658C232.279 213.165 233.844 213.847 233.962 214.503C234.19 215.751 234.65 217.01 233.194 217.915C232.739 218.2 232.277 218.627 231.719 218.396C230.991 218.115 231.457 217.491 231.421 217.001C231.235 215.06 230.539 213.167 231.147 211.171C231.466 210.046 230.696 209.89 229.945 210.05C228.871 210.262 227.379 209.66 227.25 211.512C227.327 212.953 227.618 214.375 228.114 215.731C228.643 217.935 225.565 220.879 223.425 220.252C222.952 220.111 222.267 219.586 222.236 219.271C222.552 217.085 220.54 216.303 219.526 214.857Z" fill="#DA0C0C"/>
<path d="M257.47 176.785C259.208 177.33 259.434 179.005 260.001 180.352C260.568 181.699 261.426 182.208 262.493 181.69C265.404 180.316 265.569 182.49 266.384 184.492C264.807 184.249 263.603 184.364 263.014 185.986C262.545 187.257 261.59 187.457 260.445 186.472C259.884 185.99 259.11 184.761 258.357 186.267C258.238 186.513 258.17 186.779 258.156 187.051C258.143 187.323 258.184 187.595 258.278 187.851C258.372 188.106 258.517 188.34 258.703 188.539C258.889 188.737 259.114 188.896 259.363 189.006C259.933 189.357 260.833 189.15 260.991 190.12C259.969 192.593 258.457 194.862 257.859 197.524C257.623 197.385 257.438 197.175 257.33 196.923C257.221 196.672 257.195 196.393 257.254 196.126C257.707 193.992 256.784 194.19 255.44 195.008C253.141 194.257 250.921 193.281 248.813 192.097C248.1 190.829 249.625 187.323 251.001 186.151C252.823 184.597 254.591 182.83 254.139 180.06C253.97 178.981 254.324 178.783 255.301 179.051C256.032 179.255 256.598 180.021 257.562 179.798C257.891 178.781 255.857 177.772 257.47 176.785Z" fill="#DA0C0C"/>
<path d="M194.66 246.29C194.556 244.516 193.049 243.522 191.993 242.561C191.477 242.085 189.973 243.411 189.352 244.697C188.731 245.982 187.684 245.787 186.883 244.627C185.713 242.922 184.607 242.119 183.708 244.844C183.563 245.273 183.297 245.693 182.674 245.479C182.052 245.265 181.841 244.781 182.158 244.434C184.206 242.048 182.411 239.188 183.12 236.537C183.711 234.367 185.288 234.14 186.518 233.157C187.748 232.175 188.111 233.793 188.905 234.198C190.597 235.198 192.052 236.552 193.171 238.168C193.444 238.504 193.805 239.082 194.066 239.057C196.484 238.825 196.66 240.089 196.462 242.024C196.264 243.958 198.421 243.391 199.351 244.188L199.404 244.741C198.916 246.277 197.199 245.828 196.306 246.68C195.739 246.701 195.127 246.826 194.66 246.29Z" fill="#DA0C0C"/>
<path d="M237.16 250.408L233.396 250.768C233.312 249.09 232.104 248.703 230.814 248.826C230.343 248.895 229.863 248.854 229.411 248.708C228.958 248.561 228.546 248.313 228.204 247.982L228.1 246.897C230.4 246.677 230.017 244.962 229.958 243.435C231.174 242.651 231.005 241.572 231.131 240.258C231.311 238.369 233.367 241.543 234.245 239.74C234.569 239.204 234.922 238.684 235.299 238.184C235.594 237.718 235.084 236.847 236.017 236.648C237.206 237.629 235.34 239.176 236.737 240.049C236.781 241.194 237.233 242.377 236.127 243.391C235.02 244.406 235.928 245.085 236.544 245.924C236.719 245.52 236.983 245.161 237.317 244.874C237.651 244.587 238.045 244.38 238.471 244.267C238.896 244.155 239.342 244.141 239.773 244.225C240.205 244.31 240.612 244.491 240.964 244.756C241.633 245.229 241.312 245.993 240.848 245.95C237.288 245.579 238.717 249.186 237.16 250.408Z" fill="#DA0C0C"/>
<path d="M187.022 257.968C189.077 255.188 186.644 252.531 186.797 249.791L190.541 248.885L190.697 250.512C190.864 250.77 191.005 251.216 191.194 251.242C191.77 251.318 191.731 250.796 191.771 250.409L192.855 250.305L194.708 252.853L194.864 254.48C193.968 255.179 193.113 255.852 193.455 257.254C193.877 258.91 191.449 259.164 191.606 260.802C191.324 260.951 191.087 261.173 190.921 261.445C190.754 261.718 190.664 262.03 190.66 262.349C190.682 262.599 190.649 262.851 190.562 263.087C190.476 263.323 190.339 263.537 190.16 263.714C189.982 263.891 189.767 264.027 189.53 264.111C189.293 264.196 189.041 264.227 188.791 264.202C187.442 264.178 187.437 262.986 187.332 262C187.277 260.626 187.148 259.281 187.022 257.968Z" fill="#DA0C0C"/>
<path d="M236.738 240.07C235.341 239.197 237.257 237.602 236.019 236.669C235.085 236.868 235.596 237.739 235.301 238.205C234.923 238.705 234.571 239.225 234.246 239.762C233.325 241.569 231.313 238.39 231.133 240.279C231.007 241.594 231.176 242.672 229.959 243.456C228.793 242.703 227.772 243.469 226.706 243.768C225.931 242.539 226.053 241.641 227.705 241.636C228.367 241.573 229.227 242.213 229.572 241.238C229.738 240.856 229.767 240.428 229.655 240.026C229.542 239.624 229.296 239.273 228.955 239.032C227.507 238.076 227.392 236.992 228.232 235.587C229.071 234.182 230.069 234.316 231.304 235.216C232.132 235.859 232.242 234.951 232.493 234.369C233.054 232.933 233.887 231.62 234.946 230.5C235.447 230.014 236.435 229.7 236.195 230.632C235.754 232.425 236.992 232.887 237.842 233.878C239.874 236.245 237.742 238.091 236.738 240.07ZM232.831 236.756C232.978 236.807 233.153 236.922 233.248 236.88C233.342 236.838 233.354 236.618 233.406 236.471C233.258 236.419 233.083 236.305 232.989 236.346C232.894 236.388 232.881 236.598 232.829 236.734L232.831 236.756Z" fill="#DA0C0C"/>
<path d="M257.829 197.549C258.428 194.887 259.94 192.618 260.961 190.145C263.394 191.094 263.449 192.578 261.93 194.431C261.797 196.009 260.64 197.302 260.708 198.926C258.735 199.696 258.379 201.58 257.96 203.262C257.737 204.341 257.264 205.354 256.58 206.218C254.801 204.79 253.889 203.608 256.208 201.656C256.828 201.185 257.306 200.553 257.592 199.829C257.878 199.105 257.96 198.317 257.829 197.549Z" fill="#DA0C0C"/>
<path d="M211.29 248.507C213.795 248.267 216.146 248.13 215.976 251.726C215.938 251.957 215.992 252.194 216.127 252.386C216.262 252.578 216.467 252.709 216.698 252.751C218.182 252.926 219.05 253.303 218.407 255.16C217.764 257.017 216.716 257.511 214.932 256.938C214.565 256.85 214.193 256.783 213.819 256.738C215.389 255.307 214.69 254.41 213.48 253.202C212.27 251.993 211.97 250.467 211.242 249.037L211.29 248.507Z" fill="#DA0C0C"/>
<path d="M245.956 182.267C246.73 180.922 247.724 179.717 248.898 178.701C249.231 178.987 249.527 179.44 249.919 179.534C251.04 179.81 251.986 180.431 251.732 181.549C251.4 182.658 250.727 183.634 249.81 184.339C248.882 185.052 248.279 183.785 247.526 183.353C246.989 183 246.483 182.632 245.956 182.267Z" fill="#DA0C0C"/>
<path d="M194.708 252.854L192.822 250.298C192.6 248.787 193.431 248.433 194.727 248.594C194.816 248.599 194.903 248.628 194.976 248.68C196.045 249.672 198.561 249.431 198.484 251.025C198.407 252.62 196.116 252.358 194.708 252.854Z" fill="#DA0C0C"/>
<path d="M214.095 220.883C215.011 219.329 216.166 217.929 217.517 216.735C218.58 218.461 217.058 220.282 217.744 222.187C217.982 222.843 216.61 223.029 215.911 222.362C215.212 221.696 215.109 220.841 214.095 220.883Z" fill="#DA0C0C"/>
<path d="M254.284 172.198C255.587 172.883 256.762 173.613 255.68 175.348C254.243 175.65 252.83 176.332 251.342 175.763C252.11 174.414 253.105 173.208 254.284 172.198Z" fill="#CE3B46"/>
<path d="M226.672 243.75C227.737 243.451 228.759 242.686 229.925 243.439C229.984 244.966 230.367 246.68 228.068 246.901L227.526 246.952C227.486 246.189 227.225 245.453 226.776 244.835L226.672 243.75Z" fill="#DA0C0C"/>
<path d="M196.304 246.659C197.208 245.806 198.925 246.254 199.402 244.72C199.798 245.536 201.204 246.167 199.902 247.31C199.015 245.589 196.99 249.932 196.304 246.659Z" fill="#DA0C0C"/>
<path d="M226.775 244.834C227.225 245.452 227.486 246.188 227.525 246.952L225.356 247.159L225.202 245.554C225.577 244.894 226.201 244.9 226.775 244.834Z" fill="#DA0C0C"/>
<path d="M276.446 214.923C276.802 214.298 277.48 214.287 278.032 214.224C278.014 214.729 278.294 215.359 277.684 215.625C277.075 215.892 276.771 215.341 276.446 214.923Z" fill="#D03B47"/>
<path d="M281.181 212.827C281.563 213.502 282.125 214.225 280.795 214.506C280.732 213.965 280.668 213.292 281.181 212.827Z" fill="#CE3B46"/>
<path d="M191.768 250.377C191.728 250.764 191.767 251.286 191.191 251.21C191.006 251.227 190.861 250.738 190.694 250.48L191.768 250.377Z" fill="#CE3B46"/>
<path d="M215.045 232.976C214.904 232.99 214.748 233.191 214.646 233.157C214.544 233.123 214.502 232.908 214.434 232.772C214.575 232.758 214.731 232.557 214.833 232.591C214.934 232.625 214.977 232.84 215.045 232.976Z" fill="#CE3B46"/>
<path d="M285.33 216.261L287.499 216.053C286.783 218.645 285.741 221.135 284.4 223.465C283.796 222.188 282.171 221.906 281.714 220.329C281.256 218.753 280.912 217.79 283.007 217.491C283.91 217.392 284.741 216.952 285.33 216.261Z" fill="#DA0C0C"/>
<path d="M237.792 262.378C237.734 262.114 237.647 261.858 237.533 261.614C236.98 260.759 235.721 259.839 236.911 258.894C237.856 258.135 239.232 258.671 240.124 259.418C241.58 260.679 240.015 261.366 239.408 262.223L237.792 262.378Z" fill="#DA0C0C"/>
<path d="M232.622 254.116C230.587 254.584 229.56 253.577 229.11 251.726C230.65 251.929 231.673 249.806 233.396 250.769L233.061 252.99C232.894 253.121 232.765 253.295 232.688 253.493C232.61 253.691 232.588 253.906 232.622 254.116Z" fill="#DA0C0C"/>
<path d="M231.537 260.273C230.195 260.11 228.891 259.716 227.683 259.11C228.306 261.043 228.615 262.786 226.07 262.953C225.137 263.043 223.622 263.68 223.375 262.697C223.075 261.511 222.297 259.9 223.641 258.742C224.763 257.77 225.313 256.195 227.019 255.496C227.042 256.213 227.334 256.896 227.837 257.407C228.341 257.919 229.018 258.222 229.735 258.257C229.75 259.437 231.549 259.024 231.537 260.273Z" fill="#DA0C0C"/>
<path d="M223.747 269.776C223.761 269.239 223.795 268.677 224.51 268.609C225.053 268.557 225.197 269.035 225.324 269.45L223.747 269.776Z" fill="#C93A45"/>
<path d="M187.022 257.969C187.151 259.314 187.28 260.659 187.409 262.004C187.503 262.991 187.519 264.183 188.867 264.207C189.118 264.231 189.37 264.2 189.607 264.116C189.843 264.031 190.059 263.896 190.237 263.719C190.416 263.542 190.553 263.328 190.639 263.092C190.726 262.855 190.759 262.603 190.737 262.353C190.741 262.034 190.831 261.722 190.998 261.45C191.164 261.178 191.401 260.955 191.683 260.806C192.767 260.703 193.765 260.607 194.055 262.145C194.29 263.457 194.521 265.187 196.725 264.308C196.866 264.295 197.306 264.668 197.432 264.952C197.531 265.149 197.55 265.377 197.484 265.587C197.419 265.798 197.274 265.974 197.08 266.08C196.606 266.268 195.819 266.507 195.546 266.282C191.807 263.126 190.879 267.156 189.01 268.78C183.909 268.086 179.303 265.823 174.494 264.182C170.598 262.016 166.515 260.174 162.909 257.498C163.557 255.805 164.08 254.179 161.682 253.368C161.506 253.311 161.345 253.219 161.207 253.097C161.069 252.975 160.957 252.825 160.88 252.658C160.802 252.491 160.76 252.309 160.755 252.125C160.751 251.941 160.785 251.757 160.854 251.587C160.879 251.358 160.985 251.147 161.153 250.99C161.321 250.833 161.539 250.742 161.769 250.733C162.133 250.7 162.497 250.79 162.804 250.989C163.111 251.188 163.342 251.484 163.461 251.83C164.094 253.641 165.224 253.554 166.649 252.783C167.315 252.413 168.072 251.87 168.844 252.836C169.207 253.315 167.979 255.239 169.992 254.203C171.16 253.599 172.138 252.717 171.331 251.152C171.244 250.996 171.177 250.83 171.13 250.657C170.957 249.765 170.631 248.417 171.66 248.308C173.07 248.173 172.185 249.44 172.161 250.11C172.129 251.372 172.802 251.537 173.888 251.564C177.178 251.632 177.981 252.814 177.074 256.032C176.559 257.855 176.314 259.531 177.965 260.993C178.658 261.605 179.153 261.974 180.103 261.489C180.465 261.348 180.766 261.085 180.953 260.744C181.141 260.404 181.203 260.009 181.129 259.628C180.981 258.088 180.835 256.558 180.687 255.018C180.623 254.346 180.327 253.432 181.348 253.236C182.369 253.04 182.72 253.729 182.773 254.512C182.993 257.151 184.705 257.884 187.022 257.969ZM168.314 256.904C168.48 256.581 168.699 256.352 168.66 256.181C168.622 256.009 168.367 255.859 168.198 255.7C168.063 255.888 167.829 256.074 167.836 256.26C167.843 256.445 168.097 256.585 168.321 256.87L168.314 256.904Z" fill="#DA0C0C"/>
<path d="M270.156 131.303C269.124 131.961 268.954 132.699 269.702 133.766C270.816 135.345 271.065 136.569 269.688 138.65C268.117 140.989 265.779 144.234 269.253 147.251C269.319 147.315 269.367 147.394 269.395 147.481C269.422 147.568 269.428 147.661 269.411 147.751C268.534 150.024 268.678 151.532 271.813 150.662C272.138 150.631 272.561 151.269 272.275 151.713C271.653 152.648 270.776 153.432 269.581 152.956C267.308 152.079 265.855 153.017 264.671 154.827C262.434 151.582 258.875 149.734 256.248 146.877C257.492 144.328 258.893 141.927 259.013 138.84C259.062 137.522 260.581 136.008 260.767 134.293C260.888 133.505 261.001 132.739 259.75 133.165C259.124 133.367 258.621 134.291 257.862 133.565C257.693 133.395 257.792 132.827 257.897 132.554C258.037 132.117 258.34 131.751 258.743 131.533C259.147 131.315 259.619 131.261 260.061 131.384C262.21 131.988 262.103 129.842 262.999 128.913C263.088 128.817 262.946 128.36 262.809 128.187C261.522 126.756 262.346 125.757 263.451 124.841C265.816 125.994 267.227 128.267 269.248 129.825L270.156 131.303Z" fill="#DF2A2F"/>
<path d="M200.324 117.226C201.359 117.291 202.64 116.489 203.386 117.534C204.132 118.579 203.458 119.772 202.76 120.944C202.143 122.257 201.94 123.728 202.179 125.159C202.245 125.474 202.208 125.802 202.072 126.093C201.936 126.385 201.709 126.624 201.425 126.775C200.684 127.152 200.261 126.624 199.842 126.127C199.518 125.689 199.042 125.387 198.507 125.283C197.972 125.178 197.418 125.277 196.953 125.561C196.292 125.865 195.105 127.183 194.627 125.39C194.526 125.057 194.496 124.707 194.537 124.362C194.579 124.017 194.692 123.684 194.869 123.385C195.047 123.086 195.284 122.827 195.567 122.625C195.849 122.423 196.171 122.281 196.511 122.21C200.057 121.181 200.448 120.804 200.411 117.217L200.324 117.226Z" fill="#DA0C0C"/>
<path d="M222.522 143.287C222.903 144.019 223.426 144.668 224.061 145.196C224.696 145.723 225.43 146.119 226.22 146.359C227.917 146.82 227.649 148.477 227.084 149.779C226.519 151.081 225.749 152.753 223.829 152.477C222.719 152.32 222.76 151.145 222.686 150.255C222.477 147.965 223.294 145.632 222.522 143.287Z" fill="#DA0C0C"/>
<path d="M139.917 160.744C137.303 160.994 136.751 160.368 137.97 158.358C138.726 157.103 137.89 156.603 137.503 155.764C137.116 154.926 136.558 153.666 137.575 153.087C138.592 152.508 138.571 153.889 138.808 154.534C139.213 155.447 139.979 155.33 140.629 155.038C141.28 154.746 141.81 154.684 142.24 155.398C142.589 155.956 142.615 156.577 142.032 156.776C140.161 157.458 143.412 161.12 139.917 160.744Z" fill="#DA0C0C"/>
<path d="M248.626 141.574L247.541 141.678C247.429 140.507 247.317 139.335 247.204 138.164C246.884 134.823 247.106 134.627 250.484 134.128C250.906 134 251.299 133.791 251.64 133.514C252.187 133.166 252.703 133.182 253.03 133.742C253.358 134.301 253.037 134.836 252.523 135.071C251.331 135.683 250.335 136.617 249.646 137.766C248.957 138.916 248.604 140.235 248.626 141.574Z" fill="#D43D49"/>
<path d="M233.501 155.075C232.257 157.038 230.771 158.835 229.077 160.425C228.562 159.16 228.149 158.051 229.236 156.72C230.148 155.615 230.076 154.057 229.936 152.592C229.847 151.67 229.382 150.697 230.167 149.637C231.954 151.151 229.73 155.02 233.501 155.075Z" fill="#DA0C0C"/>
<path d="M200.324 117.225C200.241 117.254 200.152 117.263 200.064 117.25C198.827 117.019 199.039 119.801 197.457 118.595C196.854 118.127 197.792 113.407 198.449 112.961C199.395 112.323 199.774 113.075 199.917 113.772C200.146 114.911 200.203 116.077 200.324 117.225Z" fill="#D43D49"/>
<path d="M240.112 140.224L239.467 139.771C239.614 139.593 239.74 139.307 239.912 139.28C240.085 139.252 240.303 139.472 240.51 139.583L240.112 140.224Z" fill="#D43D49"/>
<path d="M211.794 122.695C211.76 122.348 211.844 121.848 212.251 121.874C213.011 121.922 212.786 122.655 212.93 123.134C212.719 123.166 212.503 123.142 212.304 123.065C212.105 122.988 211.929 122.861 211.794 122.695Z" fill="#CE3B46"/>
<path d="M225.389 247.157L228.068 246.9L228.171 247.985C227.419 249.152 228.759 250.118 228.483 251.239C227.659 251.318 227.279 252.033 226.858 252.555C225.325 254.486 224.311 254.649 222.845 252.25C221.923 250.74 221.552 250.184 223.265 249.21C224.06 248.623 224.775 247.932 225.389 247.157Z" fill="#DA0C0C"/>
<path d="M228.482 251.229C228.758 250.108 227.418 249.142 228.171 247.975C228.512 248.306 228.924 248.554 229.377 248.701C229.829 248.847 230.309 248.888 230.78 248.82C232.114 248.692 233.274 249.04 233.363 250.761C231.643 249.831 230.617 251.922 229.076 251.719L228.482 251.229Z" fill="#DA0C0C"/>
<path d="M185.783 224.799C184.342 227.126 185.523 228.83 186.781 230.538C187.171 231.07 187.048 231.607 186.215 231.49C185.383 231.372 184.899 231.802 184.561 232.502C184.223 233.202 183.804 233.855 182.932 233.205C182.782 233.098 182.657 232.959 182.565 232.799C182.473 232.639 182.417 232.461 182.399 232.277C182.381 232.093 182.403 231.907 182.463 231.733C182.523 231.558 182.619 231.398 182.746 231.264C184.621 229.245 183.523 227.15 183.06 225.06C182.939 224.48 182.394 223.591 183.337 223.61C183.808 223.613 184.272 223.722 184.695 223.927C185.118 224.133 185.49 224.431 185.783 224.799Z" fill="#DA0C0C"/>
<path d="M146.922 199.591C146.814 200.279 146.493 200.915 146.005 201.412C145.516 201.908 144.885 202.239 144.199 202.358C143.52 202.587 142.85 202.334 142.838 201.514C142.831 200.789 143.056 200.081 143.48 199.493C143.904 198.905 144.505 198.468 145.195 198.245C146.007 197.927 146.56 198.903 146.922 199.591Z" fill="#DA0C0C"/>
<path d="M186.75 249.763C186.414 249.795 186.028 249.767 185.922 249.339C185.915 249.263 186.089 249.027 186.177 249.03C186.617 249.054 186.653 249.433 186.75 249.763Z" fill="#C93A45"/>
<path d="M187.694 171.843C187.194 170.173 188.469 169.306 189.396 168.473C190.323 167.64 191.078 168.443 190.978 169.34C190.748 170.643 190.363 171.915 189.831 173.127C189.746 173.39 189.578 173.617 189.352 173.775C189.126 173.933 188.855 174.013 188.579 174.003C187.135 173.78 188.531 172.354 187.694 171.843Z" fill="#DA0C0C"/>
<path d="M172.112 174.737C170.656 173.366 170.227 172.312 171.201 171.048C171.472 170.682 171.999 170.238 172.254 170.618C173.305 171.875 172.446 173.085 172.112 174.737Z" fill="#DA0C0C"/>
<path d="M127.262 205.161C126.806 204.549 126.607 203.782 126.707 203.025C127.343 203.041 128.01 203.032 128.176 203.848C128.208 203.995 128.21 204.146 128.18 204.294C128.151 204.441 128.092 204.581 128.006 204.704C127.92 204.828 127.81 204.932 127.682 205.011C127.554 205.089 127.411 205.141 127.262 205.161Z" fill="#D43D49"/>
<path d="M285.67 202.545C284.214 201.064 284.102 198.744 282.439 197.381C282.532 195.84 280.744 195.004 280.964 193.407C281.02 192.964 280.876 192.496 281.397 192.216C281.589 192.088 281.823 192.039 282.051 192.078C282.278 192.117 282.482 192.242 282.621 192.427C284.573 195.436 288.229 197.276 288.551 201.437C288.648 202.446 289.128 203.571 288.171 204.09C287.213 204.608 287.151 203.038 286.442 202.723C286.189 202.644 285.931 202.585 285.67 202.545Z" fill="#DA0C0C"/>
<path d="M271.782 142.685C273.396 142.618 275.446 144.829 274.972 146.276C274.717 147.045 274.442 148.626 273.145 146.976C272.659 146.355 272.01 146.549 271.433 146.473C270.25 146.345 269.317 145.854 269.317 144.486C269.321 143.73 270.779 142.726 271.782 142.685Z" fill="#D03B47"/>
<path d="M265.273 219.517C265.414 219.503 265.639 219.569 265.681 219.664C265.723 219.758 265.61 219.944 265.568 220.08C265.422 220.039 265.202 220.027 265.16 219.933C265.118 219.838 265.231 219.652 265.273 219.517Z" fill="#D43D49"/>
<path d="M232.829 236.735C232.882 236.598 232.894 236.378 232.987 236.325C233.08 236.273 233.257 236.398 233.404 236.45C233.352 236.597 233.35 236.805 233.246 236.859C233.142 236.913 232.976 236.786 232.829 236.735Z" fill="#D43D49"/>
<path d="M168.322 256.87C168.097 256.585 167.85 256.401 167.844 256.227C167.838 256.052 168.071 255.855 168.206 255.666C168.375 255.825 168.64 255.964 168.668 256.148C168.697 256.331 168.488 256.548 168.322 256.87Z" fill="#CE3B46"/>
<path d="M155.881 50.361C154.779 50.0065 152.514 49.6412 151.407 48.1798C156.999 48.1798 158.447 46.3208 157.72 41.6639C159.392 45.7318 160.914 46.2713 166.232 45.0829C162.759 48.0057 162.317 50.7922 165.605 53.4805C162.871 53.9054 159.516 50.2087 158.117 55.8139C156.662 58.7777 158.045 51.0615 155.881 50.361Z" fill="#EF5025"/>
<path d="M83.8126 93.7359C83.58 93.2261 83.2467 92.54 83.0268 91.8476C82.832 91.1993 83.0211 90.5072 83.6569 90.0858C84.2927 89.6645 84.9472 89.583 85.5386 90.0049C88.2815 91.9444 90.9174 94.0035 92.6718 96.9746C93.1497 97.8118 93.4703 98.6804 92.721 99.5171C91.9088 100.448 90.9019 100.322 89.9645 99.8053C87.3031 98.5203 85.542 96.254 83.8126 93.7359Z" fill="#FEB402"/>
</svg>
