<svg width="328" height="297" viewBox="0 0 328 297" fill="none" xmlns="http://www.w3.org/2000/svg">
<circle cx="175.404" cy="140" r="130" fill="#F0F5FF"/>
<g style="mix-blend-mode:multiply" opacity="0.5">
<path d="M171.131 207.549C231.924 207.549 281.205 205.534 281.205 203.05C281.205 200.565 231.924 198.551 171.131 198.551C110.339 198.551 61.0576 200.565 61.0576 203.05C61.0576 205.534 110.339 207.549 171.131 207.549Z" fill="#58595B"/>
</g>
<path d="M169.104 82.8358H40.918C24.7261 82.8358 70.1511 79.4625 95.1136 73.8426C120.076 68.2227 122.1 66.4213 130.419 72.4933C138.737 78.5652 163.477 65.072 175.398 73.1679C187.32 81.2639 190.464 82.8358 169.104 82.8358Z" fill="#FAFAFA"/>
<path d="M232.486 91.6701C244.698 91.6701 267.994 90.6715 258.65 86.5629C249.306 82.4542 242.39 90.6715 238.309 87.1835C234.227 83.6955 227.622 83.1963 222.144 86.5629C216.659 89.9294 218.291 84.694 211.68 86.5629C202.423 89.1805 172.718 91.6701 197.991 91.6701H232.486Z" fill="#FAFAFA"/>
<path d="M217.275 187.336H268.699C269.237 177.026 264.714 156.481 242.323 156.785C219.931 157.089 216.294 177.279 217.275 187.336Z" fill="#001C2B"/>
<path d="M66.7019 187.526H113.952C117.557 168.74 106.172 161.434 86.0572 160.96C69.9657 160.581 66.4489 178.513 66.7019 187.526Z" fill="#001C2B"/>
<path d="M276.479 155.457C278.073 155.609 278.725 157.607 278.851 158.588H280.464C281.755 158.588 282.014 160.043 281.982 160.77V170.068C284.26 169.992 284.702 171.428 284.639 172.156C284.766 176.741 285.019 186.065 285.019 186.672C285.019 187.279 284.702 187.494 284.544 187.526C282.425 188.506 277.884 190.638 276.669 191.321C275.455 192.004 274.582 192.049 274.297 191.985H266.043C269.155 179.006 261.33 170.068 257.029 167.222C252.855 164.344 241.925 160.315 231.602 167.222C221.279 174.129 221.545 186.609 222.968 191.985H111.959C112.276 191.258 112.908 189.348 112.908 187.526C113.06 173.636 104.179 166.811 99.7199 165.135C95.0392 163.11 83.5715 161.093 75.1463 169.214C64.7096 180.979 68.8843 191.131 69.074 191.701C69.2258 192.156 68.9475 192.207 68.7894 192.175H65.943C65.4876 192.175 65.184 191.859 65.0891 191.701C62.7171 188.412 57.8783 181.7 57.4988 181.169C57.1193 180.638 57.0877 180.125 57.1193 179.936V166.273C57.1193 165.894 57.4355 165.609 57.5937 165.514L62.3376 162.952V147.013C62.3376 145.95 62.8436 145.368 63.0967 145.21C69.4852 140.087 83.0592 129.251 86.2471 126.898C89.5869 124.014 92.0031 122.977 92.7938 122.819C95.7034 122.091 102.927 120.503 108.544 119.972C137.387 117.41 151.903 117.98 163.763 118.264C173.251 118.492 181.948 121.965 185.111 123.672C197.161 129.397 221.601 141.035 222.968 141.794C224.334 142.553 226.257 143.059 227.048 143.217C235.081 144.419 246.498 146.064 254.088 147.772C261.184 149.368 269.996 152.832 276.479 155.457Z" fill="#058CD3"/>
<path d="M161.201 153.085H172.302C172.681 153.18 173.44 153.54 173.44 154.223C173.44 154.907 172.681 155.267 172.302 155.362H161.201C160.695 155.394 159.664 155.21 159.588 154.223C159.512 153.237 160.632 153.053 161.201 153.085Z" fill="#0474AE"/>
<path d="M107.88 150.238H119.455C119.803 150.365 120.499 150.789 120.499 151.472C120.499 152.155 119.803 152.452 119.455 152.516H108.26C107.722 152.61 106.647 152.534 106.647 151.472C106.647 150.409 107.469 150.207 107.88 150.238Z" fill="#0474AE"/>
<path d="M57.1193 179.936V166.273C57.1193 166.178 57.1383 165.969 57.2142 165.893C57.2142 165.893 63.2864 172.061 64.0454 172.915C64.8045 173.768 67.0816 174.527 67.7457 173.958C68.4099 173.389 70.687 169.214 71.9204 167.886C74.3873 165.198 81.2375 159.84 88.9037 159.916C98.4865 160.011 103.989 162.573 109.113 167.506C113.212 171.453 114.869 175.856 115.185 177.564H220.121C222.43 171.365 230.425 159.309 243.936 159.916C260.824 160.675 265.853 170.448 269.079 177.564H273.254L284.544 171.871C284.573 171.871 284.633 171.928 284.639 172.155C284.766 176.741 285.019 186.065 285.019 186.672C285.019 187.279 284.702 187.494 284.544 187.526C282.425 188.506 277.884 190.638 276.669 191.321C275.455 192.004 274.582 192.048 274.297 191.985H266.043C269.155 179.006 261.33 170.068 257.029 167.222C252.855 164.344 241.925 160.315 231.602 167.222C221.279 174.129 221.545 186.609 222.968 191.985H111.959C112.276 191.258 112.908 189.348 112.908 187.526C113.06 173.636 104.179 166.811 99.7199 165.134C95.0392 163.11 83.5715 161.093 75.1463 169.214C64.7096 180.979 68.8843 191.131 69.074 191.701C69.2258 192.156 68.9475 192.207 68.7894 192.175H65.943C65.4876 192.175 65.184 191.859 65.0891 191.701C62.7171 188.411 57.8783 181.7 57.4988 181.169C57.1193 180.638 57.0877 180.125 57.1193 179.936Z" fill="#0580C0"/>
<path d="M217.37 145.969C218.736 148.094 216.801 148.436 215.662 148.341L199.438 147.392L177.995 146.254L159.114 145.21L132.643 143.787C124.452 143.312 107.481 142.345 105.128 142.269C102.775 142.193 100.732 141.921 100.005 141.794C97.0634 141.257 90.8204 140.124 89.3782 139.897C87.9361 139.669 88.7773 138.284 89.3782 137.62C93.0785 134.394 100.897 127.543 102.566 125.949C104.236 124.356 106.488 123.894 107.405 123.862L114.521 123.483C120.024 123.166 131.675 122.534 134.256 122.534C137.482 122.534 154.56 122.154 165.281 122.913C173.858 123.521 179.924 125.76 181.885 126.803C185.712 128.574 194.03 132.401 196.686 133.54C199.343 134.678 202.98 136.987 204.466 137.999L217.37 145.969Z" fill="#001C2A"/>
<ellipse cx="18.786" cy="18.786" rx="18.786" ry="18.786" transform="matrix(-1 0 0 1 263.292 166.938)" fill="#152D39"/>
<ellipse cx="13.4728" cy="13.4728" rx="13.4728" ry="13.4728" transform="matrix(-1 0 0 1 257.979 172.25)" fill="#D0EFFF"/>
<ellipse cx="18.786" cy="18.786" rx="18.786" ry="18.786" transform="matrix(-1 0 0 1 109.397 166.938)" fill="#152D39"/>
<ellipse cx="13.4728" cy="13.4728" rx="13.4728" ry="13.4728" transform="matrix(-1 0 0 1 104.084 172.25)" fill="#D0EFFF"/>
<path d="M146.45 141.051L144.516 125.579C144.455 125.091 144.031 124.731 143.539 124.749L114.734 125.833C114.372 125.846 114.049 126.065 113.902 126.396L108.345 138.92C108.075 139.528 108.499 140.218 109.164 140.252L145.46 142.116C146.05 142.146 146.524 141.637 146.45 141.051Z" fill="white"/>
<path d="M155.699 142.838L212.626 145.874C208.907 143.142 200.45 138.284 196.686 136.196C193.777 134.836 186.781 131.547 182.075 129.27C177.369 126.993 170.373 125.728 167.464 125.38L153.042 124.906L155.699 142.838Z" fill="white"/>
<path d="M275.815 184.964L284.924 182.687L285.019 185.913C282.394 186.577 277.011 187.943 276.479 188.095C275.815 188.285 275.056 188.285 274.582 186.957C274.202 185.894 275.246 185.185 275.815 184.964Z" fill="#001C2A"/>
<path d="M284.734 176.71L284.924 181.359C282.489 181.992 277.428 183.314 276.669 183.541C275.721 183.826 274.392 182.877 274.297 181.359C274.221 180.145 275.657 179.145 276.385 178.797L284.734 176.71Z" fill="#001C2A"/>
<path d="M70.3076 158.967L62.3378 163.047V147.013C62.3378 145.798 63.1599 145.115 63.571 144.925C66.8919 146.064 73.8181 148.436 74.9567 148.815C76.0952 149.195 75.9371 149.986 75.7157 150.333C74.3874 152.674 71.6928 157.449 71.541 157.829C71.3892 158.208 70.6555 158.746 70.3076 158.967Z" fill="#D0EFFF"/>
<path d="M273.064 170.068H281.982V160.58C281.982 158.91 280.907 158.556 280.369 158.588H278.851C275.278 158.619 268.035 158.683 267.656 158.683C267.276 158.683 266.739 158.936 266.517 159.062C265.663 159.537 263.785 160.599 263.102 161.055C262.418 161.51 262.817 162.003 263.102 162.193C266.106 164.628 272.172 169.556 272.4 169.784C272.627 170.011 272.937 170.068 273.064 170.068Z" fill="#D0EFFF"/>
<path d="M204.752 138.568L210.349 137.525C212.854 137.297 213.48 139.201 213.48 140.181V143.976C213.48 145.798 211.393 146.253 210.349 146.253H205.226C202.854 146.253 202.569 144.261 202.38 141.699C202.228 139.65 203.898 138.758 204.752 138.568Z" fill="#0580C0"/>
<path d="M234.089 182.808C233.887 182.752 233.677 182.87 233.627 183.073C233.242 184.653 233.206 186.299 233.521 187.894C233.562 188.1 233.767 188.227 233.971 188.179L241.691 186.379C241.895 186.332 242.019 186.127 242.003 185.919C241.99 185.752 241.993 185.585 242.014 185.419C242.039 185.211 241.924 185.001 241.723 184.945L234.089 182.808Z" fill="#152D39"/>
<path d="M235.06 190.996C234.877 191.098 234.811 191.33 234.92 191.509C235.76 192.902 236.894 194.094 238.242 195.004C238.416 195.121 238.65 195.067 238.762 194.889L242.971 188.172C243.082 187.994 243.026 187.762 242.867 187.625C242.74 187.516 242.625 187.395 242.523 187.263C242.394 187.097 242.165 187.03 241.982 187.132L235.06 190.996Z" fill="#152D39"/>
<path d="M241.934 196.23C241.885 196.434 242.009 196.64 242.214 196.683C243.806 197.015 245.452 196.997 247.036 196.629C247.24 196.582 247.36 196.373 247.306 196.171L245.253 188.514C245.198 188.311 244.99 188.194 244.782 188.218C244.616 188.236 244.449 188.238 244.282 188.223C244.074 188.205 243.868 188.326 243.818 188.53L241.934 196.23Z" fill="#152D39"/>
<path d="M250.147 194.951C250.256 195.13 250.49 195.187 250.665 195.072C252.023 194.177 253.17 192.997 254.026 191.613C254.136 191.435 254.072 191.203 253.891 191.099L247.011 187.159C246.83 187.055 246.6 187.12 246.469 187.284C246.365 187.415 246.249 187.535 246.121 187.643C245.961 187.778 245.902 188.009 246.012 188.188L250.147 194.951Z" fill="#152D39"/>
<path d="M255.021 188.252C255.225 188.301 255.43 188.176 255.472 187.971C255.799 186.377 255.774 184.732 255.4 183.149C255.352 182.945 255.143 182.826 254.94 182.881L247.292 184.964C247.09 185.019 246.973 185.228 246.997 185.436C247.016 185.602 247.019 185.77 247.005 185.936C246.987 186.145 247.11 186.35 247.313 186.399L255.021 188.252Z" fill="#152D39"/>
<path d="M253.792 180.18C253.972 180.072 254.031 179.839 253.918 179.663C253.037 178.295 251.869 177.136 250.495 176.266C250.318 176.153 250.085 176.215 249.979 176.395L245.967 183.232C245.861 183.413 245.923 183.643 246.086 183.775C246.216 183.881 246.335 183.999 246.441 184.127C246.574 184.289 246.805 184.35 246.985 184.243L253.792 180.18Z" fill="#152D39"/>
<path d="M247.238 175.258C247.291 175.056 247.169 174.848 246.965 174.802C245.378 174.444 243.733 174.437 242.143 174.78C241.938 174.824 241.815 175.031 241.866 175.234L243.8 182.922C243.851 183.125 244.057 183.245 244.266 183.226C244.432 183.21 244.599 183.21 244.766 183.228C244.974 183.25 245.182 183.131 245.234 182.928L247.238 175.258Z" fill="#152D39"/>
<path d="M239.19 176.303C239.087 176.121 238.855 176.055 238.676 176.165C237.287 177.011 236.1 178.15 235.196 179.503C235.08 179.677 235.135 179.911 235.313 180.022L242.05 184.201C242.228 184.311 242.46 184.254 242.596 184.095C242.704 183.968 242.825 183.852 242.956 183.749C243.121 183.619 243.188 183.39 243.085 183.207L239.19 176.303Z" fill="#152D39"/>
<path d="M80.196 182.808C79.9941 182.752 79.784 182.87 79.7344 183.073C79.3494 184.653 79.3133 186.299 79.6286 187.894C79.6692 188.1 79.874 188.227 80.0781 188.179L87.7984 186.379C88.0026 186.332 88.1264 186.127 88.1101 185.919C88.0971 185.752 88.1008 185.585 88.1211 185.419C88.1465 185.211 88.0318 185.001 87.8299 184.945L80.196 182.808Z" fill="#152D39"/>
<path d="M81.1677 190.996C80.9847 191.098 80.9186 191.33 81.027 191.509C81.8674 192.902 83.0013 194.094 84.3495 195.004C84.5232 195.121 84.7578 195.067 84.8691 194.889L89.0781 188.172C89.1894 187.994 89.1332 187.762 88.9744 187.625C88.8479 187.516 88.7326 187.395 88.6302 187.263C88.5016 187.097 88.2725 187.03 88.0895 187.132L81.1677 190.996Z" fill="#152D39"/>
<path d="M88.0419 196.23C87.9921 196.434 88.1166 196.64 88.3218 196.683C89.9138 197.015 91.5593 196.997 93.1436 196.629C93.3478 196.582 93.4678 196.373 93.4135 196.171L91.3602 188.514C91.3059 188.311 91.0976 188.194 90.8893 188.218C90.7234 188.236 90.556 188.238 90.3897 188.223C90.1809 188.205 89.9753 188.326 89.9255 188.53L88.0419 196.23Z" fill="#152D39"/>
<path d="M96.2544 194.951C96.3637 195.13 96.5977 195.187 96.7727 195.072C98.1307 194.177 99.2775 192.997 100.133 191.613C100.243 191.435 100.18 191.203 99.998 191.099L93.1188 187.159C92.9369 187.055 92.7071 187.12 92.5767 187.284C92.4729 187.415 92.3562 187.535 92.2286 187.643C92.0683 187.778 92.0096 188.009 92.1189 188.188L96.2544 194.951Z" fill="#152D39"/>
<path d="M101.128 188.252C101.332 188.301 101.538 188.176 101.58 187.971C101.906 186.377 101.882 184.732 101.508 183.149C101.459 182.945 101.25 182.826 101.048 182.881L93.3992 184.964C93.197 185.019 93.0808 185.228 93.1048 185.436C93.1239 185.602 93.1264 185.77 93.1123 185.936C93.0945 186.145 93.2169 186.35 93.4207 186.399L101.128 188.252Z" fill="#152D39"/>
<path d="M99.8993 180.18C100.079 180.072 100.139 179.839 100.025 179.663C99.1447 178.295 97.9768 177.136 96.6028 176.266C96.4258 176.153 96.1928 176.215 96.0867 176.395L92.0742 183.232C91.9681 183.413 92.0309 183.643 92.1936 183.775C92.3232 183.881 92.442 183.999 92.5482 184.127C92.6815 184.289 92.9125 184.35 93.0925 184.243L99.8993 180.18Z" fill="#152D39"/>
<path d="M93.3451 175.258C93.3981 175.056 93.2767 174.848 93.0722 174.802C91.4856 174.444 89.84 174.437 88.2501 174.78C88.0453 174.824 87.922 175.031 87.9732 175.234L89.9071 182.922C89.9583 183.125 90.1647 183.245 90.3734 183.226C90.5395 183.21 90.7069 183.21 90.873 183.228C91.0814 183.25 91.2889 183.131 91.3419 182.928L93.3451 175.258Z" fill="#152D39"/>
<path d="M85.2973 176.303C85.1944 176.121 84.9625 176.055 84.7835 176.165C83.3949 177.011 82.2073 178.15 81.3036 179.503C81.1871 179.677 81.2425 179.911 81.4206 180.022L88.157 184.201C88.3351 184.311 88.5671 184.254 88.7032 184.095C88.8115 183.968 88.9323 183.852 89.0637 183.749C89.2287 183.619 89.2954 183.39 89.1924 183.207L85.2973 176.303Z" fill="#152D39"/>
<path d="M69.0742 191.701C69.226 192.156 68.9477 192.207 68.7896 192.175H65.9432C64.2038 185.755 63.476 171.207 78.9417 162.763C82.7683 160.454 93.249 157.374 104.559 163.522C115.868 169.67 116.735 185.059 115.755 191.985H111.959C112.276 191.258 112.908 189.348 112.908 187.526C113.06 173.636 104.179 166.811 99.7201 165.135C95.0394 163.111 83.5717 161.093 75.1464 169.214C64.7098 180.979 68.8844 191.132 69.0742 191.701Z" fill="#0474AE"/>
<path d="M231.602 167.222C221.279 174.129 221.544 186.609 222.968 191.985H219.742C218.148 185.154 219.331 179.524 220.121 177.564C222.43 171.365 230.425 159.309 243.936 159.916C260.824 160.675 265.853 170.448 269.079 177.564C270.521 181.435 269.87 188.791 269.363 191.985H266.043C269.155 179.006 261.33 170.068 257.029 167.222C252.855 164.344 241.925 160.315 231.602 167.222Z" fill="#0474AE"/>
<path d="M71.462 120.73V120.782L71.4677 120.833C71.796 123.821 73.1418 126.85 75.0506 129.766C76.9636 132.688 79.4761 135.549 82.2084 138.209C87.6717 143.528 94.0885 148.12 98.5681 150.879C99.3782 151.378 100.397 151.361 101.192 150.87C111.057 144.769 117.547 138.555 121.651 133.231C125.739 127.928 127.497 123.46 127.81 120.842L127.818 120.779L127.817 120.716L127.366 89.9108C127.346 88.5173 126.218 87.4549 124.896 87.3781C115.055 86.8065 106.02 80.8211 101.178 77.6133C101.009 77.5017 100.846 77.3936 100.688 77.2891C99.7921 76.697 98.6399 76.7567 97.7996 77.3711C87.4392 84.9465 78.4503 87.1511 74.0415 87.4173C72.6955 87.4986 71.462 88.5807 71.462 90.0612V120.73Z" fill="#A9D041" stroke="#F0F5FF" stroke-width="1.89429"/>
<path d="M99.1311 85.1926C91.1988 91.2223 83.2832 93.2032 79.4875 93.5288C78.9744 93.5729 78.5635 93.9899 78.5603 94.505L78.4082 119.151C79.6381 128.498 92.7462 138.804 99.6511 143.127C99.9788 143.332 100.403 143.304 100.712 143.072C118.189 129.912 121.445 121.652 120.872 119.151V94.875C120.872 94.3388 120.428 93.9121 119.893 93.8898C113.138 93.6088 104.458 88.2958 100.305 85.1853C99.9561 84.9244 99.4776 84.9292 99.1311 85.1926Z" fill="#95BA39"/>
<path d="M87.8789 111.89L96.7189 120.73L111.242 104.628" stroke="white" stroke-width="6.94571" stroke-linecap="round" stroke-linejoin="round"/>
<path d="M250.076 75.1483C249.077 75.58 248.225 75.6243 247.403 75.5248C246.51 75.4194 246.188 75.7706 246.065 76.6021C245.943 77.4423 245.642 78.2365 245.055 79.043C244.489 78.0791 244.579 77.1176 244.655 76.1964C244.715 75.4758 244.486 75.1949 243.805 75.0692C243.063 74.931 242.341 74.6686 241.618 74.4411C241.445 74.3875 241.196 74.3334 241.244 74.0611C241.288 73.8137 241.52 73.7739 241.712 73.7599C242.391 73.7112 243.079 73.6123 243.752 73.6703C244.599 73.7416 245.092 73.5803 245.19 72.5905C245.255 71.919 245.561 71.2677 245.767 70.6113C245.831 70.41 245.945 70.21 246.177 70.2334C246.412 70.2558 246.456 70.4797 246.469 70.6871C246.528 71.7281 246.224 73.0416 246.737 73.7356C247.252 74.434 248.685 74.2072 249.588 74.7643C249.712 74.8393 249.818 74.9436 250.078 75.1494L250.076 75.1483Z" fill="#FED10C"/>
<path d="M138.483 227.118C136.939 226.59 135.948 225.779 135.135 224.84C134.251 223.823 133.539 223.888 132.564 224.687C131.581 225.497 130.445 226.075 128.98 226.378C129.324 224.738 130.393 223.76 131.408 222.815C132.201 222.075 132.23 221.532 131.6 220.706C130.915 219.804 130.379 218.784 129.805 217.802C129.667 217.568 129.445 217.257 129.774 217.004C130.072 216.773 130.369 216.963 130.596 217.141C131.399 217.771 132.263 218.356 132.952 219.098C133.821 220.032 134.531 220.35 135.638 219.351C136.387 218.67 137.384 218.256 138.275 217.735C138.548 217.575 138.877 217.468 139.111 217.728C139.349 217.99 139.173 218.284 138.977 218.527C137.993 219.742 136.331 220.894 136.2 222.182C136.068 223.477 137.888 224.67 138.329 226.2C138.391 226.408 138.403 226.631 138.485 227.122L138.483 227.118Z" fill="#62E079"/>
<path d="M263.638 131.992C263.289 131.496 263.314 131.003 263.723 130.632C264.135 130.256 264.655 130.265 265.053 130.697C265.486 131.167 265.45 131.684 264.966 132.093C264.513 132.477 264.053 132.351 263.638 131.992Z" fill="#EB4350"/>
<path d="M170.638 242.992C170.289 242.496 170.314 242.003 170.723 241.632C171.135 241.256 171.655 241.265 172.053 241.697C172.486 242.167 172.45 242.684 171.966 243.093C171.513 243.477 171.053 243.351 170.638 242.992Z" fill="#EB4350"/>
<path d="M223.42 232.69C224.321 232.861 225.465 233.305 225.431 234.083C225.396 234.86 224.209 235.193 223.359 235.13C222.429 235.039 221.903 234.571 221.946 233.795C221.98 233.017 222.57 232.628 223.426 232.699L223.42 232.69Z" fill="#4FC3D0"/>
<path d="M221.664 232.447C222.564 232.618 223.12 233.006 223.078 233.782C223.043 234.56 222.453 234.95 221.568 234.958C220.638 234.866 219.595 234.37 219.637 233.594C219.701 232.737 220.779 232.455 221.664 232.447Z" fill="#4FC3D0"/>
<path d="M221.222 234.737C221.393 233.836 221.781 233.281 222.557 233.323C223.335 233.358 223.725 233.948 223.733 234.833C223.641 235.762 223.145 236.806 222.369 236.764C221.484 236.772 221.15 235.592 221.222 234.737Z" fill="#4FC3D0"/>
<path d="M221.498 232.65C221.669 231.749 222.113 230.605 222.891 230.639C223.669 230.674 224.001 231.861 223.939 232.711C223.847 233.641 223.38 234.167 222.604 234.125C221.905 234.119 221.516 233.529 221.508 232.644L221.498 232.65Z" fill="#4FC3D0"/>
<path d="M203.882 102.971C204.876 103.16 206.141 103.65 206.102 104.509C206.064 105.368 204.753 105.735 203.814 105.667C202.788 105.566 202.207 105.049 202.253 104.192C202.292 103.333 202.943 102.902 203.888 102.981L203.882 102.971Z" fill="#62E079"/>
<path d="M201.943 102.703C202.937 102.892 203.55 103.321 203.504 104.178C203.466 105.037 202.814 105.467 201.837 105.476C200.81 105.375 199.658 104.827 199.704 103.97C199.775 103.023 200.966 102.712 201.943 102.703Z" fill="#62E079"/>
<path d="M201.455 105.232C201.644 104.237 202.073 103.624 202.929 103.671C203.789 103.709 204.219 104.361 204.228 105.338C204.127 106.365 203.579 107.517 202.722 107.47C201.745 107.479 201.376 106.176 201.455 105.232Z" fill="#62E079"/>
<path d="M201.759 102.927C201.948 101.932 202.438 100.668 203.298 100.706C204.157 100.745 204.524 102.056 204.455 102.995C204.354 104.021 203.837 104.602 202.98 104.556C202.209 104.55 201.779 103.898 201.77 102.921L201.759 102.927Z" fill="#62E079"/>
<path d="M129.012 58.9111C128.516 58.7518 127.498 58.5875 127 57.9302C129.515 57.9302 130.166 57.0942 129.839 55C130.591 56.8294 131.275 57.072 133.667 56.5376C132.105 57.852 131.906 59.1051 133.385 60.314C132.156 60.5051 130.647 58.8427 130.018 61.3634C129.364 62.6963 129.985 59.2262 129.012 58.9111Z" fill="#0090D6"/>
</svg>
