<svg width="314" height="252" viewBox="0 0 314 252" fill="none" xmlns="http://www.w3.org/2000/svg">
<circle cx="64.184" cy="66.7517" r="1.29388" fill="#FE5953"/>
<circle cx="148.188" cy="40.2938" r="1.29388" fill="#FE9E22"/>
<circle cx="257.327" cy="187.135" r="1.29388" fill="#FE9E22"/>
<circle cx="263.97" cy="125.649" r="1.98434" fill="#FE5953"/>
<circle cx="50.6536" cy="158.391" r="1.65362" fill="#72A1E5"/>
<path d="M68.8353 112.143L69.1054 114.276L66.9719 114.546C66.3834 114.621 65.9662 115.159 66.0408 115.747C66.1153 116.336 66.6535 116.753 67.242 116.679L69.3755 116.409L69.6456 118.541C69.7201 119.13 70.2583 119.547 70.8468 119.472C71.4354 119.398 71.8525 118.86 71.778 118.271L71.5079 116.138L73.6403 115.868C74.2288 115.794 74.646 115.256 74.5714 114.667C74.4969 114.078 73.9587 113.661 73.3702 113.736L71.2378 114.006L70.9677 111.873C70.8932 111.285 70.355 110.867 69.7665 110.942C69.1779 111.016 68.7608 111.555 68.8353 112.143Z" fill="#FE9E22"/>
<path d="M242.366 58.1056C243.029 59.7231 243.196 61.2773 243.532 62.7881C243.628 63.2184 243.673 63.6597 243.753 64.0936C243.864 64.6884 243.783 65.1989 243.059 65.2643C242.404 65.3237 242.175 64.876 242.161 64.3098C242.123 62.7502 242.093 61.1899 242.082 59.6309C242.079 59.1743 242.027 58.6998 242.368 58.1054L242.366 58.1056Z" fill="#FE9E22"/>
<path d="M243.933 73.665C243.444 72.8263 243.336 71.8635 243.126 70.9369C242.917 70.021 242.74 69.0962 242.582 68.171C242.49 67.6313 242.715 67.2299 243.302 67.1601C243.79 67.1028 244.135 67.3647 244.164 67.8453C244.275 69.6913 244.377 71.5401 244.172 73.3888C244.158 73.5082 244.118 73.6179 243.932 73.6669L243.933 73.665Z" fill="#FE9F24"/>
<path d="M235.544 67.1906C236.876 66.5104 238.318 66.325 239.729 66.0216C240.222 65.9155 240.721 65.8179 241.221 65.7665C241.699 65.7174 242.045 65.9578 242.12 66.4297C242.196 66.9016 241.934 67.2999 241.468 67.3262C239.496 67.4378 237.518 67.5946 235.544 67.1906Z" fill="#FE9E22"/>
<path d="M250.59 65.507C249.708 66.1431 248.662 66.2315 247.672 66.4796C246.952 66.6606 246.218 66.802 245.483 66.9007C244.972 66.9693 244.596 66.6948 244.544 66.1791C244.498 65.7058 244.784 65.3565 245.264 65.3323C247.035 65.2464 248.811 65.1225 250.59 65.507Z" fill="#FE9E22"/>
<path d="M113.134 110.685L113.153 110.609C110.315 112.639 107.421 114.883 106.27 118.155C104.613 122.889 104.168 127.966 103.681 132.971C101.756 133.65 99.8648 134.438 97.9065 134.992C92.065 136.645 87.7806 139.854 86.3812 146.092C83.7255 146.89 82.2209 148.805 81.237 151.289C78.8918 157.197 77.2965 163.311 75.8636 169.501C74.7698 174.206 75.9305 177.989 79.059 181.542C83.5344 186.624 88.349 191.334 93.4311 195.79C94.1427 196.416 94.9213 196.631 95.8001 196.736C100.142 197.252 104.507 197.419 108.873 197.538C120.231 197.849 131.589 198.145 142.948 198.011C144.509 197.992 144.977 198.494 145.02 199.998C145.106 203.093 145.173 206.183 145.527 209.274C145.742 211.137 146.425 211.92 148.33 211.968C154.225 212.111 160.076 211.781 165.912 210.965C169.776 210.425 169.81 210.434 169.905 206.613C171.94 206.303 173.965 205.854 176.009 205.715C178.422 205.553 179.405 204.464 179.186 202.066C179.062 200.729 179.186 199.363 179.2 198.011C191.112 197.844 203.025 197.701 214.918 197.013C216.694 196.913 218.648 197.147 220.11 195.771C221.777 194.2 223.353 192.528 224.967 190.899C226.945 190.722 228.927 190.536 230.904 190.364C232.027 190.264 233.082 190.068 233.961 189.242C237.844 185.588 241.622 181.843 244.799 177.53C247.855 173.379 249.355 168.856 248.534 163.664C248.347 162.489 248.395 161.286 248.281 160.096C247.688 153.987 246.704 147.988 244.063 142.352C241.746 137.414 237.825 135.15 232.504 135.025C228.377 134.925 224.418 135.813 220.721 137.547C218.939 138.383 218.361 137.901 217.588 136.348C215.892 132.948 214.177 129.537 212.038 126.375C211.378 125.009 210.724 123.643 210.065 122.272C205.222 115.256 187.669 105.942 187.669 108.197C184.234 108.722 180.714 108.937 177.399 109.873C174.653 110.647 173.23 109.711 171.658 107.705C167.808 102.799 164.245 97.6121 158.671 94.3069C154.726 91.9617 150.657 89.8792 146.597 87.7633C148.56 84.2288 150.518 80.6943 152.027 76.9305C152.591 75.531 152.309 74.7811 150.743 74.3178C146.878 73.1667 146.898 73.0999 147.609 69.188C147.652 68.954 147.729 68.7247 147.772 68.4955C148.469 64.9801 148.297 64.6648 144.696 63.8337C137.975 62.2814 131.136 61.4217 124.305 60.5381C122.17 60.261 120.007 60.1798 118.994 57.8012C117.055 53.2446 113.262 51.5442 108.663 51.0474C107.01 50.8707 105.367 50.5985 103.719 50.3692C95.5183 49.1035 97.4289 51.0474 91.2817 88.5657C90.7802 92.5635 91.105 92.8788 95.0407 93.877C95.1935 93.9152 95.3607 93.9105 95.5135 93.9487C104.02 96.1315 112.704 97.4832 121.292 99.2743C120.704 99.9 120.131 100.54 119.52 101.142C116.845 103.778 113.912 106.229 113.22 110.236L113.119 110.685H113.134ZM179.921 39.288C178.001 38.5668 176.74 40.3102 175.704 42.7748C172.518 50.3835 169.652 58.0973 167.264 65.9927C166.71 67.822 167.474 68.8585 169.041 69.5606C176.855 73.0808 184.831 76.1567 193.085 78.4924C195.081 79.056 196.409 78.4733 197.288 76.5627C198.874 73.0999 200.665 69.7325 202.174 66.2362C204.906 59.9124 207.677 53.6028 209.683 46.9828C210.318 44.8859 209.602 44.0214 207.715 43.6011C198.912 41.6428 190.004 40.3532 179.926 39.2833L179.921 39.288Z" fill="#FEFEFE"/>
<path d="M203.105 92.5826C200.599 92.5826 199.789 93.6861 199.91 95.8751C200.28 102.783 200.51 107.183 201.655 113.976C202.288 117.726 203.219 121.427 203.937 125.169C204.335 127.234 205.486 128.117 207.559 128.046C216.131 127.746 224.61 126.666 233.04 125.106C234.73 124.793 235.718 123.974 235.616 122.065C235.18 113.828 233.175 105.684 231.89 97.5381C231.473 94.8928 230.567 91.6301 228.914 91.2543C223.66 90.0603 209.391 92.5826 203.105 92.5826Z" fill="#72A1E5"/>
<path opacity="0.99" d="M226.498 121.188C226.399 121.197 226.299 121.186 226.204 121.156C226.109 121.126 226.021 121.077 225.945 121.013L223.642 119.074C223.49 118.944 223.395 118.76 223.378 118.56C223.362 118.361 223.425 118.163 223.554 118.01C223.682 117.857 223.866 117.762 224.066 117.744C224.265 117.726 224.463 117.788 224.617 117.916L226.341 119.368L230.12 114.878C230.25 114.726 230.435 114.632 230.634 114.615C230.833 114.599 231.031 114.662 231.184 114.79C231.337 114.919 231.432 115.103 231.45 115.302C231.468 115.502 231.406 115.7 231.278 115.853L227.012 120.922C226.948 120.998 226.87 121.061 226.781 121.106C226.693 121.152 226.597 121.18 226.498 121.188Z" fill="#C9DFFF"/>
<path d="M212.038 126.375C214.178 129.537 215.888 132.948 217.589 136.348C218.362 137.901 218.935 138.383 220.722 137.547C224.414 135.813 228.374 134.93 232.505 135.025C237.826 135.154 241.747 137.414 244.064 142.352C246.705 147.988 247.689 153.992 248.281 160.096C248.396 161.281 248.348 162.489 248.535 163.664C249.356 168.856 247.856 173.375 244.799 177.53C241.623 181.843 237.845 185.588 233.962 189.242C233.083 190.068 232.027 190.269 230.905 190.364C228.928 190.536 226.945 190.718 224.968 190.899C219.566 191.038 214.164 191.219 208.762 191.315C198.822 191.487 188.887 191.606 178.948 191.749C178.394 186.39 177.849 181.031 177.286 175.672C177.133 174.23 178.184 174.683 178.871 174.679C181.966 174.65 185.062 174.679 188.161 174.664C188.954 174.664 189.938 174.683 190.287 173.9C190.636 173.107 189.881 172.429 189.394 171.822C186.155 167.786 182.454 164.195 178.704 160.646C174.878 156.614 170.694 152.994 166.29 149.593C164.523 148.227 163.157 148.356 161.509 149.78C156.255 154.312 151.813 159.59 147.338 164.839C145.026 167.552 142.719 170.289 140.885 173.365C139.777 175.218 140.207 175.968 142.356 176.04C143.937 176.092 145.523 175.978 147.104 175.94C148.207 175.835 149.325 175.792 150.414 175.61C151.904 175.362 152.525 175.749 152.515 177.42C152.492 182.187 152.644 186.954 152.726 191.721C144.295 191.597 135.87 191.506 127.44 191.339C121.159 191.214 114.883 190.89 108.602 190.832C103.926 190.789 99.9851 189.5 96.804 185.841C94.306 182.966 91.4115 180.444 88.732 177.726C87.1176 176.092 85.5127 174.435 84.4142 172.376C86.2483 164.209 89.1953 156.443 92.8492 148.925C93.6134 147.358 94.7932 146.259 96.3646 145.519C101.475 143.117 106.811 141.33 112.198 139.692C113.517 139.291 114.558 138.952 114.73 137.122C115.14 132.723 115.776 128.334 116.545 123.978C117.156 120.529 116.96 116.77 119.668 113.962C125.696 107.714 132.354 102.221 139.619 97.4689C141.057 96.5279 142.652 95.8688 144.353 96.4706C152.105 99.217 159.489 102.675 165.574 108.369C168.707 111.301 171.138 114.869 173.914 118.127C174.606 118.943 175.26 119.97 176.65 119.631C180.801 118.614 185.057 118.179 189.265 117.487C194.777 116.584 199.859 116.961 204.458 120.787C206.846 122.774 209.068 125.119 212.043 126.366L212.038 126.375Z" fill="#FFECEB"/>
<path d="M121.311 99.2696C112.723 97.4737 104.04 96.1268 95.5329 93.944C95.38 93.9058 95.2176 93.9105 95.06 93.8723C91.1243 92.8741 90.7995 92.5588 91.301 88.561C92.8724 76.0565 93.608 65.8208 97.1902 52.9246C99.5784 47.9095 104.392 50.5845 108.677 51.0427C113.277 51.5395 117.069 53.2399 119.009 57.7965C120.021 60.1799 122.185 60.2611 124.32 60.5334C131.15 61.417 137.99 62.2767 144.71 63.8291C148.312 64.6601 148.484 64.9754 147.786 68.4908C147.738 68.7248 147.662 68.9493 147.624 69.1833C146.912 73.0952 146.893 73.1668 150.757 74.3131C152.319 74.7765 152.601 75.5263 152.042 76.9258C150.528 80.6896 148.57 84.2241 146.611 87.7586C146.086 87.5962 145.522 87.515 145.045 87.2666C141.486 85.4134 138.219 85.9292 135.143 88.3843C134.088 89.2249 132.917 89.9127 131.867 90.7534C128.337 93.5714 124.831 96.4277 121.316 99.2744L121.311 99.2696ZM96.235 77.2793C97.8351 74.1125 99.4256 70.941 101.035 67.7743C101.742 66.3796 102.697 65.6775 104.455 65.9068C117.036 67.5355 129.507 69.7804 141.926 72.3501C144.586 72.8993 144.939 72.5268 145.202 69.8329C145.403 67.7361 144.008 67.5307 142.594 67.2203C134.618 65.4578 126.551 64.2112 118.483 63.0171C113 62.2051 107.474 61.6701 101.962 61.0301C100.701 60.882 99.6644 61.011 99.2298 62.5824C97.8924 67.3874 96.7986 72.2402 96.2398 77.284L96.235 77.2793Z" fill="#FECF4E"/>
<path d="M121.311 99.2694C124.827 96.4275 128.328 93.5712 131.862 90.7484C132.913 89.9078 134.083 89.2152 135.139 88.3793C138.219 85.9291 141.482 85.4084 145.04 87.2617C145.518 87.51 146.081 87.596 146.607 87.7536C150.667 89.8695 154.736 91.9568 158.681 94.2972C164.255 97.6072 167.814 102.79 171.668 107.695C173.244 109.701 174.663 110.637 177.409 109.863C180.729 108.927 184.249 108.712 187.679 108.187C191.313 107.781 194.953 107.399 198.583 108.244C200.26 109.992 201.931 111.745 203.622 113.484C205.084 114.984 205.733 117.162 207.644 118.284C208.04 119.865 209 121.097 210.075 122.263C210.734 123.629 211.388 124.995 212.048 126.361C209.077 125.114 206.856 122.769 204.463 120.782C199.863 116.956 194.776 116.579 189.269 117.482C185.061 118.169 180.805 118.604 176.655 119.626C175.265 119.965 174.61 118.938 173.918 118.122C171.143 114.864 168.712 111.301 165.578 108.364C159.493 102.665 152.109 99.2121 144.357 96.4657C142.657 95.8639 141.061 96.523 139.624 97.464C132.359 102.212 125.701 107.709 119.673 113.957C116.965 116.765 117.16 120.519 116.549 123.973C115.78 128.329 115.14 132.713 114.734 137.117C114.562 138.947 113.521 139.286 112.203 139.687C106.815 141.325 101.48 143.107 96.369 145.514C94.7976 146.254 93.613 147.353 92.8536 148.92C89.1997 156.433 86.2575 164.204 84.4233 172.372C81.8919 170.108 81.3903 167.266 81.8823 164.037C82.8137 157.909 84.643 152.01 86.396 146.092C87.7954 139.854 92.0798 136.644 97.9213 134.992C99.8796 134.438 101.776 133.65 103.696 132.971C104.517 132.699 105.32 132.303 106.161 132.174C109.557 131.648 111.061 129.938 111.247 126.294C111.51 121.045 112.489 115.834 113.167 110.608L113.148 110.68C113.182 110.532 113.215 110.379 113.249 110.231C113.941 106.224 116.874 103.769 119.549 101.137C120.16 100.535 120.733 99.8903 121.321 99.2694H121.311Z" fill="#FFA098"/>
<path d="M152.72 191.725C152.639 186.959 152.481 182.192 152.51 177.425C152.52 175.748 151.894 175.366 150.409 175.615C149.315 175.796 148.202 175.839 147.099 175.944C148.054 174.688 148.985 173.413 149.974 172.181C154.072 167.06 158.003 161.797 162.76 157.235C164.035 156.013 165.244 155.287 167.183 155.893C170.307 156.872 173.187 158.3 176.034 159.858C176.831 160.292 177.505 161.439 178.694 160.65C182.444 164.199 186.15 167.791 189.384 171.827C189.871 172.434 190.625 173.107 190.277 173.905C189.933 174.688 188.949 174.669 188.151 174.669C185.056 174.683 181.956 174.655 178.861 174.683C178.178 174.688 177.127 174.234 177.276 175.677C177.834 181.036 178.384 186.395 178.933 191.754C179.019 193.841 179.1 195.929 179.186 198.016C179.172 199.368 179.048 200.729 179.172 202.071C179.391 204.469 178.408 205.562 175.995 205.72C173.951 205.859 171.926 206.308 169.891 206.618C168.707 206.637 167.527 206.628 166.342 206.675C163.109 206.809 159.89 207.172 156.642 206.938C154.731 206.804 153.613 206.188 153.532 204.005C153.379 199.907 152.997 195.819 152.711 191.73L152.72 191.725Z" fill="#FE5C4F"/>
<path d="M152.72 191.725C153.007 195.819 153.389 199.907 153.542 204.001C153.623 206.183 154.741 206.8 156.651 206.933C159.899 207.163 163.118 206.8 166.352 206.671C167.532 206.623 168.716 206.628 169.901 206.613C169.805 210.439 169.777 210.425 165.908 210.965C160.071 211.777 154.22 212.111 148.326 211.968C146.42 211.92 145.737 211.141 145.522 209.274C145.169 206.183 145.102 203.093 145.016 199.998C144.973 198.494 144.505 197.992 142.943 198.011C131.58 198.145 120.222 197.849 108.869 197.538C104.503 197.419 100.137 197.252 95.7956 196.736C94.9168 196.631 94.1382 196.416 93.4265 195.79C88.3445 191.334 83.5252 186.624 79.0545 181.542C75.926 177.989 74.7701 174.206 75.8591 169.501C77.2968 163.316 78.8873 157.202 81.2325 151.289C82.2164 148.805 83.721 146.89 86.3766 146.092C84.6237 152.01 82.7992 157.909 81.863 164.037C81.371 167.266 81.8725 170.108 84.404 172.372C85.4978 174.43 87.1074 176.083 88.7171 177.721C91.3966 180.439 94.2958 182.966 96.7891 185.836C99.9702 189.5 103.915 190.785 108.587 190.827C114.868 190.885 121.144 191.21 127.425 191.334C135.85 191.501 144.28 191.592 152.711 191.716L152.72 191.725Z" fill="#FFC3BE"/>
<path d="M179.191 198.011C179.105 195.924 179.024 193.836 178.938 191.749C188.878 191.606 198.813 191.486 208.752 191.315C214.154 191.219 219.556 191.042 224.958 190.899C223.344 192.528 221.768 194.199 220.101 195.771C218.639 197.146 216.686 196.908 214.909 197.013C203.016 197.701 191.104 197.844 179.191 198.011Z" fill="#FFC3BE"/>
<path d="M113.153 110.613C112.48 115.839 111.501 121.054 111.233 126.299C111.047 129.943 109.542 131.653 106.146 132.179C105.301 132.308 104.503 132.704 103.682 132.976C104.169 127.966 104.613 122.893 106.271 118.16C107.417 114.888 110.311 112.643 113.153 110.613Z" fill="#FFC3BE"/>
<path d="M113.234 110.236C113.201 110.384 113.167 110.537 113.134 110.685C113.167 110.537 113.201 110.384 113.234 110.236Z" fill="#222224"/>
<path d="M178.694 160.651C177.505 161.439 176.826 160.292 176.033 159.858C173.182 158.301 170.307 156.872 167.183 155.893C165.239 155.287 164.035 156.013 162.76 157.235C158.003 161.797 154.072 167.056 149.974 172.181C148.99 173.413 148.058 174.688 147.098 175.944C145.517 175.983 143.932 176.097 142.351 176.045C140.201 175.973 139.776 175.228 140.879 173.37C142.714 170.294 145.016 167.557 147.332 164.844C151.808 159.595 156.255 154.312 161.504 149.784C163.152 148.361 164.518 148.237 166.285 149.598C170.684 152.994 174.868 156.619 178.699 160.651H178.694Z" fill="#FF9E96"/>
<path d="M96.2307 77.284C96.7848 72.2401 97.8833 67.3873 99.2207 62.5823C99.6554 61.0109 100.692 60.8867 101.953 61.03C107.465 61.67 112.986 62.205 118.474 63.017C126.546 64.2111 134.614 65.4577 142.585 67.2202C144.004 67.5354 145.399 67.736 145.193 69.8328C144.935 72.5267 144.577 72.8993 141.917 72.35C129.498 69.7803 117.027 67.5402 104.446 65.9067C102.688 65.6774 101.733 66.3795 101.026 67.7742C99.4213 70.941 97.826 74.1125 96.226 77.2792L96.2307 77.284Z" fill="#F5F4F0"/>
<path d="M179.922 39.288C190 40.3579 198.908 41.6475 207.711 43.6058C209.597 44.0261 210.319 44.8906 209.679 46.9875C207.673 53.6075 204.902 59.9171 202.17 66.2409C200.661 69.7325 198.875 73.1046 197.284 76.5674C196.405 78.478 195.077 79.0607 193.081 78.4971C184.827 76.1614 176.851 73.0902 169.037 69.5653C167.47 68.8584 166.706 67.8267 167.26 65.9974C169.648 58.102 172.509 50.3834 175.7 42.7795C176.736 40.3101 177.997 38.5667 179.917 39.2927L179.922 39.288ZM193.821 71.5666C193.855 68.3521 193.549 65.4051 189.905 63.9674C188.41 63.3799 188.706 61.4264 190.33 60.5762C193.683 58.8137 195.297 55.9145 195.526 52.294C195.689 49.753 194.939 47.3839 192.665 45.8364C190.678 44.4894 188.624 44.6518 186.575 45.7313C182.539 47.8568 180.567 53.5836 182.449 57.7199C182.879 58.6656 183.882 59.4394 182.95 60.7243C181.952 62.0998 180.801 61.1732 179.941 60.9153C176.574 59.8884 174.463 61.5124 172.614 63.9531C170.833 66.303 170.942 66.9526 173.555 68.2279C178.986 70.874 184.584 73.1189 190.311 75.0438C193.305 76.0516 193.745 75.7125 193.816 72.5266C193.826 72.2066 193.816 71.8914 193.816 71.5714L193.821 71.5666Z" fill="#72A1E5"/>
<path d="M193.821 71.5664C193.821 71.8865 193.826 72.2017 193.821 72.5217C193.749 75.7075 193.31 76.0467 190.315 75.0388C184.588 73.1188 178.99 70.8739 173.559 68.223C170.942 66.9477 170.837 66.3029 172.619 63.9482C174.462 61.5122 176.573 59.8882 179.945 60.9104C180.8 61.1731 181.956 62.0949 182.955 60.7193C183.886 59.4345 182.883 58.6655 182.453 57.715C180.576 53.5787 182.544 47.8518 186.58 45.7264C188.629 44.6469 190.687 44.4797 192.67 45.8314C194.943 47.3742 195.688 49.7433 195.531 52.2891C195.301 55.9095 193.687 58.8088 190.334 60.5713C188.715 61.4215 188.419 63.375 189.909 63.9625C193.553 65.4002 193.859 68.3424 193.826 71.5617L193.821 71.5664Z" fill="#C9DFFF"/>
<path d="M204.808 99.8397C204.759 99.3707 205.109 98.9548 205.579 98.9215L213.65 98.3508C213.811 98.3395 213.97 98.3834 214.102 98.4752C214.639 98.8486 214.423 99.6884 213.772 99.7554L205.724 100.585C205.265 100.632 204.855 100.298 204.808 99.8397Z" fill="#C9DFFF"/>
<path d="M205.592 104.349C205.544 103.887 205.879 103.473 206.341 103.423L221.55 101.777C222.283 101.698 222.697 102.595 222.162 103.101C222.041 103.215 221.888 103.287 221.723 103.306L206.531 105.101C206.063 105.156 205.64 104.817 205.592 104.349Z" fill="#C9DFFF"/>
<path d="M206.49 109.094C206.442 108.631 206.777 108.218 207.239 108.168L222.448 106.522C223.181 106.443 223.595 107.34 223.06 107.846C222.939 107.96 222.786 108.032 222.621 108.051L207.429 109.845C206.961 109.901 206.538 109.562 206.49 109.094Z" fill="#C9DFFF"/>
<path d="M207.648 114.297C207.601 113.839 207.931 113.428 208.388 113.374L221.413 111.842C222.14 111.757 222.556 112.647 222.025 113.15C221.908 113.26 221.76 113.331 221.601 113.352L208.596 115.047C208.125 115.108 207.697 114.769 207.648 114.297Z" fill="#C9DFFF"/>
</svg>
