<svg
    fill="none"
    height="120"
    viewBox="0 0 120 120"
    width="120"
    xmlns="http://www.w3.org/2000/svg"
  >
    <path
      clipRule="evenodd"
      d="M58.4915 101.45C57.6312 100.322 56.771 99.1938 55.892 98.0804C54.4756 96.2788 53.2509 96.3205 51.9511 98.2055C51.5658 98.7662 51.2142 99.3513 50.8627 99.936C50.3934 100.717 49.9245 101.497 49.3766 102.217C47.6436 104.486 47.1188 104.452 45.3941 102.226C44.7351 101.375 44.0839 100.516 43.4324 99.6574C42.5765 98.5291 41.7202 97.4 40.845 96.2872C39.312 94.3438 37.8373 94.4606 36.7208 96.6208C36.4896 97.0686 36.2838 97.5331 36.0781 97.9977C35.7206 98.8049 35.363 99.6123 34.8712 100.332C34.5102 100.86 33.9483 101.25 33.3859 101.64C33.1305 101.817 32.8751 101.994 32.6383 102.184C32.5025 101.923 32.3412 101.667 32.1802 101.411C31.8374 100.867 31.4959 100.325 31.4052 99.7401C30.7588 95.5441 30.1612 91.3416 29.5637 87.1386C29.2062 84.6248 28.8488 82.1108 28.4808 79.5979C26.3941 65.4195 24.2933 51.2411 22.1925 37.0626C21.4918 32.3333 20.791 27.6039 20.0908 22.8746C19.316 17.6535 23.6068 13.3748 28.8307 14.0754C43.9111 16.0938 58.9997 18.0955 74.0883 20.0555C80.0288 20.8228 84.228 24.8679 85.0611 30.823C85.2595 32.2347 85.4501 33.648 85.6408 35.0615C86.0426 38.0407 86.4444 41.0201 86.9191 43.9842C88.4769 53.705 90.4128 63.4559 92.4445 73.2168L91.423 72.4489L91.3994 72.4317C90.7291 71.943 89.9857 71.5465 89.1722 71.2747C88.3569 71.0023 87.5163 70.8704 86.6691 70.8704C85.822 70.8704 84.9814 71.0023 84.1661 71.2747C83.3526 71.5465 82.6092 71.943 81.9389 72.4317L81.9152 72.4489L69.9629 81.4342C68.9541 82.1805 68.1629 83.1354 67.6076 84.246L67.6043 84.2527C67.0476 85.3713 66.7637 86.5796 66.7637 87.8296V100.951C66.3698 101.361 65.9916 101.78 65.6253 102.186C63.9949 103.992 62.5986 105.54 61.0909 104.819C60.212 103.706 59.3517 102.578 58.4915 101.45Z"
      fill="#FFECEB"
      fillRule="evenodd"
    />
    <path
      d="M65.2604 64.6052C64.6522 63.2624 63.3024 63.4875 61.4278 63.2457C54.5708 62.3783 47.7139 61.5192 40.8486 60.6935C39.5405 60.535 37.9575 59.9512 37.3576 61.8528C36.8744 63.3791 38.0075 65.0555 40.0238 65.4058C43.973 66.0814 47.9638 66.5068 51.9297 67.1073C54.5625 67.5076 61.7028 67.7745 65.3604 68.2499"
      fill="#EE6A5F"
    />
    <path
      d="M79.0692 60.2003C80.6106 60.2253 81.6771 58.6573 80.469 57.2227C79.5858 56.1718 78.0861 55.2294 76.7447 55.0292C68.1964 53.7531 59.6065 52.7022 51.0332 51.5762C46.9174 51.0341 42.8099 50.4419 38.6773 50.0082C37.3193 49.8665 35.4363 49.0074 35.0031 51.3844C34.6948 53.0692 35.9946 54.4787 38.1525 54.7706C47.4756 56.0384 56.807 57.2644 66.1385 58.5072C70.321 59.066 74.5118 59.6081 79.0692 60.2003Z"
      fill="#EE6A5F"
    />
    <path
      d="M35.6362 40.0166C34.9363 40.467 33.8032 40.8006 33.6533 41.3928C33.4616 42.1601 33.8032 43.3778 34.3781 43.9366C35.103 44.6455 36.2611 45.1293 37.2859 45.2711C47.7088 46.7056 58.14 48.0568 68.5712 49.433C71.2457 49.7833 73.9118 50.2503 76.603 50.4672C77.4278 50.5339 78.9442 50.0668 79.0275 49.6248C79.2024 48.699 78.8692 47.473 78.311 46.6806C77.8694 46.0467 76.8113 45.6464 75.9698 45.5296C62.7308 43.7531 49.4834 42.035 36.2444 40.3169C36.1111 40.3002 35.9695 40.3169 35.8278 40.3169C35.7695 40.2168 35.7112 40.1167 35.6445 40.0249L35.6362 40.0166Z"
      fill="#EE6A5F"
    />
    <path
      d="M67.4633 39.925C67.8549 39.6998 68.9463 39.4246 69.0963 38.8908C69.3213 38.0984 69.1713 36.839 68.6547 36.2719C67.9715 35.5379 66.8051 35.0375 65.7886 34.8874C60.0398 34.0366 54.2743 33.2777 48.5004 32.6104C47.7756 32.527 46.5675 32.9857 46.2925 33.5445C45.9926 34.1451 46.3175 35.3127 46.7674 35.9466C47.2423 36.6138 48.1422 37.2477 48.942 37.3645C54.9658 38.2736 60.9979 39.0492 67.4716 39.925H67.4633Z"
      fill="#EE6A5F"
    />
    <path
      d="M40 34.5447C39.9333 32.3762 38.5503 31 37.0673 31C35.8175 31 35.126 31.6005 35.1843 32.8849C35.251 34.3195 37.0006 36.021 38.3837 35.7541C39.0919 35.6206 39.6667 34.8116 40 34.553V34.5447Z"
      fill="#EE6A5F"
    />
    <path
      d="M97.6171 108.779C98.7119 108.779 99.6487 108.389 100.428 107.608C101.208 106.826 101.598 105.886 101.598 104.789V86.8321C101.598 86.2003 101.457 85.6017 101.174 85.0364C100.893 84.4711 100.503 84.0056 100.006 83.6398L88.0624 74.6614C87.6975 74.3953 87.316 74.1958 86.9179 74.0628C86.5198 73.9298 86.1051 73.8633 85.6738 73.8633C85.2425 73.8633 84.8278 73.9298 84.4297 74.0628C84.0316 74.1958 83.65 74.3953 83.2851 74.6614L71.3418 83.6398C70.8442 84.0056 70.454 84.4711 70.1714 85.0364C69.8901 85.6017 69.7494 86.2003 69.7494 86.8321V104.789C69.7494 105.886 70.1389 106.826 70.9178 107.608C71.6981 108.389 72.6357 108.779 73.7305 108.779H80.6927C81.245 108.779 81.6927 108.332 81.6927 107.779V95.8129C81.6927 95.2606 82.1404 94.8129 82.6927 94.8129H88.6549C89.2071 94.8129 89.6549 95.2606 89.6549 95.8129V107.779C89.6549 108.332 90.1026 108.779 90.6549 108.779H97.6171Z"
      fill="#EE6A5F"
    />
  </svg>