<svg
    fill="none"
    height="120"
    viewBox="0 0 100 75"
    width="100"
    xmlns="http://www.w3.org/2000/svg"
  >
    <mask
      height="75"
      id="mask0_2633_29421"
      maskUnits="userSpaceOnUse"
      style= "mask-type: alpha"
      width="100"
      x="0"
      y="0"
    >
      <path
        d="M93.9152 0.0289925C94.9999 0.0729507 96.6986 0.0110102 97.7367 0.65038C97.8782 0.725807 98.0366 0.849235 98.2135 1.02649C100.239 3.07015 100.095 5.78691 99.8864 8.45502C99.3341 15.4213 98.7258 22.3957 98.1335 29.3619C97.5572 36.2309 97.0769 43.108 96.5326 49.9769C96.2044 54.1048 94.7957 58.111 91.554 60.7953C87.6159 64.0555 82.341 64.3636 77.5305 65.0529C63.7792 67.0317 50.0438 69.1241 36.3005 71.1272C29.3768 72.1409 22.4611 73.1384 15.5294 74.1034C10.7429 74.7684 4.11536 76.6661 1.03371 71.5326C-0.551131 68.897 0.097215 65.7747 0.329339 62.8714C0.617492 59.3031 0.889637 55.743 1.15378 52.1747C1.66605 45.1679 1.96221 38.1367 2.65858 31.1461L2.6695 31.0362C3.00206 27.6908 3.33614 24.3299 3.81119 21.0008C4.17939 18.4543 5.61215 16.135 7.3811 14.3346C9.2701 12.4045 11.5993 10.9204 14.1607 10.1013C15.5775 9.64715 17.0903 9.50118 18.5551 9.27411L23.6218 8.47124C31.6901 7.18179 39.7504 5.80313 47.8427 4.64344C53.6137 3.81624 59.3928 3.04582 65.1719 2.34027C72.1196 1.48875 79.0833 0.693992 86.071 0.239846C88.6804 0.0695412 91.3058 -0.0602148 93.9152 0.0289925Z"
        fill="#FFECEB"
      />
    </mask>
    <g mask="url(#mask0_2633_29421)">
      <path
        d="M93.9152 0.0289925C94.9999 0.0729507 96.6986 0.0110102 97.7367 0.65038C97.8782 0.725807 98.0366 0.849235 98.2135 1.02649C100.239 3.07015 100.095 5.78691 99.8864 8.45502C99.3341 15.4213 98.7258 22.3957 98.1335 29.3619C97.5572 36.2309 97.0769 43.108 96.5326 49.9769C96.2044 54.1048 94.7957 58.111 91.554 60.7953C87.6159 64.0555 82.341 64.3636 77.5305 65.0529C63.7792 67.0317 50.0438 69.1241 36.3005 71.1272C29.3768 72.1409 22.4611 73.1384 15.5294 74.1034C10.7429 74.7684 4.11536 76.6661 1.03371 71.5326C-0.551131 68.897 0.097215 65.7747 0.329339 62.8714C0.617492 59.3031 0.889637 55.743 1.15378 52.1747C1.66605 45.1679 1.96221 38.1367 2.65858 31.1461L2.6695 31.0362C3.00206 27.6908 3.33614 24.3299 3.81119 21.0008C4.17939 18.4543 5.61215 16.135 7.3811 14.3346C9.2701 12.4045 11.5993 10.9204 14.1607 10.1013C15.5775 9.64715 17.0903 9.50118 18.5551 9.27411L23.6218 8.47124C31.6901 7.18179 39.7504 5.80313 47.8427 4.64344C53.6137 3.81624 59.3928 3.04582 65.1719 2.34027C72.1196 1.48875 79.0833 0.693992 86.071 0.239846C88.6804 0.0695412 91.3058 -0.0602148 93.9152 0.0289925Z"
        fill="#FFECEB"
      />
      <path
        d="M45.0084 24.7557C43.0874 24.9017 42.0068 24.5043 41.6786 23.004C41.3905 21.6578 42.5591 19.8412 44.1199 19.452C45.8008 19.0303 47.5377 18.8194 49.2506 18.568C54.8536 17.7327 60.4566 16.9217 66.0596 16.1026C68.4129 15.762 69.5014 16.2567 69.7496 17.7732C70.0137 19.4195 68.701 21.1956 66.812 21.5524C64.4748 21.9903 62.1135 22.3309 59.7522 22.6715C54.6535 23.4095 49.5548 24.1232 45.0084 24.7638V24.7557Z"
        fill="#EE6A5F"
      />
      <path
        d="M43.4473 32.9797C41.4623 32.9635 40.4537 31.5281 41.3022 30.1656C41.8225 29.3303 42.871 28.5031 43.8075 28.3328C47.9858 27.5462 52.196 26.9704 56.4062 26.3865C57.5989 26.2243 58.9596 26.0378 59.4319 27.6921C59.784 28.9167 58.7435 30.5954 57.1747 30.8631C52.4762 31.674 47.7536 32.3309 43.4473 32.9797Z"
        fill="#EE6A5F"
      />
      <path
        d="M46.3953 41.8549C42.2172 42.0894 41.676 41.2965 41.7046 39.1899C41.7345 36.996 44.9014 37.2562 46.8614 36.9599C55.6039 35.6097 64.4271 34.4756 73.2498 33.333C75.7492 33.0127 79.3819 31.7849 79.6985 34.3123C79.9799 36.5595 78.4323 37.4294 75.1479 37.9074C65.3121 39.3488 55.416 40.6324 46.3953 41.8549Z"
        fill="#EE6A5F"
      />
      <path
        d="M41.0476 65.9612C41.0315 65.8233 41.0073 65.6935 40.9912 65.5557Z"
        fill="#EE6A5F"
      />
      <path
        d="M11.9268 29.9628C11.9414 28.9802 12.6677 28.1537 13.6404 28.013L30.3581 25.5957C31.505 25.4299 32.5523 26.2704 32.6388 27.4259L33.3805 37.3375C33.4584 38.378 32.7233 39.3035 31.6922 39.4632L25.0002 40.4995L14.0158 41.796C12.8147 41.9378 11.7636 40.9895 11.7815 39.7802L11.9268 29.9628Z"
        fill="#FFC3BE"
      />
      <path
        d="M-2.22919 65.4808C-2.37864 64.3868 -1.61324 63.3787 -0.5193 63.2287L97.3271 49.8117C98.5284 49.647 99.5988 50.5806 99.5988 51.7932L99.5988 65.4358C99.5988 66.4478 98.8428 67.3003 97.838 67.4214L60.3922 71.9338L1.5277 78.5564C0.448431 78.6779 -0.530494 77.9158 -0.677494 76.8397L-2.22919 65.4808Z"
        fill="#FFC3BE"
      />
    </g>
  </svg>