<svg width="24" height="24" viewBox="0 0 24 24" fill="none" xmlns="http://www.w3.org/2000/svg">
<path d="M19.8967 10.3988H7.7569L11.3979 6.76884C11.6057 6.56107 11.7224 6.27928 11.7224 5.98546C11.7224 5.69164 11.6057 5.40985 11.3979 5.20209C11.1902 4.99433 10.9084 4.87761 10.6146 4.87761C10.3207 4.87761 10.0389 4.99433 9.83118 5.20209L4.31447 10.7188C4.21402 10.8237 4.13528 10.9475 4.08277 11.0829C3.97241 11.3515 3.97241 11.6528 4.08277 11.9214C4.13528 12.0569 4.21402 12.1806 4.31447 12.2855L9.83118 17.8023C9.93375 17.9057 10.0558 17.9878 10.1902 18.0438C10.3247 18.0998 10.4689 18.1286 10.6146 18.1286C10.7602 18.1286 10.9044 18.0998 11.0389 18.0438C11.1733 17.9878 11.2954 17.9057 11.3979 17.8023C11.5013 17.6997 11.5834 17.5777 11.6394 17.4432C11.6955 17.3088 11.7243 17.1645 11.7243 17.0189C11.7243 16.8732 11.6955 16.729 11.6394 16.5946C11.5834 16.4601 11.5013 16.3381 11.3979 16.2355L7.7569 12.6055H19.8967C20.1893 12.6055 20.4699 12.4893 20.6768 12.2824C20.8838 12.0754 21 11.7948 21 11.5022C21 11.2096 20.8838 10.9289 20.6768 10.722C20.4699 10.5151 20.1893 10.3988 19.8967 10.3988Z" fill="#2C2C2C"/>
</svg>
