<svg width="40" height="40" viewBox="0 0 40 40" fill="none" xmlns="http://www.w3.org/2000/svg">
<path d="M20 0C16.0444 0 12.1776 1.17298 8.8886 3.37061C5.59962 5.56824 3.03617 8.69181 1.52242 12.3463C0.00866568 16.0009 -0.387401 20.0222 0.384303 23.9018C1.15601 27.7814 3.06082 31.3451 5.85787 34.1421C8.65492 36.9392 12.2186 38.844 16.0982 39.6157C19.9778 40.3874 23.9992 39.9913 27.6537 38.4776C31.3082 36.9638 34.4318 34.4004 36.6294 31.1114C38.827 27.8224 40 23.9556 40 20C40 17.3736 39.4827 14.7728 38.4776 12.3463C37.4725 9.91982 35.9993 7.71504 34.1421 5.85786C32.285 4.00069 30.0802 2.5275 27.6537 1.52241C25.2272 0.517315 22.6264 0 20 0ZM20 36C16.8355 36 13.7421 35.0616 11.1109 33.3035C8.4797 31.5454 6.42894 29.0466 5.21794 26.1229C4.00693 23.1993 3.69008 19.9823 4.30744 16.8786C4.92481 13.7749 6.44866 10.9239 8.6863 8.68629C10.9239 6.44865 13.7749 4.9248 16.8786 4.30744C19.9823 3.69007 23.1993 4.00693 26.1229 5.21793C29.0466 6.42893 31.5454 8.47969 33.3035 11.1109C35.0616 13.7421 36 16.8355 36 20C36 24.2435 34.3143 28.3131 31.3137 31.3137C28.3131 34.3143 24.2435 36 20 36ZM20 8C19.4696 8 18.9609 8.21071 18.5858 8.58579C18.2107 8.96086 18 9.46957 18 10V18.84L13.8 21.26C13.4147 21.4783 13.1128 21.8184 12.9416 22.2268C12.7703 22.6352 12.7395 23.0888 12.8539 23.5167C12.9683 23.9445 13.2214 24.3222 13.5736 24.5907C13.9258 24.8591 14.3572 25.0031 14.8 25C15.1504 25.0024 15.4952 24.9128 15.8 24.74L21 21.74L21.18 21.56L21.5 21.3C21.5782 21.201 21.6453 21.0937 21.7 20.98C21.7652 20.8726 21.8188 20.7587 21.86 20.64C21.9144 20.5128 21.9482 20.3778 21.96 20.24L22 20V10C22 9.46957 21.7893 8.96086 21.4142 8.58579C21.0392 8.21071 20.5304 8 20 8Z" fill="#E40520"/>
</svg>
