<svg width="136" height="136" viewBox="0 0 136 136" fill="none" xmlns="http://www.w3.org/2000/svg">
<path d="M107.897 34.8794C108.662 38.4084 108.605 42.0191 108.883 45.593C109.689 55.9509 110.318 66.3251 111.022 76.6912C109.725 77.2719 108.658 78.0202 109.055 79.7008C109.648 82.2198 109.361 84.7755 109.378 87.319C106.147 87.7279 102.917 88.1327 99.6864 88.5416C99.2815 82.4365 98.8358 76.3354 98.4883 70.2262C97.879 59.5617 97.331 48.8971 96.7667 38.2325C96.7176 37.2838 96.7463 36.327 96.7381 35.3783C100.476 35.5378 104.184 35.1329 107.902 34.8835L107.897 34.8794Z" fill="#FFA098"/>
<path d="M23.767 116.589C23.7384 107.241 23.7098 97.8975 23.6771 88.5496C24.4213 88.0875 25.2555 88.2388 26.0529 88.2306C30.0439 88.1898 34.0349 88.1816 38.0301 88.1611C38.2018 88.4964 38.3286 88.8767 38.7702 88.9626C40.0583 90.5574 41.3464 92.1563 42.6345 93.751C44.675 96.2822 46.7114 98.8093 48.7519 101.341C49.6801 102.735 50.6002 104.138 51.7983 105.323C52.0846 105.777 52.3708 106.231 52.6611 106.681C54.0515 108.836 55.9815 110.611 57.0366 112.999C54.7221 114.569 52.4076 116.139 50.0972 117.71C49.3734 116.916 48.6537 116.119 47.93 115.326C47.5701 114.667 47.2389 113.992 46.5969 113.547C44.54 110.852 42.4791 108.153 40.4222 105.458C39.3509 104.039 38.2795 102.616 37.2041 101.197C35.6992 99.161 34.1944 97.1205 32.6937 95.0841L32.3011 95.2477V105.696C32.297 108.427 32.2889 111.163 32.2848 113.894L32.293 115.452L32.1089 116.675C29.3324 116.646 26.5558 116.618 23.7793 116.589H23.767Z" fill="#151B3D"/>
<path d="M75.0656 27.0326C78.2633 27.0204 81.4611 26.9304 84.6588 27.0081C89.8398 27.1389 92.5059 29.7233 92.9598 34.9002C93.0089 35.44 92.9966 35.9879 92.9966 36.5318C92.9966 60.1468 93.0007 83.7577 92.9966 107.373C92.9966 108.46 92.968 109.556 92.833 110.632C92.2606 115.175 90.445 117.162 85.9142 117.416C78.9217 117.808 71.9169 117.882 64.9163 118.09C65.3702 117.072 65.2107 116.095 64.7445 115.13C71.0582 114.974 77.3719 114.807 83.6856 114.668C88.2859 114.566 89.4431 113.425 89.4104 108.788C89.2877 90.3044 89.1487 71.8214 89.0097 53.3383C89.0097 52.9335 88.9524 52.5286 88.9197 52.1197C88.9279 47.5726 89.0587 43.0213 88.9115 38.4782C88.7725 34.2623 87.1082 33.5058 84.2008 33.5917C81.1544 33.6816 78.0957 33.4813 75.0451 33.4077C74.9184 31.2772 74.8734 29.1508 75.0738 27.0245L75.0656 27.0326Z" fill="#FD6153"/>
<path d="M75.0648 27.0324C74.8644 29.1588 74.9094 31.2892 75.0362 33.4156C74.6354 34.4951 73.8667 34.9818 72.7094 35.0063C65.676 35.1453 58.6427 35.2844 51.6093 35.4888C50.1862 35.5297 49.4297 35.0186 49.2948 33.6119C49.2948 31.5223 49.2907 29.4327 49.2866 27.3473C49.4829 24.1441 51.2521 22.4498 54.5944 22.2644C55.0687 22.2358 55.539 22.1663 56.0092 22.0968C56.9906 21.9577 57.3587 21.651 56.6062 20.6737C54.4962 17.9381 54.6925 14.9734 56.5286 12.3359C58.5241 9.4653 61.6237 9.01141 64.9318 9.543C68.0314 10.0378 69.9656 11.7634 70.7057 14.8058C71.2128 16.879 70.5422 18.6864 69.3645 20.3589C69.07 20.78 68.4117 21.1154 68.792 21.7287C69.0987 22.2194 69.7202 22.2072 70.2723 22.2522C73.2846 22.5139 74.8821 24.1073 75.0648 27.0324ZM65.7006 16.1715C65.5493 14.5768 64.6783 13.7589 63.0671 13.7262C61.411 13.6935 60.5482 14.6095 60.4214 16.1593C60.3069 17.566 61.7054 18.7396 63.2757 18.6332C64.7682 18.531 65.6024 17.7173 65.7006 16.1675V16.1715Z" fill="#72A1E5"/>
<path d="M99.6826 88.5414C102.913 88.1325 106.143 87.7276 109.374 87.3187C109.497 87.8421 109.701 88.3574 109.73 88.8849C110.171 97.5458 110.605 106.207 111.001 114.868C111.136 117.791 111.087 117.795 113.97 117.947C113.978 121.709 113.275 122.527 109.513 123.034C108.642 123.152 107.746 123.23 106.871 123.177C102.815 122.931 101.584 121.929 101.363 118.257C100.766 108.353 99.9484 98.4658 99.6826 88.5414Z" fill="#FE5C4F"/>
<path d="M49.287 27.3433C49.287 29.4328 49.2911 31.5224 49.2952 33.6079C46.445 33.6406 43.599 33.6897 40.7488 33.6978C37.5306 33.7101 36.1199 34.9614 35.9072 38.1223C35.5719 43.062 35.2938 48.0059 34.9176 52.9415C34.8154 54.2746 34.8604 55.1742 36.586 55.0842C37.4488 55.0392 38.1031 55.6485 38.2667 56.5727C38.418 57.4314 38.009 57.9998 37.2403 58.3474C36.7537 58.5682 36.1894 58.744 36.2998 59.4719C36.173 59.7418 35.9154 59.9749 35.6741 59.8031C35.2161 59.4719 35.1507 58.3515 34.2429 59.0017C33.7563 59.3492 33.9649 60.028 34.1284 60.5269C34.3779 61.2834 34.844 61.8232 35.7764 61.6964C36.3039 61.6269 36.8436 61.631 37.3793 61.5983C37.4447 63.0663 38.3566 64.4525 37.8087 65.9819C36.2425 66.9715 34.7582 66.264 33.2615 65.7652C33.5232 64.8574 32.9753 64.1377 32.7381 63.2667C31.7363 63.8391 30.6158 64.1786 30.6567 65.5852L30.1047 65.6302C30.1374 56.1965 30.121 46.7668 30.2192 37.3331C30.2887 30.9581 33.3719 27.9117 39.7265 27.6622C41.08 27.6091 42.4335 27.4823 43.7911 27.4414C45.6231 27.3842 47.455 27.3719 49.287 27.3433Z" fill="#FB5F53"/>
<path d="M113.97 117.947C111.087 117.796 111.136 117.792 111.001 114.868C110.605 106.207 110.171 97.546 109.73 88.8852C109.701 88.3577 109.497 87.8424 109.374 87.319C109.358 84.7756 109.644 82.2198 109.051 79.7009C108.658 78.0202 109.721 77.276 111.018 76.6913C113.03 76.679 113.778 77.9139 113.856 79.6845C114.179 87.1473 114.964 94.5732 115.258 102.044C115.43 106.444 115.238 110.873 115.806 115.269C115.97 116.52 115.585 117.747 113.966 117.951L113.97 117.947Z" fill="#FFBCB7"/>
<path d="M30.1089 65.6301C30.2929 65.6137 30.4769 65.6014 30.6609 65.5851C31.5074 65.9572 32.3947 65.72 33.2616 65.765C34.7583 66.2639 36.2426 66.9713 37.8088 65.9817C37.862 66.5624 38.0828 67.0326 38.6512 67.2821L39.1051 67.8055C39.8861 69.4371 40.8552 70.9255 42.3151 72.046L42.7567 72.9742C42.3641 73.5999 41.9879 74.2868 41.1946 73.3872C41.2396 73.3422 41.3296 73.2727 41.3214 73.2564C41.2723 73.1623 41.1987 73.0805 41.1333 72.9947L41.1497 73.0233C40.0946 70.6802 36.8601 69.0036 34.9096 69.7928C33.6133 69.662 33.7646 70.5739 33.7605 71.3753C33.7523 74.0538 33.7442 76.7281 33.736 79.4065C31.8672 79.247 29.9739 79.2756 28.1951 78.5437C25.8807 77.8608 23.5376 78.3106 21.2027 78.3597C20.164 78.2002 20.3398 77.5827 20.5975 76.863C21.6606 73.8779 22.687 70.8806 23.7502 67.8955C24.3023 66.3457 25.5863 65.8141 27.0747 65.6914C28.0807 65.6055 29.0989 65.6546 30.113 65.6382L30.1089 65.6301Z" fill="#F7A8B2"/>
<path d="M28.1954 78.5355C29.9742 79.2675 31.8716 79.2389 33.7363 79.3984C35.8381 79.8891 37.6619 79.8073 38.3979 77.272C38.5206 76.8549 38.7005 76.2374 39.3139 76.3928C39.96 76.5564 39.96 77.2066 39.9273 77.7422C39.825 79.4147 40.4098 79.2266 41.4648 78.421C43.5953 76.8017 45.2841 77.4887 45.4476 80.069C45.5417 81.5534 45.3291 83.0173 43.7343 83.8474C42.9655 84.2481 42.3031 84.8451 41.5916 85.3522C39.2812 85.8633 36.9299 85.5239 34.6032 85.7039C30.6857 85.1273 26.6415 85.7693 22.7977 84.4853C20.6386 83.1522 20.9821 81.0954 21.2234 79.063C23.5419 78.8177 25.9423 79.6887 28.1913 78.5355H28.1954Z" fill="#E2BC8E"/>
<path d="M107.898 34.8796C104.181 35.1332 100.468 35.5339 96.7341 35.3744C97.0981 31.3507 97.8546 27.3924 98.7705 23.4627C99.0036 22.4608 99.4616 21.5571 100.463 21.0705C101.429 21.0664 102.398 21.0623 103.363 21.0582C104.356 21.2136 105.031 21.8802 105.211 22.7511C106.057 26.8035 107.382 30.7537 107.893 34.8796H107.898Z" fill="#FFBCB7"/>
<path d="M23.7667 116.59C26.5432 116.618 29.3198 116.647 32.0963 116.675C32.2722 117.072 32.4521 117.469 32.6279 117.865C32.1809 119.888 32.9414 121.165 34.9097 121.697C35.9279 121.971 36.5781 122.568 36.6844 123.664C36.7989 124.817 36.1446 125.475 35.1714 125.802C31.7324 126.964 28.1748 126.481 24.654 126.453C23.7749 126.444 23.6563 125.663 23.6604 124.944C23.689 122.159 23.7258 119.37 23.7585 116.585L23.7667 116.59ZM26.3265 121.214C25.6723 121.276 25.2879 121.644 25.2756 122.363C25.2633 123.075 25.7009 123.263 26.3143 123.255C26.989 123.243 27.5451 123.001 27.5655 122.265C27.586 121.537 27.0707 121.235 26.3265 121.214Z" fill="#72A1E5"/>
<path d="M64.7359 115.138C65.202 116.103 65.3656 117.08 64.9076 118.098C62.5032 120.404 59.6735 122.151 57.0278 124.146C55.9155 124.984 55.2408 124.694 54.5048 123.762C53.0858 121.958 51.6464 120.175 50.2111 118.384C50.1702 118.164 50.1252 117.939 50.0844 117.718C52.3988 116.148 54.7133 114.577 57.0237 113.007C57.727 112.983 57.7352 114.348 58.6839 113.837C58.7493 115.395 59.2237 115.976 60.9002 115.17C62.0534 114.618 63.4478 114.308 64.7318 115.138H64.7359ZM56.672 120.499C56.6925 119.975 56.4144 119.599 55.7397 119.578C54.9832 119.554 54.6274 119.91 54.652 120.67C54.6765 121.353 55.0568 121.611 55.6906 121.607C56.349 121.607 56.6802 121.28 56.6679 120.499H56.672Z" fill="#72A1E5"/>
<path d="M50.089 117.714C50.1299 117.935 50.1749 118.16 50.2158 118.38C44.3438 118.577 38.4472 119.489 32.6283 117.869C32.4524 117.473 32.2766 117.076 32.0967 116.679C32.158 116.27 32.2194 115.866 32.2807 115.457C37.4944 115.416 42.7081 115.371 47.9218 115.33C48.6456 116.123 49.3653 116.921 50.089 117.714Z" fill="#FB5F53"/>
<path d="M22.8015 84.4852C26.6453 85.7692 30.6895 85.1272 34.6069 85.7037C36.1158 86.2435 37.6288 86.7833 39.1377 87.3231C39.0723 88.0059 38.6307 88.19 38.0296 88.1613C34.0385 88.1818 30.0475 88.19 26.0524 88.2309C25.255 88.239 24.4167 88.0877 23.6766 88.5498C21.448 87.6093 22.5234 85.9614 22.8015 84.4811V84.4852Z" fill="#F7A8B2"/>
<path d="M103.366 21.0582C102.401 21.0623 101.432 21.0664 100.467 21.0705C100.545 19.4512 100.59 17.8318 100.712 16.2166C100.765 15.4928 100.819 14.4337 101.641 14.3969C102.647 14.352 102.659 15.501 102.781 16.2371C103.047 17.8318 103.182 19.4512 103.366 21.0582Z" fill="#151B3D"/>
<path d="M28.1948 78.5359C25.9457 79.689 23.5454 78.8139 21.2268 79.0634C21.2186 78.8262 21.2104 78.589 21.2023 78.3519C23.5372 78.3028 25.8803 77.853 28.1948 78.5359Z" fill="#151B3D"/>
<path d="M38.0296 88.1654C38.6307 88.1941 39.0724 88.01 39.1378 87.3271C40.3523 87.184 41.5831 88.6684 42.7894 87.2903C44.56 86.0186 46.2366 84.6365 47.7496 83.0621C48.5838 82.7677 48.8986 81.9213 49.5284 81.406C58.3733 81.7209 67.1936 81.0748 76.014 80.6291C76.5742 80.6005 77.024 80.5473 77.2039 79.8194C77.8582 77.1696 77.069 76.0942 74.3701 76.4091C66.4412 77.3332 58.4837 77.1287 50.5343 77.2146C50.3094 74.1437 50.6774 70.9909 49.2667 68.0835C50.1499 68.0671 51.0332 68.0262 51.9165 68.0426C60.8186 68.198 69.7125 68.7582 78.6269 68.2389C80.8842 68.108 80.1645 66.7586 80.3199 65.6177C80.5284 64.117 79.686 63.982 78.4961 64.0189C74.2842 64.1538 70.056 64.4727 65.8565 64.2724C58.042 63.9044 50.2235 63.9984 42.4091 63.7367C38.8025 63.614 38.7984 63.7162 38.6553 67.2861C38.0869 67.0407 37.8661 66.5664 37.8129 65.9857C38.3608 64.4564 37.449 63.0702 37.3835 61.6021C38.1768 60.3059 36.6843 60.175 36.2999 59.4758C36.1895 58.7479 36.7538 58.5721 37.2404 58.3513C38.0092 57.9996 38.4181 57.4312 38.2668 56.5766C38.1032 55.6524 37.449 55.0431 36.5861 55.0881C34.8605 55.1781 34.8155 54.2784 34.9178 52.9454C35.294 48.0097 35.572 43.0659 35.9073 38.1262C36.12 34.9694 37.5307 33.714 40.7489 33.7017C43.5991 33.6935 46.4492 33.6445 49.2953 33.6117C49.4302 35.0225 50.1867 35.5296 51.6098 35.4887C58.6432 35.2842 65.6765 35.1452 72.7099 35.0062C73.8671 34.9816 74.64 34.4991 75.0366 33.4155C78.0872 33.4891 81.1459 33.6894 84.1923 33.5995C87.0997 33.5136 88.764 34.2701 88.903 38.486C89.0503 43.0291 88.9194 47.5804 88.9112 52.1275C88.8172 52.377 88.6413 52.6264 88.6413 52.8759C88.5309 63.4832 87.615 74.0373 86.515 84.5751C85.6194 93.142 84.6462 101.701 83.628 110.255C83.4113 112.083 82.2581 112.983 80.2749 113.122C73.8181 113.584 67.3531 113.367 60.8922 113.498C60.1398 113.514 59.3956 113.518 58.6922 113.829C57.7435 114.34 57.7354 112.974 57.032 112.999C55.977 110.615 54.0469 108.836 52.6566 106.681C52.3663 106.231 52.0841 105.778 51.7938 105.324C59.277 105.299 66.7642 105.234 74.2474 105.283C75.785 105.295 75.9444 104.555 75.8054 103.414C75.6909 102.473 76.382 101.104 74.456 101.124C65.8851 101.214 57.3142 100.997 48.7473 101.341C46.7068 98.8096 44.6704 96.2824 42.6299 93.7512C43.5173 92.3773 44.7318 93.4282 45.7541 93.3996C52.8815 93.2033 60.0089 93.1215 67.1405 93.0152C69.7207 92.9784 72.3051 92.9866 74.8853 92.9579C75.4742 92.9539 76.0712 93.0684 76.292 92.1892C76.8972 89.7766 76.2225 88.832 73.7854 88.8524C65.7706 88.9137 57.7558 88.8729 49.7451 89.245C46.0853 89.4167 42.4377 88.6357 38.7657 88.9628C38.324 88.8769 38.2014 88.4967 38.0255 88.1613L38.0296 88.1654ZM44.8504 56.5643V56.2617C48.731 56.2617 52.6075 56.3189 56.4841 56.2494C63.8364 56.1186 71.1846 55.8569 78.537 55.7873C80.7165 55.7669 80.1972 54.4216 80.2994 53.1866C80.4262 51.6614 79.7024 51.3015 78.3489 51.4365C76.795 51.5878 75.2288 51.6818 73.6627 51.7145C63.2476 51.9231 52.8324 52.1275 42.4173 52.2747C41.0311 52.2952 40.3809 52.5324 40.3155 54.1639C40.2378 56.1513 40.8225 56.92 42.8099 56.5806C43.4723 56.4702 44.1675 56.5643 44.8504 56.5643ZM52.1373 40.6124C49.005 40.6124 45.8727 40.6697 42.7444 40.5797C41.7017 40.5511 40.8839 40.547 41.1987 41.8555C41.4441 42.8737 40.1601 44.6607 42.585 44.6893C55.3105 44.8488 68.036 45.0124 80.7615 45.2495C82.3849 45.2782 82.4789 44.5135 82.4503 43.2704C82.4217 42.0395 82.528 41.0622 80.7124 41.1072C71.1846 41.3362 61.661 40.7882 52.1373 40.6124Z" fill="#F6F9F4"/>
<path d="M38.7656 88.9668C42.4377 88.6397 46.0852 89.4166 49.7451 89.249C57.7558 88.8769 65.7705 88.9177 73.7853 88.8564C76.2266 88.836 76.8972 89.7806 76.292 92.1932C76.0712 93.0723 75.4701 92.9578 74.8853 92.9619C72.305 92.9865 69.7207 92.9783 67.1404 93.0192C60.013 93.1255 52.8815 93.2073 45.754 93.4036C44.7317 93.4322 43.5132 92.3813 42.6299 93.7552C41.3418 92.1605 40.0537 90.5616 38.7656 88.9668Z" fill="#FFA098"/>
<path d="M48.7477 101.345C57.3145 101.002 65.8854 101.218 74.4563 101.128C76.3782 101.108 75.6913 102.478 75.8057 103.418C75.9448 104.559 75.7812 105.299 74.2478 105.287C66.7646 105.234 59.2814 105.299 51.7941 105.328C50.596 104.142 49.68 102.735 48.7477 101.345Z" fill="#FFA098"/>
<path d="M32.272 113.899C32.2761 111.167 32.2843 108.431 32.2884 105.7C32.5665 105.663 32.8445 105.63 33.1226 105.593C35.5516 105.548 37.9805 105.508 40.4095 105.463C42.4663 108.157 44.5273 110.856 46.5841 113.551C45.9953 114.017 45.2961 113.878 44.6336 113.878C40.5117 113.894 36.3939 113.894 32.272 113.899Z" fill="#F6F9F4"/>
<path d="M40.4095 105.463C37.9805 105.508 35.5515 105.549 33.1226 105.594C32.85 102.87 34.0085 101.436 36.5984 101.292C36.7987 101.279 36.995 101.234 37.1913 101.206C38.2627 102.625 39.334 104.048 40.4095 105.467V105.463Z" fill="#FFA098"/>
<path d="M32.272 113.899C36.3939 113.895 40.5117 113.899 44.6336 113.878C45.2961 113.878 45.9953 114.017 46.5841 113.551C47.2302 113.997 47.5615 114.676 47.9213 115.33C42.7076 115.371 37.4939 115.412 32.2802 115.457L32.272 113.899Z" fill="#FFBCB7"/>
<path d="M37.1947 101.202C36.9984 101.23 36.8021 101.28 36.6017 101.288C34.0092 101.432 32.8506 102.866 33.1259 105.59C32.8479 105.626 32.5698 105.659 32.2917 105.696V95.248L32.6843 95.0845C34.1891 97.1209 35.6939 99.1614 37.1947 101.198V101.202Z" fill="#DEE3DF"/>
<path d="M58.6921 113.833C59.3955 113.522 60.1397 113.518 60.8921 113.502C67.353 113.371 73.818 113.588 80.2748 113.126C82.2581 112.983 83.4112 112.083 83.6279 110.259C84.6461 101.705 85.6194 93.1461 86.5149 84.5793C87.619 74.0415 88.5309 63.4873 88.6413 52.88C88.6413 52.6305 88.8171 52.3811 88.9111 52.1317C88.9439 52.5365 88.997 52.9413 89.0011 53.3502C89.1401 71.8333 89.2792 90.3164 89.4018 108.799C89.4305 113.437 88.2773 114.577 83.677 114.68C77.3633 114.819 71.0496 114.986 64.7359 115.142C63.456 114.312 62.0575 114.622 60.9044 115.174C59.2278 115.98 58.7576 115.399 58.688 113.841L58.6921 113.833Z" fill="#FFBCB7"/>
<path d="M65.7018 16.1758C65.6077 17.7215 64.7694 18.5352 63.2769 18.6415C61.7067 18.7519 60.3082 17.5783 60.4226 16.1676C60.5494 14.6178 61.4122 13.7018 63.0683 13.7345C64.6795 13.7631 65.5505 14.5851 65.7018 16.1798V16.1758Z" fill="#FEFDFD"/>
<path d="M36.2953 59.472C36.6756 60.1713 38.1681 60.3021 37.3789 61.5984C36.8432 61.627 36.3035 61.627 35.776 61.6966C34.8436 61.8233 34.3775 61.2835 34.128 60.5271C33.9604 60.0282 33.7559 59.3494 34.2425 59.0018C35.1503 58.3516 35.2157 59.472 35.6737 59.8033C35.915 59.9791 36.1685 59.746 36.2994 59.472H36.2953Z" fill="#E2BC8E"/>
<path d="M33.2618 65.7654C32.3949 65.7245 31.5035 65.9576 30.6611 65.5855C30.6161 64.1788 31.7406 63.8394 32.7425 63.2669C32.9797 64.1379 33.5276 64.8576 33.2659 65.7654H33.2618Z" fill="#E2BC8E"/>
<path d="M38.651 67.2819C38.7941 63.712 38.7982 63.6098 42.4049 63.7325C50.2193 63.9983 58.0378 63.9001 65.8522 64.2682C70.0518 64.4685 74.28 64.1496 78.4918 64.0146C79.6777 63.9778 80.5201 64.1128 80.3156 65.6135C80.1561 66.7585 80.8758 68.1038 78.6227 68.2347C69.7083 68.754 60.8143 68.1938 51.9122 68.0384C51.0289 68.022 50.1457 68.067 49.2624 68.0793C47.8108 66.6685 46.036 65.912 44.061 65.6421C43.4353 65.5563 42.5971 65.2905 42.2004 65.9856C41.7465 66.7748 42.6461 67.1224 43.0142 67.6336L39.109 67.8012L38.6551 67.2778L38.651 67.2819Z" fill="#FFA098"/>
<path d="M47.745 83.062C46.2321 84.6364 44.5555 86.0185 42.7849 87.2902C41.1942 87.3843 41.6195 86.2271 41.5908 85.3561C42.3024 84.849 42.9648 84.2479 43.7336 83.8512C45.3283 83.0211 45.541 81.5572 45.4469 80.0728C45.2834 77.4926 43.5945 76.8056 41.4641 78.4249C40.4091 79.2305 39.8202 79.4186 39.9265 77.7461C39.9593 77.2104 39.9593 76.5643 39.3132 76.3967C38.6998 76.2413 38.5199 76.8588 38.3972 77.2759C37.6571 79.8111 35.8333 79.8929 33.7355 79.4022C33.7437 76.7238 33.7519 74.0495 33.7601 71.3711C33.7601 70.5696 33.6129 69.6536 34.9091 69.7886C36.9905 70.864 39.0678 71.9436 41.1492 73.019L41.1329 72.9904C41.1206 73.0354 41.096 73.0885 41.1042 73.1294C41.1247 73.2153 41.1615 73.2971 41.1942 73.383C41.9916 74.2826 42.3637 73.5956 42.7563 72.97C44.3265 72.2871 45.406 71.0276 46.4856 69.7722C47.5733 69.8417 47.2748 70.6923 47.2993 71.2975C47.4629 75.219 47.6019 79.1405 47.7491 83.062H47.745ZM46.1503 72.2339C45.3202 72.9372 44.5678 73.4975 43.9176 74.1599C43.5741 74.5116 43.5659 75.1209 43.8562 75.493C44.302 76.0695 44.6945 75.5093 45.0298 75.2394C45.8845 74.5525 46.7718 73.8532 46.1544 72.2298L46.1503 72.2339Z" fill="#FB5F53"/>
<path d="M39.1049 67.8014C40.4052 67.7442 41.7097 67.6869 43.01 67.6338C43.5253 68.0345 45.0014 67.3026 44.5026 68.9014C43.7747 69.9483 43.0427 70.9951 42.3149 72.0419C40.855 70.9256 39.89 69.433 39.1049 67.8014Z" fill="#DEE3DF"/>
<path d="M42.3149 72.0416C43.0428 70.9948 43.7747 69.948 44.5026 68.9011C45.2346 69.032 46.6003 67.7112 46.4858 69.7721C45.4063 71.0275 44.3268 72.287 42.7565 72.9699C42.6093 72.6591 42.4621 72.3524 42.3149 72.0416Z" fill="#72A1E5"/>
<path d="M41.149 73.0192C39.0676 71.9437 36.9903 70.8642 34.9089 69.7887C36.8595 68.9995 40.094 70.6761 41.149 73.0192Z" fill="#DEE3DF"/>
<path d="M41.1908 73.3832C41.1581 73.2973 41.1213 73.2155 41.1008 73.1296C41.0926 73.0887 41.1172 73.0397 41.1294 72.9906C41.1949 73.0765 41.2685 73.1583 41.3175 73.2523C41.3257 73.2687 41.2358 73.3382 41.1908 73.3832Z" fill="#DEE3DF"/>
<path d="M41.5963 85.3565C41.6249 86.2275 41.1997 87.3847 42.7903 87.2907C41.5881 88.6687 40.3573 87.1844 39.1387 87.3275C37.6298 86.7877 36.1168 86.2479 34.6079 85.7082C36.9347 85.5283 39.2859 85.8677 41.5963 85.3565Z" fill="#FD6153"/>
<path d="M26.3219 121.219C27.0621 121.239 27.5773 121.542 27.5609 122.27C27.5405 123.006 26.9844 123.247 26.3097 123.259C25.6963 123.267 25.2587 123.079 25.271 122.368C25.2833 121.652 25.6677 121.28 26.3219 121.219Z" fill="#DEE3DF"/>
<path d="M56.6719 120.494C56.6801 121.275 56.353 121.598 55.6946 121.602C55.0608 121.602 54.6805 121.349 54.656 120.666C54.6314 119.905 54.9872 119.55 55.7437 119.574C56.4184 119.599 56.6965 119.971 56.676 120.494H56.6719Z" fill="#DEE3DF"/>
<path d="M44.8465 56.5602C44.1636 56.5602 43.4684 56.4662 42.806 56.5766C40.8186 56.9119 40.2339 56.1472 40.3116 54.1599C40.377 52.5242 41.0272 52.287 42.4134 52.2707C52.8285 52.1235 63.2437 51.919 73.6588 51.7105C75.2208 51.6778 76.787 51.5878 78.345 51.4324C79.6985 51.2975 80.4223 51.6573 80.2955 53.1826C80.1933 54.4175 80.7126 55.7628 78.5331 55.7833C71.1807 55.8528 63.8325 56.1145 56.4802 56.2454C52.6036 56.3149 48.723 56.2576 44.8465 56.2576V56.5602Z" fill="#FFA098"/>
<path d="M52.1327 40.6088C61.6604 40.7846 71.18 41.3326 80.7078 41.1036C82.5193 41.0586 82.4171 42.0318 82.4457 43.2667C82.4743 44.5098 82.3762 45.2745 80.7569 45.2459C68.0314 45.0087 55.3059 44.8452 42.5803 44.6857C40.1596 44.6571 41.4436 42.8701 41.1941 41.8519C40.8752 40.5433 41.6971 40.5474 42.7398 40.5761C45.868 40.6619 49.0044 40.6088 52.1327 40.6088Z" fill="#FFA098"/>
<path d="M50.5264 77.2146C58.4798 77.1287 66.4374 77.3332 74.3622 76.4091C77.0651 76.0942 77.8502 77.1696 77.196 79.8194C77.0161 80.5473 76.5703 80.6005 76.006 80.6291C67.1816 81.0748 58.3653 81.7209 49.5204 81.406C50.0725 80.0607 50.5018 78.6867 50.5223 77.2146H50.5264Z" fill="#FFA098"/>
<path d="M50.5263 77.2146C50.5059 78.6867 50.0765 80.0607 49.5245 81.406C48.8948 81.9213 48.5799 82.7677 47.7457 83.0621C47.5985 79.1406 47.4635 75.2191 47.3 71.2976C47.2754 70.6883 47.5739 69.8418 46.4862 69.7723C46.6048 67.7114 45.2349 69.0322 44.503 68.9013C45.0019 67.3065 43.5257 68.0344 43.0104 67.6337C42.6465 67.1225 41.7469 66.775 42.1967 65.9898C42.5974 65.2947 43.4357 65.5646 44.0573 65.6463C46.0323 65.9121 47.8029 66.6727 49.2587 68.0835C50.6695 70.9909 50.3014 74.1437 50.5263 77.2146Z" fill="#E2BC8E"/>
<path d="M46.1512 72.234C46.7687 73.8533 45.8813 74.5526 45.0267 75.2436C44.6955 75.5094 44.2988 76.0737 43.8531 75.4972C43.5669 75.1251 43.5709 74.5117 43.9144 74.1641C44.5646 73.5017 45.3211 72.9414 46.1471 72.2381L46.1512 72.234Z" fill="#610909"/>
</svg>
