<svg width="24" height="24" viewBox="0 0 24 24" fill="none" xmlns="http://www.w3.org/2000/svg">
<path d="M4.33785 20H8.57631C8.70787 20.0007 8.83828 19.9755 8.96008 19.9258C9.08187 19.876 9.19264 19.8027 9.28605 19.7101L16.2035 12.7826L19.0425 10.0036C19.1362 9.91069 19.2106 9.80013 19.2613 9.67831C19.3121 9.5565 19.3382 9.42584 19.3382 9.29387C19.3382 9.16191 19.3121 9.03125 19.2613 8.90944C19.2106 8.78762 19.1362 8.67706 19.0425 8.58413L14.804 4.29569C14.7111 4.202 14.6006 4.12763 14.4787 4.07688C14.3569 4.02613 14.2263 4 14.0943 4C13.9623 4 13.8317 4.02613 13.7099 4.07688C13.5881 4.12763 13.4775 4.202 13.3846 4.29569L10.5656 7.12466L3.62811 14.0521C3.53546 14.1456 3.46216 14.2563 3.41241 14.3781C3.36267 14.4999 3.33745 14.6303 3.33821 14.7619V19.0003C3.33821 19.2655 3.44353 19.5197 3.631 19.7072C3.81847 19.8947 4.07273 20 4.33785 20ZM14.0943 6.41492L16.9233 9.24389L15.5038 10.6634L12.6748 7.8344L14.0943 6.41492ZM5.33749 15.1717L11.2653 9.24389L14.0943 12.0729L8.16646 18.0007H5.33749V15.1717Z" fill="#2C2C2C"/>
</svg>
