<svg width="73" height="87" viewBox="0 0 73 87" fill="none" xmlns="http://www.w3.org/2000/svg">
<path fill-rule="evenodd" clip-rule="evenodd" d="M5 1C2.79086 1 1 2.79086 1 5V83C1 85.2091 2.79086 87 5 87H69C71.2091 87 73 85.2091 73 83V20.5L52 1H5Z" fill="#FE5C4F"/>
<path fill-rule="evenodd" clip-rule="evenodd" d="M4 0C1.79089 0 0 1.79086 0 4V82C0 84.2091 1.79089 86 4 86H68C70.2091 86 72 84.2091 72 82V19.5L51 0H4Z" fill="#FFECEB"/>
<path opacity="0.5" d="M51.0264 16.183V18.7079C51.0264 19.2505 51.2773 19.7686 51.7193 20.1377C52.1612 20.5068 52.754 20.6936 53.3553 20.6531L72.0983 19.55L51.0264 16.183Z" fill="#FFC3BE"/>
<path d="M62.1577 9.68246L51 0L51.0292 18.557C51.0292 19.0032 51.4312 19.3649 51.9271 19.3649L72.0983 19.55L62.1577 9.68246Z" fill="#FFC3BE"/>
<path fill-rule="evenodd" clip-rule="evenodd" d="M35.5 60C42.4036 60 48 54.4036 48 47.5C48 40.5964 42.4036 35 35.5 35C28.5964 35 23 40.5964 23 47.5C23 54.4036 28.5964 60 35.5 60ZM34.5638 40.3138C34.7648 40.1129 35.0373 40 35.3214 40C35.6056 40 35.8781 40.1129 36.0791 40.3138C36.28 40.5147 36.3929 40.7873 36.3929 41.0714V49.6429C36.3929 49.927 36.28 50.1996 36.0791 50.4005C35.8781 50.6014 35.6056 50.7143 35.3214 50.7143C35.0373 50.7143 34.7648 50.6014 34.5638 50.4005C34.3629 50.1996 34.25 49.927 34.25 49.6429V41.0714C34.25 40.7873 34.3629 40.5147 34.5638 40.3138ZM36.2107 53.3286C36.2513 53.3883 36.2837 53.4532 36.3072 53.5215C36.3455 53.5809 36.3744 53.646 36.3929 53.7143C36.3981 53.7857 36.3981 53.8573 36.3929 53.9286C36.3912 54.0686 36.3621 54.2069 36.3072 54.3358C36.259 54.4687 36.1823 54.5895 36.0823 54.6894C35.9823 54.7894 35.8616 54.8662 35.7286 54.9143C35.6003 54.971 35.4617 55.0003 35.3214 55.0003C35.1812 55.0003 35.0426 54.971 34.9143 54.9143C34.7813 54.8662 34.6606 54.7894 34.5606 54.6894C34.4606 54.5895 34.3839 54.4687 34.3357 54.3358C34.2808 54.2069 34.2517 54.0686 34.25 53.9286C34.2492 53.7876 34.2762 53.6478 34.3295 53.5173C34.3829 53.3867 34.4614 53.268 34.5607 53.1679C34.6649 53.0733 34.7845 52.9972 34.9143 52.9429C35.1094 52.8608 35.3245 52.8384 35.5323 52.8785C35.7402 52.9185 35.9315 53.0192 36.0822 53.1679L36.2107 53.3286Z" fill="#FFA098"/>
</svg>
