<svg width="136" height="136" viewBox="0 0 136 136" fill="none" xmlns="http://www.w3.org/2000/svg">
<path d="M84.6328 25.813H41.7808C40.4363 25.813 39.3463 26.935 39.3463 28.319L37.1498 97.4152H81.4224C81.4224 105.069 87.7805 110.417 95.2281 110.378C102.548 110.34 108.536 103.953 108.536 96.4191L108.375 44.2L95.2 43.775C93.1388 43.775 80.9113 44.8466 80.9113 42.7259L84.6328 25.813Z" fill="#FE5C4F"/>
<path d="M87.3037 24.7125H36.2957C34.9118 24.7125 33.79 25.8344 33.79 27.2182V98.5037H79.3574C79.3574 106.157 85.9015 111.504 93.5669 111.465C101.101 111.427 107.264 105.041 107.264 97.5077V44.2L94.35 42.925C92.2285 42.925 87.3037 39.9306 87.3037 37.8101V24.7125Z" fill="#FFECEB"/>
<path d="M79.4619 98.2802H27.2C27.2 105.117 32.1728 110.059 38.6971 111.154L40.994 111.346L93.3603 111.242C85.7429 111.242 79.2677 105.392 79.4619 98.2802Z" fill="#FE5C4F"/>
<path d="M56.2675 31.4006H44.8582C44.3184 31.4006 43.8809 31.8382 43.8809 32.3779V43.7872C43.8809 44.3269 44.3184 44.7644 44.8582 44.7644H56.2675C56.8072 44.7644 57.2448 44.3269 57.2448 43.7872V32.3779C57.2448 31.8382 56.8072 31.4006 56.2675 31.4006Z" fill="#FFA098"/>
<path d="M92.9929 51.3409H44.8331C44.2934 51.3409 43.8558 51.7784 43.8558 52.3181V53.7046C43.8558 54.2443 44.2934 54.6819 44.8331 54.6819H92.9929C93.5326 54.6819 93.9701 54.2443 93.9701 53.7046V52.3181C93.9701 51.7784 93.5326 51.3409 92.9929 51.3409Z" fill="#FFA098"/>
<path d="M92.9929 61.401H44.8331C44.2934 61.401 43.8558 61.8385 43.8558 62.3782V63.7647C43.8558 64.3044 44.2934 64.742 44.8331 64.742H92.9929C93.5326 64.742 93.9701 64.3044 93.9701 63.7647V62.3782C93.9701 61.8385 93.5326 61.401 92.9929 61.401Z" fill="#FFA098"/>
<path d="M92.9929 71.4592H44.8331C44.2934 71.4592 43.8558 71.8967 43.8558 72.4365V73.823C43.8558 74.3627 44.2934 74.8002 44.8331 74.8002H92.9929C93.5326 74.8002 93.9701 74.3627 93.9701 73.823V72.4365C93.9701 71.8967 93.5326 71.4592 92.9929 71.4592Z" fill="#FFA098"/>
<path opacity="0.5" d="M87.3031 40.8331V43.358C87.3031 43.9005 87.5541 44.4186 87.996 44.7877C88.4379 45.1568 89.0308 45.3436 89.6321 45.3032L108.375 44.2L87.3031 40.8331Z" fill="#FFC3BE"/>
<path d="M98.4344 34.3325L87.2767 24.65L87.3059 43.207C87.3059 43.6532 87.7079 44.0149 88.2038 44.0149L108.375 44.2L98.4344 34.3325Z" fill="#FFC3BE"/>
</svg>
