<svg
    fill="none"
    height="120"
    viewBox="0 0 120 120"
    width="120"
    xmlns="http://www.w3.org/2000/svg"
  >
    <path
      d="M103.915 23.029C105 23.073 106.699 23.011 107.737 23.6504C107.878 23.7258 108.037 23.8492 108.214 24.0265C110.239 26.0701 110.095 28.7869 109.886 31.455C109.334 38.4213 108.726 45.3957 108.133 52.3619C107.557 59.2309 107.077 66.108 106.533 72.9769C106.204 77.1048 104.796 81.111 101.554 83.7953C97.6159 87.0555 92.341 87.3636 87.5305 88.0529C73.7792 90.0317 60.0438 92.1241 46.3005 94.1272C39.3768 95.1409 32.4611 96.1384 25.5294 97.1034C20.7429 97.7684 14.1154 99.6661 11.0337 94.5326C9.44887 91.897 10.0972 88.7747 10.3293 85.8714C10.6175 82.3031 10.8896 78.743 11.1538 75.1747C11.6661 68.1679 11.9622 61.1367 12.6586 54.1461L12.6695 54.0362C13.0021 50.6908 13.3361 47.3299 13.8112 44.0008C14.1794 41.4543 15.6122 39.135 17.3811 37.3346C19.2701 35.4045 21.5993 33.9204 24.1607 33.1013C25.5775 32.6472 27.0903 32.5012 28.5551 32.2741L33.6218 31.4712C41.6901 30.1818 49.7504 28.8031 57.8427 27.6434C63.6137 26.8162 69.3928 26.0458 75.1719 25.3403C82.1196 24.4887 89.0833 23.694 96.071 23.2398C98.6804 23.0695 101.306 22.9398 103.915 23.029Z"
      fill="#FFECEB"
    />
    <path
      d="M68.4345 64.9711C65.9094 65.1207 64.489 64.7135 64.0576 63.1763C63.6789 61.797 65.215 59.9357 67.2666 59.5369C69.4761 59.1048 71.7592 58.8888 74.0107 58.6312C81.3756 57.7753 77.7404 57.9444 85.1053 57.1052C88.1985 56.7562 89.6294 57.263 89.9556 58.8169C90.3028 60.5036 88.5773 62.3234 86.0943 62.689C83.0221 63.1377 79.9183 63.4867 76.8146 63.8357C70.1125 64.5918 74.4105 64.323 68.4345 64.9794V64.9711Z"
      fill="#EE6A5F"
    />
    <path
      d="M66.0152 73.091C64.0302 73.0748 63.0216 71.6394 63.8701 70.2769C64.3903 69.4416 65.4389 68.6144 66.3754 68.4441C70.5536 67.6575 74.7639 67.0817 78.9741 66.4978C80.1668 66.3356 81.5275 66.1491 81.9997 67.8035C82.3519 69.028 81.3114 70.7068 79.7425 70.9744C75.044 71.7854 70.3215 72.4422 66.0152 73.091Z"
      fill="#EE6A5F"
    />
    <path
      d="M36.3833 79.3191C34.8224 78.9785 33.2056 78.8001 31.7168 78.2568C27.9628 76.9106 26.7781 72.9692 29.0193 69.6604C32.4612 64.5837 41.2258 61.794 46.9169 63.9674C51.1991 65.6056 52.1597 69.9848 49.03 73.6261C46.1084 77.0322 41.4259 79.0515 36.3833 79.3191Z"
      fill="#EE6A5F"
    />
    <path
      d="M48.5659 52.1191C48.4778 56.8552 44.0835 61.4615 39.449 61.6724C35.8151 61.8427 33.0056 59.1178 32.9976 55.4278C32.9816 50.6431 37.48 45.7854 42.0744 45.6232C46.1086 45.4772 48.6459 48.0155 48.5659 52.1191Z"
      fill="#EE6A5F"
    />
    <path
      d="M57.4586 74.356C57.2665 80.2275 54.3049 83.0091 48.5738 82.6199C48.1336 82.5874 47.7174 82.2144 47.2852 82.0035C47.6133 81.5899 47.8775 80.9411 48.2857 80.8114C49.3262 80.4951 50.4308 80.3978 51.5114 80.2437C53.9287 79.895 54.8892 78.9218 55.1774 76.4889C55.2894 75.5157 55.2734 74.5101 55.5456 73.5775C55.7297 72.9287 56.306 72.3935 56.7062 71.8096C56.9543 72.3935 57.2345 72.9693 57.4506 73.5694C57.5306 73.8046 57.4666 74.0884 57.4666 74.3479L57.4586 74.356Z"
      fill="#EE6A5F"
    />
    <path
      d="M20.1345 81.3066C20.2946 80.1469 20.3827 78.9629 20.6708 77.8356C20.7669 77.4626 21.3592 77.2193 21.7194 76.9111C21.9835 77.3085 22.4397 77.6897 22.4638 78.0952C22.5198 78.9305 22.3437 79.782 22.2557 80.6254C21.9435 83.6909 22.7439 84.4775 25.7055 84.0558C26.594 83.9261 27.4984 83.7882 28.3869 83.8044C28.7311 83.8044 29.0673 84.2423 29.4035 84.4775C29.1633 84.8262 28.9552 85.4507 28.6831 85.4831C26.5299 85.7183 24.2887 86.2698 22.2316 85.8724C20.0865 85.4588 20.1265 83.2124 20.1265 81.3066H20.1345Z"
      fill="#EE6A5F"
    />
    <path
      d="M32.0689 42.1436C32.7413 42.5328 33.2936 42.8491 33.8459 43.1735C33.3416 43.579 32.8934 44.171 32.3251 44.3494C31.3566 44.6576 30.3 44.6981 29.2835 44.8603C26.8742 45.2496 25.9537 46.2633 25.7376 48.7368C25.6255 49.9695 25.5775 51.2184 25.3374 52.4186C25.2653 52.7754 24.657 53.0998 24.2248 53.2701C24.0967 53.3188 23.6164 52.8322 23.5284 52.524C22.808 50.0181 24.1687 45.3631 26.3859 44.0656C28.0428 43.0924 30.0919 42.7923 32.0769 42.1517L32.0689 42.1436Z"
      fill="#EE6A5F"
    />
    <path
      d="M59.0754 44.1311C58.9793 45.1042 59.0034 46.1099 58.7392 47.0344C58.5951 47.5453 57.9548 47.9021 57.5386 48.3319C57.2984 47.8129 56.8742 47.302 56.8422 46.7748C56.7862 45.6719 57.0263 44.5609 57.0023 43.458C56.9623 41.6414 56.2019 40.9926 54.4409 41.1872C53.2883 41.317 52.1517 41.5684 50.9991 41.6089C50.6149 41.6252 50.2067 41.171 49.8145 40.9277C50.1026 40.5547 50.3507 39.914 50.6949 39.841C52.4559 39.5004 54.2488 39.0787 56.0258 39.1111C58.1629 39.1517 59.1234 40.9683 59.0754 44.1311Z"
      fill="#EE6A5F"
    />
    <path
      d="M51.0476 88.9612C51.0315 88.8233 51.0073 88.6935 50.9912 88.5557L51.0476 88.9612Z"
      fill="#EE6A5F"
    />
    <path
      d="M78.1225 39.4305C78.158 39.142 78.5419 39.0675 78.6827 39.3217L79.4858 40.7714C79.5487 40.8851 79.6778 40.9453 79.8054 40.9205L81.4322 40.6047C81.7175 40.5494 81.907 40.8914 81.7087 41.1039L80.5782 42.3156C80.4895 42.4106 80.4721 42.5519 80.5351 42.6656L81.3382 44.1153C81.479 44.3695 81.2122 44.6554 80.9489 44.5325L79.4471 43.8317C79.3293 43.7768 79.1896 43.8039 79.1009 43.8989L77.9704 45.1107C77.7721 45.3231 77.4178 45.1578 77.4533 44.8694L77.6557 43.2246C77.6715 43.0956 77.6025 42.971 77.4848 42.9161L75.983 42.2153C75.7197 42.0924 75.7674 41.7043 76.0527 41.6489L77.6796 41.3332C77.8071 41.3084 77.9043 41.2043 77.9201 41.0753L78.1225 39.4305Z"
      fill="#EE6A5F"
    />
    <path
      d="M74.768 37.2055C74.8775 37.2557 74.8044 37.4261 74.6863 37.4026C73.918 37.2501 73.1038 37.2605 72.2921 37.4625C69.3666 38.1908 67.5807 41.1336 68.3031 44.0356C69.0255 46.9375 71.9827 48.6996 74.9082 47.9713C75.7199 47.7692 76.444 47.3967 77.051 46.9017C77.1444 46.8256 77.2888 46.9419 77.2156 47.0375C76.3425 48.1779 75.0876 49.0426 73.5807 49.4178C70.0701 50.2917 66.5215 48.1772 65.6546 44.6949C64.7877 41.2126 66.9308 37.6812 70.4414 36.8073C71.9482 36.4321 73.4622 36.6076 74.768 37.2055Z"
      fill="#EE6A5F"
    />
  </svg>