<svg width="136" height="136" viewBox="0 0 136 136" fill="none" xmlns="http://www.w3.org/2000/svg">
<rect x="26" y="25" width="84" height="86" rx="42" fill="#D9D9D9"/>
<rect x="26" y="25" width="84" height="86" rx="42" fill="url(#paint0_linear_2633_29201)"/>
<path d="M68 64.75C67.1381 64.75 66.3114 65.0924 65.7019 65.7019C65.0924 66.3114 64.75 67.138 64.75 68V81C64.75 81.8619 65.0924 82.6886 65.7019 83.2981C66.3114 83.9076 67.1381 84.25 68 84.25C68.862 84.25 69.6886 83.9076 70.2981 83.2981C70.9076 82.6886 71.25 81.8619 71.25 81V68C71.25 67.138 70.9076 66.3114 70.2981 65.7019C69.6886 65.0924 68.862 64.75 68 64.75ZM69.235 52.01C68.4438 51.6849 67.5563 51.6849 66.765 52.01C66.3661 52.1647 66.0016 52.3966 65.6925 52.6925C65.4054 53.0084 65.1746 53.3711 65.01 53.765C64.8281 54.1507 64.739 54.5737 64.75 55C64.7475 55.4277 64.8295 55.8517 64.9913 56.2477C65.153 56.6437 65.3913 57.0038 65.6925 57.3075C66.0084 57.5946 66.3712 57.8254 66.765 57.99C67.2574 58.1923 67.7919 58.2705 68.3216 58.2179C68.8513 58.1652 69.3599 57.9832 69.8028 57.688C70.2457 57.3927 70.6093 56.9932 70.8617 56.5245C71.114 56.0558 71.2474 55.5323 71.25 55C71.238 54.1395 70.9014 53.3153 70.3075 52.6925C69.9984 52.3966 69.634 52.1647 69.235 52.01ZM68 35.5C61.5721 35.5 55.2886 37.4061 49.944 40.9772C44.5994 44.5484 40.4338 49.6242 37.9739 55.5628C35.5141 61.5014 34.8705 68.036 36.1245 74.3404C37.3785 80.6448 40.4738 86.4358 45.019 90.981C49.5643 95.5262 55.3552 98.6215 61.6596 99.8755C67.964 101.13 74.4986 100.486 80.4372 98.0261C86.3758 95.5662 91.4516 91.4006 95.0228 86.056C98.5939 80.7114 100.5 74.4279 100.5 68C100.5 63.732 99.6594 59.5059 98.0261 55.5628C96.3928 51.6197 93.9989 48.0369 90.981 45.019C87.9631 42.0011 84.3803 39.6072 80.4372 37.9739C76.4941 36.3406 72.268 35.5 68 35.5ZM68 94C62.8577 94 57.8309 92.4751 53.5552 89.6182C49.2795 86.7613 45.947 82.7006 43.9791 77.9498C42.0113 73.1989 41.4964 67.9712 42.4996 62.9277C43.5028 57.8841 45.9791 53.2514 49.6152 49.6152C53.2514 45.9791 57.8842 43.5028 62.9277 42.4996C67.9712 41.4964 73.1989 42.0113 77.9498 43.9791C82.7007 45.947 86.7613 49.2795 89.6182 53.5552C92.4751 57.8309 94 62.8577 94 68C94 74.8956 91.2607 81.5088 86.3848 86.3848C81.5089 91.2607 74.8956 94 68 94Z" fill="#EE3F44"/>
<ellipse cx="111.018" cy="52.7032" rx="2.835" ry="2.83499" fill="#72A1E5"/>
<circle cx="2.41205" cy="92.9413" r="2.41205" fill="#72A1E5"/>
<path d="M108.946 22.322V23.7395H107.528C107.137 23.7395 106.819 24.057 106.819 24.4483C106.819 24.8395 107.137 25.157 107.528 25.157H108.946V26.5745C108.946 26.9657 109.264 27.2833 109.655 27.2833C110.046 27.2833 110.363 26.9657 110.363 26.5745V25.157H111.781C112.172 25.157 112.489 24.8395 112.489 24.4483C112.489 24.057 112.172 23.7395 111.781 23.7395H110.363V22.322C110.363 21.9308 110.046 21.6133 109.655 21.6133C109.264 21.6133 108.946 21.9308 108.946 22.322Z" fill="#FE9E22"/>
<path d="M16.7891 42.7442V45.2248H14.3075C13.623 45.2248 13.0674 45.7805 13.0674 46.4651C13.0674 47.1498 13.623 47.7055 14.3075 47.7055H16.7891V50.1861C16.7891 50.8707 17.3447 51.4264 18.0292 51.4264C18.7138 51.4264 19.2694 50.8707 19.2694 50.1861V47.7055H21.7497C22.4343 47.7055 22.9899 47.1498 22.9899 46.4651C22.9899 45.7805 22.4343 45.2248 21.7497 45.2248H19.2694V42.7442C19.2694 42.0596 18.7138 41.5039 18.0292 41.5039C17.3447 41.5039 16.7891 42.0596 16.7891 42.7442Z" fill="#72A1E5"/>
<circle cx="51.5352" cy="11.9561" r="1.95614" fill="#FE5953"/>
<path d="M111.218 90.5686C111.654 92.1182 111.642 93.5575 111.789 94.9749C111.831 95.3786 111.826 95.787 111.853 96.1924C111.891 96.7481 111.763 97.2064 111.094 97.1895C110.489 97.1746 110.326 96.7407 110.374 96.2214C110.505 94.791 110.642 93.3606 110.797 91.9336C110.843 91.5156 110.845 91.0761 111.22 90.5686L111.218 90.5686Z" fill="#FE9E22"/>
<path d="M111.003 104.966C110.645 104.147 110.648 103.255 110.554 102.386C110.46 101.526 110.396 100.661 110.35 99.7981C110.323 99.2947 110.571 98.9514 111.115 98.9497C111.568 98.949 111.855 99.2251 111.831 99.6677C111.737 101.368 111.634 103.07 111.251 104.739C111.225 104.847 111.177 104.943 111.002 104.968L111.003 104.966Z" fill="#FE9F24"/>
<path d="M104.015 98.1554C105.306 97.6743 106.644 97.6575 107.967 97.5296C108.43 97.4848 108.896 97.4483 109.358 97.4543C109.801 97.4601 110.092 97.7166 110.111 98.1562C110.13 98.5958 109.849 98.9324 109.419 98.907C107.604 98.8002 105.778 98.7341 104.015 98.1554Z" fill="#FE9E22"/>
<path d="M117.956 98.21C117.082 98.6984 116.115 98.6683 115.184 98.7904C114.506 98.8797 113.82 98.9313 113.137 98.9437C112.663 98.9524 112.347 98.6613 112.355 98.1843C112.363 97.7464 112.662 97.4573 113.103 97.4859C114.732 97.595 116.369 97.6698 117.956 98.21Z" fill="#FE9E22"/>
<defs>
<linearGradient id="paint0_linear_2633_29201" x1="68" y1="7.91026" x2="60.0993" y2="159.494" gradientUnits="userSpaceOnUse">
<stop offset="0.349281" stop-color="#FCE9E8"/>
<stop offset="1" stop-color="#FF9691"/>
</linearGradient>
</defs>
</svg>
