<svg viewBox="0 0 220 30" fill="none" xmlns="http://www.w3.org/2000/svg">
<path d="M8.45987 19.5529C7.65423 18.2708 7.25141 16.6147 7.25141 14.5771C7.25141 12.5395 7.65423 10.7995 8.45987 9.54026C9.35071 8.12842 10.6599 7.41868 12.4028 7.41868C14.1458 7.41868 15.4549 8.12079 16.3458 9.54026C17.1514 10.7995 17.5542 12.4784 17.5542 14.5771C17.5542 16.6758 17.1514 18.2708 16.3458 19.5529C15.4317 21.0105 14.1225 21.7355 12.4028 21.7355C10.6831 21.7355 9.37395 21.0105 8.45987 19.5529ZM3.92817 6.06789C1.97606 8.10552 1 10.9445 1 14.5847C1 18.225 1.9838 21.0334 3.95141 23.0863C5.91902 25.1392 8.73099 26.1695 12.4028 26.1695C16.0747 26.1695 18.9021 25.1316 20.9007 23.0558C22.8296 21.0258 23.7979 18.2021 23.7979 14.5847C23.7979 10.9674 22.8218 8.11315 20.8697 6.06789C18.9099 4.02263 16.0902 3 12.3951 3C8.70001 3 5.88803 4.02263 3.92817 6.06789Z" fill="#231F20"/>
<path d="M30.4831 25.6811H36.5408V17.2405L44.876 3.28235H38.6943L33.5119 12.2647L28.3295 3.28235H22.0781L30.4831 17.2405V25.6811Z" fill="#231F20"/>
<path d="M55.0241 16.6605H49.3227L52.2353 8.21999H52.2973L55.0241 16.6605ZM39.9804 25.6734H46.1389L47.9283 20.8961H56.4649L58.1614 25.6734H64.8079L56.0311 3.28235H48.6022L39.9727 25.6811" fill="#231F20"/>
<path d="M66.1479 25.6811H72.2057V15.5082H72.2754L79.3402 25.6811H87.0557L78.0078 13.7071L86.405 3.28235H79.1078L72.2754 12.425H72.2057V3.28235H66.1479V25.6811Z" fill="#231F20"/>
<path d="M173.236 10.1432C173.236 12.8677 170.571 12.7379 169.641 12.7379L167.224 12.715V7.56373H170.021C170.594 7.56373 173.236 7.4111 173.236 10.1356V10.1432ZM179.2 9.28083C179.2 9.10531 179.208 8.96794 179.2 8.91452V8.89926C179.2 3.27478 172.74 3.27478 170.989 3.27478H161.461L161.399 25.6429H167.155V17.0116H169.618C171.748 17.0116 172.383 17.7061 172.693 20.194C173.003 22.6819 173.352 25.6658 173.352 25.6658H179.673C179.34 25.0629 179.038 23.0024 178.488 18.6753C177.938 14.3482 174.312 14.6993 174.049 14.6993C173.917 14.6993 173.871 14.7222 173.855 14.6153C173.855 14.5924 173.855 14.5008 173.987 14.4932C174.119 14.4703 174.227 14.4322 174.351 14.4093C175.606 14.2032 176.714 13.6537 177.558 12.8753C178.077 12.4327 178.441 11.929 178.689 11.4177C178.929 10.9445 179.069 10.4332 179.138 9.89899C179.169 9.71583 179.185 9.55557 179.193 9.4182C179.193 9.38768 179.208 9.34952 179.208 9.31899C179.208 9.30373 179.208 9.2961 179.208 9.28083" fill="#E40520"/>
<path d="M99.4343 25.6811H105.492V17.2405L113.835 3.28235H107.653L102.463 12.2647L97.2885 3.28235H91.0371L99.4343 17.2405V25.6811Z" fill="#E40520"/>
<path d="M123.627 16.6605H117.925L120.838 8.21999H120.9L123.627 16.6605ZM108.583 25.6734H114.741L116.531 20.8961H125.067L126.764 25.6734H133.41L124.634 3.28235H117.205L108.575 25.6811" fill="#E40520"/>
<path d="M219.21 25.681V3.28235H210.806L206.181 18.1715H206.119L201.711 3.28235H192.973V25.681H198.396L198.287 9.34945L203.268 25.6963H204.058V25.681H207.97V25.6963H208.76L213.873 9.16629L213.788 25.681H219.21Z" fill="#E40520"/>
<path d="M136.261 25.7116H142.319V7.73919H148.749V3.31287L129.855 3.28235V7.70867L136.261 7.73919V25.7116Z" fill="#E40520"/>
<path d="M157.146 3.28235H151.088V25.6811H157.146V3.28235Z" fill="#E40520"/>
<path d="M188.535 3.28235H182.477V25.6811H188.535V3.28235Z" fill="#E40520"/>
</svg>
