<svg width="24" height="24" viewBox="0 0 24 24" fill="none" xmlns="http://www.w3.org/2000/svg">
<path d="M12.705 12.0442L9.16499 15.5842C8.97874 15.7716 8.8742 16.025 8.8742 16.2892C8.8742 16.5534 8.97874 16.8069 9.16499 16.9942C9.25795 17.088 9.36855 17.1623 9.49041 17.2131C9.61227 17.2639 9.74298 17.29 9.87499 17.29C10.007 17.29 10.1377 17.2639 10.2596 17.2131C10.3814 17.1623 10.492 17.088 10.585 16.9942L14.825 12.7542C14.9187 12.6613 14.9931 12.5507 15.0439 12.4288C15.0946 12.3069 15.1208 12.1762 15.1208 12.0442C15.1208 11.9122 15.0946 11.7815 15.0439 11.6596C14.9931 11.5378 14.9187 11.4272 14.825 11.3342L10.585 7.04422C10.4915 6.95154 10.3807 6.87822 10.2589 6.82845C10.1371 6.77869 10.0066 6.75346 9.87499 6.75422C9.74338 6.75346 9.61292 6.77869 9.49108 6.82845C9.36925 6.87822 9.25843 6.95154 9.16499 7.04422C8.97874 7.23158 8.8742 7.48504 8.8742 7.74922C8.8742 8.01341 8.97874 8.26686 9.16499 8.45422L12.705 12.0442Z" fill="#2C2C2C"/>
</svg>
