<svg width="160" height="140" viewBox="0 0 160 140" fill="none" xmlns="http://www.w3.org/2000/svg">
<path d="M112.956 91.5806H111.652V81.1479C111.652 79.0727 110.828 77.0824 109.36 75.6151C107.893 74.1477 105.903 73.3233 103.828 73.3233H102.21C102.413 72.2482 102.518 71.157 102.523 70.0631C102.53 67.3168 101.892 64.6074 100.661 62.1523C99.4304 59.6972 97.6413 57.5648 95.4373 55.9264C93.2333 54.288 90.6758 53.1892 87.9703 52.7182C85.2647 52.2471 82.4864 52.417 79.8583 53.2142C76.9937 49.9656 73.0314 47.888 68.7302 47.3791C64.429 46.8703 60.0913 47.9661 56.5477 50.4565C53.0042 52.947 50.5039 56.6572 49.5258 60.8765C48.5476 65.0958 49.1603 69.5277 51.2466 73.3233H42.5352C40.46 73.3233 38.4698 74.1477 37.0025 75.6151C35.5351 77.0824 34.7107 79.0727 34.7107 81.1479V122.879C34.7107 124.954 35.5351 126.944 37.0025 128.412C38.4698 129.879 40.46 130.703 42.5352 130.703H103.828C105.903 130.703 107.893 129.879 109.36 128.412C110.828 126.944 111.652 124.954 111.652 122.879V112.446H112.956C113.648 112.446 114.311 112.171 114.8 111.682C115.29 111.193 115.564 110.53 115.564 109.838V94.1888C115.564 93.497 115.29 92.8336 114.8 92.3445C114.311 91.8554 113.648 91.5806 112.956 91.5806ZM57.6497 73.3233C55.4746 71.0003 54.2779 67.9288 54.3083 64.7466C54.3386 61.5644 55.5936 58.5162 57.8126 56.2351C60.0315 53.954 63.044 52.6154 66.2241 52.4972C69.4042 52.3791 72.5076 53.4905 74.8898 55.6007C72.5521 57.2195 70.6416 59.3809 69.322 61.8997C68.0024 64.4185 67.3131 67.2196 67.313 70.0631C67.3189 71.157 67.4237 72.2482 67.626 73.3233H57.6497ZM72.5294 70.0631C72.5259 68.2951 72.9008 66.5469 73.629 64.9359C74.3572 63.3249 75.4217 61.8884 76.7511 60.7229C78.0805 59.5574 79.6439 58.69 81.3364 58.1788C83.0288 57.6677 84.811 57.5247 86.5633 57.7595C88.3156 57.9942 89.9973 58.6013 91.4956 59.5399C92.9938 60.4785 94.2737 61.7269 95.2494 63.2013C96.2252 64.6756 96.874 66.3416 97.1525 68.0875C97.4309 69.8334 97.3324 71.6186 96.8637 73.3233H72.9727C72.6813 72.261 72.5322 71.1646 72.5294 70.0631ZM110.348 107.23H101.219C99.8359 107.23 98.5091 106.68 97.5308 105.702C96.5526 104.724 96.003 103.397 96.003 102.013C96.003 100.63 96.5526 99.3031 97.5308 98.3248C98.5091 97.3465 99.8359 96.797 101.219 96.797H110.348V107.23Z" fill="#FE5C4F"/>
<path d="M111.652 106.884V97.1743C111.652 96.2545 110.906 95.5088 109.986 95.5088H101.693C100.132 95.5088 98.5229 95.747 97.3085 96.7281C96.0119 97.7754 94.6987 99.4756 94.6987 102.029C94.6987 104.288 95.5686 105.712 96.6501 106.718C98.2072 108.167 100.451 108.55 102.578 108.55H109.986C110.906 108.55 111.652 107.804 111.652 106.884Z" fill="#FFA098"/>
<circle cx="101.221" cy="102.029" r="2.60818" fill="#FE5C4F"/>
<path fill-rule="evenodd" clip-rule="evenodd" d="M102.039 73.3389C102.356 71.9668 102.523 70.5376 102.523 69.0693C102.523 58.626 94.057 50.16 83.6137 50.16C73.1703 50.16 64.7043 58.626 64.7043 69.0693C64.7043 70.5376 64.8717 71.9668 65.1884 73.3389H102.039Z" fill="#F5C23E"/>
<path fill-rule="evenodd" clip-rule="evenodd" d="M81.5355 73.3397C83.7779 68.5698 84.1541 62.9304 82.1287 57.6164C78.1722 47.2363 66.5502 42.0288 56.17 45.9852C45.7899 49.9416 40.5825 61.5637 44.5389 71.9438C44.7204 72.4201 44.9181 72.8855 45.1311 73.3397H81.5355Z" fill="#FECF4E"/>
<ellipse cx="137.018" cy="61.7034" rx="2.835" ry="2.83499" fill="#72A1E5"/>
<circle cx="8.41205" cy="101.941" r="2.41205" fill="#72A1E5"/>
<path d="M114.946 31.3217V32.7392H113.528C113.137 32.7392 112.819 33.0567 112.819 33.448C112.819 33.8392 113.137 34.1567 113.528 34.1567H114.946V35.5742C114.946 35.9654 115.264 36.283 115.655 36.283C116.046 36.283 116.363 35.9654 116.363 35.5742V34.1567H117.781C118.172 34.1567 118.489 33.8392 118.489 33.448C118.489 33.0567 118.172 32.7392 117.781 32.7392H116.363V31.3217C116.363 30.9305 116.046 30.613 115.655 30.613C115.264 30.613 114.946 30.9305 114.946 31.3217Z" fill="#FE9E22"/>
<path d="M11.7892 38.7448V41.2254H9.30766C8.62309 41.2254 8.0675 41.781 8.0675 42.4657C8.0675 43.1503 8.62309 43.706 9.30766 43.706H11.7892V46.1866C11.7892 46.8713 12.3448 47.4269 13.0294 47.4269C13.7139 47.4269 14.2695 46.8713 14.2695 46.1866V43.706H16.7498C17.4344 43.706 17.99 43.1503 17.99 42.4657C17.99 41.781 17.4344 41.2254 16.7498 41.2254H14.2695V38.7448C14.2695 38.0601 13.7139 37.5045 13.0294 37.5045C12.3448 37.5045 11.7892 38.0601 11.7892 38.7448Z" fill="#72A1E5"/>
<circle cx="57.5355" cy="30.9561" r="1.95614" fill="#FE5953"/>
<path d="M147.219 99.5685C147.654 101.118 147.642 102.557 147.789 103.975C147.831 104.379 147.826 104.787 147.853 105.192C147.891 105.748 147.763 106.206 147.094 106.189C146.489 106.175 146.326 105.741 146.374 105.221C146.505 103.791 146.642 102.361 146.797 100.934C146.843 100.516 146.845 100.076 147.22 99.5685L147.219 99.5685Z" fill="#FE9E22"/>
<path d="M147.003 113.966C146.645 113.147 146.648 112.255 146.554 111.385C146.46 110.525 146.396 109.66 146.35 108.798C146.323 108.294 146.571 107.951 147.115 107.949C147.567 107.949 147.855 108.225 147.831 108.667C147.737 110.367 147.634 112.069 147.251 113.738C147.225 113.846 147.177 113.942 147.002 113.967L147.003 113.966Z" fill="#FE9F24"/>
<path d="M140.016 107.155C141.306 106.674 142.644 106.657 143.967 106.529C144.43 106.484 144.896 106.448 145.359 106.454C145.801 106.46 146.092 106.716 146.111 107.156C146.13 107.595 145.849 107.932 145.419 107.907C143.604 107.8 141.779 107.734 140.016 107.155Z" fill="#FE9E22"/>
<path d="M153.956 107.209C153.082 107.698 152.115 107.668 151.184 107.79C150.506 107.879 149.82 107.93 149.137 107.943C148.663 107.952 148.347 107.661 148.355 107.183C148.363 106.746 148.662 106.456 149.103 106.485C150.732 106.594 152.369 106.669 153.956 107.209Z" fill="#FE9E22"/>
<path fill-rule="evenodd" clip-rule="evenodd" d="M67.7493 73.3219C69.1469 72.1407 70.0865 70.6822 70.5677 68.9442L70.5676 68.9441C70.7755 68.1262 70.8808 67.309 70.8808 66.4924H73.1613C73.1613 68.3363 72.7154 70.0758 71.8213 71.7105C71.5352 72.2834 71.2014 72.8204 70.8201 73.3219H67.7493ZM63.0382 73.3219V70.5275V65.7226C63.0947 65.6846 63.1615 65.6464 63.2371 65.6084L69.8255 63.2415C69.8634 63.2415 69.8828 63.2032 69.8828 63.1273V62.2855V61.4161L66.7451 62.5842L63.0376 63.8969V63.4121V62.9273L69.8825 60.4461V58.6493L63.0376 61.1304V58.2216V55.2839H60.7842V58.6205V61.9571L56.5062 63.4695V65.2654C56.6019 65.2466 56.7111 65.218 56.8347 65.1798C56.9582 65.1415 57.0196 65.1233 57.0196 65.1233L59.2727 64.297C59.368 64.2772 59.5911 64.2016 59.9433 64.069C60.2954 63.9354 60.5756 63.8219 60.7844 63.7269V64.7247L56.5065 66.2642V68.061L60.4141 66.6637L60.7847 66.521V72.1107V73.3219H63.0382Z" fill="#E9AD56"/>
</svg>
