<svg width="220" height="176" viewBox="0 0 220 176" fill="none" xmlns="http://www.w3.org/2000/svg">
<g opacity="0.3" filter="url(#filter0_i_249_666)">
<rect x="61.379" y="118.666" width="90.0226" height="9.82065" rx="4.91033" fill="#F9F9F9"/>
</g>
<path d="M154.45 76.8834H152.904V64.6421C152.904 62.2072 151.927 59.8719 150.188 58.1501C148.448 56.4284 146.089 55.4611 143.628 55.4611H141.711C91.9476 55.4612 118.986 55.4611 70.9674 55.4611C68.5073 55.4611 66.1479 56.4284 64.4084 58.1501C62.6688 59.8719 61.6915 62.2072 61.6915 64.6421V113.607C61.6915 116.042 62.6688 118.377 64.4084 120.099C66.1479 121.821 68.5073 122.788 70.9674 122.788H143.628C146.089 122.788 148.448 121.821 150.188 120.099C151.927 118.377 152.904 116.042 152.904 113.607V101.366H154.45C155.27 101.366 156.057 101.043 156.637 100.47C157.217 99.8956 157.542 99.1172 157.542 98.3056V79.9437C157.542 79.132 157.217 78.3536 156.637 77.7797C156.057 77.2058 155.27 76.8834 154.45 76.8834ZM151.358 95.2453H140.537C138.896 95.2453 137.324 94.6004 136.164 93.4526C135.004 92.3047 134.353 90.7479 134.353 89.1246C134.353 87.5013 135.004 85.9445 136.164 84.7966C137.324 83.6488 138.896 83.004 140.537 83.004H151.358V95.2453Z" fill="#FE5C4F"/>
<path d="M152.905 95.8252V82.5343C152.905 81.9791 152.454 81.5289 151.899 81.5289H139.708C138.774 81.5289 137.836 81.6907 137.035 82.1716C135.249 83.2451 132.807 85.4271 132.807 89.1797C132.807 92.8245 134.757 94.6172 136.627 95.8283C137.696 96.52 138.966 96.8305 140.239 96.8305H151.899C152.454 96.8305 152.905 96.3804 152.905 95.8252Z" fill="#FFA098"/>
<ellipse cx="140.539" cy="89.1797" rx="3.09196" ry="3.06032" fill="#FE5C4F"/>
<ellipse cx="180.733" cy="44.1384" rx="3.40171" ry="3.3669" fill="#72A1E5"/>
<ellipse cx="22.5351" cy="94.346" rx="2.89422" ry="2.8646" fill="#72A1E5"/>
<path d="M139.069 9.17385V10.8573H137.367C136.898 10.8573 136.517 11.2344 136.517 11.699C136.517 12.1637 136.898 12.5407 137.367 12.5407H139.069V14.2242C139.069 14.6888 139.45 15.0659 139.919 15.0659C140.388 15.0659 140.769 14.6888 140.769 14.2242V12.5407H142.47C142.939 12.5407 143.32 12.1637 143.32 11.699C143.32 11.2344 142.939 10.8573 142.47 10.8573H140.769V9.17385C140.769 8.70922 140.388 8.33212 139.919 8.33212C139.45 8.33212 139.069 8.70922 139.069 9.17385Z" fill="#FE9E22"/>
<path d="M62.4653 151.402V153.544H60.3001C59.7028 153.544 59.218 154.024 59.218 154.616C59.218 155.207 59.7028 155.687 60.3001 155.687H62.4653V157.829C62.4653 158.42 62.95 158.9 63.5473 158.9C64.1446 158.9 64.6294 158.42 64.6294 157.829V155.687H66.7935C67.3907 155.687 67.8755 155.207 67.8755 154.616C67.8755 154.024 67.3907 153.544 66.7935 153.544H64.6294V151.402C64.6294 150.811 64.1446 150.331 63.5473 150.331C62.95 150.331 62.4653 150.811 62.4653 151.402Z" fill="#FE9E22"/>
<ellipse cx="95.5768" cy="27.7931" rx="2.34717" ry="2.32315" fill="#FE5953"/>
<ellipse cx="153.706" cy="150.206" rx="2.34717" ry="2.32315" fill="#FFA098"/>
<path d="M189.113 97.1311C189.635 98.9715 189.621 100.681 189.798 102.364C189.848 102.844 189.841 103.329 189.874 103.81C189.92 104.47 189.766 105.014 188.963 104.994C188.238 104.977 188.042 104.461 188.1 103.845C188.256 102.146 188.421 100.447 188.608 98.7522C188.662 98.2558 188.665 97.7339 189.115 97.1311L189.113 97.1311Z" fill="#FE9E22"/>
<path d="M188.855 114.229C188.424 113.257 188.428 112.197 188.316 111.165C188.203 110.143 188.126 109.116 188.07 108.092C188.038 107.494 188.336 107.086 188.988 107.084C189.531 107.083 189.877 107.411 189.848 107.937C189.735 109.956 189.611 111.977 189.152 113.959C189.121 114.087 189.063 114.201 188.853 114.231L188.855 114.229Z" fill="#FE9F24"/>
<path d="M180.47 106.141C182.018 105.57 183.624 105.55 185.211 105.398C185.767 105.345 186.326 105.301 186.881 105.308C187.413 105.315 187.762 105.62 187.784 106.142C187.807 106.664 187.47 107.064 186.954 107.034C184.776 106.907 182.586 106.828 180.47 106.141Z" fill="#FE9E22"/>
<path d="M197.197 106.205C196.148 106.785 194.989 106.75 193.871 106.895C193.058 107.001 192.234 107.062 191.415 107.077C190.846 107.087 190.468 106.741 190.477 106.175C190.486 105.655 190.845 105.311 191.374 105.345C193.329 105.475 195.293 105.564 197.197 106.205Z" fill="#FE9E22"/>
<path d="M40.0819 12.0787C40.8646 14.8363 40.8435 17.3974 41.1077 19.9194C41.1837 20.6379 41.1734 21.3646 41.2226 22.0859C41.291 23.0747 41.0604 23.8903 39.8574 23.8602C38.7703 23.8336 38.4778 23.0616 38.5635 22.1376C38.7985 19.5923 39.0453 17.047 39.3248 14.5077C39.4064 13.7639 39.4111 12.9819 40.0849 12.0788L40.0819 12.0787Z" fill="#FE9E22"/>
<path d="M39.6949 37.6974C39.05 36.2402 39.0564 34.6529 38.8874 33.1053C38.7182 31.5752 38.6026 30.0366 38.5196 28.5012C38.4714 27.6055 38.9177 26.9946 39.8951 26.9915C40.7091 26.9903 41.226 27.4817 41.1827 28.2693C41.0133 31.2947 40.8289 34.3229 40.1399 37.293C40.0942 37.4846 40.007 37.6556 39.6919 37.7003L39.6949 37.6974Z" fill="#FE9F24"/>
<path d="M27.1324 25.5784C29.4516 24.7224 31.8581 24.6925 34.236 24.4648C35.0683 24.3852 35.9064 24.3202 36.7382 24.3308C37.5342 24.3412 38.0573 24.7977 38.0913 25.5799C38.1253 26.3621 37.6197 26.961 36.8476 26.9159C33.5839 26.7258 30.302 26.6082 27.1324 25.5784Z" fill="#FE9E22"/>
<path d="M52.1943 25.6748C50.6234 26.5439 48.8856 26.4904 47.2116 26.7076C45.9925 26.8664 44.7589 26.9582 43.5317 26.9803C42.6789 26.9958 42.1116 26.4779 42.1255 25.629C42.1391 24.8498 42.6769 24.3353 43.4699 24.3864C46.3982 24.5804 49.3418 24.7135 52.1943 25.6748Z" fill="#FE9E22"/>
<defs>
<filter id="filter0_i_249_666" x="61.379" y="118.666" width="90.0226" height="13.0942" filterUnits="userSpaceOnUse" color-interpolation-filters="sRGB">
<feFlood flood-opacity="0" result="BackgroundImageFix"/>
<feBlend mode="normal" in="SourceGraphic" in2="BackgroundImageFix" result="shape"/>
<feColorMatrix in="SourceAlpha" type="matrix" values="0 0 0 0 0 0 0 0 0 0 0 0 0 0 0 0 0 0 127 0" result="hardAlpha"/>
<feMorphology radius="770.103" operator="erode" in="SourceAlpha" result="effect1_innerShadow_249_666"/>
<feOffset dy="3.27355"/>
<feGaussianBlur stdDeviation="32.3263"/>
<feComposite in2="hardAlpha" operator="arithmetic" k2="-1" k3="1"/>
<feColorMatrix type="matrix" values="0 0 0 0 0 0 0 0 0 0 0 0 0 0 0 0 0 0 0.25 0"/>
<feBlend mode="normal" in2="shape" result="effect1_innerShadow_249_666"/>
</filter>
</defs>
</svg>
