<svg width="24" height="24" viewBox="0 0 24 24" fill="none" xmlns="http://www.w3.org/2000/svg">
<path d="M12 13C12.2652 13 12.5196 12.8947 12.7071 12.7071C12.8946 12.5196 13 12.2652 13 12V8.00001C13 7.73479 12.8946 7.48044 12.7071 7.2929C12.5196 7.10536 12.2652 7.00001 12 7.00001C11.7348 7.00001 11.4804 7.10536 11.2929 7.2929C11.1054 7.48044 11 7.73479 11 8.00001V12C11 12.2652 11.1054 12.5196 11.2929 12.7071C11.4804 12.8947 11.7348 13 12 13ZM11.62 16.92C11.8635 17.02 12.1365 17.02 12.38 16.92C12.5027 16.8724 12.6149 16.801 12.71 16.71C12.7983 16.6128 12.8694 16.5012 12.92 16.38C12.976 16.2613 13.0034 16.1312 13 16C13.0008 15.8684 12.9755 15.7379 12.9258 15.6161C12.876 15.4943 12.8027 15.3834 12.71 15.29C12.6128 15.2017 12.5012 15.1306 12.38 15.08C12.2285 15.0178 12.064 14.9937 11.901 15.0099C11.7381 15.0261 11.5816 15.0821 11.4453 15.1729C11.309 15.2638 11.1971 15.3867 11.1195 15.5309C11.0418 15.6751 11.0008 15.8362 11 16C11.0037 16.2648 11.1073 16.5184 11.29 16.71C11.3851 16.801 11.4972 16.8724 11.62 16.92ZM12 22C13.9778 22 15.9112 21.4135 17.5557 20.3147C19.2002 19.2159 20.4819 17.6541 21.2388 15.8268C21.9957 13.9996 22.1937 11.9889 21.8078 10.0491C21.422 8.10929 20.4696 6.32746 19.0711 4.92894C17.6725 3.53041 15.8907 2.57801 13.9509 2.19215C12.0111 1.8063 10.0004 2.00434 8.17316 2.76121C6.3459 3.51809 4.78411 4.79981 3.6853 6.44431C2.58649 8.0888 2 10.0222 2 12C2 13.3132 2.25865 14.6136 2.7612 15.8268C3.26375 17.0401 4.00034 18.1425 4.92893 19.0711C5.85751 19.9997 6.9599 20.7363 8.17316 21.2388C9.38642 21.7413 10.6868 22 12 22V22ZM12 4.00001C13.5822 4.00001 15.129 4.4692 16.4446 5.34825C17.7602 6.2273 18.7855 7.47673 19.391 8.93854C19.9965 10.4003 20.155 12.0089 19.8463 13.5607C19.5376 15.1126 18.7757 16.538 17.6568 17.6569C16.538 18.7757 15.1126 19.5376 13.5607 19.8463C12.0089 20.155 10.4003 19.9965 8.93853 19.391C7.47672 18.7855 6.22729 17.7602 5.34824 16.4446C4.46919 15.129 4 13.5823 4 12C4 9.87828 4.84285 7.84344 6.34314 6.34315C7.84343 4.84286 9.87826 4.00001 12 4.00001V4.00001Z" fill="#2C2C2C"/>
</svg>
