<svg width="219" height="325" viewBox="0 0 219 325" fill="none" xmlns="http://www.w3.org/2000/svg">
<g clip-path="url(#clip0_593_21929)">
<path d="M0.722314 244.81L0.379395 245.688L190.788 319.799L191.13 318.92L0.722314 244.81Z" fill="#CACACA"/>
<path d="M136.779 0.144704L30.9414 28.0096C30.5182 28.1292 30.1273 28.3425 29.7977 28.6335C29.43 28.9552 29.1162 29.3336 28.8684 29.7545C28.5962 30.2103 28.3862 30.7004 28.244 31.2117C28.0933 31.7473 28.0161 32.3009 28.0146 32.8573V189.663C28.015 190.211 28.0922 190.756 28.244 191.282C28.3836 191.772 28.5939 192.239 28.8684 192.668C29.1148 193.059 29.4296 193.402 29.7977 193.681C30.1327 193.936 30.5256 194.105 30.9414 194.173L136.779 209.736C137.393 209.83 138.02 209.782 138.613 209.595C139.176 209.414 139.691 209.107 140.118 208.698C140.561 208.271 140.909 207.756 141.139 207.185C141.391 206.556 141.519 205.883 141.515 205.205V4.12631C141.522 3.46184 141.394 2.80287 141.139 2.18931C140.913 1.65092 140.563 1.1733 140.118 0.795226C139.685 0.432508 139.167 0.184175 138.613 0.0729598C138.004 -0.0444456 137.377 -0.0198911 136.779 0.144704Z" fill="#F2F2F2"/>
<path d="M33.5508 32.4096C33.2519 32.4972 32.9765 32.6504 32.7445 32.858C32.4865 33.085 32.2664 33.3518 32.0928 33.6483C31.9025 33.9707 31.7566 34.3174 31.6592 34.6788C31.5563 35.0562 31.5059 35.446 31.5095 35.8371V186.279C31.5053 186.663 31.5556 187.047 31.6592 187.418C31.7547 187.763 31.9006 188.093 32.092 188.397C32.2643 188.673 32.485 188.916 32.7434 189.114C32.9793 189.296 33.2561 189.417 33.5496 189.467L132.688 202.807C133.11 202.858 133.539 202.811 133.94 202.669C134.325 202.531 134.673 202.308 134.959 202.016C135.258 201.711 135.49 201.348 135.641 200.949C135.807 200.509 135.887 200.042 135.878 199.572V10.41C135.889 9.94882 135.808 9.4901 135.641 9.06033C135.493 8.68298 135.26 8.34479 134.959 8.07203C134.669 7.81186 134.319 7.62807 133.94 7.53734C133.528 7.44242 133.099 7.44536 132.688 7.54594L33.5508 32.4096Z" fill="white"/>
<path d="M37.7442 38.4247C37.54 38.4772 37.3522 38.58 37.198 38.7236C37.0196 38.8876 36.8696 39.0799 36.7539 39.2926C36.6218 39.5317 36.5212 39.7868 36.4546 40.0515C36.381 40.3352 36.3433 40.6269 36.3423 40.9199V61.8734C36.3407 62.1511 36.3777 62.4278 36.4523 62.6954C36.5144 62.9234 36.6157 63.139 36.7516 63.3325C36.8658 63.4967 37.0189 63.6302 37.1972 63.721C37.3665 63.804 37.5578 63.8309 37.7434 63.798L126.354 48.558C126.646 48.5044 126.923 48.3856 127.163 48.2105C127.422 48.0227 127.646 47.7917 127.826 47.5275C128.021 47.2444 128.172 46.9339 128.275 46.6061C128.384 46.2628 128.439 45.905 128.44 45.5449V19.888C128.443 19.5495 128.387 19.2131 128.275 18.8937C128.179 18.6185 128.026 18.3665 127.826 18.1542C127.642 17.9568 127.408 17.8124 127.149 17.7362C126.89 17.6599 126.615 17.6546 126.354 17.7208L37.7442 38.4247Z" fill="#F2F2F2"/>
<path d="M37.7428 73.9973C37.5413 74.0339 37.3516 74.1185 37.1898 74.2439C37.0121 74.3802 36.8601 74.5469 36.7409 74.7364C36.609 74.9434 36.5081 75.1686 36.4416 75.4048C36.3712 75.6569 36.3372 75.9177 36.3406 76.1794V120.965C36.3372 121.221 36.3723 121.476 36.4446 121.721C36.5092 121.942 36.6104 122.15 36.7439 122.337C36.8625 122.506 37.0155 122.647 37.1928 122.751C37.3603 122.85 37.5511 122.901 37.7454 122.901L126.354 120.378C126.64 120.364 126.92 120.288 127.173 120.154C127.428 120.018 127.654 119.835 127.839 119.613C128.033 119.382 128.184 119.119 128.285 118.835C128.392 118.535 128.444 118.219 128.441 117.901V63.0624C128.446 62.7526 128.393 62.4444 128.285 62.1541C128.186 61.8925 128.035 61.6542 127.839 61.4543C127.653 61.264 127.425 61.119 127.173 61.0306C126.909 60.9397 126.628 60.9122 126.352 60.9502L37.7428 73.9973Z" fill="#F2F2F2"/>
<path d="M45.5068 39.6377L115.347 23.8245V29.1676L45.5068 44.2193V39.6377Z" fill="white"/>
<path d="M45.6304 49.2671L115.515 35.052V37.5341L45.6304 51.3946V49.2671Z" fill="white"/>
<path d="M45.6304 53.0317L115.515 39.4436V41.9257L45.6304 55.1596V53.0317Z" fill="white"/>
<path d="M45.6304 56.7958L115.515 43.8347V46.3169L45.6304 58.9238V56.7958Z" fill="white"/>
<path d="M84.3782 121.661L119.818 120.659C119.942 120.656 120.063 120.631 120.179 120.588C120.295 120.543 120.404 120.481 120.502 120.403C120.604 120.323 120.693 120.228 120.768 120.122C120.846 120.01 120.909 119.888 120.955 119.759C121.048 119.498 121.073 119.217 121.025 118.944C121.002 118.812 120.962 118.684 120.905 118.562C120.849 118.443 120.776 118.332 120.688 118.234L97.3249 92.3674C97.2235 92.2528 97.0968 92.1633 96.9549 92.1058C96.8215 92.0533 96.6775 92.0328 96.5347 92.0461C96.3867 92.0603 96.2436 92.1066 96.1153 92.1817C95.9726 92.2655 95.8475 92.3763 95.7472 92.5079L90.3119 99.5228C90.1075 99.7916 89.8518 100.017 89.5595 100.187C89.2985 100.337 89.0071 100.428 88.7065 100.452C88.4161 100.474 88.1247 100.427 87.8565 100.314C87.5694 100.19 87.3145 100.003 87.1116 99.7652L71.0926 81.3821C71.0034 81.2775 70.8902 81.196 70.7626 81.1445C70.6438 81.0978 70.5152 81.0815 70.3885 81.097C70.255 81.1143 70.1272 81.1613 70.0143 81.2345C69.8857 81.318 69.7742 81.4253 69.6859 81.5506L41.5422 120.694C41.4791 120.783 41.4275 120.879 41.3888 120.981C41.3486 121.086 41.3202 121.195 41.3043 121.307C41.2878 121.42 41.2835 121.535 41.2915 121.65C41.2996 121.764 41.3205 121.877 41.354 121.986C41.3855 122.09 41.4301 122.189 41.4868 122.282C41.5378 122.366 41.6008 122.441 41.6739 122.506C41.7412 122.566 41.8186 122.614 41.9025 122.647C41.9839 122.679 42.0709 122.694 42.1584 122.692L84.4201 121.48L84.3782 121.661Z" fill="white"/>
<path d="M48.3256 78.699C48.7832 78.6372 49.249 78.7018 49.6725 78.8859C50.1037 79.0771 50.4837 79.3672 50.7818 79.7326C51.1151 80.1421 51.3689 80.6102 51.53 81.1128C51.7163 81.6862 51.8094 82.2856 51.8058 82.8884C51.806 83.5128 51.713 84.1338 51.53 84.7309C51.3621 85.2869 51.1098 85.8139 50.7818 86.2934C50.4849 86.7311 50.1094 87.11 49.6744 87.411C49.2738 87.6887 48.8115 87.8647 48.3275 87.9237C47.8698 87.976 47.4065 87.9023 46.9877 87.7107C46.5633 87.5113 46.1909 87.2164 45.8998 86.8491C45.5737 86.4403 45.3255 85.9753 45.1676 85.477C44.9872 84.9115 44.897 84.3211 44.9005 83.7276C44.9003 83.113 44.9903 82.5017 45.1676 81.9132C45.3316 81.3629 45.5778 80.8405 45.8979 80.3636C46.1892 79.9256 46.5578 79.5441 46.9859 79.2378C47.3826 78.9532 47.8421 78.7684 48.3256 78.699Z" fill="white"/>
<path d="M37.7428 133.42C37.547 133.426 37.3563 133.483 37.1899 133.586C37.013 133.697 36.8607 133.842 36.7424 134.014C36.6092 134.205 36.5081 134.416 36.4431 134.64C36.3715 134.887 36.3369 135.143 36.3406 135.4V180.185C36.338 180.446 36.373 180.706 36.4446 180.957C36.5109 181.19 36.6117 181.413 36.7439 181.616C36.863 181.802 37.0152 181.964 37.1929 182.094C37.3555 182.215 37.5452 182.294 37.7455 182.323L126.352 192.588C126.629 192.617 126.91 192.58 127.17 192.482C127.423 192.385 127.65 192.233 127.837 192.037C128.032 191.832 128.183 191.589 128.282 191.323C128.39 191.031 128.443 190.721 128.438 190.41V135.574C128.442 135.257 128.389 134.942 128.282 134.643C128.181 134.364 128.031 134.105 127.837 133.879C127.652 133.663 127.425 133.487 127.17 133.359C126.916 133.233 126.636 133.165 126.352 133.161L37.7428 133.42Z" fill="#F2F2F2"/>
<path d="M84.3783 187.815L119.817 191.927C119.937 191.941 120.059 191.935 120.177 191.907C120.292 191.88 120.401 191.834 120.5 191.769C120.602 191.704 120.691 191.621 120.766 191.526C120.845 191.424 120.908 191.311 120.953 191.19C121.001 191.063 121.03 190.93 121.042 190.795C121.053 190.658 121.047 190.52 121.023 190.384C121 190.247 120.959 190.113 120.903 189.985C120.846 189.857 120.773 189.736 120.686 189.626L97.3249 160.389C97.2238 160.261 97.0978 160.154 96.9545 160.075C96.8251 160.005 96.6816 159.964 96.5344 159.955C96.3907 159.947 96.2471 159.973 96.115 160.03C95.9734 160.092 95.8476 160.185 95.7469 160.303L90.3119 166.532C90.1068 166.772 89.8494 166.962 89.5595 167.087C89.2906 167.202 88.9982 167.251 88.7065 167.23C88.4072 167.207 88.1168 167.118 87.8565 166.969C87.5671 166.802 87.314 166.579 87.112 166.313L71.0926 145.616C71.0037 145.499 70.8912 145.402 70.7623 145.331C70.6473 145.268 70.5191 145.234 70.3882 145.23C70.2585 145.227 70.1302 145.255 70.014 145.313C69.8855 145.377 69.7727 145.469 69.6837 145.581L41.5422 180.667C41.4787 180.747 41.427 180.836 41.3888 180.931C41.3482 181.032 41.3199 181.137 41.3043 181.245C41.2877 181.358 41.2835 181.472 41.2916 181.586C41.2997 181.704 41.3205 181.82 41.3537 181.933C41.3857 182.043 41.4303 182.148 41.4865 182.248C41.5378 182.34 41.6007 182.424 41.6736 182.5C41.7404 182.569 41.8175 182.628 41.9022 182.673C41.9816 182.716 42.0684 182.744 42.1581 182.755L84.4206 187.641L84.3783 187.815Z" fill="white"/>
<path d="M48.3256 139.649C48.7998 139.657 49.2638 139.788 49.6724 140.029C50.1065 140.286 50.4834 140.629 50.7798 141.037C51.11 141.489 51.3629 141.992 51.5281 142.526C51.7124 143.114 51.8054 143.726 51.8038 144.341C51.806 144.953 51.713 145.561 51.5281 146.144C51.3641 146.668 51.111 147.16 50.7798 147.598C50.4833 147.993 50.1057 148.319 49.6724 148.556C49.2594 148.779 48.7947 148.888 48.3256 148.874C47.8515 148.855 47.3902 148.715 46.9858 148.468C46.5585 148.204 46.1885 147.858 45.8978 147.449C45.5756 146.999 45.3289 146.5 45.1676 145.971C44.989 145.392 44.899 144.789 44.9004 144.183C44.8983 143.581 44.9884 142.982 45.1676 142.407C45.3277 141.888 45.5746 141.4 45.8978 140.963C46.1885 140.568 46.5591 140.237 46.9858 139.994C47.3944 139.764 47.8564 139.645 48.3256 139.649Z" fill="white"/>
<path d="M62.7368 58.8192C62.4033 58.8813 62.0882 59.0182 61.8154 59.2198C61.5224 59.4361 61.2692 59.7016 61.0671 60.0044C60.8475 60.3298 60.6776 60.6859 60.5628 61.0611C60.4401 61.4554 60.377 61.8659 60.3757 62.2788V231.708C60.3793 232.529 60.6187 233.331 61.0656 234.02C61.2681 234.335 61.5209 234.615 61.8139 234.848C62.0845 235.064 62.3991 235.219 62.7357 235.302L188.426 264.275C188.93 264.396 189.453 264.411 189.962 264.317C190.42 264.231 190.852 264.039 191.223 263.757C191.589 263.474 191.882 263.108 192.077 262.689C192.289 262.226 192.396 261.722 192.391 261.213V40.2918C192.395 39.7768 192.288 39.2671 192.077 38.7972C191.88 38.3654 191.588 37.9836 191.223 37.6808C190.855 37.3785 190.425 37.1623 189.962 37.0482C189.459 36.926 188.936 36.9104 188.427 37.0026L62.7368 58.8192Z" fill="#E6E6E6"/>
<path d="M65.6386 63.1169C65.2984 63.1833 64.9776 63.3258 64.7003 63.5335C64.4031 63.755 64.1467 64.0265 63.9426 64.3357C63.7222 64.6667 63.5526 65.0288 63.4395 65.4099C63.3192 65.8106 63.2602 66.227 63.2644 66.6452V228.87C63.2586 229.702 63.4941 230.518 63.9426 231.22C64.1471 231.542 64.4031 231.828 64.7003 232.068C64.9754 232.291 65.2954 232.452 65.6386 232.54L183.255 258.735C183.755 258.843 184.271 258.843 184.77 258.735C185.223 258.638 185.646 258.434 186.003 258.14C186.361 257.847 186.644 257.473 186.828 257.048C187.03 256.579 187.128 256.072 187.116 255.562V47.3907C187.127 46.8748 187.029 46.3623 186.828 45.8868C186.643 45.4502 186.362 45.0607 186.006 44.7473C185.65 44.4338 185.227 44.2044 184.77 44.0761C184.277 43.9394 183.761 43.9088 183.255 43.9864L65.6386 63.1169Z" fill="white"/>
<path d="M80.6546 85.2109C80.4961 85.2296 80.3441 85.2845 80.2102 85.3712C80.0694 85.4624 79.9467 85.5787 79.848 85.7142C79.7417 85.8592 79.6592 86.0201 79.6037 86.191C79.5444 86.3719 79.5141 86.5611 79.5139 86.7515V93.2463C79.5132 93.4309 79.5435 93.6143 79.6037 93.7888C79.6575 93.9452 79.7403 94.09 79.8477 94.2159C79.9466 94.3322 80.0703 94.425 80.2098 94.4875C80.3494 94.5488 80.5023 94.5737 80.6543 94.56L159.876 87.5799C160.092 87.5597 160.301 87.4961 160.491 87.393C160.681 87.2903 160.851 87.1541 160.993 86.991C161.138 86.8253 161.253 86.6356 161.333 86.4305C161.415 86.2204 161.458 85.997 161.459 85.7714V78.1012C161.46 77.8832 161.417 77.6673 161.334 77.466C161.256 77.2794 161.141 77.111 160.994 76.9716C160.851 76.8353 160.679 76.7318 160.492 76.6682C160.294 76.6015 160.084 76.5789 159.876 76.6021L80.6546 85.2109Z" fill="#ED1C2E"/>
<path d="M80.2276 106.787C80.188 106.789 80.1495 106.801 80.1154 106.822C80.0802 106.843 80.0495 106.87 80.0249 106.903C79.9982 106.938 79.9776 106.977 79.9639 107.019C79.949 107.064 79.9414 107.111 79.9414 107.158V109.696C79.9413 109.743 79.9489 109.789 79.9639 109.832C79.9774 109.872 79.998 109.909 80.0249 109.942C80.0496 109.971 80.0804 109.996 80.1154 110.013C80.1503 110.029 80.189 110.037 80.2276 110.035L160.866 105.669C160.92 105.666 160.972 105.652 161.02 105.628C161.068 105.604 161.11 105.571 161.146 105.532C161.221 105.449 161.262 105.342 161.262 105.23V102.238C161.262 102.183 161.252 102.129 161.231 102.078C161.211 102.03 161.183 101.987 161.146 101.95C161.11 101.914 161.066 101.886 161.017 101.867C160.969 101.849 160.918 101.842 160.866 101.845L80.2276 106.787Z" fill="#CCCCCC"/>
<path d="M80.2276 115.041C80.1881 115.043 80.1496 115.054 80.1154 115.074C80.0803 115.095 80.0495 115.122 80.0249 115.154C79.9982 115.189 79.9776 115.228 79.9639 115.269C79.949 115.314 79.9414 115.361 79.9414 115.408V117.946C79.9412 117.992 79.9488 118.039 79.9639 118.083C79.9772 118.124 79.9979 118.162 80.0249 118.195C80.0496 118.225 80.0804 118.25 80.1154 118.267C80.1502 118.285 80.1888 118.293 80.2276 118.291L160.866 115.39C160.92 115.388 160.972 115.375 161.02 115.352C161.068 115.329 161.11 115.297 161.146 115.258C161.221 115.176 161.262 115.07 161.262 114.959V111.965C161.262 111.91 161.252 111.856 161.231 111.804C161.211 111.756 161.183 111.713 161.146 111.676C161.11 111.639 161.068 111.611 161.02 111.591C160.971 111.572 160.919 111.563 160.866 111.565L80.2276 115.041Z" fill="#CCCCCC"/>
<path d="M80.2285 123.296C80.1891 123.297 80.1506 123.308 80.1162 123.327C80.0815 123.347 80.0512 123.373 80.0268 123.405C80.0001 123.439 79.9795 123.478 79.9658 123.519C79.9509 123.564 79.9433 123.61 79.9434 123.657V126.195C79.9432 126.242 79.9508 126.288 79.9658 126.333C79.9793 126.373 80 126.411 80.0268 126.445C80.0514 126.476 80.0823 126.501 80.1173 126.519C80.152 126.537 80.1906 126.546 80.2296 126.546L160.867 125.11C160.92 125.108 160.973 125.096 161.021 125.073C161.069 125.05 161.111 125.019 161.147 124.981C161.183 124.942 161.212 124.896 161.232 124.847C161.252 124.795 161.263 124.74 161.263 124.684V121.693C161.263 121.637 161.252 121.583 161.232 121.531C161.212 121.483 161.183 121.438 161.147 121.401C161.111 121.363 161.069 121.333 161.021 121.313C160.972 121.292 160.92 121.283 160.867 121.285L80.2285 123.296Z" fill="#CCCCCC"/>
<path d="M80.0847 139.782C80.0456 139.782 80.0071 139.791 79.9724 139.809C79.9374 139.827 79.9066 139.853 79.8819 139.884C79.8555 139.917 79.8352 139.955 79.822 139.996C79.8071 140.04 79.7995 140.086 79.7996 140.133V142.67C79.7995 142.717 79.8071 142.763 79.822 142.808C79.8358 142.849 79.8565 142.887 79.883 142.92C79.9077 142.952 79.9384 142.978 79.9735 142.998C80.0079 143.017 80.0465 143.027 80.0858 143.028L160.669 144.519C160.722 144.52 160.775 144.51 160.823 144.489C160.87 144.469 160.913 144.44 160.949 144.402C160.985 144.365 161.014 144.32 161.034 144.271C161.054 144.22 161.065 144.165 161.065 144.109V141.119C161.065 141.063 161.054 141.008 161.034 140.956C161.014 140.907 160.985 140.861 160.949 140.823C160.913 140.784 160.87 140.754 160.823 140.732C160.775 140.709 160.722 140.698 160.669 140.697L80.0847 139.782Z" fill="#CCCCCC"/>
<path d="M80.0847 148.034C80.0458 148.033 80.0072 148.042 79.9724 148.059C79.9373 148.077 79.9064 148.103 79.8819 148.134C79.855 148.167 79.8343 148.205 79.8209 148.246C79.8066 148.289 79.7994 148.334 79.7996 148.38V150.917C79.7995 150.964 79.8071 151.011 79.822 151.055C79.8357 151.097 79.8563 151.135 79.883 151.17C79.9077 151.202 79.9384 151.229 79.9735 151.249C80.0078 151.269 80.0463 151.28 80.0858 151.281L160.669 154.237C160.722 154.239 160.774 154.23 160.823 154.21C160.87 154.191 160.913 154.162 160.949 154.125C160.985 154.088 161.014 154.044 161.034 153.996C161.054 153.944 161.065 153.889 161.065 153.834V150.843C161.065 150.787 161.054 150.732 161.034 150.68C161.014 150.63 160.985 150.584 160.949 150.545C160.913 150.506 160.871 150.474 160.823 150.451C160.775 150.428 160.723 150.416 160.669 150.414L80.0847 148.034Z" fill="#CCCCCC"/>
<path d="M80.0847 156.286C80.0462 156.284 80.008 156.293 79.9735 156.31C79.9387 156.327 79.9078 156.351 79.883 156.38C79.8562 156.413 79.8355 156.45 79.822 156.49C79.807 156.534 79.7994 156.58 79.7996 156.626V159.163C79.7995 159.211 79.8071 159.257 79.822 159.302C79.8358 159.344 79.8564 159.383 79.883 159.418C79.9077 159.451 79.9384 159.478 79.9735 159.499C80.0077 159.519 80.0462 159.531 80.0858 159.533L160.669 163.953C160.721 163.956 160.772 163.948 160.821 163.93C160.869 163.911 160.912 163.883 160.949 163.846C160.985 163.81 161.014 163.766 161.034 163.718C161.054 163.667 161.065 163.612 161.065 163.557V160.566C161.064 160.456 161.023 160.349 160.949 160.267C160.913 160.228 160.871 160.196 160.823 160.172C160.775 160.148 160.723 160.134 160.669 160.132L80.0847 156.286Z" fill="#CCCCCC"/>
<path d="M80.0847 164.578C80.0461 164.575 80.0075 164.583 79.9724 164.599C79.9379 164.615 79.9074 164.639 79.883 164.669C79.8562 164.701 79.8355 164.738 79.822 164.777C79.807 164.821 79.7994 164.867 79.7996 164.914V167.451C79.7995 167.498 79.8071 167.545 79.822 167.59C79.8358 167.632 79.8564 167.672 79.883 167.707C79.9077 167.74 79.9384 167.768 79.9735 167.79C80.0074 167.811 80.0459 167.824 80.0858 167.827L160.668 173.718C160.72 173.722 160.773 173.714 160.822 173.696C160.869 173.678 160.912 173.651 160.947 173.616C160.984 173.58 161.013 173.537 161.032 173.489C161.053 173.438 161.064 173.384 161.063 173.329V170.338C161.063 170.281 161.053 170.226 161.032 170.173C161.012 170.123 160.984 170.076 160.947 170.035C160.912 169.995 160.869 169.962 160.822 169.937C160.774 169.912 160.721 169.898 160.668 169.894L80.0847 164.578Z" fill="#CCCCCC"/>
<path d="M80.0847 172.83C80.0463 172.827 80.0076 172.833 79.9724 172.849C79.9378 172.865 79.9073 172.889 79.883 172.918C79.8563 172.95 79.8356 172.985 79.822 173.024C79.807 173.068 79.7994 173.114 79.7996 173.16V175.697C79.7996 175.745 79.8072 175.792 79.822 175.837C79.8358 175.879 79.8564 175.919 79.883 175.955C79.9077 175.988 79.9384 176.017 79.9735 176.039C80.0075 176.06 80.046 176.073 80.0858 176.076L160.668 183.433C160.72 183.438 160.772 183.432 160.822 183.415C160.869 183.398 160.911 183.371 160.947 183.337C160.984 183.301 161.013 183.259 161.032 183.212C161.053 183.161 161.064 183.107 161.063 183.052V180.061C161.063 180.004 161.053 179.948 161.032 179.896C161.012 179.845 160.984 179.797 160.947 179.756C160.912 179.715 160.869 179.681 160.822 179.656C160.774 179.63 160.722 179.615 160.668 179.61L80.0847 172.83Z" fill="#CCCCCC"/>
<path d="M80.0847 181.082C80.0465 181.078 80.0078 181.083 79.9724 181.098C79.938 181.114 79.9075 181.136 79.883 181.165C79.8561 181.196 79.8354 181.232 79.822 181.271C79.8069 181.315 79.7993 181.361 79.7996 181.407V183.944C79.7996 183.992 79.8072 184.039 79.822 184.084C79.8359 184.127 79.8565 184.167 79.883 184.203C79.9077 184.237 79.9383 184.266 79.9735 184.289C80.0074 184.311 80.0458 184.325 80.0858 184.329L160.668 193.15C160.72 193.156 160.772 193.15 160.822 193.134C160.868 193.118 160.911 193.093 160.947 193.059C160.984 193.024 161.013 192.982 161.032 192.936C161.053 192.885 161.064 192.831 161.063 192.776V189.784C161.063 189.728 161.053 189.671 161.032 189.619C161.012 189.567 160.984 189.519 160.947 189.477C160.912 189.436 160.869 189.401 160.822 189.375C160.774 189.349 160.722 189.332 160.668 189.326L80.0847 181.082Z" fill="#CCCCCC"/>
<path d="M80.0847 189.375C80.0466 189.37 80.008 189.375 79.9724 189.389C79.9382 189.403 79.9077 189.425 79.883 189.453C79.8559 189.484 79.8352 189.52 79.822 189.559C79.8069 189.603 79.7993 189.648 79.7996 189.694V192.231C79.7996 192.279 79.8072 192.327 79.822 192.372C79.8359 192.415 79.8565 192.455 79.883 192.492C79.9077 192.527 79.9383 192.556 79.9735 192.58C80.0072 192.602 80.0456 192.617 80.0858 192.622L160.668 202.914C160.719 202.921 160.772 202.917 160.822 202.901C160.869 202.886 160.911 202.86 160.947 202.827C160.984 202.792 161.013 202.751 161.032 202.705C161.053 202.655 161.064 202.601 161.063 202.546V199.556C161.063 199.499 161.053 199.443 161.032 199.39C161.012 199.338 160.983 199.289 160.947 199.247C160.912 199.205 160.869 199.17 160.822 199.142C160.774 199.115 160.722 199.098 160.668 199.091L80.0847 189.375Z" fill="#CCCCCC"/>
<path d="M80.0847 197.627C80.0468 197.621 80.0081 197.626 79.9724 197.64C79.9381 197.653 79.9075 197.675 79.883 197.703C79.8561 197.733 79.8353 197.768 79.822 197.807C79.8069 197.85 79.7993 197.895 79.7996 197.941V200.478C79.7996 200.526 79.8072 200.574 79.822 200.619C79.836 200.662 79.8565 200.703 79.883 200.74C79.9077 200.775 79.9384 200.805 79.9735 200.829C80.0071 200.852 80.0455 200.867 80.0858 200.873L160.668 212.631C160.719 212.639 160.772 212.635 160.822 212.62C160.868 212.606 160.911 212.582 160.947 212.549C160.984 212.516 161.013 212.475 161.032 212.429C161.053 212.379 161.064 212.325 161.063 212.271V209.279C161.063 209.222 161.053 209.166 161.032 209.113C161.012 209.06 160.983 209.012 160.947 208.969C160.912 208.926 160.869 208.89 160.822 208.862C160.774 208.834 160.722 208.815 160.668 208.808L80.0847 197.627Z" fill="#CCCCCC"/>
<path d="M80.0847 205.879C80.047 205.872 80.0083 205.876 79.9724 205.889C79.9382 205.902 79.9075 205.923 79.883 205.951C79.856 205.981 79.8353 206.015 79.822 206.053C79.8069 206.096 79.7993 206.142 79.7996 206.188V208.725C79.7996 208.773 79.8072 208.82 79.822 208.866C79.836 208.91 79.8566 208.951 79.883 208.989C79.9077 209.024 79.9383 209.055 79.9735 209.08C80.0071 209.103 80.0454 209.119 80.0858 209.126L160.668 222.347C160.719 222.356 160.772 222.353 160.822 222.339C160.868 222.326 160.911 222.303 160.947 222.271C160.984 222.238 161.013 222.197 161.032 222.152C161.053 222.102 161.064 222.048 161.063 221.994V219.003C161.063 218.945 161.053 218.889 161.032 218.835C161.012 218.782 160.983 218.733 160.947 218.689C160.912 218.646 160.869 218.609 160.822 218.58C160.775 218.551 160.722 218.532 160.668 218.523L80.0847 205.879Z" fill="#CCCCCC"/>
<path d="M184.949 218.126C189.373 218.813 193.63 220.316 197.503 222.558C205.646 227.27 212.008 234.528 215.607 243.212C217.407 247.537 218.348 252.17 218.378 256.853C218.426 261.176 217.478 265.453 215.607 269.351C213.896 272.863 211.346 275.899 208.18 278.192C205.013 280.459 201.355 281.947 197.503 282.534C193.313 283.16 189.037 282.906 184.95 281.787C180.648 280.633 176.582 278.734 172.937 276.177C169.352 273.674 166.17 270.639 163.503 267.176C160.886 263.799 158.802 260.041 157.324 256.033C155.871 252.116 155.116 247.974 155.094 243.796C155.059 239.911 155.818 236.06 157.324 232.479C158.722 229.166 160.853 226.212 163.557 223.84C166.261 221.467 169.468 219.736 172.937 218.778C176.849 217.71 180.944 217.487 184.949 218.126Z" fill="#ED1C2E"/>
<path d="M181.96 262.704L172.775 248.605L178.079 245.454L182.475 252.113L197.855 238.9L203.191 244.858L181.96 262.704Z" fill="white"/>
<path d="M114.895 246.275L113.235 223.298L116.216 201.766L107.748 201.195L106.076 224.979L110.801 247.346C110.398 247.902 110.178 248.568 110.169 249.253C110.16 249.939 110.363 250.611 110.751 251.176C111.139 251.742 111.692 252.174 112.336 252.414C112.979 252.653 113.68 252.689 114.345 252.515C115.009 252.341 115.603 251.967 116.046 251.443C116.488 250.919 116.758 250.271 116.819 249.588C116.879 248.905 116.726 248.22 116.382 247.627C116.038 247.034 115.518 246.562 114.895 246.275Z" fill="#9F616A"/>
<path d="M106.668 204.29L108.656 195.695C109.037 194.049 110.034 192.611 111.442 191.675C112.85 190.739 114.564 190.377 116.231 190.662C117.898 190.947 119.393 191.858 120.409 193.208C121.425 194.559 121.886 196.246 121.697 197.925L120.602 207.637L106.668 204.29Z" fill="#CBCBCB"/>
<path d="M122.345 321.135L126.337 321.135L128.236 305.756L122.344 305.756L122.345 321.135Z" fill="#9F616A"/>
<path d="M121.327 319.834L129.189 319.833H129.19C130.518 319.834 131.793 320.361 132.732 321.299C133.672 322.238 134.2 323.51 134.2 324.837V325L121.327 325L121.327 319.834Z" fill="#2F2E41"/>
<path d="M142.234 321.004L146.072 319.906L143.658 304.6L137.993 306.22L142.234 321.004Z" fill="#9F616A"/>
<path d="M140.896 320.034L148.455 317.871L148.455 317.871C149.732 317.506 151.103 317.662 152.265 318.306C153.427 318.95 154.285 320.028 154.651 321.304L154.696 321.46L142.321 325L140.896 320.034Z" fill="#2F2E41"/>
<path d="M120.188 315.553L122.045 268.967L117.222 247.884C110.732 237.016 117.733 219.681 117.805 219.508L117.831 219.444L117.899 219.435L134.876 217.138L135.115 217.684C141.755 232.847 143.598 249.674 140.397 265.911L138.63 274.937L147.363 310.152L139.097 314.279L132.756 297.856L128.47 314.659L120.188 315.553Z" fill="#2F2E41"/>
<path d="M115.567 223.828L110.029 207.621C106.586 201.565 108.77 196.188 111.208 192.745C113.842 189.026 114 186.941 114.035 186.918L114.063 186.899L121.34 186.679L128.074 193.513C128.498 193.348 132.076 202.155 131.773 202.598L136.477 217.783L115.567 223.828Z" fill="#CBCBCB"/>
<path d="M160.415 226.632L142.17 212.537L128.1 195.953L122.024 201.872L138.648 218.984L158.482 230.393C158.628 231.063 158.978 231.671 159.483 232.135C159.988 232.599 160.625 232.896 161.306 232.985C161.986 233.074 162.678 232.95 163.286 232.632C163.894 232.313 164.388 231.815 164.702 231.205C165.015 230.595 165.132 229.903 165.037 229.224C164.942 228.545 164.639 227.912 164.17 227.411C163.7 226.911 163.088 226.567 162.416 226.428C161.743 226.288 161.045 226.36 160.415 226.632Z" fill="#9F616A"/>
<path d="M120.297 207.869L115.213 200.655C114.24 199.273 113.832 197.572 114.074 195.901C114.316 194.229 115.188 192.712 116.513 191.662C117.838 190.612 119.515 190.108 121.2 190.253C122.885 190.398 124.451 191.181 125.577 192.442L132.09 199.736L120.297 207.869Z" fill="#CBCBCB"/>
<path d="M116.847 184.692C121.619 184.692 125.488 180.828 125.488 176.062C125.488 171.296 121.619 167.432 116.847 167.432C112.074 167.432 108.205 171.296 108.205 176.062C108.205 180.828 112.074 184.692 116.847 184.692Z" fill="#9F616A"/>
<path d="M125.631 171.684H111.91V165.71C114.922 164.515 117.869 163.499 119.65 165.71C121.237 165.71 122.758 166.34 123.88 167.46C125.001 168.58 125.631 170.099 125.631 171.684V171.684Z" fill="#2F2E41"/>
<path d="M113.804 164.278C101.232 163.935 103.613 184.619 103.613 184.619C103.613 184.619 105.985 184.933 107.067 185.117L108.374 184.382L109.78 185.303C110.426 185.306 111.104 185.294 111.808 185.281L112.453 183.955L113.89 185.257C116.507 185.261 123.61 185.333 123.61 185.333C123.61 185.333 127.89 164.662 113.804 164.278Z" fill="#2F2E41"/>
<path d="M63.1496 199.718C63.1993 199.313 63.1595 198.903 63.0331 198.515C62.9067 198.128 62.6968 197.772 62.4182 197.475C62.1395 197.177 61.7989 196.944 61.4202 196.792C61.0416 196.64 60.6343 196.573 60.2268 196.595L57.4648 190.853L53.5615 191.678L57.5761 199.732C57.6589 200.414 57.989 201.041 58.5038 201.495C59.0186 201.949 59.6825 202.199 60.3695 202.197C61.0565 202.196 61.7189 201.942 62.2313 201.485C62.7437 201.028 63.0705 200.399 63.1496 199.718H63.1496Z" fill="#FFB7B7"/>
<path d="M3.18848 266.385L6.43707 268.045L14.3959 256.321L9.60112 253.871L3.18848 266.385Z" fill="#FFB7B7"/>
<path d="M2.90042 264.902L9.29818 268.172L9.29844 268.172C10.3797 268.725 11.1968 269.684 11.5701 270.839C11.9434 271.993 11.8422 273.248 11.2889 274.328L11.2211 274.46L0.746094 269.107L2.90042 264.902Z" fill="#2F2E41"/>
<path d="M40.708 270.927H44.357L46.093 256.869L40.707 256.869L40.708 270.927Z" fill="#FFB7B7"/>
<path d="M39.7759 269.738L46.9627 269.737H46.963C48.1777 269.737 49.3426 270.219 50.2015 271.077C51.0604 271.935 51.543 273.098 51.5431 274.311V274.46L39.7761 274.46L39.7759 269.738Z" fill="#2F2E41"/>
<path d="M23.6392 156.26C23.6392 156.26 21.1954 154.39 21.1954 158.957L20.8096 174.051L25.1183 188.309L27.6264 183.685L26.5974 173.665L23.6392 156.26Z" fill="#ED1C2E"/>
<path d="M49.7791 197.543C49.7791 197.543 52.6129 211.326 49.0234 222.637L47.0397 266.128L39.7663 265.562L37.2159 233.298L34.76 217.26L29.6592 231.883L12.8453 262.826L5.09961 256.788C5.09961 256.788 13.6831 233.397 20.0243 228.486L23.2045 192.311L49.7791 197.543Z" fill="#2F2E41"/>
<path d="M41.1575 137.832C45.7377 137.832 49.4507 134.124 49.4507 129.549C49.4507 124.975 45.7377 121.267 41.1575 121.267C36.5773 121.267 32.8643 124.975 32.8643 129.549C32.8643 134.124 36.5773 137.832 41.1575 137.832Z" fill="#FFB8B8"/>
<path d="M40.5694 131.306C41.5636 131.435 42.3135 130.42 42.6613 129.481C43.0091 128.542 43.2741 127.448 44.1385 126.941C45.3194 126.248 46.8302 127.081 48.1806 126.853C49.7057 126.595 50.6972 124.98 50.7749 123.438C50.8526 121.895 50.2379 120.411 49.6347 118.988L49.4241 120.756C49.4522 120.157 49.326 119.561 49.0574 119.024C48.7888 118.488 48.3869 118.029 47.8901 117.692L48.1615 120.286C48.1038 119.928 47.9758 119.585 47.785 119.277C47.5942 118.968 47.3443 118.701 47.0496 118.489C46.755 118.277 46.4213 118.126 46.0679 118.043C45.7145 117.961 45.3482 117.949 44.9901 118.008L45.0328 119.553C43.2784 119.283 41.5005 119.196 39.728 119.294C37.9436 119.397 36.2359 120.054 34.8435 121.174C32.8407 122.912 32.1092 125.774 32.3548 128.412C32.6004 131.051 33.691 133.53 34.8276 135.924C35.1136 136.527 35.5091 137.206 36.1723 137.283C36.4729 137.287 36.7665 137.192 37.0066 137.011C37.2467 136.83 37.4198 136.575 37.4986 136.285C37.6413 135.7 37.6357 135.089 37.4825 134.507C37.2478 133.631 37.1728 132.72 37.2612 131.818C37.4188 130.927 38.0607 130.046 38.9602 129.937C39.8597 129.827 40.7802 130.854 40.3477 131.65L40.5694 131.306Z" fill="#2F2E41"/>
<path d="M33.2206 140.845L34.9569 138.438C34.9569 138.438 36.8977 139.096 42.0953 141.68L42.4625 143.936L51.4845 199.356L35.0856 198.65L30.6198 198.555L27.3563 198.486L22.9953 198.393L22.931 182.464L24.3458 170.261L22.1593 158.765C22.1593 158.765 19.4079 148.207 30.0051 142.515L33.2206 140.845Z" fill="#ED1C2E"/>
<path d="M55.9485 196.769L56.544 198.851L60.7111 196.14L59.1385 194.342L55.9485 196.769Z" fill="#CBCBCB"/>
<path d="M36.3218 147.543C36.3218 147.543 42.7816 139.307 46.686 148.487L47.917 158.107C47.917 158.107 52.6469 170.065 52.7891 174.903C52.7891 174.903 55.9959 181.217 55.9664 184.533L60.7102 195.259L55.8447 198.276L42.3792 177.656L36.3218 147.543Z" fill="#ED1C2E"/>
</g>
<defs>
<clipPath id="clip0_593_21929">
<rect width="218" height="325" fill="white" transform="translate(0.378906)"/>
</clipPath>
</defs>
</svg>
