<svg width="14" height="9" viewBox="0 0 14 9" fill="none" xmlns="http://www.w3.org/2000/svg">
<path d="M7.44178 1.01205L13.4829 6.94243C13.5416 6.99867 13.5882 7.0656 13.6201 7.13936C13.6519 7.21312 13.6682 7.29225 13.6682 7.37217C13.6682 7.45208 13.6519 7.53121 13.6201 7.60497C13.5882 7.67873 13.5416 7.74567 13.4829 7.80191L13.1129 8.15966C13.0547 8.21644 12.9855 8.26151 12.9092 8.29227C12.8329 8.32303 12.7511 8.33887 12.6684 8.33887C12.5858 8.33887 12.504 8.32303 12.4277 8.29227C12.3514 8.26151 12.2822 8.21644 12.224 8.15966L6.99623 3.00925L1.76845 8.15536C1.71028 8.21214 1.64106 8.25722 1.56478 8.28797C1.48849 8.31873 1.40666 8.33457 1.32401 8.33457C1.24136 8.33457 1.15951 8.31873 1.08322 8.28797C1.00694 8.25722 0.937718 8.21214 0.879554 8.15536L0.509562 7.7976C0.450839 7.74137 0.404215 7.67443 0.372403 7.60067C0.34059 7.52691 0.324219 7.44778 0.324219 7.36787C0.324219 7.28795 0.340591 7.20882 0.372403 7.13506C0.404215 7.0613 0.450839 6.99437 0.509562 6.93813L6.54957 1.00667C6.60846 0.950276 6.67827 0.905669 6.75502 0.875408C6.83177 0.845147 6.91394 0.829826 6.99682 0.830325C7.0797 0.830824 7.16167 0.847133 7.23803 0.878316C7.31438 0.909499 7.38363 0.954943 7.44178 1.01205Z" fill="#999999"/>
</svg>
