<svg viewBox="0 0 18 18" fill="none" xmlns="http://www.w3.org/2000/svg">
<path d="M16.6217 4.24121C16.0491 4.49448 15.4419 4.66082 14.8202 4.73471C15.4755 4.34279 15.966 3.72597 16.2002 2.99921C15.5852 3.36521 14.911 3.62171 14.2082 3.76046C13.7362 3.2554 13.1105 2.92043 12.4284 2.80765C11.7464 2.69487 11.0462 2.81058 10.4367 3.1368C9.82717 3.46302 9.34251 3.98148 9.05806 4.61156C8.7736 5.24164 8.70528 5.94805 8.86372 6.62096C7.61655 6.55845 6.39647 6.23436 5.28269 5.66971C4.1689 5.10507 3.18632 4.3125 2.39872 3.34346C2.11994 3.8223 1.97344 4.36663 1.97422 4.92071C1.97422 6.00821 2.52772 6.96896 3.36922 7.53146C2.87123 7.51578 2.3842 7.3813 1.94872 7.13921V7.17821C1.94887 7.90249 2.1995 8.60442 2.65811 9.16501C3.11672 9.72559 3.75508 10.1103 4.46497 10.254C4.00268 10.3792 3.51795 10.3977 3.04747 10.308C3.24762 10.9314 3.63773 11.4766 4.16317 11.8673C4.68861 12.258 5.32307 12.4746 5.97772 12.4867C5.32708 12.9977 4.58211 13.3754 3.78538 13.5983C2.98866 13.8212 2.15582 13.8849 1.33447 13.7857C2.76825 14.7078 4.4373 15.1973 6.14197 15.1957C11.9117 15.1957 15.067 10.416 15.067 6.27071C15.067 6.13571 15.0632 5.99921 15.0572 5.86571C15.6714 5.42184 16.2014 4.87198 16.6225 4.24196L16.6217 4.24121Z" fill="#999999"/>
</svg>
