<svg width="320" height="320" viewBox="0 0 320 320" fill="none" xmlns="http://www.w3.org/2000/svg">
<circle cx="158.4" cy="152" r="80" fill="#E0E0E0"/>
<rect x="118.4" y="104" width="80" height="96" rx="6.4" fill="white"/>
<rect x="139.2" y="116.801" width="38.4" height="6.4" rx="3.2" fill="#E40520"/>
<rect x="126.4" y="132.801" width="64" height="6.4" rx="3.2" fill="#E0E0E0"/>
<rect x="126.4" y="148.801" width="51.2" height="6.4" rx="3.2" fill="#E0E0E0"/>
<rect x="126.4" y="164.801" width="44.8" height="6.4" rx="3.2" fill="#E0E0E0"/>
<rect x="126.4" y="180.801" width="44.8" height="6.4" rx="3.2" fill="#E0E0E0"/>
<path d="M243.46 235.746C244.944 238.612 246.442 241.472 248.115 244.235C249.592 247.205 251.012 250.204 252.565 253.132C253.498 254.894 253.464 256.297 251.99 257.811C248.935 260.952 245.772 263.938 241.984 266.185C240.502 267.065 239.895 266.853 239.046 265.315C236.344 260.421 233.875 255.41 231.458 250.369C230.061 247.458 228.639 244.559 227.228 241.654C225.912 238.857 224.595 236.063 223.279 233.266C222.625 231.74 222.18 230.109 221.066 228.811C221.13 228.26 220.873 227.801 220.657 227.322C217.938 221.334 215.18 215.36 212.708 209.262C213.549 209.46 214.34 209.206 215.136 208.986C218.375 208.081 221.357 206.573 224.328 205.042C224.752 204.824 225.166 204.563 225.299 204.044C226.303 205.724 227.332 207.389 228.306 209.088C231.713 215.015 235.076 220.968 238.51 226.878C239.419 228.442 240.024 230.205 241.381 231.493C241.62 233.134 242.759 234.332 243.463 235.743L243.46 235.746Z" fill="#FFA098"/>
<path d="M212.704 209.266C212.248 208.267 211.799 207.264 211.541 206.19C214.641 204.975 217.718 203.719 220.587 201.996C221.423 201.493 222.06 200.615 223.142 200.539C223.819 201.733 224.753 202.771 225.292 204.047C225.16 204.563 224.742 204.827 224.322 205.045C221.351 206.573 218.369 208.084 215.13 208.989C214.336 209.212 213.545 209.466 212.701 209.265L212.704 209.266Z" fill="#FE5C4F"/>
<path d="M223.145 200.538C222.064 200.611 221.429 201.492 220.59 201.994C217.718 203.717 214.644 204.976 211.544 206.189C208.6 206.782 205.704 207.603 202.674 207.765C191.577 208.361 181.838 205.117 174.065 197.094C167.787 190.613 164.749 182.654 164.89 173.563C164.892 173.435 164.838 173.307 164.81 173.18C165.214 168.655 165.999 164.226 167.854 160.034C168.823 157.843 170.121 155.84 171.232 153.731C173.096 151.483 174.88 149.172 177.065 147.201C181.929 142.812 187.538 139.843 193.839 138.124C198.922 136.738 204.097 136.428 209.263 137.24C215.788 138.264 221.758 140.729 226.867 145.043C231.479 148.938 234.738 153.774 236.896 159.386C239.03 165.637 239.267 171.984 237.857 178.416C235.952 186.061 232.098 192.517 226.22 197.788C225.199 198.706 223.886 199.309 223.145 200.538ZM233.431 165.983L233.442 165.999C233.052 161.398 231.046 157.504 228.175 153.993C224.596 149.409 219.928 146.371 214.521 144.381C211.975 143.355 209.348 142.641 206.617 142.326C205.577 142.006 204.506 142.131 203.446 142.085C201.935 141.932 200.425 142.019 198.919 142.154C194.228 142.514 189.924 144.043 186.008 146.606C184.425 147.642 182.756 148.627 181.644 150.249C180.197 151.129 179.206 152.472 178.176 153.756C173.776 159.242 171.264 165.507 170.694 172.512C170.541 174.391 170.393 176.321 171.054 178.17C171.073 178.604 171.034 179.048 171.121 179.469C172.35 185.438 175.202 190.487 179.806 194.5C183.514 197.731 187.748 199.973 192.499 201.302C198.616 203.014 204.721 203.262 210.814 201.334C214.99 200.013 218.68 197.796 221.953 194.873C225.543 191.667 228.532 188.007 230.604 183.636C231.702 181.471 232.674 179.262 233.039 176.834C233.836 175.186 233.782 173.405 233.847 171.642C234.057 169.839 233.869 168.05 233.629 166.265C233.561 166.172 233.497 166.076 233.429 165.983L233.431 165.983Z" fill="#FFA098"/>
<path d="M230.604 183.636C229.819 183.567 229.917 182.584 229.285 182.361C227.031 178.97 224.377 175.883 221.924 172.639C220.315 170.511 218.659 168.422 217.038 166.303C213.638 161.853 210.249 157.398 206.858 152.945C206.645 152.664 206.439 152.381 206.093 152.248C204.65 150.099 203.114 148.015 201.492 145.997C200.524 144.792 199.387 143.695 198.919 142.154C200.426 142.018 201.935 141.931 203.446 142.084C203.405 142.413 203.537 142.682 203.747 142.92C206.633 146.217 209.517 149.514 212.404 152.809C212.463 152.925 212.5 153.059 212.581 153.154C215.858 156.958 219.135 160.759 222.418 164.559C225.957 168.655 229.499 172.743 233.041 176.837C232.676 179.265 231.704 181.474 230.606 183.639L230.604 183.636Z" fill="#E9E9E9"/>
<path d="M233.629 166.264C233.869 168.049 234.055 169.838 233.847 171.642C229.341 166.849 224.852 162.039 220.32 157.272C218.948 155.829 217.793 154.157 216.076 153.058C216.015 152.857 216.011 152.601 215.882 152.46C214.061 150.493 212.193 148.569 210.397 146.58C209.125 145.171 207.643 143.95 206.62 142.323C209.351 142.636 211.978 143.352 214.524 144.378C214.504 144.652 214.582 144.88 214.772 145.094C217.371 148.021 219.964 150.954 222.56 153.886C226.188 157.924 229.816 161.963 233.445 165.998C233.445 165.998 233.434 165.983 233.433 165.986C233.501 166.079 233.566 166.175 233.633 166.268L233.629 166.264Z" fill="#E9E9E9"/>
<path fill-rule="evenodd" clip-rule="evenodd" d="M211.112 156.634C211.563 155.247 210.839 153.799 209.496 153.401C208.153 153.003 206.699 153.805 206.249 155.192L201.8 168.888L188.541 164.957C187.198 164.559 185.744 165.361 185.293 166.748C184.843 168.136 185.566 169.583 186.909 169.981L200.169 173.912L195.72 187.608C195.27 188.996 195.993 190.443 197.336 190.841C198.679 191.24 200.133 190.438 200.584 189.05L205.032 175.354L218.292 179.285C219.635 179.683 221.089 178.881 221.539 177.494C221.99 176.107 221.266 174.659 219.923 174.261L206.664 170.33L211.112 156.634Z" fill="#EE3F44"/>
<circle cx="246.374" cy="151.974" r="3.17494" fill="#FE5953"/>
<circle cx="211.67" cy="251.67" r="2.07021" fill="#FE9E22"/>
<path d="M231.564 60.4886C232.625 63.0766 232.892 65.5634 233.43 67.9805C233.583 68.6691 233.655 69.3752 233.783 70.0694C233.96 71.021 233.83 71.8379 232.672 71.9424C231.625 72.0376 231.258 71.3212 231.236 70.4153C231.176 67.92 231.127 65.4234 231.11 62.9291C231.104 62.1985 231.021 61.4394 231.566 60.4883L231.564 60.4886Z" fill="#FE9E22"/>
<path d="M234.072 85.3843C233.289 84.0424 233.117 82.5019 232.781 81.0194C232.446 79.5539 232.163 78.0743 231.91 76.594C231.763 75.7305 232.123 75.0883 233.061 74.9765C233.843 74.8848 234.394 75.304 234.441 76.0728C234.619 79.0265 234.782 81.9846 234.454 84.9425C234.432 85.1334 234.367 85.309 234.07 85.3875L234.072 85.3843Z" fill="#FE9F24"/>
<path d="M220.649 75.0251C222.78 73.9368 225.087 73.6401 227.345 73.1547C228.135 72.985 228.932 72.8287 229.732 72.7465C230.497 72.668 231.051 73.0526 231.172 73.8077C231.292 74.5627 230.874 75.1999 230.127 75.242C226.973 75.4206 223.808 75.6715 220.649 75.0251Z" fill="#FE9E22"/>
<path d="M244.722 72.331C243.311 73.3488 241.637 73.4902 240.054 73.8871C238.901 74.1767 237.727 74.403 236.551 74.5609C235.734 74.6708 235.131 74.2315 235.049 73.4064C234.975 72.6491 235.433 72.0902 236.2 72.0515C239.034 71.9141 241.875 71.7158 244.722 72.331Z" fill="#FE9E22"/>
<path d="M107.736 210.786L108.168 214.199L104.755 214.631C103.813 214.75 103.145 215.611 103.265 216.553C103.384 217.495 104.245 218.162 105.187 218.043L108.6 217.611L109.032 221.023C109.152 221.965 110.013 222.632 110.954 222.513C111.896 222.394 112.563 221.533 112.444 220.591L112.012 217.179L115.424 216.747C116.366 216.627 117.033 215.766 116.914 214.824C116.794 213.883 115.933 213.215 114.992 213.334L111.58 213.766L111.148 210.354C111.028 209.412 110.167 208.745 109.226 208.864C108.284 208.983 107.617 209.845 107.736 210.786Z" fill="#FE9E22"/>
<path d="M64.3518 112.416C94.576 105.481 126.576 87.0814 116.032 79.6329C105.488 72.1843 82.2247 92.4766 97.7762 97.4814C113.328 102.486 150.623 77.732 146.576 65.4814" stroke="#E40520" stroke-width="1.6" stroke-linecap="round"/>
<ellipse cx="275.843" cy="210.188" rx="5.44273" ry="5.38703" fill="#72A1E5"/>
<circle cx="66.0702" cy="74.0702" r="2.07021" fill="#FE5953"/>
<circle cx="62.87" cy="210.07" r="2.07021" fill="#FE9E22"/>
<circle cx="95.4456" cy="170.646" r="2.64578" fill="#72A1E5"/>
</svg>
