<svg width="400" height="400" viewBox="0 0 400 400" fill="none" xmlns="http://www.w3.org/2000/svg">
<circle cx="198" cy="190" r="100" fill="#E0E0E0"/>
<rect x="148" y="130" width="100" height="120" rx="8" fill="white"/>
<rect x="174" y="146" width="48" height="8" rx="4" fill="#E40520"/>
<rect x="158" y="166" width="80" height="8" rx="4" fill="#E0E0E0"/>
<rect x="158" y="186" width="64" height="8" rx="4" fill="#E0E0E0"/>
<rect x="158" y="206" width="56" height="8" rx="4" fill="#E0E0E0"/>
<rect x="158" y="226" width="56" height="8" rx="4" fill="#E0E0E0"/>
<path d="M304.326 294.682C306.18 298.265 308.053 301.841 310.144 305.295C311.991 309.006 313.765 312.756 315.707 316.416C316.873 318.618 316.83 320.371 314.989 322.264C311.17 326.191 307.215 329.923 302.48 332.732C300.628 333.831 299.869 333.567 298.808 331.645C295.431 325.527 292.344 319.262 289.323 312.962C287.577 309.323 285.799 305.699 284.035 302.068C282.39 298.572 280.744 295.079 279.099 291.582C278.282 289.675 277.725 287.637 276.334 286.015C276.413 285.325 276.092 284.752 275.822 284.153C272.423 276.668 268.976 269.201 265.885 261.578C266.937 261.826 267.926 261.507 268.921 261.233C272.97 260.102 276.696 258.216 280.411 256.303C280.94 256.031 281.458 255.704 281.624 255.055C282.88 257.155 284.165 259.236 285.384 261.36C289.642 268.77 293.846 276.21 298.138 283.598C299.274 285.553 300.03 287.756 301.726 289.367C302.025 291.418 303.45 292.916 304.33 294.68L304.326 294.682Z" fill="#FFA098"/>
<path d="M265.88 261.584C265.311 260.335 264.749 259.081 264.427 257.739C268.301 256.22 272.147 254.65 275.734 252.496C276.779 251.867 277.576 250.77 278.928 250.676C279.775 252.168 280.942 253.465 281.616 255.06C281.45 255.706 280.928 256.035 280.403 256.307C276.689 258.218 272.961 260.106 268.912 261.238C267.92 261.516 266.931 261.834 265.877 261.583L265.88 261.584Z" fill="#FE5C4F"/>
<path d="M278.932 250.673C277.58 250.764 276.786 251.866 275.738 252.494C272.148 254.647 268.305 256.221 264.431 257.737C260.75 258.478 257.13 259.505 253.343 259.707C239.472 260.452 227.298 256.397 217.581 246.368C209.734 238.267 205.936 228.319 206.113 216.955C206.115 216.795 206.048 216.635 206.013 216.476C206.518 210.82 207.5 205.284 209.818 200.043C211.029 197.305 212.652 194.802 214.04 192.165C216.371 189.355 218.6 186.466 221.331 184.003C227.411 178.516 234.423 174.805 242.3 172.656C248.653 170.923 255.122 170.536 261.58 171.551C269.736 172.831 277.198 175.913 283.585 181.305C289.349 186.173 293.422 192.219 296.121 199.233C298.788 207.048 299.084 214.981 297.321 223.021C294.941 232.578 290.123 240.647 282.776 247.236C281.499 248.384 279.859 249.137 278.932 250.673ZM291.79 207.48L291.803 207.499C291.316 201.748 288.808 196.88 285.219 192.492C280.746 186.762 274.911 182.965 268.152 180.477C264.969 179.195 261.685 178.303 258.272 177.909C256.972 177.509 255.633 177.665 254.308 177.607C252.419 177.416 250.532 177.524 248.649 177.694C242.786 178.144 237.405 180.055 232.511 183.258C230.531 184.553 228.446 185.785 227.055 187.813C225.246 188.912 224.008 190.591 222.721 192.196C217.221 199.053 214.081 206.884 213.368 215.641C213.177 217.99 212.992 220.403 213.818 222.714C213.841 223.256 213.793 223.811 213.902 224.337C215.438 231.799 219.003 238.11 224.758 243.126C229.393 247.165 234.685 249.967 240.625 251.629C248.271 253.768 255.902 254.079 263.518 251.669C268.738 250.018 273.351 247.246 277.442 243.592C281.929 239.585 285.665 235.01 288.255 229.546C289.628 226.84 290.842 224.079 291.299 221.044C292.296 218.984 292.228 216.757 292.31 214.554C292.572 212.3 292.337 210.063 292.036 207.832C291.952 207.716 291.871 207.596 291.787 207.48L291.79 207.48Z" fill="#FFA098"/>
<path d="M288.255 229.547C287.274 229.461 287.397 228.232 286.606 227.953C283.789 223.715 280.471 219.856 277.405 215.8C275.393 213.141 273.325 210.529 271.298 207.88C267.048 202.319 262.812 196.75 258.573 191.183C258.306 190.831 258.05 190.478 257.617 190.312C255.813 187.626 253.892 185.021 251.866 182.499C250.655 180.992 249.234 179.621 248.649 177.694C250.532 177.525 252.419 177.416 254.308 177.607C254.256 178.018 254.422 178.354 254.684 178.652C258.292 182.774 261.897 186.895 265.506 191.013C265.579 191.158 265.625 191.325 265.726 191.444C269.822 196.199 273.919 200.951 278.022 205.701C282.446 210.821 286.875 215.931 291.302 221.049C290.845 224.083 289.63 226.845 288.258 229.551L288.255 229.547Z" fill="#E9E9E9"/>
<path d="M292.036 207.832C292.336 210.063 292.569 212.299 292.309 214.554C286.677 208.563 281.065 202.551 275.401 196.592C273.686 194.788 272.242 192.698 270.096 191.325C270.019 191.073 270.014 190.753 269.852 190.577C267.576 188.118 265.241 185.713 262.996 183.226C261.407 181.466 259.554 179.94 258.275 177.906C261.689 178.297 264.973 179.192 268.155 180.475C268.13 180.817 268.228 181.102 268.465 181.369C271.714 185.028 274.955 188.695 278.201 192.359C282.736 197.407 287.271 202.455 291.806 207.5C291.806 207.5 291.793 207.481 291.792 207.484C291.877 207.601 291.957 207.72 292.042 207.837L292.036 207.832Z" fill="#E9E9E9"/>
<path fill-rule="evenodd" clip-rule="evenodd" d="M263.891 195.792C264.454 194.058 263.55 192.249 261.871 191.751C260.192 191.253 258.375 192.256 257.811 193.99L252.251 211.11L235.677 206.197C233.998 205.699 232.18 206.701 231.617 208.436C231.054 210.17 231.958 211.979 233.637 212.477L250.211 217.39L244.651 234.511C244.087 236.245 244.992 238.054 246.671 238.552C248.35 239.049 250.167 238.047 250.73 236.313L256.291 219.193L272.865 224.106C274.544 224.604 276.361 223.601 276.925 221.867C277.488 220.133 276.584 218.324 274.905 217.826L258.33 212.913L263.891 195.792Z" fill="#EE3F44"/>
<circle cx="307.969" cy="189.969" r="3.96868" fill="#FE5953"/>
<circle cx="264.588" cy="314.588" r="2.58776" fill="#FE9E22"/>
<path d="M289.454 75.6098C290.781 78.8447 291.115 81.9532 291.787 84.9747C291.979 85.8354 292.069 86.718 292.229 87.5858C292.45 88.7753 292.288 89.7963 290.84 89.9271C289.531 90.046 289.072 89.1505 289.045 88.0181C288.969 84.899 288.908 81.7783 288.887 78.6604C288.88 77.7471 288.776 76.7982 289.458 75.6094L289.454 75.6098Z" fill="#FE9E22"/>
<path d="M292.589 106.728C291.611 105.051 291.395 103.125 290.975 101.272C290.557 99.44 290.202 97.5904 289.887 95.74C289.703 94.6606 290.153 93.8579 291.326 93.7182C292.303 93.6036 292.992 94.1275 293.051 95.0886C293.272 98.7807 293.476 102.478 293.067 106.176C293.039 106.414 292.958 106.634 292.586 106.732L292.589 106.728Z" fill="#FE9F24"/>
<path d="M275.81 93.7799C278.474 92.4195 281.358 92.0487 284.179 91.442C285.167 91.2298 286.164 91.0344 287.164 90.9316C288.121 90.8335 288.813 91.3143 288.963 92.2581C289.114 93.2019 288.591 93.9984 287.658 94.0511C283.714 94.2742 279.759 94.588 275.81 93.7799Z" fill="#FE9E22"/>
<path d="M305.903 90.4118C304.14 91.6841 302.047 91.8608 300.068 92.3569C298.627 92.719 297.159 93.0018 295.69 93.1992C294.668 93.3365 293.915 92.7874 293.812 91.7561C293.719 90.8094 294.292 90.1108 295.251 90.0624C298.793 89.8906 302.344 89.6428 305.903 90.4118Z" fill="#FE9E22"/>
<path d="M134.669 263.482L135.21 267.748L130.943 268.288C129.766 268.437 128.931 269.514 129.08 270.691C129.229 271.868 130.306 272.703 131.483 272.553L135.75 272.013L136.29 276.278C136.439 277.456 137.515 278.29 138.692 278.141C139.87 277.992 140.704 276.916 140.555 275.738L140.015 271.473L144.279 270.933C145.456 270.784 146.291 269.707 146.142 268.53C145.993 267.353 144.916 266.518 143.739 266.668L139.474 267.208L138.934 262.942C138.785 261.765 137.709 260.931 136.532 261.08C135.355 261.229 134.52 262.305 134.669 263.482Z" fill="#FE9E22"/>
<path d="M80.4395 140.52C118.22 131.852 158.22 108.852 145.04 99.5411C131.86 90.2304 102.781 115.596 122.22 121.852C141.659 128.108 188.278 97.165 183.22 81.8518" stroke="#E40520" stroke-width="2" stroke-linecap="round"/>
<ellipse cx="344.803" cy="262.734" rx="6.80341" ry="6.73379" fill="#72A1E5"/>
<circle cx="82.5878" cy="92.5878" r="2.58776" fill="#FE5953"/>
<circle cx="78.5878" cy="262.588" r="2.58776" fill="#FE9E22"/>
<circle cx="119.307" cy="213.307" r="3.30723" fill="#72A1E5"/>
</svg>
