<svg viewBox="0 0 10 14" fill="none" xmlns="http://www.w3.org/2000/svg">
<path d="M0.803264 4.52975C0.543548 4.78947 0.543549 5.21055 0.803264 5.47027C1.06278 5.72978 1.48347 5.73001 1.74326 5.47078L3.47984 3.73799C3.79498 3.42353 4.33301 3.64673 4.33301 4.09192V13C4.33301 13.3682 4.63148 13.6667 4.99967 13.6667C5.36786 13.6667 5.66634 13.3682 5.66634 13V4.09378C5.66634 3.64833 6.20491 3.42525 6.51989 3.74023L8.25301 5.47334C8.51415 5.73449 8.93778 5.73374 9.198 5.47167C9.45693 5.21091 9.45618 4.78985 9.19634 4.53001L5.70678 1.04045C5.31626 0.649925 4.68309 0.649926 4.29257 1.04045L0.803264 4.52975Z"/>
</svg>
