<svg viewBox="0 0 10 14" fill="none" xmlns="http://www.w3.org/2000/svg">
<path d="M9.19609 9.47024C9.4558 9.21052 9.4558 8.78944 9.19608 8.52972C8.93657 8.27021 8.51588 8.26998 8.25609 8.52921L6.51951 10.262C6.20437 10.5765 5.66634 10.3533 5.66634 9.90807V0.99998C5.66634 0.631791 5.36786 0.333313 4.99967 0.333313C4.63148 0.333313 4.33301 0.63179 4.33301 0.999979V9.90621C4.33301 10.3517 3.79444 10.5747 3.47945 10.2598L1.74634 8.52665C1.4852 8.2655 1.06157 8.26625 0.801347 8.52832C0.542423 8.78908 0.543167 9.21014 0.803011 9.46998L4.29257 12.9595C4.68309 13.3501 5.31626 13.3501 5.70678 12.9595L9.19609 9.47024Z"/>
</svg>
