<svg width="24" height="24" viewBox="0 0 24 24" fill="none" xmlns="http://www.w3.org/2000/svg">
<path d="M19.8967 10.3989H7.7569L11.3979 6.76892C11.6057 6.56115 11.7224 6.27936 11.7224 5.98554C11.7224 5.69172 11.6057 5.40993 11.3979 5.20217C11.1902 4.99441 10.9084 4.87769 10.6146 4.87769C10.3207 4.87769 10.0389 4.99441 9.83118 5.20217L4.31447 10.7189C4.21402 10.8238 4.13528 10.9475 4.08277 11.083C3.97241 11.3516 3.97241 11.6529 4.08277 11.9215C4.13528 12.057 4.21402 12.1807 4.31447 12.2856L9.83118 17.8023C9.93375 17.9058 10.0558 17.9878 10.1902 18.0439C10.3247 18.0999 10.4689 18.1287 10.6146 18.1287C10.7602 18.1287 10.9044 18.0999 11.0389 18.0439C11.1733 17.9878 11.2954 17.9058 11.3979 17.8023C11.5013 17.6998 11.5834 17.5777 11.6394 17.4433C11.6955 17.3088 11.7243 17.1646 11.7243 17.019C11.7243 16.8733 11.6955 16.7291 11.6394 16.5947C11.5834 16.4602 11.5013 16.3382 11.3979 16.2356L7.7569 12.6056H19.8967C20.1893 12.6056 20.4699 12.4894 20.6768 12.2824C20.8838 12.0755 21 11.7949 21 11.5023C21 11.2096 20.8838 10.929 20.6768 10.7221C20.4699 10.5152 20.1893 10.3989 19.8967 10.3989Z" fill="#2C2C2C"/>
</svg>
