<svg width="12" height="11" viewBox="0 0 12 11" fill="none" xmlns="http://www.w3.org/2000/svg">
<path d="M2.29028 10.5967L9.4437 3.44327L9.4372 7.72776C9.4372 7.97262 9.53447 8.20744 9.7076 8.38057C9.88074 8.55371 10.1156 8.65098 10.3604 8.65098C10.6053 8.65098 10.8401 8.55371 11.0132 8.38057C11.1864 8.20744 11.2836 7.97261 11.2836 7.72776L11.2836 1.22625C11.281 1.10523 11.2545 0.985922 11.2056 0.875172C11.1124 0.651858 10.9348 0.474317 10.7115 0.381057C10.6007 0.332194 10.4814 0.305681 10.3604 0.303039L3.8589 0.303041C3.73753 0.302543 3.61725 0.326081 3.50502 0.372301C3.39278 0.418521 3.29081 0.486506 3.20498 0.572333C3.11916 0.658161 3.05117 0.760133 3.00495 0.872367C2.95873 0.984601 2.93519 1.10488 2.93569 1.22626C2.93519 1.34763 2.95873 1.46791 3.00495 1.58014C3.05117 1.69237 3.11916 1.79435 3.20498 1.88018C3.29081 1.966 3.39278 2.03399 3.50502 2.08021C3.61725 2.12643 3.73752 2.14997 3.8589 2.14947L8.1434 2.14297L0.989977 9.29639C0.817546 9.46882 0.720676 9.70269 0.720676 9.94654C0.720675 10.1904 0.817546 10.4243 0.989977 10.5967C1.16241 10.7691 1.39627 10.866 1.64013 10.866C1.88398 10.866 2.11785 10.7691 2.29028 10.5967Z" fill="#E40520"/>
</svg>
