<svg viewBox="0 0 143 116" fill="none" xmlns="http://www.w3.org/2000/svg">
<path d="M30.3243 33.9402C30.3413 32.8344 30.2085 31.7201 30.3987 30.6229C30.7619 28.5273 32.4624 27.0951 34.5824 27.093C40.8469 27.0865 47.1114 27.0908 53.3769 27.0908C60.8979 27.0897 68.419 27.0876 75.941 27.0854C75.9846 27.8735 76.2851 28.5401 76.8736 29.0608C77.034 29.2025 77.0605 29.3357 76.9915 29.5289C76.4657 31.0072 75.9463 32.4877 75.4248 33.9681C68.4593 33.9681 61.4938 33.9671 54.5283 33.966C54.4125 33.8103 54.2978 33.777 54.1842 33.9671C49.7083 33.9649 45.2335 33.9606 40.7577 33.9617C37.379 33.9617 34.0004 33.9692 30.6217 33.9735C30.5229 33.9628 30.4241 33.952 30.3243 33.9413V33.9402ZM37.5458 29.239C37.5139 29.1746 37.5044 29.1081 37.4682 29.0877C37.3482 29.019 37.2728 29.1177 37.2006 29.1897C36.8235 29.5665 36.439 29.9347 36.08 30.3287C35.8729 30.5563 35.7316 30.5445 35.5298 30.3233C35.1825 29.9433 34.8129 29.5847 34.4443 29.224C34.3551 29.136 34.2553 28.9524 34.1045 29.1242C33.9866 29.2584 34.1384 29.3485 34.217 29.4312C34.575 29.8016 34.9255 30.1806 35.3068 30.5263C35.5596 30.7549 35.533 30.9042 35.2972 31.1221C34.9191 31.4699 34.5665 31.8478 34.2096 32.2182C34.1331 32.2977 33.977 32.3911 34.1172 32.521C34.2425 32.638 34.3424 32.5059 34.4273 32.4211C34.7789 32.0701 35.1464 31.7319 35.4714 31.3572C35.7136 31.0781 35.875 31.0598 36.1246 31.3508C36.4603 31.7405 36.8416 32.0894 37.2059 32.4533C37.2802 32.5274 37.3748 32.6165 37.4789 32.5253C37.5883 32.4297 37.5054 32.332 37.4364 32.2515C37.379 32.1839 37.3132 32.1237 37.2526 32.0593C36.8618 31.6481 36.1767 31.2488 36.1597 30.8236C36.1416 30.3427 36.8819 29.9873 37.2664 29.5536C37.3588 29.4495 37.4512 29.3453 37.5468 29.238L37.5458 29.239Z" fill="#FFA098"/>
<path d="M75.4238 33.967C75.9453 32.4866 76.4647 31.0061 76.9904 29.5278C77.0595 29.3335 77.0329 29.2014 76.8725 29.0597C76.2841 28.539 75.9835 27.8723 75.94 27.0843C75.9687 25.9313 76.4551 25.037 77.496 24.5453C78.5528 24.0461 79.564 24.2039 80.4541 24.9823C80.6325 25.138 80.76 25.0768 80.9225 24.9919C85.3367 22.7138 89.7488 20.4336 94.1705 18.1705C94.5019 18.0008 94.4403 17.77 94.4393 17.5124C94.4318 16.1328 95.3792 14.9916 96.7175 14.7662C97.9836 14.5514 99.2497 15.3244 99.6841 16.5783C100.077 17.7131 99.6936 18.9628 98.7314 19.6778C97.7669 20.3949 96.4669 20.411 95.5301 19.6498C95.2072 19.3868 94.9884 19.4212 94.6623 19.5908C90.3946 21.8056 86.1248 24.015 81.8434 26.2008C81.4238 26.4155 81.239 26.6334 81.3877 27.0886C81.102 28.7634 80.418 29.4602 78.7451 29.7457C78.5305 29.7822 78.4519 29.8778 78.3882 30.0657C77.9485 31.3658 77.4992 32.6616 77.0531 33.9595C77.0128 34.0583 76.9671 34.156 76.932 34.2569C72.8609 46.005 68.7918 57.7542 64.7111 69.4991C64.5921 69.8416 64.6526 70.0252 64.9054 70.2732C65.7934 71.1406 65.9495 72.5116 65.3282 73.5765C64.7079 74.6394 63.428 75.1579 62.2596 74.8219C61.0701 74.4783 60.2214 73.3307 60.3074 72.0832C60.3329 71.7128 60.197 71.5872 59.9198 71.4476C58.2628 70.6092 56.6133 69.7568 54.9574 68.914C54.8257 68.8464 54.7057 68.709 54.505 68.783C54.505 70.2989 54.5071 71.818 54.5007 73.3382C54.5007 73.4939 54.5857 73.7633 54.3234 73.7483C54.1184 73.7365 54.2012 73.4864 54.2012 73.3404C54.1948 71.8739 54.1885 70.4063 54.2044 68.9398C54.2076 68.6284 54.1141 68.4653 53.8369 68.3246C50.5251 66.6413 47.2198 64.9472 43.9176 63.2455C43.6637 63.1146 43.5055 63.1167 43.2729 63.31C42.4518 63.9917 41.5161 64.1259 40.5421 63.7104C40.2309 63.5783 40.0716 63.6567 39.8623 63.8607C39.0084 64.6916 38.1417 65.5097 37.2782 66.331C35.5904 67.9371 33.9069 69.5474 32.2086 71.1427C31.9144 71.4197 31.7625 71.5786 32.2319 71.8416C32.7025 72.1057 32.9967 72.5685 33.2431 73.0494C33.4109 73.5422 33.617 74.0607 33.498 74.5653C33.2378 75.6743 33.7264 76.4666 34.4061 77.2288C34.712 77.5735 34.9648 77.9664 35.2431 78.3368C35.6223 78.8413 36.0015 79.3459 36.4125 79.8924C36.6972 78.6116 36.4975 77.5198 35.7073 76.5579C35.3567 76.1316 35.0222 75.6926 34.6865 75.2545C34.5856 75.1225 34.404 74.9776 34.6759 74.8294C35.1751 75.2825 35.5023 75.8815 35.9547 76.3721C36.5421 77.0109 36.8087 77.7753 36.9032 78.6202C36.8299 81.4995 35.2718 83.695 33.5968 85.8314C33.6626 85.87 33.6903 85.899 33.7168 85.899C36.1565 85.9022 38.5963 85.8958 41.036 85.913C41.4332 85.9162 41.395 85.6897 41.395 85.4331C41.3929 83.3772 41.3939 81.3224 41.395 79.2665C41.395 79.0539 41.361 78.836 41.4874 78.6417C41.5352 78.6438 41.5819 78.6449 41.6297 78.647C41.7296 78.8489 41.6988 79.0668 41.6988 79.2794C41.7009 81.0304 41.6935 82.7803 41.7041 84.5313C41.7073 84.9725 41.5193 85.5233 41.7933 85.8239C42.0291 86.0815 42.5665 85.8765 42.9691 85.9076C43.0987 85.9173 43.3132 85.8464 43.3164 86.0397C43.3207 86.2683 43.0923 86.2125 42.9468 86.2125C41.9399 86.2168 40.9319 86.2372 39.9261 86.205C39.4789 86.19 39.327 86.2855 39.3323 86.7815C39.3557 88.9952 39.3291 91.21 39.3206 93.4248C39.2367 93.4194 39.1528 93.414 39.07 93.4076C39.0594 93.194 39.0413 92.9803 39.0413 92.7667C39.0392 90.7312 39.0328 88.6968 39.0466 86.6613C39.0487 86.3188 38.9627 86.2039 38.609 86.2071C36.9319 86.2254 35.2537 86.2179 33.5755 86.2125C33.3514 86.2125 33.1868 86.2673 33.019 86.438C32.421 87.0445 31.8103 87.6393 31.1794 88.2094C30.9361 88.4284 30.8257 88.6377 30.8299 88.977C30.8448 90.4585 30.8246 91.94 30.8172 93.4205C30.7301 93.4183 30.644 93.4162 30.5569 93.414C30.5569 91.8992 30.5569 90.3844 30.5569 88.758C29.2919 89.7961 28.063 90.6109 26.7938 91.3667C25.1974 92.2031 23.5649 92.9406 21.7805 93.2691C20.5537 93.4946 19.327 93.5772 18.1363 93.1059C17.5468 92.873 16.9839 92.5745 16.7035 91.9379C16.9828 91.7683 17.0731 92.0431 17.2133 92.1708C18.1225 93.0018 19.2016 93.1703 20.4433 93.1038C19.464 91.8091 18.5484 90.6056 17.6435 89.3957C17.5001 89.2035 17.3439 89.1348 17.1071 89.1541C16.0269 89.2378 15.003 89.0382 14.0524 88.4971L14.0556 88.4982C13.9908 88.4434 13.926 88.3897 13.8612 88.335C13.6987 88.1095 13.3864 87.9882 13.3907 87.6468C13.5819 87.5652 13.6817 87.6983 13.7932 87.8164C14.3848 88.4402 15.1336 88.7193 15.9632 88.8213C17.3089 88.9866 18.6111 88.7504 19.8761 88.3232C24.0482 86.9157 27.4513 84.3713 30.2712 81.0046C31.5947 79.4254 32.7014 77.7012 33.1167 75.6281C33.5798 73.3157 32.5506 71.8449 30.6642 71.5067C30.4284 71.4648 30.2765 71.3704 30.3052 71.1009C30.3073 58.948 30.3095 46.7941 30.3116 34.6412C30.3116 34.4093 30.318 34.1764 30.3222 33.9445C30.421 33.9552 30.5198 33.966 30.6196 33.9767C30.6196 46.1414 30.6196 58.306 30.6196 70.5222C30.7396 70.4557 30.7747 70.4439 30.7991 70.4202C33.5054 67.848 36.2075 65.2714 38.9192 62.7055C39.1284 62.508 39.104 62.348 39.0275 62.1011C38.694 61.0211 38.8884 60.0377 39.7041 59.2454C40.4816 58.4907 41.4216 58.2674 42.4476 58.6313C43.5129 59.0081 44.2224 59.794 44.2182 60.9255C44.215 61.7189 44.6059 61.9594 45.1645 62.1977C45.2623 62.2396 45.3536 62.2933 45.4481 62.3416C50.4827 64.9246 55.5183 67.5066 60.5507 70.0949C60.8364 70.242 61.0541 70.3344 61.3398 70.0531C61.6861 69.7128 62.1449 69.498 62.6314 69.5023C63.0786 69.5056 63.2156 69.2941 63.3462 68.9129C66.3287 60.2771 69.3261 51.6466 72.316 43.013C73.359 40.0016 74.3861 36.9859 75.4217 33.9724L75.4238 33.967ZM27.2494 90.7172C27.2951 90.6915 27.3419 90.6668 27.3865 90.6389C29.2229 89.5105 30.9032 88.1857 32.3976 86.6215C32.5782 86.4326 32.4826 86.3231 32.37 86.1739C31.4757 84.9983 30.5814 83.8238 29.6987 82.6397C29.5405 82.4282 29.4438 82.4131 29.259 82.6042C27.7837 84.133 26.1406 85.4524 24.3339 86.5604C24.1512 86.6731 24.1374 86.7579 24.267 86.9275C25.1857 88.1288 26.096 89.3366 27.0115 90.5401C27.071 90.6185 27.1103 90.7387 27.2484 90.7183L27.2494 90.7172ZM33.3004 76.239C32.6069 78.4602 31.3663 80.2681 29.8867 81.9257C29.7349 82.0954 29.7508 82.2188 29.8804 82.3874C30.7874 83.5758 31.6913 84.7664 32.5867 85.9634C32.7386 86.1663 32.831 86.1438 32.9861 85.9688C34.3647 84.4175 35.5341 82.7363 36.2107 80.7437C36.2819 80.5333 36.3637 80.3261 36.1863 80.0921C35.2304 78.8349 34.2904 77.5638 33.3004 76.239V76.239ZM21.0041 93.0791C21.0646 93.0684 21.0986 93.0608 21.1337 93.0565C23.1199 92.7774 24.9329 92.0098 26.6823 91.0575C26.9935 90.8879 26.7927 90.7602 26.6886 90.6217C25.8326 89.4858 24.9637 88.3597 24.1193 87.2152C23.908 86.9297 23.7518 86.9039 23.4396 87.0789C21.7826 88.0097 20.0492 88.7504 18.1575 89.0425C17.8495 89.0897 17.8686 89.2024 18.0311 89.415C18.9074 90.5573 19.7762 91.706 20.6461 92.8536C20.7439 92.9825 20.8309 93.1253 21.003 93.0791H21.0041ZM41.5565 58.7419C40.2203 58.7483 39.1358 59.8455 39.1316 61.1929C39.1273 62.5499 40.2564 63.6868 41.5957 63.6739C42.9266 63.661 44.0089 62.5563 44.0121 61.2079C44.0153 59.8262 42.9277 58.7344 41.5575 58.7408L41.5565 58.7419ZM62.9713 74.6469C64.3361 74.6576 65.4439 73.5561 65.4461 72.1895C65.4471 70.8529 64.3531 69.7321 63.0286 69.7149C61.6999 69.6977 60.5857 70.7906 60.5666 72.1304C60.5464 73.5229 61.6117 74.6372 62.9713 74.648V74.6469ZM81.0829 27.0232C81.0903 25.6447 79.9931 24.5228 78.6442 24.5314C77.3229 24.5389 76.2183 25.65 76.2055 26.9866C76.1917 28.349 77.2995 29.4666 78.6601 29.4645C80.0048 29.4612 81.0754 28.3834 81.0829 27.0232V27.0232ZM99.5662 17.4512C99.5577 16.0942 98.4775 15.0045 97.1413 15.0034C95.7967 15.0013 94.6729 16.1425 94.6889 17.493C94.7048 18.8404 95.7935 19.9279 97.1296 19.9322C98.4977 19.9376 99.5757 18.8393 99.5662 17.4512Z" fill="#151B3D"/>
<path d="M77.0528 33.9583C77.4989 32.6603 77.9482 31.3645 78.3879 30.0644C78.4517 29.8765 78.5303 29.781 78.7448 29.7445C80.4177 29.4589 81.1017 28.7622 81.3874 27.0874C86.85 27.0874 92.3126 27.0874 97.7762 27.0895C100.542 27.0895 102.3 28.8771 102.301 31.6877C102.301 32.4381 102.296 33.1885 102.292 33.939C102.193 33.9497 102.092 33.9615 101.992 33.9722C101.869 33.9679 101.744 33.9604 101.621 33.9604C93.8612 33.9604 86.1012 33.9604 78.3412 33.9615C78.2212 33.7554 78.1033 33.8069 77.9864 33.9647C77.6752 33.9626 77.364 33.9604 77.0518 33.9583H77.0528Z" fill="#FFA098"/>
<path d="M39.3242 93.4191C39.3327 91.2043 39.3593 88.9895 39.3359 86.7758C39.3306 86.2809 39.4814 86.1853 39.9296 86.1993C40.9355 86.2326 41.9435 86.2111 42.9504 86.2068C43.0959 86.2068 43.3242 86.2626 43.32 86.034C43.3157 85.8407 43.1012 85.9116 42.9727 85.9019C42.5701 85.8708 42.0327 86.0769 41.7969 85.8182C41.5228 85.5176 41.7108 84.9668 41.7077 84.5256C41.697 82.7746 41.7034 81.0247 41.7023 79.2737C41.7023 79.0611 41.7332 78.8432 41.6333 78.6413C44.0752 78.6338 46.517 78.6306 48.9589 78.6123C49.3604 78.6091 49.4209 78.8152 49.4188 79.1513C49.4135 80.3494 49.4241 81.5486 49.4294 82.7467C49.3572 82.8508 49.3582 82.9549 49.4294 83.0591C49.4283 83.9985 49.4262 84.9389 49.4252 85.8783C48.192 85.8837 46.9578 85.888 45.7247 85.8976C45.5993 85.8976 45.3922 85.8386 45.3975 86.0501C45.4028 86.239 45.5983 86.21 45.7342 86.2111C46.2812 86.2143 46.8282 86.2283 47.3731 86.2068C47.6822 86.1939 47.764 86.3109 47.7555 86.6062C47.7374 87.2825 47.7459 87.96 47.7512 88.6374C47.7618 90.222 47.7767 91.8076 47.7895 93.3922C46.397 93.404 45.0045 93.4212 43.6121 93.4255C42.1835 93.4298 40.7549 93.4202 39.3263 93.4169L39.3242 93.4191Z" fill="#FFA098"/>
<path d="M49.4282 83.0611C49.357 82.957 49.3549 82.8529 49.4282 82.7487C50.8621 82.7498 52.296 82.7315 53.7277 82.7648C54.1579 82.7756 54.2184 82.6199 54.2057 82.2474C54.1802 81.4969 54.194 80.7444 54.2014 79.9939C54.2025 79.8501 54.1197 79.6085 54.3427 79.5989C54.57 79.5892 54.5073 79.8307 54.5084 79.9768C54.5148 80.71 54.5424 81.4454 54.4999 82.1765C54.4734 82.6467 54.604 82.7648 55.0756 82.7637C60.1898 82.7444 65.305 82.7519 70.4203 82.7519C72.774 82.7519 75.1277 82.7391 77.4814 82.7637C77.937 82.768 78.0464 82.6296 78.0263 82.1937C77.9912 81.4443 78.0156 80.6918 78.0188 79.9402C78.0188 79.8028 77.9902 79.5999 78.1739 79.5956C78.3821 79.5903 78.3184 79.8028 78.3194 79.9295C78.3258 80.7164 78.3438 81.5044 78.3141 82.2903C78.2992 82.6811 78.4373 82.7691 78.7974 82.7605C79.6991 82.7369 80.6019 82.753 81.5048 82.753C86.9737 82.753 92.4427 82.7562 97.9106 82.7509C99.8139 82.7487 101.287 81.688 101.825 79.9714C102.016 79.3605 101.957 78.7336 102.004 78.112C102.044 77.5752 101.911 77.4055 101.337 77.4077C93.5675 77.4302 85.7979 77.4249 78.0284 77.4216C76.2514 77.4216 75.1808 76.3459 75.1712 74.5574C75.1627 73.0909 75.1734 71.6233 75.1681 70.1568C75.1659 69.5148 75.2838 68.9114 75.6736 68.3875C76.278 67.5748 77.1022 67.3043 78.0879 67.3064C85.7862 67.3204 93.4857 67.3139 101.184 67.3139C101.308 67.3139 101.434 67.3 101.556 67.3161C101.89 67.3623 102.02 67.2506 102.004 66.8856C101.974 66.2071 101.962 65.5243 102.007 64.8469C102.039 64.3777 101.872 64.3015 101.447 64.3036C96.9344 64.3197 92.4214 64.3165 87.9084 64.3122C85.5473 64.3101 83.9604 62.7266 83.9583 60.3583C83.9519 54.24 83.9562 48.1217 83.9562 42.0023C83.9562 41.4977 84.022 41.0039 84.1941 40.5293C84.7645 38.963 86.124 38.0752 87.9849 38.073C92.4628 38.0687 96.9398 38.0655 101.418 38.0816C101.857 38.0827 102.027 38.0129 102.009 37.5115C101.966 36.3327 101.996 35.1507 101.996 33.9698C102.095 33.9591 102.196 33.9473 102.296 33.9365C102.3 35.1529 102.325 36.3692 102.298 37.5845C102.29 37.9957 102.407 38.0816 102.797 38.0805C106.426 38.0644 110.053 38.0655 113.681 38.073C115.66 38.0773 117.098 39.1498 117.547 40.9298C117.648 41.3313 117.66 41.7436 117.66 42.1547C117.66 48.1839 117.663 54.212 117.66 60.2412C117.658 62.7674 116.119 64.3122 113.617 64.3133C110.025 64.3144 106.432 64.323 102.84 64.3015C102.387 64.2993 102.273 64.4239 102.299 64.8619C102.339 65.5039 102.333 66.1502 102.3 66.7933C102.279 67.2034 102.391 67.3247 102.813 67.3225C106.83 67.3054 110.847 67.3086 114.865 67.3139C116.218 67.315 117.171 67.9881 117.539 69.1659C117.641 69.4954 117.66 69.8336 117.66 70.1729C117.663 71.6222 117.666 73.0704 117.66 74.5198C117.651 76.3449 116.588 77.4184 114.784 77.4206C110.802 77.4238 106.82 77.4302 102.838 77.4098C102.382 77.4077 102.276 77.5354 102.3 77.9713C102.339 78.6659 102.332 79.3616 102.122 80.0433C101.597 81.7439 100.129 82.9302 98.3736 83.0354C97.9329 83.0611 97.4889 83.0558 97.047 83.0558C91.1362 83.0568 85.2254 83.0558 79.3146 83.0558C71.2817 83.0558 63.2487 83.0558 55.2147 83.0558C53.2869 83.0558 51.3592 83.0579 49.4314 83.059L49.4282 83.0611ZM100.794 63.9998C105.076 63.9998 109.357 64.0009 113.639 63.9998C115.939 63.9998 117.349 62.5827 117.35 60.2627C117.353 54.2174 117.353 48.1732 117.35 42.1279C117.349 39.8068 115.941 38.3929 113.64 38.3929C105.095 38.3929 96.5489 38.3929 88.004 38.3929C85.662 38.3929 84.2674 39.7961 84.2674 42.1537C84.2663 48.1807 84.2663 54.2078 84.2674 60.2348C84.2674 62.5913 85.6652 63.9987 88.0029 63.9998C92.2663 64.0009 96.5308 63.9998 100.794 63.9998V63.9998ZM96.4342 67.6253C90.3131 67.6253 84.193 67.6231 78.0719 67.6264C76.3799 67.6264 75.4782 68.5378 75.475 70.2319C75.4718 71.6984 75.4654 73.1649 75.4771 74.6304C75.4899 76.1462 76.4479 77.0996 77.9487 77.0996C90.261 77.1006 102.573 77.1006 114.885 77.0996C116.357 77.0996 117.33 76.1516 117.347 74.6754C117.365 73.1381 117.352 71.5997 117.35 70.0623C117.35 69.3516 117.127 68.7311 116.604 68.2361C116.062 67.723 115.401 67.621 114.689 67.6221C108.604 67.6296 102.518 67.6264 96.4331 67.6264L96.4342 67.6253Z" fill="#383740"/>
<path d="M30.3077 71.0964C30.279 71.3658 30.432 71.4603 30.6667 71.5022C32.5531 71.8404 33.5823 73.3112 33.1192 75.6236C32.7039 77.6967 31.5971 79.4209 30.2737 81.0001C27.4537 84.3668 24.0506 86.9112 19.8786 88.3187C18.6125 88.7459 17.3114 88.9821 15.9656 88.8168C15.1361 88.7148 14.3873 88.4346 13.7957 87.8119C13.6842 87.6938 13.5843 87.5607 13.3932 87.6423C12.7612 87.0733 12.7283 86.2982 12.7601 85.5424C12.861 83.1204 14.0814 81.1805 15.51 79.364C17.8892 76.3408 20.8557 74.0584 24.3077 72.4115C24.9779 72.0916 25.6662 71.8189 26.3863 71.6332C26.3789 71.8855 26.5467 71.8812 26.7049 71.8339C27.3103 71.6525 27.9296 71.5387 28.552 71.441C28.7357 71.412 28.8664 71.3605 28.7591 71.1361L30.3088 71.0942L30.3077 71.0964ZM17.1807 87.6659C17.8956 87.6616 18.5923 87.5478 19.2721 87.3406C23.6035 86.0234 27.0289 83.391 29.8159 79.8557C30.7687 78.6468 31.5323 77.3188 31.8563 75.7804C32.2684 73.8211 31.3635 72.5049 29.4155 72.2419C28.1728 72.0744 26.9843 72.3686 25.834 72.7894C21.9752 74.199 18.8377 76.6274 16.2779 79.8353C15.2731 81.0946 14.4542 82.4709 14.108 84.0813C13.7107 85.93 14.5318 87.2494 16.2843 87.5886C16.5774 87.6455 16.8823 87.6412 17.1807 87.6659V87.6659Z" fill="#FFA098"/>
<path d="M30.8203 93.4161C30.8277 91.9346 30.8479 90.453 30.8331 88.9726C30.8299 88.6322 30.9403 88.424 31.1825 88.205C31.8134 87.6349 32.4241 87.0401 33.0221 86.4336C33.1899 86.2629 33.3546 86.2081 33.5787 86.2081C35.2569 86.2135 36.934 86.221 38.6122 86.2028C38.9669 86.1985 39.0529 86.3144 39.0498 86.6569C39.0359 88.6924 39.0423 90.7268 39.0444 92.7623C39.0444 92.9759 39.0636 93.1896 39.0731 93.4032C36.3222 93.4075 33.5712 93.4118 30.8203 93.4161V93.4161Z" fill="#FFA098"/>
<path d="M50.3153 85.9417C51.2039 85.853 51.6483 86.2559 51.6483 87.1505C51.6483 89.0744 51.6376 90.9993 51.6568 92.9231C51.661 93.3247 51.5399 93.4471 51.1459 93.4363C50.1071 93.4084 49.0662 93.4202 48.0264 93.4159C48.0402 93.2034 48.0646 92.9897 48.0646 92.7771C48.0678 90.7782 48.0858 88.7781 48.0529 86.7791C48.0444 86.2809 48.2048 86.1704 48.6467 86.2058C49.0853 86.2402 49.5293 86.2122 49.9701 86.2144C50.1591 86.2144 50.3376 86.2101 50.3142 85.9406L50.3153 85.9417Z" fill="#FFA098"/>
<path d="M26.7969 91.3622C28.0661 90.6064 29.295 89.7916 30.56 88.7534C30.56 90.3799 30.56 91.8947 30.56 93.4095C29.4809 93.4159 28.4018 93.4127 27.3226 93.4353C26.9849 93.4417 26.9201 93.3 26.902 92.9908C26.8712 92.4487 27.0507 91.8904 26.7969 91.3633V91.3622Z" fill="#FFA098"/>
<path d="M14.0557 88.4918C15.0063 89.0329 16.0302 89.2326 17.1104 89.1488C17.3472 89.1306 17.5034 89.1982 17.6468 89.3904C18.5517 90.6003 19.4662 91.8027 20.4465 93.0985C19.2049 93.1651 18.1247 92.9976 17.2166 92.1656C17.0764 92.0378 16.9861 91.763 16.7068 91.9326C15.891 91.1521 15.3005 90.1848 14.5878 89.3185C14.3807 89.0672 14.0865 88.8611 14.0557 88.4907V88.4918Z" fill="#FFA098"/>
<path d="M50.3153 85.9421C50.3387 86.2115 50.1603 86.2158 49.9712 86.2158C49.5294 86.2137 49.0864 86.2427 48.6478 86.2072C48.2049 86.1718 48.0456 86.2824 48.0541 86.7805C48.087 88.7795 48.0689 90.7796 48.0657 92.7786C48.0657 92.9911 48.0402 93.2048 48.0275 93.4173C47.9478 93.4098 47.8682 93.4023 47.7885 93.3948C47.7758 91.8102 47.7609 90.2256 47.7503 88.6399C47.746 87.9625 47.7375 87.2851 47.7545 86.6087C47.762 86.3135 47.6802 86.1965 47.3722 86.2094C46.8262 86.2319 46.2792 86.2169 45.7333 86.2137C45.5973 86.2137 45.4019 86.2416 45.3966 86.0526C45.3913 85.8411 45.5984 85.9013 45.7237 85.9002C46.9569 85.8894 48.1911 85.8862 49.4242 85.8809C49.7216 85.9013 50.019 85.9217 50.3164 85.9421H50.3153Z" fill="#383740"/>
<path d="M28.7579 71.1382C28.8652 71.3626 28.7345 71.4141 28.5508 71.4431C27.9284 71.5408 27.3091 71.6546 26.7037 71.836C26.5444 71.8832 26.3766 71.8875 26.3851 71.6352C27.1498 71.3411 27.939 71.165 28.7579 71.1382V71.1382Z" fill="#383740"/>
<path d="M13.8633 88.3306C13.9281 88.3853 13.9929 88.439 14.0577 88.4938C13.944 88.4991 13.8771 88.4476 13.8633 88.3306Z" fill="#D9A3FA"/>
<path d="M75.4241 33.967C74.3896 36.9805 73.3614 39.9973 72.3184 43.0076C69.3285 51.6412 66.3312 60.2717 63.3487 68.9075C63.217 69.2887 63.08 69.5002 62.6339 69.4969C62.1485 69.4926 61.6896 69.7063 61.3423 70.0477C61.0566 70.329 60.8388 70.2366 60.5531 70.0895C55.5207 67.5012 50.4851 64.9192 45.4506 62.3362C45.356 62.2879 45.2636 62.2342 45.167 62.1923C44.6083 61.954 44.2185 61.7135 44.2206 60.9201C44.2249 59.7886 43.5143 59.0027 42.45 58.6259C41.423 58.262 40.484 58.4853 39.7065 59.24C38.8908 60.0323 38.6964 61.0157 39.03 62.0957C39.1064 62.3426 39.1309 62.5026 38.9216 62.7001C36.21 65.267 33.5068 67.8426 30.8016 70.4148C30.7771 70.4385 30.7421 70.4492 30.6221 70.5168C30.6221 58.3017 30.6221 46.137 30.6221 33.9713C34.0007 33.967 37.3794 33.9605 40.7581 33.9595C45.2339 33.9595 49.7087 33.9627 54.1845 33.9648C54.1888 34.9278 54.1899 35.8908 54.2015 36.8528C54.2037 36.9966 54.1155 37.2435 54.3258 37.2575C54.5977 37.2757 54.5053 37.0063 54.5074 36.8517C54.5212 35.8898 54.5234 34.9268 54.5287 33.9638C61.4942 33.9638 68.4597 33.9648 75.4252 33.9659L75.4241 33.967ZM54.1973 58.437C54.1973 59.3474 54.193 60.2588 54.2015 61.1692C54.2026 61.3249 54.1059 61.5933 54.3662 61.5901C54.5648 61.5868 54.5085 61.3388 54.5085 61.1875C54.5117 59.3474 54.5106 57.5083 54.5085 55.6682C54.5085 55.5147 54.5574 55.2764 54.3577 55.2688C54.1399 55.2603 54.1984 55.5018 54.1984 55.65C54.1941 56.5786 54.1962 57.5072 54.1962 58.4359L54.1973 58.437ZM54.1973 46.2551C54.1973 47.2009 54.1952 48.1457 54.1994 49.0915C54.1994 49.2214 54.1463 49.4286 54.3524 49.4232C54.5414 49.4189 54.5096 49.2203 54.5096 49.0829C54.5106 47.2095 54.5106 45.3361 54.5096 43.4628C54.5096 43.3264 54.5499 43.1192 54.3704 43.1085C54.1219 43.0945 54.2026 43.3318 54.2015 43.4713C54.1941 44.3989 54.1973 45.3265 54.1973 46.254V46.2551Z" fill="#FEFEFE"/>
<path d="M37.5456 29.2386C37.4511 29.346 37.3576 29.4501 37.2652 29.5543C36.8807 29.988 36.1404 30.3433 36.1584 30.8243C36.1744 31.2494 36.8605 31.6488 37.2514 32.06C37.313 32.1244 37.3778 32.1845 37.4351 32.2521C37.5042 32.3337 37.5881 32.4304 37.4776 32.5259C37.3735 32.6172 37.279 32.5281 37.2046 32.454C36.8403 32.09 36.459 31.7411 36.1234 31.3514C35.8727 31.0605 35.7123 31.0777 35.4702 31.3579C35.1452 31.7325 34.7777 32.0707 34.4261 32.4218C34.3411 32.5066 34.2423 32.6386 34.116 32.5216C33.9757 32.3917 34.1319 32.2983 34.2084 32.2189C34.5652 31.8474 34.9179 31.4706 35.296 31.1227C35.5318 30.9059 35.5583 30.7556 35.3055 30.5269C34.9242 30.1823 34.5748 29.8023 34.2158 29.4319C34.1372 29.3503 33.9853 29.259 34.1032 29.1248C34.254 28.9531 34.3539 29.1377 34.4431 29.2247C34.8106 29.5843 35.1813 29.944 35.5286 30.324C35.7304 30.5452 35.8706 30.557 36.0788 30.3294C36.4367 29.9354 36.8223 29.5671 37.1993 29.1903C37.2716 29.1184 37.3459 29.0196 37.467 29.0883C37.5031 29.1087 37.5127 29.1753 37.5445 29.2397L37.5456 29.2386Z" fill="#2D2B36"/>
<path d="M54.5277 33.9647C54.5224 34.9277 54.5203 35.8896 54.5065 36.8526C54.5044 37.0072 54.5968 37.2767 54.3249 37.2584C54.1146 37.2445 54.2027 36.9986 54.2006 36.8537C54.1889 35.8907 54.1878 34.9288 54.1836 33.9658C54.2972 33.7758 54.412 33.808 54.5277 33.9647Z" fill="#383740"/>
<path d="M101.993 33.972C101.993 35.1529 101.964 36.3349 102.007 37.5137C102.026 38.015 101.856 38.0848 101.416 38.0838C96.9377 38.0676 92.4608 38.0709 87.9828 38.0752C86.122 38.0773 84.7614 38.9652 84.192 40.5315C84.0189 41.0071 83.9541 41.4999 83.9541 42.0044C83.9541 48.1227 83.9499 54.241 83.9563 60.3604C83.9584 62.7287 85.5463 64.3122 87.9064 64.3144C92.4194 64.3187 96.9324 64.3219 101.445 64.3058C101.87 64.3047 102.036 64.3799 102.005 64.849C101.96 65.5254 101.972 66.2092 102.002 66.8877C102.018 67.2528 101.888 67.3633 101.554 67.3183C101.432 67.3011 101.306 67.3161 101.182 67.3161C93.4836 67.3161 85.7842 67.3225 78.0858 67.3086C77.1002 67.3064 76.2759 67.577 75.6716 68.3897C75.2828 68.9125 75.1639 69.5169 75.166 70.1589C75.1713 71.6254 75.1607 73.093 75.1692 74.5595C75.1798 76.347 76.2504 77.4227 78.0263 77.4238C85.7959 77.427 93.5654 77.4324 101.335 77.4098C101.909 77.4077 102.043 77.5773 102.002 78.1141C101.955 78.7357 102.014 79.3627 101.822 79.9735C101.284 81.6902 99.8108 82.7509 97.9085 82.753C92.4396 82.7584 86.9706 82.7552 81.5027 82.7552C80.5999 82.7552 79.6971 82.7401 78.7953 82.7627C78.4363 82.7724 78.2972 82.6832 78.3121 82.2925C78.3418 81.5066 78.3237 80.7186 78.3174 79.9317C78.3174 79.805 78.38 79.5924 78.1718 79.5978C77.9881 79.6032 78.0168 79.805 78.0168 79.9424C78.0136 80.6939 77.9892 81.4465 78.0242 82.1958C78.0444 82.6317 77.935 82.7713 77.4793 82.7659C75.1256 82.7412 72.7719 82.7541 70.4182 82.7541C65.303 82.7541 60.1888 82.7466 55.0735 82.7659C54.603 82.7681 54.4713 82.6489 54.4979 82.1787C54.5393 81.4476 54.5117 80.7122 54.5063 79.9789C54.5053 79.8318 54.5669 79.5914 54.3407 79.601C54.1187 79.6107 54.2015 79.8512 54.1994 79.9961C54.192 80.7476 54.1781 81.4991 54.2036 82.2495C54.2164 82.6221 54.1558 82.7766 53.7257 82.767C52.2928 82.7326 50.859 82.752 49.4261 82.7509C49.4208 81.5528 49.4102 80.3536 49.4155 79.1555C49.4176 78.8195 49.3571 78.6133 48.9556 78.6166C46.5138 78.6348 44.0719 78.6369 41.63 78.6455C41.5823 78.6434 41.5355 78.6423 41.4877 78.6402C39.9593 78.6327 38.4309 78.6251 36.9025 78.6176C36.809 77.7727 36.5413 77.0083 35.954 76.3696C35.5026 75.8789 35.1744 75.2799 34.6752 74.8268C34.2546 74.187 33.8159 73.5622 33.2434 73.0479C32.997 72.567 32.7028 72.1042 32.2322 71.8401C31.7638 71.5771 31.9147 71.4182 32.2089 71.1413C33.9072 69.547 35.5907 67.9356 37.2785 66.3295C38.142 65.5082 39.0076 64.6901 39.8626 63.8592C40.0719 63.6552 40.2312 63.5758 40.5424 63.7089C41.5164 64.1244 42.4521 63.9902 43.2732 63.3085C43.5058 63.1152 43.664 63.1131 43.9179 63.244C47.2201 64.9457 50.5265 66.6398 53.8372 68.3231C54.1144 68.4638 54.2079 68.628 54.2047 68.9383C54.1877 70.4048 54.1951 71.8713 54.2015 73.3389C54.2015 73.4849 54.1187 73.735 54.3237 73.7468C54.586 73.7618 54.5 73.4935 54.501 73.3367C54.5074 71.8176 54.5053 70.2974 54.5053 68.7815C54.706 68.7075 54.826 68.8449 54.9578 68.9125C56.6126 69.7553 58.2621 70.6077 59.9201 71.4461C60.1962 71.5857 60.3332 71.7124 60.3077 72.0817C60.2217 73.3292 61.0693 74.4768 62.26 74.8204C63.4283 75.1575 64.7071 74.6379 65.3285 73.575C65.9509 72.5101 65.7937 71.1402 64.9057 70.2717C64.653 70.0247 64.5924 69.8401 64.7114 69.4976C68.7921 57.7527 72.8612 46.0035 76.9323 34.2554C76.9674 34.1545 77.0131 34.0579 77.0534 33.958C77.3646 33.9602 77.6758 33.9623 77.9881 33.9644C77.9945 34.9403 77.9987 35.9162 78.0104 36.8921C78.0125 37.0392 77.9562 37.2711 78.1772 37.27C78.4161 37.2678 78.3227 37.0274 78.3248 36.8899C78.3375 35.9141 78.3386 34.9382 78.3439 33.9623C86.1039 33.9623 93.8639 33.9612 101.624 33.9612C101.747 33.9612 101.871 33.9687 101.995 33.973L101.993 33.972ZM78.329 46.2891C78.329 45.3443 78.3312 44.3996 78.3259 43.4548C78.3259 43.3249 78.3885 43.1145 78.1973 43.1038C77.9679 43.0898 78.0104 43.3142 78.0104 43.4634C78.0072 45.3357 78.0083 47.207 78.0093 49.0793C78.0093 49.2178 77.9775 49.4207 78.1538 49.4325C78.4066 49.4497 78.3259 49.2114 78.3269 49.0718C78.3344 48.1453 78.3301 47.2177 78.3301 46.2912L78.329 46.2891ZM78.329 58.3947C78.329 57.4854 78.3322 56.5761 78.3259 55.6668C78.3248 55.5229 78.4066 55.2856 78.1867 55.2695C77.9647 55.2534 78.0104 55.4864 78.0104 55.6345C78.0072 57.5069 78.0083 59.3792 78.0083 61.2515C78.0083 61.3921 77.9902 61.595 78.1559 61.6004C78.3949 61.6079 78.3248 61.3739 78.3259 61.23C78.3322 60.2853 78.329 59.3405 78.329 58.3947V58.3947Z" fill="#FDFDFD"/>
<path d="M36.904 78.6147C38.4324 78.6223 39.9608 78.6298 41.4893 78.6373C41.3629 78.8316 41.3969 79.0495 41.3969 79.2621C41.3958 81.318 41.3958 83.3728 41.3969 85.4287C41.3969 85.6842 41.4351 85.9108 41.0379 85.9086C38.5981 85.8914 36.1584 85.8979 33.7187 85.8947C33.691 85.8947 33.6645 85.8646 33.5986 85.827C35.2736 83.6906 36.8318 81.4962 36.9051 78.6158L36.904 78.6147Z" fill="#FFA098"/>
<path d="M27.2496 90.717C27.1105 90.7374 27.0723 90.6172 27.0128 90.5388C26.0972 89.3354 25.187 88.1276 24.2682 86.9263C24.1386 86.7566 24.1525 86.6718 24.3351 86.5591C26.1418 85.4512 27.785 84.1317 29.2603 82.603C29.4451 82.4119 29.5417 82.4258 29.7 82.6384C30.5816 83.8226 31.477 84.997 32.3713 86.1726C32.4849 86.3218 32.5805 86.4313 32.3989 86.6203C30.9045 88.1845 29.2242 89.5093 27.3877 90.6376C27.3431 90.6655 27.2964 90.6902 27.2507 90.716L27.2496 90.717Z" fill="#FFA098"/>
<path d="M33.301 76.2388C34.2898 77.5636 35.2298 78.8336 36.1868 80.0918C36.3642 80.3259 36.2824 80.5331 36.2112 80.7435C35.5357 82.736 34.3652 84.4173 32.9866 85.9686C32.8315 86.1436 32.7391 86.1661 32.5872 85.9632C31.6918 84.7662 30.788 83.5756 29.8809 82.3871C29.7524 82.2186 29.7364 82.0951 29.8873 81.9255C31.3658 80.2679 32.6074 78.46 33.301 76.2388V76.2388Z" fill="#FFA098"/>
<path d="M21.0044 93.0787C20.8324 93.1249 20.7453 92.9821 20.6476 92.8533C19.7777 91.7056 18.9088 90.5569 18.0326 89.4146C17.8701 89.202 17.8509 89.0893 18.159 89.0421C20.0506 88.749 21.783 88.0093 23.441 87.0785C23.7532 86.9024 23.9104 86.9282 24.1207 87.2148C24.9651 88.3593 25.8329 89.4854 26.6901 90.6213C26.7941 90.7598 26.9949 90.8875 26.6837 91.0572C24.9333 92.0094 23.1213 92.777 21.1351 93.0562C21.1 93.0615 21.065 93.068 21.0055 93.0787H21.0044Z" fill="#FFA098"/>
<path d="M41.5568 58.7417C42.928 58.7342 44.0146 59.8271 44.0114 61.2088C44.0093 62.5572 42.9259 63.6619 41.595 63.6748C40.2567 63.6877 39.1266 62.5508 39.1309 61.1938C39.1351 59.8464 40.2196 58.7493 41.5557 58.7428L41.5568 58.7417Z" fill="#FCFCFC"/>
<path d="M62.9714 74.6467C61.6108 74.637 60.5465 73.5226 60.5667 72.1291C60.5858 70.7893 61.7 69.6954 63.0287 69.7136C64.3521 69.7308 65.4472 70.8516 65.4461 72.1882C65.4451 73.5559 64.3362 74.6563 62.9714 74.6456V74.6467Z" fill="#FCFCFC"/>
<path d="M81.0835 27.0231C81.0761 28.3822 80.0065 29.4611 78.6608 29.4644C77.3002 29.4676 76.1924 28.35 76.2062 26.9866C76.2189 25.65 77.3236 24.5388 78.6449 24.5313C79.9938 24.5238 81.091 25.6446 81.0835 27.0231V27.0231Z" fill="#FCFCFC"/>
<path d="M99.567 17.4512C99.5765 18.8393 98.4984 19.9376 97.1304 19.9322C95.7942 19.9279 94.7056 18.8393 94.6896 17.493C94.6737 16.1425 95.7964 15.0013 97.1421 15.0034C98.4793 15.0056 99.5585 16.0952 99.567 17.4512Z" fill="#FCFCFC"/>
<path d="M33.2462 73.045C33.8197 73.5593 34.2584 74.1841 34.6779 74.8239C34.406 74.9721 34.5877 75.117 34.6886 75.2491C35.0242 75.6871 35.3598 76.1262 35.7093 76.5524C36.4995 77.5143 36.7003 78.6061 36.4145 79.8869C36.0035 79.3405 35.6243 78.837 35.2451 78.3313C34.9668 77.9609 34.7151 77.568 34.4082 77.2234C33.7295 76.4601 33.2409 75.6678 33.5 74.5598C33.6179 74.0553 33.4129 73.5367 33.2451 73.0439L33.2462 73.045Z" fill="#FFA098"/>
<path d="M78.3431 33.9618C78.3389 34.9377 78.3378 35.9135 78.324 36.8894C78.3219 37.0268 78.4153 37.2684 78.1764 37.2695C77.9554 37.2705 78.0117 37.0386 78.0096 36.8916C77.9979 35.9157 77.9937 34.9398 77.9873 33.9639C78.1041 33.805 78.222 33.7546 78.3421 33.9607L78.3431 33.9618Z" fill="#4B4B53"/>
<path d="M100.793 63.999C96.5299 63.999 92.2654 63.999 88.002 63.999C85.6642 63.999 84.2675 62.5905 84.2664 60.234C84.2654 54.2069 84.2654 48.1799 84.2664 42.1528C84.2664 39.7953 85.6621 38.3921 88.003 38.3921C96.5479 38.3921 105.094 38.3921 113.639 38.3921C115.94 38.3921 117.348 39.8049 117.349 42.1271C117.352 48.1724 117.352 54.2166 117.349 60.2619C117.348 62.5819 115.938 63.9979 113.638 63.999C109.356 64.0011 105.075 63.999 100.793 63.999V63.999ZM89.8607 49.3952C89.866 48.7038 89.8713 48.0124 89.8766 47.321C89.8766 47.1943 89.8766 47.0387 89.7163 47.0387C89.5495 47.0387 89.5612 47.1986 89.5622 47.3221C89.5654 48.0135 89.5718 48.7048 89.576 49.3962C89.2224 49.3994 88.8676 49.4252 88.516 49.4016C88.1602 49.378 88.0646 49.5251 88.0678 49.8675C88.0827 51.2428 88.0625 52.6191 88.0806 53.9943C88.0869 54.4871 87.8596 55.1119 88.1878 55.4372C88.4895 55.7368 89.0991 55.4952 89.5697 55.5403C89.5665 57.0197 89.5622 58.4991 89.5644 59.9784C89.5644 60.1223 89.4879 60.3628 89.7152 60.3639C89.9382 60.3639 89.8734 60.1255 89.8734 59.9795C89.8745 58.5001 89.8703 57.0207 89.8671 55.5414C90.2208 55.5381 90.5755 55.5145 90.9282 55.5392C91.2893 55.5639 91.3764 55.4082 91.3732 55.069C91.3583 53.6744 91.3796 52.2798 91.3604 50.8853C91.3541 50.4118 91.5739 49.8181 91.25 49.495C90.9717 49.2169 90.4045 49.4413 89.9669 49.4037C89.9319 49.4005 89.8968 49.3984 89.8607 49.3962V49.3952ZM97.2967 48.4118C97.2967 47.2856 97.2989 46.1583 97.2967 45.0321C97.2967 44.8786 97.3392 44.6424 97.1353 44.6424C96.9133 44.6424 96.9877 44.8861 96.9866 45.0321C96.9813 46.1583 96.9845 47.2856 96.9845 48.4118C96.6148 48.4161 96.2442 48.4311 95.8745 48.4214C95.6143 48.415 95.4922 48.4944 95.4932 48.7832C95.5007 51.4382 95.4996 54.0942 95.4943 56.7491C95.4943 57.025 95.6079 57.1324 95.8735 57.1292C96.2431 57.1249 96.6138 57.1388 96.9834 57.1453C96.9834 58.09 96.9792 59.0337 96.9877 59.9784C96.9887 60.118 96.8984 60.3606 97.1321 60.3628C97.3509 60.3639 97.2946 60.1277 97.2957 59.9795C97.2999 59.0348 97.2978 58.0911 97.2978 57.1464C97.5973 57.1399 97.9 57.1066 98.1964 57.1345C98.651 57.1786 98.8103 57.0261 98.805 56.5409C98.7805 54.3465 98.8028 52.1521 98.788 49.9588C98.7848 49.4682 99.0068 48.853 98.6796 48.518C98.395 48.226 97.8034 48.4644 97.3498 48.4161C97.3318 48.4139 97.3148 48.4128 97.2967 48.4118V48.4118ZM111.841 43.4014C111.47 43.4035 111.099 43.4153 110.73 43.4035C110.421 43.3939 110.277 43.512 110.278 43.8383C110.284 46.3526 110.281 48.868 110.281 51.3823C110.281 51.713 110.444 51.873 110.77 51.873C111.123 51.873 111.475 51.8805 111.828 51.8848C111.829 52.953 111.828 54.0212 111.835 55.0894C111.835 55.2354 111.764 55.4888 111.951 55.4984C112.212 55.5124 112.119 55.2408 112.121 55.0872C112.131 54.019 112.128 52.9508 112.131 51.8826C112.484 51.8794 112.838 51.8622 113.19 51.8762C113.528 51.8901 113.664 51.7549 113.663 51.406C113.656 48.8884 113.657 46.3709 113.662 43.8544C113.662 43.542 113.553 43.3917 113.228 43.4025C112.857 43.4153 112.486 43.4025 112.116 43.4025C112.119 42.6005 112.123 41.7996 112.124 40.9977C112.124 40.8806 112.149 40.7153 111.978 40.7132C111.796 40.711 111.835 40.8817 111.835 40.9955C111.834 41.7975 111.838 42.5984 111.841 43.4003V43.4014ZM104.402 45.5389C104.067 45.5442 103.73 45.5679 103.397 45.5496C103.063 45.5314 102.927 45.6344 102.928 45.9973C102.939 49.5326 102.938 53.0679 102.929 56.6031C102.929 56.9198 103.017 57.0583 103.349 57.0411C103.7 57.0229 104.054 57.0519 104.407 57.0605C104.407 57.6649 104.405 58.2693 104.41 58.8737C104.41 58.9865 104.361 59.1615 104.535 59.1722C104.746 59.1861 104.715 58.9929 104.716 58.8619C104.72 58.2575 104.714 57.6531 104.712 57.0487C105.065 57.0444 105.419 57.0272 105.772 57.0379C106.076 57.0465 106.229 56.9435 106.228 56.6106C106.223 53.0711 106.223 49.5326 106.228 45.993C106.228 45.6698 106.098 45.541 105.784 45.5507C105.432 45.5614 105.077 45.5475 104.723 45.5442C104.723 44.942 104.726 44.3397 104.723 43.7374C104.723 43.6 104.732 43.4164 104.533 43.4314C104.372 43.4433 104.4 43.6129 104.4 43.731C104.397 44.3333 104.399 44.9355 104.399 45.5378L104.402 45.5389Z" fill="#FDFDFD"/>
<path d="M96.4344 67.6244C102.519 67.6244 108.605 67.6276 114.69 67.6201C115.402 67.6201 116.064 67.721 116.605 68.2342C117.127 68.7291 117.35 69.3496 117.351 70.0604C117.353 71.5977 117.366 73.1361 117.348 74.6735C117.33 76.1497 116.357 77.0976 114.886 77.0976C102.574 77.0998 90.2613 77.0998 77.95 77.0976C76.4492 77.0976 75.4912 76.1443 75.4784 74.6284C75.4667 73.1619 75.4731 71.6954 75.4763 70.23C75.4795 68.5359 76.3823 67.6255 78.0732 67.6244C84.1943 67.6212 90.3144 67.6233 96.4355 67.6233L96.4344 67.6244ZM99.231 71.1661C103.458 71.1661 107.687 71.1683 111.914 71.1608C112.102 71.1608 112.443 71.2724 112.438 70.9954C112.432 70.7163 112.091 70.8473 111.906 70.8473C103.45 70.8398 94.9952 70.8398 86.5395 70.8473C86.3547 70.8473 86.0138 70.7185 86.0159 71.004C86.018 71.2724 86.3579 71.1307 86.5491 71.164C86.6351 71.179 86.7254 71.1661 86.8136 71.1661C90.9527 71.1661 95.0919 71.1661 99.231 71.1661V71.1661ZM99.2831 73.3917C95.0026 73.3917 90.7212 73.3917 86.4408 73.3949C86.2793 73.3949 86.0095 73.324 86.0074 73.5548C86.0053 73.7985 86.2761 73.6944 86.4344 73.7159C86.5215 73.7277 86.6107 73.718 86.6999 73.718C91.6707 73.718 96.6415 73.718 101.612 73.718C105.079 73.718 108.547 73.7191 112.014 73.7148C112.173 73.7148 112.443 73.7985 112.446 73.5613C112.449 73.3272 112.181 73.411 112.019 73.3949C111.932 73.3863 111.843 73.3927 111.754 73.3927C107.596 73.3927 103.439 73.3927 99.282 73.3927L99.2831 73.3917ZM80.5661 71.0266C80.5661 70.7399 80.5756 70.4533 80.5629 70.1677C80.5501 69.8907 80.6574 69.8177 80.9113 69.9058C81.3988 70.0743 81.744 70.3674 81.8162 70.9128C81.8311 71.0287 81.8714 71.1511 81.9893 71.1447C82.1635 71.1361 82.1476 70.9772 82.1295 70.8548C82.035 70.2214 81.6431 69.8027 81.0695 69.6384C80.6691 69.5236 80.4938 69.3722 80.5608 68.9546C80.5788 68.8408 80.5852 68.6636 80.4099 68.6722C80.2538 68.6797 80.2432 68.8483 80.2634 68.9653C80.3377 69.3937 80.1221 69.5182 79.7472 69.6438C78.6882 69.9981 78.3685 71.1769 79.078 71.9541C79.3276 72.2268 79.6378 72.3943 79.9883 72.4705C80.1731 72.5113 80.2644 72.5682 80.2612 72.7754C80.2517 73.3831 80.2495 73.9918 80.2612 74.6005C80.2665 74.871 80.1327 74.9108 79.932 74.8399C79.4753 74.6778 79.1237 74.4073 79.027 73.8876C79.0037 73.761 79.0143 73.5463 78.8114 73.5978C78.6351 73.6429 78.6988 73.8415 78.7254 73.9703C78.8486 74.5726 79.2426 74.9526 79.8003 75.1115C80.1465 75.2103 80.325 75.3305 80.2644 75.7159C80.2453 75.8362 80.2177 76.0434 80.4333 76.0337C80.6107 76.0251 80.5767 75.8416 80.5586 75.7353C80.4875 75.3209 80.7041 75.2049 81.0589 75.1008C81.7057 74.9108 82.1125 74.3665 82.1359 73.7846C82.1593 73.2038 81.8343 72.5682 81.2214 72.4222C80.5501 72.2623 80.514 71.8736 80.5629 71.3476C80.5724 71.2413 80.5639 71.1329 80.565 71.0255L80.5661 71.0266Z" fill="#FCFCFC"/>
<path d="M17.18 87.6657C16.8805 87.641 16.5767 87.6453 16.2835 87.5884C14.531 87.2502 13.71 85.9308 14.1072 84.081C14.4524 82.4717 15.2713 81.0954 16.2772 79.835C18.8369 76.6272 21.9745 74.1988 25.8332 72.7892C26.9835 72.3683 28.1731 72.0742 29.4148 72.2416C31.3627 72.5047 32.2677 73.8198 31.8555 75.7801C31.5316 77.3186 30.7679 78.6466 29.8152 79.8554C27.0292 83.3907 23.6027 86.0231 19.2713 87.3404C18.5926 87.5465 17.8948 87.6614 17.18 87.6657V87.6657ZM17.0345 87.3415C17.9065 87.3307 18.6043 87.2212 19.283 87.0108C23.4806 85.7075 26.8093 83.1416 29.5284 79.7212C30.4408 78.5736 31.1747 77.31 31.5178 75.8542C31.9883 73.8595 31.0377 72.5863 29.0048 72.5143C27.9309 72.4768 26.8943 72.7205 25.8938 73.0941C22.0616 74.523 18.941 76.9418 16.4163 80.1614C15.5103 81.3166 14.7732 82.5769 14.4344 84.0327C14.0318 85.7687 14.7307 86.9818 16.2942 87.276C16.5884 87.3307 16.8921 87.3297 17.0334 87.3415H17.0345Z" fill="#352F40"/>
<path d="M54.1973 58.4368C54.1973 57.5082 54.1951 56.5795 54.1994 55.6509C54.1994 55.5016 54.141 55.2612 54.3587 55.2698C54.5584 55.2773 54.5095 55.5145 54.5095 55.6691C54.5117 57.5092 54.5117 59.3483 54.5095 61.1884C54.5095 61.3397 54.5658 61.5877 54.3672 61.591C54.1059 61.5953 54.2036 61.3258 54.2026 61.1701C54.1941 60.2597 54.1983 59.3483 54.1983 58.4379L54.1973 58.4368Z" fill="#383740"/>
<path d="M54.1969 46.255C54.1969 45.3275 54.1937 44.3999 54.2011 43.4723C54.2022 43.3339 54.1215 43.0955 54.37 43.1095C54.5495 43.1202 54.5092 43.3274 54.5092 43.4638C54.5113 45.3371 54.5113 47.2105 54.5092 49.0839C54.5092 49.2213 54.541 49.4199 54.352 49.4242C54.1459 49.4285 54.2001 49.2224 54.199 49.0925C54.1948 48.1467 54.1969 47.2019 54.1969 46.2561V46.255Z" fill="#383740"/>
<path d="M78.3287 46.2895C78.3287 47.216 78.3319 48.1436 78.3255 49.0701C78.3255 49.2097 78.4052 49.4469 78.1524 49.4308C77.9771 49.419 78.0079 49.2161 78.0079 49.0776C78.0069 47.2053 78.0058 45.3341 78.009 43.4617C78.009 43.3125 77.9665 43.0892 78.1959 43.1021C78.3882 43.1139 78.3245 43.3243 78.3245 43.4532C78.3298 44.3979 78.3276 45.3426 78.3276 46.2874L78.3287 46.2895Z" fill="#4B4B53"/>
<path d="M78.3294 58.395C78.3294 59.3398 78.3325 60.2856 78.3262 61.2303C78.3262 61.3742 78.3952 61.6082 78.1562 61.6007C77.9905 61.5953 78.0086 61.3914 78.0086 61.2518C78.0086 59.3795 78.0075 57.5072 78.0107 55.6349C78.0107 55.4867 77.965 55.2537 78.187 55.2698C78.4069 55.2859 78.3251 55.5232 78.3262 55.6671C78.3336 56.5764 78.3294 57.4857 78.3294 58.395V58.395Z" fill="#4B4B53"/>
<path d="M104.408 57.0616C104.056 57.053 103.702 57.0241 103.35 57.0423C103.018 57.0595 102.93 56.921 102.931 56.6043C102.938 53.069 102.94 49.5337 102.93 45.9985C102.929 45.6345 103.065 45.5315 103.398 45.5508C103.733 45.569 104.068 45.5454 104.404 45.54C104.51 45.6152 104.62 45.568 104.728 45.5465C105.082 45.5497 105.435 45.5637 105.789 45.5529C106.103 45.5433 106.234 45.6721 106.233 45.9952C106.228 49.5348 106.228 53.0733 106.233 56.6129C106.233 56.9457 106.081 57.0498 105.776 57.0402C105.424 57.0294 105.069 57.0466 104.716 57.0509C104.614 57.0552 104.512 57.0584 104.41 57.0627L104.408 57.0616Z" fill="#DCA5FE"/>
<path d="M111.829 51.8838C111.476 51.8795 111.124 51.873 110.771 51.872C110.445 51.872 110.282 51.712 110.282 51.3813C110.282 48.867 110.285 46.3516 110.279 43.8373C110.279 43.512 110.422 43.3929 110.731 43.4025C111.1 43.4143 111.471 43.4025 111.842 43.4004C111.933 43.4004 112.024 43.4015 112.117 43.4025C112.487 43.4036 112.859 43.4165 113.229 43.4025C113.553 43.3907 113.663 43.541 113.663 43.8545C113.658 46.372 113.657 48.8896 113.664 51.406C113.665 51.7539 113.529 51.8891 113.191 51.8763C112.838 51.8623 112.484 51.8795 112.132 51.8827C112.031 51.8344 111.93 51.8161 111.83 51.8848L111.829 51.8838Z" fill="#DAA7FA"/>
<path d="M96.9853 57.1455C96.6157 57.1391 96.245 57.1251 95.8754 57.1294C95.6098 57.1326 95.4951 57.0253 95.4962 56.7494C95.5004 54.0944 95.5015 51.4384 95.4951 48.7834C95.4951 48.4946 95.6162 48.4152 95.8764 48.4216C96.246 48.4313 96.6167 48.4163 96.9864 48.412C97.0904 48.412 97.1945 48.412 97.2986 48.412C97.3167 48.413 97.3337 48.4141 97.3517 48.4163C97.8053 48.4646 98.3969 48.2263 98.6815 48.5183C99.0087 48.8543 98.7867 49.4684 98.7899 49.959C98.8047 52.1534 98.7824 54.3478 98.8069 56.5411C98.8122 57.0263 98.6528 57.1777 98.1983 57.1348C97.9019 57.1069 97.5992 57.1401 97.2997 57.1466C97.1956 57.1466 97.0904 57.1466 96.9864 57.1466L96.9853 57.1455Z" fill="#FFA098"/>
<path d="M89.5706 55.5405C89.099 55.4955 88.4904 55.737 88.1888 55.4375C87.8606 55.1122 88.0879 54.4874 88.0815 53.9946C88.0634 52.6193 88.0836 51.243 88.0688 49.8678C88.0645 49.5253 88.1601 49.3782 88.517 49.4018C88.8685 49.4255 89.2233 49.4008 89.577 49.3965C89.6726 49.3965 89.7671 49.3965 89.8616 49.3954C89.8967 49.3976 89.9328 49.3997 89.9679 49.4029C90.4055 49.4416 90.9726 49.2172 91.2509 49.4942C91.5749 49.8173 91.355 50.411 91.3614 50.8845C91.3794 52.279 91.3593 53.6736 91.3741 55.0682C91.3773 55.4063 91.2902 55.5631 90.9291 55.5384C90.5775 55.5137 90.2217 55.5384 89.868 55.5405C89.7692 55.5405 89.6694 55.5405 89.5706 55.5405Z" fill="#FFBCB7"/>
<path d="M89.5704 55.5405C89.6692 55.5405 89.769 55.5405 89.8678 55.5405C89.871 57.0199 89.8752 58.4993 89.8742 59.9798C89.8742 60.1268 89.939 60.3652 89.7159 60.3641C89.4886 60.3641 89.5651 60.1225 89.5651 59.9787C89.563 58.4993 89.5672 57.0199 89.5704 55.5405V55.5405Z" fill="#352F40"/>
<path d="M97.2973 48.4119C97.1932 48.4119 97.0891 48.4119 96.9851 48.4119C96.9851 47.2846 96.9819 46.1585 96.9872 45.0323C96.9872 44.8863 96.9139 44.6426 97.1359 44.6426C97.3398 44.6426 97.2973 44.8788 97.2973 45.0323C97.2994 46.1585 97.2973 47.2857 97.2973 48.4119V48.4119Z" fill="#383740"/>
<path d="M96.9858 57.1451C97.0898 57.1451 97.195 57.1451 97.2991 57.1451C97.2991 58.0899 97.3012 59.0335 97.297 59.9783C97.297 60.1275 97.3532 60.3637 97.1334 60.3615C96.8997 60.3594 96.99 60.1168 96.9889 59.9772C96.9804 59.0325 96.9847 58.0888 96.9847 57.144L96.9858 57.1451Z" fill="#383740"/>
<path d="M104.727 45.5443C104.619 45.5658 104.511 45.613 104.403 45.5379C104.403 44.9356 104.402 44.3333 104.404 43.7311C104.404 43.613 104.376 43.4433 104.537 43.4315C104.736 43.4165 104.726 43.6001 104.727 43.7375C104.73 44.3398 104.727 44.942 104.727 45.5443Z" fill="#4B4B53"/>
<path d="M104.409 57.0616C104.511 57.0573 104.613 57.0541 104.715 57.0498C104.717 57.6542 104.722 58.2586 104.719 58.8631C104.719 58.994 104.749 59.1873 104.538 59.1733C104.364 59.1615 104.414 58.9876 104.413 58.8749C104.408 58.2705 104.41 57.666 104.41 57.0616H104.409Z" fill="#383740"/>
<path d="M111.829 51.8835C111.929 51.8148 112.029 51.8331 112.13 51.8814C112.129 52.9496 112.131 54.0178 112.122 55.086C112.121 55.2395 112.213 55.5111 111.952 55.4972C111.765 55.4875 111.837 55.2352 111.836 55.0882C111.829 54.02 111.83 52.9517 111.829 51.8835V51.8835Z" fill="#2D2B36"/>
<path d="M89.8622 49.3951C89.7677 49.3951 89.6721 49.3951 89.5776 49.3961C89.5723 48.7048 89.567 48.0134 89.5627 47.322C89.5627 47.1996 89.55 47.0386 89.7167 47.0386C89.8782 47.0386 89.8782 47.1942 89.8771 47.3209C89.8729 48.0123 89.8665 48.7037 89.8612 49.3951H89.8622Z" fill="#383740"/>
<path d="M112.116 43.4027C112.025 43.4027 111.933 43.4017 111.841 43.4006C111.839 42.5986 111.835 41.7977 111.836 40.9958C111.836 40.882 111.796 40.7102 111.978 40.7134C112.148 40.7156 112.125 40.8809 112.125 40.9979C112.125 41.7999 112.119 42.6008 112.116 43.4027Z" fill="#2D2B36"/>
<path d="M99.2308 71.165C95.0916 71.165 90.9524 71.165 86.8133 71.165C86.7251 71.165 86.6338 71.1779 86.5488 71.1628C86.3576 71.1295 86.0178 71.2713 86.0156 71.0029C86.0135 70.7173 86.3555 70.8472 86.5393 70.8461C94.995 70.8386 103.45 70.8386 111.905 70.8461C112.091 70.8461 112.432 70.7152 112.437 70.9943C112.443 71.2713 112.102 71.1596 111.914 71.1596C107.686 71.1671 103.458 71.165 99.2308 71.165V71.165Z" fill="#4B4B53"/>
<path d="M99.2824 73.3904C103.44 73.3904 107.597 73.3904 111.754 73.3904C111.842 73.3904 111.931 73.3829 112.02 73.3926C112.181 73.4087 112.45 73.3249 112.447 73.559C112.443 73.7973 112.173 73.7125 112.014 73.7125C108.547 73.7168 105.08 73.7157 101.613 73.7157C96.642 73.7157 91.6712 73.7157 86.7003 73.7157C86.6122 73.7157 86.5219 73.7254 86.4348 73.7136C86.2766 73.6921 86.0047 73.7962 86.0078 73.5525C86.01 73.3217 86.2787 73.3926 86.4412 73.3926C90.7216 73.3894 95.0031 73.3894 99.2835 73.3894L99.2824 73.3904Z" fill="#4B4B53"/>
<path d="M80.5657 71.0255C80.5657 71.1328 80.5742 71.2412 80.5636 71.3475C80.5147 71.8736 80.5508 72.2622 81.2221 72.4222C81.8349 72.5682 82.1599 73.2027 82.1366 73.7845C82.1132 74.3664 81.7075 74.9096 81.0596 75.1007C80.7048 75.2049 80.4881 75.3197 80.5593 75.7352C80.5774 75.8415 80.6113 76.0251 80.434 76.0337C80.2194 76.0433 80.246 75.8361 80.2651 75.7159C80.3246 75.3305 80.1472 75.2102 79.8009 75.1115C79.2433 74.9537 78.8493 74.5725 78.7261 73.9703C78.6995 73.8414 78.6347 73.6428 78.8121 73.5977C79.0139 73.5462 79.0033 73.7609 79.0277 73.8876C79.1254 74.4072 79.4759 74.6777 79.9326 74.8399C80.1344 74.9118 80.2672 74.871 80.2619 74.6005C80.2492 73.9928 80.2513 73.3841 80.2619 72.7754C80.2651 72.5682 80.1737 72.5113 79.9889 72.4705C79.6384 72.3943 79.3283 72.2268 79.0787 71.9541C78.3692 71.1768 78.6889 69.998 79.7478 69.6438C80.1228 69.5182 80.3384 69.3936 80.264 68.9653C80.2438 68.8482 80.2545 68.6797 80.4106 68.6722C80.5859 68.6636 80.5795 68.8397 80.5614 68.9545C80.4956 69.3721 80.6698 69.5235 81.0702 69.6384C81.6437 69.8027 82.0357 70.2213 82.1302 70.8548C82.1483 70.9761 82.1642 71.136 81.99 71.1446C81.8721 71.15 81.8317 71.0287 81.8169 70.9127C81.7446 70.3684 81.3995 70.0743 80.9119 69.9057C80.6581 69.8177 80.5519 69.8907 80.5636 70.1677C80.5763 70.4532 80.5667 70.7399 80.5667 71.0265L80.5657 71.0255ZM80.5646 73.6815C80.5646 73.9842 80.5752 74.288 80.5614 74.5908C80.5497 74.8399 80.6517 74.9161 80.8758 74.8463C81.3421 74.6992 81.7022 74.4265 81.8031 73.9209C81.9008 73.4281 81.6852 73.0513 81.2826 72.784C81.0925 72.6584 80.8663 72.4962 80.6528 72.6058C80.4595 72.7045 80.588 72.9622 80.5689 73.1479C80.5508 73.324 80.5646 73.5043 80.5657 73.6825L80.5646 73.6815ZM80.2587 71.0083C80.2587 70.742 80.2417 70.4736 80.263 70.2085C80.2906 69.8606 80.144 69.8198 79.8604 69.9197C79.3612 70.0947 79.0107 70.5423 79.015 71.0244C79.0192 71.5043 79.3729 71.9434 79.8763 72.1184C80.1334 72.2085 80.28 72.1914 80.2619 71.8607C80.246 71.5773 80.2587 71.2917 80.2587 71.0072V71.0083Z" fill="#383740"/>
<path d="M17.0346 87.3417C16.8933 87.3299 16.5896 87.3309 16.2954 87.2762C14.7308 86.982 14.0319 85.7689 14.4356 84.0329C14.7733 82.5771 15.5115 81.3168 16.4175 80.1616C18.9422 76.942 22.0628 74.5243 25.895 73.0943C26.8944 72.7217 27.9321 72.477 29.006 72.5145C31.04 72.5865 31.9895 73.8587 31.519 75.8544C31.1759 77.3102 30.442 78.5738 29.5296 79.7214C26.8095 83.1418 23.4818 85.7066 19.2842 87.011C18.6055 87.2214 17.9066 87.3309 17.0357 87.3417H17.0346Z" fill="#FFA098"/>
<path d="M80.5636 73.6818C80.5636 73.5036 80.5498 73.3233 80.5668 73.1472C80.5859 72.9615 80.4563 72.7038 80.6507 72.6051C80.8652 72.4955 81.0915 72.6577 81.2805 72.7833C81.6831 73.0506 81.8987 73.4274 81.801 73.9202C81.7011 74.4269 81.34 74.6996 80.8737 74.8456C80.6496 74.9165 80.5476 74.8402 80.5593 74.5901C80.5731 74.2873 80.5625 73.9835 80.5625 73.6808L80.5636 73.6818Z" fill="#FCFCFC"/>
<path d="M80.2585 71.0087C80.2585 71.2932 80.2457 71.5788 80.2616 71.8622C80.2797 72.1929 80.1331 72.209 79.8761 72.1199C79.3726 71.9438 79.0179 71.5047 79.0147 71.0259C79.0104 70.5439 79.3609 70.0962 79.8602 69.9212C80.1437 69.8214 80.2903 69.8632 80.2627 70.21C80.2415 70.4752 80.2585 70.7425 80.2585 71.0098V71.0087Z" fill="#FCFCFC"/>
<path d="M80.8006 42.7788C80.8303 42.7873 82.1357 40.55 82.1665 40.5586C82.2982 40.3374 82.4341 40.1206 82.5584 39.8962C82.6551 39.7223 82.757 39.4925 82.9503 39.4904C83.4283 39.484 83.5441 39.1082 83.7246 38.8012C84.6264 37.267 85.5133 35.7243 86.4214 34.1945C86.5988 33.8949 86.6349 33.634 86.5223 33.2948C86.2334 32.4155 85.9721 31.5255 85.7331 30.6313C85.5717 30.0279 85.6556 29.4589 86.1516 29.0155C86.2313 28.9447 86.3131 28.8856 86.3056 28.7557C86.2504 27.7197 86.7124 26.6912 86.3534 25.6488C86.3311 25.5833 86.3407 25.5071 86.3354 25.4362C86.4235 25.4126 86.5117 25.389 86.5999 25.3654C86.6137 26.2886 86.9578 27.2216 86.5255 28.133C86.5117 28.162 86.5213 28.2039 86.5202 28.2393C86.4745 29.6704 87.5717 30.8975 89.184 31.2325C89.5377 31.3055 89.8033 31.2335 90.0784 30.963C90.9642 30.0923 91.8766 29.2485 92.7964 28.4154C93.2839 27.9742 93.8309 27.6467 94.5245 27.9398C94.7369 28.03 94.79 27.8861 94.8006 27.7466C94.841 27.2023 95.1522 27.1132 95.6387 27.0799C96.4746 27.023 96.8983 26.1684 96.4958 25.4792C96.0794 24.7652 95.4761 24.7942 94.8314 25.5597C94.6583 25.3622 94.6551 25.1023 94.5903 24.8662C94.0008 22.7308 92.2706 21.2482 89.8882 21.6669C89.713 21.698 89.5728 21.7045 89.5101 21.5016C89.6291 21.3878 89.7873 21.4114 89.9286 21.3792C90.3843 21.3481 90.8399 21.2579 91.2956 21.3856C91.6323 21.4801 91.8362 21.4017 92.0199 21.0389C92.5638 19.9717 93.8999 19.4027 95.0439 19.6819C95.7396 19.8515 96.3312 20.4065 96.362 20.9219C96.2122 20.9165 96.1612 20.7866 96.0901 20.691C95.0279 19.2557 92.9047 19.8751 92.2037 21.1656C92.0497 21.449 92.0847 21.58 92.3906 21.7131C93.2117 22.0716 93.8086 22.6954 94.2727 23.4587C94.5606 23.9322 94.7167 24.4625 94.9291 25.0175C95.3774 24.6182 95.8383 24.6021 96.2951 24.9188C96.7178 25.2129 96.9546 25.6381 96.8898 26.1555C96.8176 26.7353 96.465 27.1228 95.9042 27.2957C95.7704 27.3375 95.6259 27.3869 95.491 27.3762C95.2212 27.3558 95.1639 27.5136 95.0545 27.7219C94.7783 28.2522 95.149 28.6945 95.1341 29.2335C95.9382 28.7718 96.7433 28.6366 97.5909 28.7514C97.764 28.775 97.9042 28.716 98.0316 28.6129C98.9472 27.8808 99.9764 27.3246 100.955 26.6902C104.594 24.7041 108.396 23.0819 112.241 21.5596C113.382 21.1076 114.567 20.8381 115.805 20.8456C118.459 20.8617 120.312 22.4957 120.721 25.156C120.921 26.4529 120.798 27.7208 120.5 28.9822C120.446 29.2109 120.385 29.3988 120.655 29.5663C120.88 29.7058 120.916 29.9753 120.839 30.2405C120.819 30.3092 120.813 30.3854 120.779 30.4455C120.178 31.5352 119.916 32.7237 119.77 33.9465C119.724 34.3372 119.544 34.6335 119.13 34.6883C118.936 34.7141 118.916 34.83 118.887 34.9739C118.607 36.2933 118.046 37.5461 118.036 38.9332C118.032 39.5355 117.792 40.0905 117.298 40.477C117.108 40.6262 117.142 40.7325 117.246 40.9086C118.12 42.3815 118.533 43.9951 118.598 45.6967C118.804 51.1129 118.79 56.5312 118.777 61.9496C118.757 70.2827 118.702 78.6168 118.661 86.9499C118.657 87.6509 118.654 87.6509 117.984 87.652C117.843 87.652 117.698 87.6703 117.56 87.6488C117.218 87.5951 117.11 87.7604 117.046 88.0793C116.727 89.6736 116.437 91.27 116.269 92.8889C116.237 93.1981 116.263 93.489 116.38 93.7789C116.561 94.2277 116.669 94.6968 116.74 95.1745C116.868 96.0313 116.732 96.8128 116.09 97.4452C115.914 97.5654 115.722 97.6191 115.509 97.5901C116.439 96.9717 116.694 96.0914 116.467 95.0328C116.389 94.6678 116.306 94.2996 116.179 93.9507C116.049 93.5889 116.001 93.2335 116.036 92.8513C116.181 91.2474 116.469 89.6671 116.808 88.0975C116.901 87.6692 116.775 87.6166 116.416 87.6445C116.082 87.6703 115.744 87.6445 115.408 87.652C115.212 87.6563 115.056 87.6209 115.019 87.3922C114.775 85.8634 114.243 84.3894 114.258 82.8102C114.362 71.6697 114.406 60.5292 114.289 49.3887C114.274 48.0146 114.331 46.6286 114.079 45.2694C113.373 41.4529 110.942 39.2091 107.467 37.9391C107.365 37.9015 107.24 37.8113 107.126 37.9326C107.251 38.0715 107.397 38.171 107.563 38.2311C109.291 38.8591 110.803 39.8135 112.002 41.2371C112.119 41.3756 112.343 41.4851 112.115 41.7642C110.676 43.5195 108.478 43.7095 106.78 42.2012C106.143 41.6343 105.513 41.0589 104.874 40.4942C104.783 40.4137 104.707 40.2387 104.532 40.3546C104.47 40.4985 104.585 40.5511 104.657 40.6166C105.397 41.2833 106.133 41.9521 106.88 42.6091C107.244 42.9291 107.663 43.1577 108.128 43.2941C109.686 43.7514 110.983 43.2844 112.068 42.1282C112.355 41.8222 112.496 41.8329 112.713 42.2044C113.397 43.3789 113.822 44.6328 113.925 45.9898C114.105 48.3452 114.077 50.7082 114.096 53.0668C114.177 63.1885 114.085 73.3091 114.023 83.4307C114.022 83.625 114.005 83.8236 113.961 84.0126C113.707 85.0883 113.426 86.1587 113.192 87.2387C113.118 87.5769 112.969 87.6617 112.651 87.6574C111.412 87.6423 110.174 87.667 108.936 87.6423C108.525 87.6338 108.401 87.725 108.428 88.1706C108.556 90.3478 108.643 92.5271 108.745 94.7054C108.651 94.6979 108.56 94.6839 108.499 94.597C108.381 91.9925 108.254 89.388 108.147 86.7824C107.975 82.588 107.815 78.3935 107.651 74.1991C107.463 69.3615 107.28 64.5251 107.093 59.6875C107.09 59.6167 107.075 59.5458 107.065 59.4761C107.364 59.4685 107.329 59.2528 107.321 59.0552C107.214 56.3262 107.104 53.5982 107 50.8692C106.992 50.6556 106.953 50.4892 106.726 50.4097C106.093 50.1896 105.464 49.9577 104.831 49.7377C104.745 49.7076 104.609 49.6378 104.569 49.7892C104.531 49.9341 104.677 49.9449 104.77 49.9803C105.299 50.1768 105.828 50.3721 106.358 50.5675C106.502 50.6212 106.705 50.6244 106.71 50.8306C106.733 51.5745 106.898 52.3185 106.721 53.0625C106.694 53.1087 106.666 53.1548 106.642 53.2021C101.976 62.9222 97.064 72.5178 92.2695 82.1725C91.2679 84.1897 90.0603 86.017 88.5584 87.6703C88.2961 87.9591 88.1102 88.0084 87.7671 87.8292C86.123 86.9671 84.465 86.1308 82.8123 85.2859C82.6073 85.1806 82.4405 85.0518 82.2876 85.4039C81.4803 87.2634 80.6455 89.1121 79.8202 90.964C79.7087 90.9822 79.6301 90.9425 79.5961 90.8298C85.6694 77.3232 91.7427 63.8165 97.816 50.3099C97.8309 50.2777 97.849 50.2465 97.8638 50.2143C98.1134 49.6443 98.5691 49.0678 98.5542 48.5041C98.5383 47.9169 98.0603 47.3447 97.799 46.7606C97.7088 46.5577 97.5845 46.3999 97.4156 46.2614C96.2866 45.3414 95.1193 44.4696 94.0614 43.4648C93.7704 43.1878 93.6694 43.4572 93.525 43.6011C91.8139 45.3113 90.1092 47.0269 88.3981 48.7371C88.0709 49.0635 87.7193 49.3651 87.3922 49.6915C85.9137 51.1666 84.2876 51.9095 82.1537 51.3469M82.1537 51.3469C81.1957 51.0839 80.6136 50.5074 80.3747 50.2766C79.9339 49.8504 79.6482 49.3157 79.4942 48.7145C79.2201 47.6463 79.3635 46.6136 79.8245 45.6377C80.2451 44.7455 80.7496 43.8105 80.7985 42.7809M102.501 26.1587C101.044 26.8931 99.662 27.7541 98.3386 28.7117C98.209 28.8062 98.0178 28.8577 98.1644 29.1186C98.7412 30.1471 98.9812 31.2904 99.1108 32.4413C99.2733 33.8788 99.5749 33.5095 98.1612 33.8423C98.0062 33.8788 97.8511 33.9175 97.6939 33.9389C96.9908 34.0334 96.516 34.2782 96.0359 34.9588C95.4039 35.8531 95.4135 36.5016 95.9244 37.3379C96.2473 37.8682 96.4969 38.4437 96.7847 38.9955C97.0014 39.412 97.2988 39.7631 97.6546 40.0658C98.721 40.9773 99.7916 41.8855 100.848 42.8088C101.074 43.0053 101.218 43.0461 101.463 42.8195C103.477 40.9644 105.509 39.1307 107.524 37.2767C107.967 36.8687 107.693 36.1773 108.044 35.7125C108.054 35.6996 107.915 35.5611 107.836 35.4903C107.44 35.1328 107.014 34.8053 106.651 34.4178C106.263 34.0034 105.884 33.8337 105.384 34.1966C105.286 34.2675 105.17 34.334 105.032 34.1912C105.139 33.9873 105.36 33.9432 105.541 33.8606C107.296 33.0651 109.05 32.2717 110.811 31.4912C111.075 31.3742 111.222 31.2292 111.3 30.9319C111.549 29.9656 111.839 29.0102 112.115 28.0515C112.174 27.8453 112.206 27.5791 112.4 27.4964C112.877 27.2935 112.902 26.8501 113.022 26.4551C113.156 26.0117 113.271 25.5629 113.399 25.1174C113.427 25.0175 113.465 24.8887 113.606 24.9499C113.711 24.9961 113.656 25.0981 113.632 25.1818C113.469 25.7647 113.328 26.3563 113.135 26.9296C113.042 27.2098 113.114 27.2946 113.371 27.3687C115.527 27.986 117.681 28.6076 119.831 29.2463C120.101 29.3269 120.2 29.2764 120.258 29.0123C120.531 27.7659 120.691 26.5184 120.497 25.2376C120.104 22.6439 118.314 21.0754 115.714 21.0904C114.461 21.0979 113.265 21.4146 112.107 21.8698C109.376 22.9423 106.715 24.178 104.031 25.3589C102.874 25.8678 102.492 26.7557 102.447 27.8904C102.389 29.3902 103.038 30.6549 103.831 31.8616C103.949 32.0409 104.149 32.1869 104.156 32.4606C102.725 31.7682 101.872 28.3435 102.579 26.2479C102.596 26.2124 102.613 26.177 102.63 26.1405C102.587 26.1459 102.546 26.1523 102.503 26.1577L102.501 26.1587ZM91.3827 33.7382C91.3784 33.4741 91.5654 33.3678 91.6875 33.2293C92.5914 32.1997 93.5122 31.1863 94.3556 30.1041C94.6211 29.7627 94.8325 29.3945 94.8335 28.9404C94.8357 28.3284 94.414 27.9903 93.8213 28.1148C93.422 28.1985 93.1171 28.4412 92.8325 28.7085C91.731 29.7423 90.6328 30.7794 89.542 31.824C88.9376 32.4027 88.9472 32.408 88.6179 31.6554C88.5553 31.5127 88.5351 31.328 88.3715 31.2561C87.4315 30.8417 86.756 30.1589 86.3609 29.1648C85.9318 29.5534 85.8404 29.986 85.9456 30.4702C86.1623 31.4633 86.4639 32.4338 86.8038 33.3893C86.9068 33.6802 86.8813 33.9121 86.7188 34.1848C85.7448 35.8198 84.8017 37.4753 83.8224 39.1071C83.611 39.4603 83.6259 39.6171 83.9987 39.8264C85.7576 40.813 87.4995 41.8319 89.2467 42.8399C90.0922 43.3273 90.1187 43.3402 90.5521 42.4406C91.747 39.9542 93.1437 37.617 95.1862 35.7286C95.4315 35.5021 95.6312 35.2197 95.8341 34.9502C96.0274 34.6937 96.1697 34.4059 96.2281 34.0828C96.3046 33.6598 96.2058 33.3216 95.7905 33.1037C95.3561 34.4092 94.2472 35.0844 93.3912 35.9873C93.3083 35.734 93.4814 35.6427 93.5919 35.5257C93.9966 35.1005 94.4129 34.6872 94.8187 34.2632C95.1426 33.9261 95.4082 33.5503 95.5016 33.0769C95.594 32.6077 95.3699 32.1568 94.9854 32.0183C94.8208 31.9593 94.6912 31.941 94.6063 32.1514C94.1952 33.1778 93.3731 33.8788 92.6413 34.6486C92.551 34.743 92.4575 34.9427 92.2547 34.772C92.3418 34.5176 92.568 34.3888 92.7348 34.2138C93.2478 33.6705 93.7842 33.1488 94.1718 32.5014C94.3641 32.1804 94.5393 31.8412 94.4352 31.4429C94.3832 31.2453 94.2781 31.065 94.0784 31.007C93.8851 30.9501 93.8245 31.1584 93.7289 31.2668C93.0916 31.985 92.466 32.714 91.8277 33.4322C91.7183 33.5557 91.6471 33.7511 91.3827 33.7393V33.7382ZM92.2908 39.7094C91.7172 40.7883 91.1777 41.8061 90.6349 42.8217C90.4618 43.1448 90.2366 43.439 90.4745 43.847C90.5861 44.0391 90.4512 44.2592 90.3375 44.446C90.0688 44.8883 89.7735 45.3124 89.4124 45.6838C89.2605 45.8395 89.132 45.9995 89.0736 46.2153C88.8027 47.2244 88.4565 48.1821 87.3667 48.5932C87.6397 48.0768 87.1862 47.9727 86.858 47.7848C85.2775 46.8787 83.6981 45.9737 82.1187 45.0655C81.1479 44.5079 80.4423 44.7573 80.0018 45.8137C79.0321 48.1413 79.8797 50.3442 82.0677 51.0539C83.8011 51.6164 85.3646 51.1795 86.6976 49.9824C89.0523 47.8664 91.2414 45.5743 93.4581 43.3134C93.5505 43.2189 93.6833 43.147 93.5685 42.9591C92.9695 41.9811 92.6902 40.871 92.2897 39.7083L92.2908 39.7094ZM87.3965 45.0429C87.6238 44.9356 87.7193 45.029 87.8245 45.0805C88.7811 45.5529 89.536 45.3213 90.089 44.3859C90.107 44.3548 90.123 44.3236 90.1421 44.2936C90.345 43.9747 90.2791 43.7149 89.9594 43.5303C87.799 42.2838 85.6354 41.0406 83.475 39.7942C83.1638 39.6149 82.9557 39.689 82.7825 40.0003C82.1686 41.104 81.5462 42.2033 80.9217 43.3016C80.7061 43.6806 80.7602 43.9833 81.1426 44.2045C83.2722 45.4337 85.4039 46.6608 87.5324 47.8922C87.8702 48.0876 88.107 47.9995 88.2525 47.6506C88.4437 47.1911 88.6158 46.7231 88.8112 46.2657C88.9206 46.0102 88.8282 45.8889 88.6052 45.7622C88.2175 45.5421 87.7767 45.4036 87.3965 45.0429V45.0429ZM118.126 31.576C118.607 31.5341 119.033 31.7435 119.472 31.8766C119.717 31.9507 119.867 31.9346 119.972 31.6769C120.147 31.2496 120.34 30.8288 120.531 30.409C120.733 29.9635 120.597 29.7112 120.132 29.577C117.826 28.9157 115.521 28.2468 113.219 27.5694C112.77 27.4374 112.501 27.5759 112.375 28.0235C112.031 29.2399 111.698 30.4595 111.337 31.6705C111.22 32.0634 111.363 32.2384 111.71 32.3382C114.083 33.0243 116.456 33.7103 118.824 34.407C119.198 34.5176 119.426 34.3877 119.504 34.0377C119.611 33.5514 119.668 33.0543 119.748 32.5615C119.788 32.306 119.687 32.1901 119.433 32.1096C118.989 31.9689 118.518 31.8852 118.126 31.5749V31.576ZM100.99 43.235C100.749 43.0343 100.562 42.87 100.367 42.7176C98.2037 41.0235 96.124 39.2606 95.2711 36.4736C95.1777 36.1677 95.0598 36.2342 94.8888 36.4253C94.2494 37.1403 93.5877 37.836 92.9568 38.5585C92.5818 38.988 92.3896 39.4593 92.6594 40.0594C92.8994 40.5919 93.0417 41.1673 93.235 41.7213C93.4804 42.4234 93.8543 43.0321 94.4427 43.5045C95.4517 44.315 96.4459 45.1438 97.4443 45.9683C97.6164 46.1111 97.7438 46.2045 97.9669 45.9952C98.9504 45.073 99.9562 44.1744 100.99 43.235V43.235ZM116.73 38.3846C116.5 38.3535 116.499 38.1431 116.424 37.9992C116.12 37.4216 115.709 37.1994 115.115 37.3991C114.227 37.6975 113.54 38.274 113.134 39.1415C112.954 39.5269 112.902 39.9574 113.236 40.2913C113.579 40.6348 114.003 40.5962 114.42 40.4147C114.904 40.2054 115.257 39.8296 115.625 39.4678C115.726 39.368 115.812 39.1297 115.989 39.251C116.173 39.3766 115.811 39.4764 115.918 39.6675C116.359 39.5151 116.547 39.8597 116.728 40.1496C116.93 40.4716 117.083 40.3943 117.287 40.17C117.67 39.7491 117.807 39.2306 117.805 38.6906C117.805 38.1989 117.901 37.7394 118.03 37.2735C118.229 36.5531 118.378 35.8166 118.604 35.1059C118.728 34.7173 118.635 34.5949 118.264 34.4908C116.464 33.9851 114.674 33.444 112.876 32.9319C112.44 32.8074 111.896 32.4392 111.588 32.6464C111.294 32.8439 111.275 33.4719 111.148 33.9142C111.023 34.3512 111.581 35.0351 112.035 35.0029C112.659 34.9578 113.157 35.1585 113.409 35.7672C113.502 35.9895 113.633 35.983 113.819 35.9712C114.396 35.9336 114.817 36.2149 115.053 36.7195C115.173 36.9761 115.278 37.0824 115.577 37.0995C116.235 37.1371 116.691 37.6803 116.727 38.3857L116.73 38.3846ZM96.5946 29.3387C96.7826 29.6199 96.7921 29.9044 96.7709 30.2008C96.7061 31.0746 96.5733 31.9378 96.3301 32.7763C96.2101 33.1907 96.4384 33.5106 96.5648 33.8337C96.6201 33.9744 97.0067 33.8166 97.2404 33.7693C97.7066 33.6759 98.1761 33.5943 98.6413 33.4956C98.8038 33.4612 98.9929 33.4537 98.961 33.1778C98.807 31.8465 98.601 30.5314 97.9998 29.3151C97.8968 29.1057 97.7587 29.0112 97.5133 28.9951C96.2154 28.906 95.1012 29.1884 94.4034 30.4305C94.295 30.6227 94.1538 30.7257 94.3981 30.9458C94.6031 31.1305 94.6987 31.1251 94.8983 30.9619C95.2265 30.6946 95.5696 30.4316 95.9424 30.2373C96.3163 30.0429 96.6657 29.8862 96.5946 29.3387V29.3387ZM106.292 33.7833C106.857 34.2889 107.386 34.7323 107.878 35.2133C108.13 35.4602 108.271 35.4827 108.538 35.2111C109.102 34.6368 109.739 34.144 110.606 34.1773C110.843 34.1869 110.86 34.0313 110.902 33.8874C111.11 33.1713 111.442 32.4596 110.947 31.693C109.458 32.3619 107.917 33.0532 106.292 33.7833V33.7833ZM112.214 35.2369C111.249 35.2337 109.861 36.5026 109.786 37.4667C109.775 37.6213 109.801 37.7899 109.852 37.9369C109.979 38.3105 110.289 38.4458 110.645 38.448C110.973 38.4501 111.235 38.3556 111.375 37.9724C111.649 37.223 112.211 36.7023 112.867 36.2826C113.281 36.0174 113.299 35.7737 112.905 35.4666C112.704 35.3099 112.476 35.2186 112.214 35.2358V35.2369ZM113.854 36.201C112.901 36.2106 111.508 37.5837 111.477 38.5467C111.474 38.6358 111.474 38.7271 111.493 38.813C111.578 39.2123 111.838 39.4163 112.23 39.4678C112.598 39.5172 112.79 39.368 112.939 39.0073C113.249 38.2526 113.86 37.7598 114.549 37.3679C114.987 37.1189 115.022 36.9632 114.689 36.5896C114.467 36.3395 114.201 36.1816 113.854 36.201V36.201ZM110.415 34.3952C109.431 34.6088 108.663 35.2111 108.144 36.1516C108.041 36.3395 107.983 36.5499 107.991 36.7678C108.009 37.2219 108.244 37.5258 108.683 37.5837C109.086 37.6374 109.477 37.631 109.637 37.0834C109.862 36.3083 110.424 35.7715 111.091 35.3765C111.496 35.136 111.403 34.9384 111.154 34.684C110.972 34.4972 110.741 34.4167 110.415 34.3941V34.3952ZM96.5139 30.2276C95.8128 30.5303 95.2881 30.9372 94.7964 31.3881C94.6594 31.5137 94.6211 31.6608 94.876 31.7252C95.3689 31.8487 95.6663 32.1654 95.7523 32.6743C95.7725 32.7924 95.8171 32.8707 95.9414 32.8911C96.1124 32.919 96.0837 32.773 96.106 32.6872C96.3057 31.9142 96.4671 31.1348 96.5149 30.2287L96.5139 30.2276ZM103.822 48.1724C103.893 47.9276 103.718 47.8525 103.615 47.7505C102.544 46.693 101.469 45.6388 100.39 44.5888C100.299 44.5008 100.191 44.286 100.062 44.416C99.8968 44.5845 100.139 44.6865 100.236 44.782C101.317 45.8556 102.406 46.9206 103.494 47.9877C103.58 48.0725 103.657 48.181 103.823 48.1735L103.822 48.1724ZM102.871 44.49C102.811 44.1068 102.629 43.8362 102.204 43.8158C101.812 43.7965 101.475 44.1207 101.504 44.5072C101.535 44.9195 101.784 45.1696 102.186 45.1685C102.59 45.1675 102.813 44.9044 102.871 44.489V44.49ZM89.4283 31.5202C89.2106 31.4933 89.0353 31.4085 88.825 31.4665C88.8686 31.6426 88.8845 31.8787 89.0438 31.9045C89.1989 31.9292 89.3253 31.736 89.4283 31.5202Z" fill="#151B3D"/>
<path d="M106.951 59.0337C104.896 63.1573 102.854 67.2873 100.787 71.4045C97.8247 77.3027 94.837 83.1891 91.8821 89.0916C91.6495 89.5564 91.4371 89.6198 91.0589 89.3331C90.6543 89.0261 90.41 89.1195 90.1073 89.5479C89.1311 90.9274 88.103 92.2704 87.078 93.6146C86.8359 93.9313 86.6426 94.2523 86.5576 94.6473C86.4514 95.1369 86.2697 95.6007 86.0318 96.0419C85.454 97.1123 84.7509 97.4912 83.5624 97.3721C83.3064 97.2862 83.0302 97.2432 82.8369 97.0253C83.0504 97.0081 83.2543 97.0521 83.4636 97.0983C84.4397 97.3109 85.1556 97.0081 85.6856 96.1525C85.8534 95.8819 86.0435 95.5932 86.0966 95.2904C86.3037 94.1063 87.0472 93.2474 87.7387 92.3477C88.4004 91.4867 89.0483 90.615 89.6813 89.7325C89.9129 89.4104 90.0446 89.0766 90.1327 88.6364C90.411 87.2493 90.6373 85.8204 91.2809 84.5332C95.1981 76.7004 99.1301 68.874 103.046 61.0412C104.303 58.5269 105.559 56.0115 106.724 53.4521C106.908 53.4811 106.862 53.6357 106.867 53.7442C106.933 55.3556 106.996 56.967 107.05 58.5785C107.056 58.7298 106.987 58.8834 106.953 59.0358L106.951 59.0337Z" fill="#151B3D"/>
<path d="M100.982 26.5486C100.004 27.1831 98.9747 27.7403 98.0591 28.4714C97.9316 28.5734 97.7915 28.6324 97.6183 28.6099C96.7718 28.495 95.9656 28.6302 95.1616 29.0919C95.1765 28.553 94.8058 28.1106 95.0819 27.5803C95.1903 27.372 95.2476 27.2131 95.5185 27.2346C95.6534 27.2453 95.7978 27.1949 95.9316 27.1541C96.4925 26.9812 96.8451 26.5937 96.9173 26.0139C96.9821 25.4965 96.7442 25.0714 96.3225 24.7772C95.8669 24.4605 95.4048 24.4766 94.9566 24.876C94.7442 24.3209 94.588 23.7906 94.3002 23.3171C93.836 22.5538 93.2391 21.9301 92.4181 21.5715C92.1111 21.4373 92.0771 21.3063 92.2312 21.024C92.9322 19.7335 95.0554 19.1141 96.1175 20.5495C96.1876 20.645 96.2386 20.7738 96.3894 20.7803C96.3586 20.266 95.767 19.711 95.0713 19.5403C93.9284 19.2612 92.5912 19.8302 92.0474 20.8973C91.8626 21.2591 91.6597 21.3375 91.323 21.2441C90.8674 21.1163 90.4117 21.2065 89.9561 21.2376C90.1005 20.1522 90.433 19.1581 91.2434 18.3733C92.964 16.7071 95.8732 17.128 97.0118 19.229C98.2248 21.4674 99.4197 23.7154 100.626 25.9581C100.736 26.161 100.864 26.3521 100.983 26.5497L100.982 26.5486ZM98.3799 24.366C98.4086 24.3188 98.4479 24.2823 98.4404 24.2619C98.143 23.4213 97.6406 22.6891 97.2211 21.9129C97.1903 21.856 97.1212 21.7937 97.0469 21.842C96.9216 21.9247 96.9927 22.0245 97.0437 22.1169C97.3496 22.6773 97.647 23.2409 97.9646 23.7949C98.0793 23.9956 98.108 24.2748 98.3809 24.366H98.3799Z" fill="#FFA098"/>
<path d="M108.523 94.4532C108.584 94.5401 108.675 94.553 108.769 94.5616C109.058 94.6915 109.353 94.8117 109.637 94.9524C110.274 95.2669 110.289 95.4022 109.731 95.8499C109.588 95.9647 109.476 96.0388 109.684 96.1977C110.4 96.7452 111.114 97.2949 111.82 97.8542C111.995 97.9927 112.158 97.9841 112.362 97.939C113.408 97.705 114.473 97.5923 115.534 97.4495C115.747 97.4785 115.939 97.4248 116.115 97.3046C116.196 97.4119 116.307 97.4452 116.435 97.4463C116.602 97.4484 116.75 97.4903 116.794 97.6792C116.839 97.8725 116.786 98.026 116.587 98.1001C116.53 97.8381 116.327 97.9004 116.162 97.9186C115.303 98.011 114.443 98.1119 113.585 98.2128C113.467 98.2268 113.281 98.2332 113.301 98.3781C113.328 98.5853 113.515 98.4909 113.646 98.4726C114.589 98.3352 115.532 98.1924 116.489 98.186C116.47 98.2729 116.451 98.3599 116.431 98.4458C116.231 99.2903 115.696 99.7126 114.826 99.7126C113.942 99.7126 113.057 99.7019 112.174 99.718C111.849 99.7244 111.658 99.6525 111.707 99.2789C111.759 98.887 111.596 98.828 111.247 98.9396C110.795 99.0835 110.3 99.1135 109.869 99.3003C108.807 99.7588 107.702 99.7255 106.59 99.7158C105.299 99.7051 104.009 99.7104 102.718 99.7158C102.486 99.7158 102.283 99.6675 102.198 99.4367C102.122 99.2284 102.233 99.0974 102.44 99.047C102.476 99.1747 102.577 99.1994 102.688 99.1994C103.708 99.1973 104.73 99.1951 105.751 99.1887C105.823 99.1887 105.881 99.1457 105.848 98.9761H102.471C102.462 98.04 102.784 97.4849 103.48 97.2348C104.008 97.8435 104.665 97.8897 105.362 97.6374C106.592 97.1918 107.814 96.7227 109.033 96.2503C109.157 96.202 109.431 96.1977 109.345 95.9873C109.269 95.8005 109.067 95.9637 108.931 96.0141C107.721 96.465 106.516 96.9267 105.306 97.3743C104.745 97.5815 104.2 97.5912 103.732 97.1349C104.359 96.6862 105.113 96.4532 105.708 95.9401C106.123 95.5836 106.596 95.3002 107.018 94.9524C107.464 94.5852 107.909 94.2706 108.525 94.4564L108.523 94.4532ZM106.621 99.091C107.093 99.2402 107.431 99.2155 107.767 99.091C107.425 98.9267 107.086 98.9031 106.621 99.091Z" fill="#FE5C4F"/>
<path d="M82.836 97.0243C83.0304 97.2423 83.3065 97.2852 83.5614 97.3711C83.7069 97.6857 84.0383 97.7737 84.2837 97.9626C84.4345 98.0796 84.5694 98.1892 84.5174 98.3921C84.4642 98.6014 84.3262 98.7206 84.0925 98.6744C84.1732 98.4629 84.0128 98.391 83.8822 98.303C83.1483 97.8048 82.3835 97.3582 81.6007 96.9427C81.5051 96.8923 81.3607 96.7484 81.2789 96.9009C81.1748 97.0941 81.3989 97.1231 81.5051 97.18C82.3655 97.6395 83.1897 98.158 84.0107 98.6851C83.8567 98.8043 83.7006 98.9213 83.5497 99.0448C83.0166 99.4792 82.4681 99.4803 81.9045 99.048C81.1451 98.4651 80.4005 97.8628 79.6209 97.3088C79.3129 97.0898 79.2491 96.8966 79.486 96.6228C79.7176 96.3555 79.6018 96.2234 79.3373 96.1139C78.9454 95.9518 78.5673 95.7468 78.1636 95.6233C77.1366 95.3088 76.2369 94.7945 75.401 94.1106C74.3315 93.2357 73.2024 92.4359 72.1041 91.5963C71.9246 91.4589 71.7196 91.3075 71.8036 91.0241C71.8673 90.8094 72.0404 90.7836 72.2305 90.8051C72.2836 91.1669 72.8455 91.6404 73.4127 91.737C73.0792 91.2979 72.649 91.0896 72.2996 90.7922C72.6628 90.1202 73.2959 89.8464 74.1265 90.001C74.1413 90.774 74.6214 91.1927 75.264 91.4396C75.7887 91.6414 76.34 91.7746 76.8795 91.9356C77.6729 92.1718 78.4664 92.408 79.2608 92.6399C79.3522 92.6667 79.4818 92.759 79.538 92.6205C79.6113 92.4391 79.4372 92.4359 79.3299 92.3972C79.23 92.3618 79.1291 92.3307 79.0282 92.2995C77.8641 91.9517 76.7021 91.5963 75.5348 91.2592C74.9029 91.0767 74.4876 90.6978 74.3378 90.0418C75.8716 90.3929 77.4286 90.3961 78.9868 90.3628C79.2789 90.3564 79.4244 90.5485 79.6209 90.6849C79.6559 90.7976 79.7335 90.8373 79.845 90.8191C79.8939 91.2871 80.2762 91.5781 80.4494 91.985C80.7022 92.5797 80.6554 92.7053 80.0086 92.7214C79.7059 92.729 79.6538 92.8106 79.7388 93.0961C79.9353 93.7585 80.135 94.4231 80.2699 95.0994C80.3793 95.648 80.666 96.0034 81.1684 96.1719C81.7685 96.3737 82.2539 96.7903 82.8339 97.0254L82.836 97.0243ZM77.0803 94.7473L77.2332 94.539C76.1679 93.7295 75.1026 92.919 74.0372 92.1095L73.8875 92.3124C74.9517 93.124 76.016 93.9357 77.0803 94.7473V94.7473Z" fill="#FE5C4F"/>
<path d="M89.5373 21.3601C89.5999 21.563 89.7401 21.5566 89.9154 21.5255C92.2978 21.1078 94.028 22.5894 94.6175 24.7247C94.6823 24.9609 94.6865 25.2196 94.8586 25.4172C94.3891 25.7994 94.0259 25.6813 93.7879 24.9888C93.653 24.597 93.4629 24.4585 93.0636 24.4885C92.3594 24.5411 91.652 24.5401 90.9467 24.5862C90.6525 24.6055 90.4273 24.5583 90.302 24.0634C90.3073 24.8965 89.7996 24.6946 89.5011 24.685C88.5569 24.656 89.2356 23.7778 88.8819 23.4021C88.7035 23.7231 88.6005 24.0634 88.5622 24.4177C88.5282 24.7301 88.4061 24.8761 88.0715 24.9169C87.585 24.977 87.1071 25.1166 86.6259 25.2228C86.5378 25.2465 86.4496 25.2701 86.3615 25.2937C86.1204 25.3409 85.8686 25.356 85.6413 25.4408C85.2579 25.5846 85.174 25.429 85.1198 25.0704C84.8681 23.4042 85.9748 21.5684 87.4215 21.3054C87.5914 21.2742 87.7826 21.2463 87.9419 21.2925C88.4719 21.4428 88.9966 21.5169 89.5351 21.358L89.5373 21.3601Z" fill="#FFA098"/>
<path d="M106.95 59.0337C106.984 58.8813 107.053 58.7278 107.048 58.5764C106.995 56.965 106.931 55.3535 106.864 53.7421C106.86 53.6337 106.905 53.4791 106.722 53.4501C106.692 53.2708 106.933 53.1044 106.745 52.9176C106.922 52.1725 106.756 51.4296 106.734 50.6856C106.728 50.4795 106.525 50.4763 106.382 50.4226C105.852 50.2272 105.323 50.0318 104.794 49.8354C104.7 49.801 104.555 49.7903 104.593 49.6443C104.632 49.4929 104.768 49.5627 104.856 49.5927C105.489 49.8128 106.117 50.0447 106.75 50.2648C106.977 50.3432 107.016 50.5106 107.024 50.7243C107.129 53.4533 107.238 56.1813 107.345 58.9103C107.353 59.1078 107.388 59.3236 107.089 59.3311C107.042 59.2324 106.997 59.1325 106.95 59.0337V59.0337Z" fill="#E3E2E3"/>
<path d="M103.73 97.1305C104.199 97.5879 104.744 97.5782 105.304 97.3699C106.515 96.9223 107.721 96.4606 108.929 96.0097C109.065 95.9593 109.267 95.7961 109.344 95.9829C109.43 96.1933 109.156 96.1976 109.031 96.2459C107.811 96.7183 106.59 97.1864 105.361 97.633C104.665 97.8852 104.006 97.8391 103.479 97.2304C103.528 97.1112 103.63 97.1252 103.729 97.1305H103.73Z" fill="#3E3A43"/>
<path d="M74.3403 90.0408C74.49 90.6968 74.9053 91.0757 75.5373 91.2582C76.7046 91.5953 77.8666 91.9496 79.0307 92.2985C79.1316 92.3286 79.2335 92.3597 79.3323 92.3962C79.4396 92.4349 79.6138 92.4381 79.5405 92.6195C79.4842 92.7569 79.3546 92.6646 79.2633 92.6388C78.4688 92.408 77.6754 92.1718 76.882 91.9346C76.3424 91.7735 75.7912 91.6404 75.2665 91.4386C74.6239 91.1917 74.1438 90.774 74.1289 90C74.199 90.014 74.2702 90.0279 74.3403 90.0419V90.0408Z" fill="#3E3A43"/>
<path d="M116.49 98.1825C115.534 98.189 114.591 98.3318 113.646 98.4692C113.515 98.4885 113.329 98.583 113.301 98.3747C113.282 98.2298 113.467 98.2233 113.586 98.2094C114.444 98.1085 115.303 98.0075 116.163 97.9152C116.327 97.898 116.531 97.8347 116.587 98.0966C116.555 98.1246 116.523 98.1535 116.49 98.1815V98.1825Z" fill="#3E3A43"/>
<path d="M84.0111 98.6849C83.19 98.1589 82.3658 97.6403 81.5055 97.1798C81.3993 97.1229 81.1741 97.0939 81.2792 96.9007C81.361 96.7493 81.5044 96.8921 81.6011 96.9425C82.3839 97.358 83.1486 97.8046 83.8826 98.3027C84.0132 98.3919 84.1736 98.4627 84.0929 98.6742C84.0652 98.6763 84.0376 98.6796 84.0111 98.6839V98.6849Z" fill="#3E3A43"/>
<path d="M102.47 98.9717H105.847C105.881 99.1413 105.822 99.1832 105.75 99.1842C104.729 99.1907 103.708 99.1928 102.687 99.195C102.578 99.195 102.476 99.1703 102.439 99.0425C102.456 99.0221 102.466 98.9985 102.469 98.9728L102.47 98.9717Z" fill="#2C2832"/>
<path d="M72.3005 90.791C72.6499 91.0884 73.0801 91.2967 73.4136 91.7358C72.8464 91.6391 72.2846 91.1657 72.2314 90.8039C72.2559 90.805 72.2782 90.8007 72.3005 90.791Z" fill="#3E3A43"/>
<path d="M102.603 26.1004C101.896 28.196 102.748 31.6207 104.18 32.3132C104.173 32.0394 103.973 31.8945 103.855 31.7141C103.062 30.5075 102.412 29.2428 102.471 27.743C102.516 26.6082 102.898 25.7204 104.055 25.2115C106.74 24.0306 109.4 22.7938 112.131 21.7224C113.29 21.2672 114.486 20.9505 115.738 20.943C118.338 20.9279 120.128 22.4964 120.521 25.0902C120.715 26.3699 120.554 27.6185 120.282 28.8649C120.225 29.129 120.125 29.1794 119.855 29.0989C117.705 28.4601 115.551 27.8385 113.395 27.2212C113.138 27.1482 113.066 27.0624 113.159 26.7821C113.352 26.2089 113.493 25.6173 113.656 25.0344C113.68 24.9506 113.735 24.8476 113.63 24.8025C113.489 24.7413 113.451 24.869 113.423 24.97C113.295 25.4155 113.18 25.8642 113.046 26.3076C112.926 26.7027 112.901 27.1472 112.424 27.349C112.23 27.4317 112.198 27.6979 112.139 27.904C111.864 28.8638 111.574 29.8182 111.324 30.7844C111.247 31.0818 111.1 31.2267 110.835 31.3438C109.074 32.1243 107.319 32.9176 105.565 33.7131C105.384 33.7958 105.164 33.8398 105.056 34.0438C105.194 34.1866 105.309 34.12 105.408 34.0492C105.908 33.6874 106.288 33.857 106.675 34.2703C107.038 34.659 107.464 34.9864 107.86 35.3428C107.939 35.4137 108.078 35.5522 108.069 35.5651C107.717 36.0299 107.991 36.7213 107.548 37.1293C105.534 38.9833 103.501 40.817 101.487 42.6721C101.242 42.8986 101.098 42.8578 100.873 42.6614C99.8157 41.7381 98.7451 40.8309 97.6787 39.9184C97.3239 39.6146 97.0265 39.2635 96.8088 38.848C96.5209 38.2962 96.2713 37.7208 95.9484 37.1905C95.4386 36.3531 95.428 35.7046 96.06 34.8114C96.5411 34.1318 97.0148 33.886 97.718 33.7915C97.8752 33.77 98.0302 33.7314 98.1853 33.6949C99.599 33.3621 99.2974 33.7325 99.1349 32.2939C99.0053 31.143 98.7652 29.9997 98.1885 28.9712C98.0419 28.7103 98.2331 28.6588 98.3627 28.5643C99.6861 27.6067 101.067 26.7456 102.525 26.0113C102.551 26.0414 102.575 26.0714 102.601 26.1004H102.603Z" fill="#FDFDFD"/>
<path d="M91.4091 33.59C91.6735 33.6018 91.7436 33.4064 91.8541 33.283C92.4924 32.5648 93.118 31.8358 93.7553 31.1176C93.852 31.0091 93.9125 30.8019 94.1048 30.8578C94.3045 30.9157 94.4107 31.0961 94.4616 31.2936C94.5657 31.693 94.3915 32.0312 94.1982 32.3522C93.8106 32.9995 93.2731 33.5224 92.7612 34.0645C92.5944 34.2406 92.3682 34.3684 92.2811 34.6228C92.4839 34.7935 92.5785 34.5949 92.6677 34.4993C93.3995 33.7296 94.2216 33.0285 94.6327 32.0022C94.7166 31.7918 94.8472 31.81 95.0118 31.8691C95.3953 32.0076 95.6194 32.4585 95.528 32.9276C95.4346 33.4011 95.169 33.7768 94.8451 34.1139C94.4393 34.538 94.023 34.9513 93.6183 35.3764C93.5068 35.4935 93.3337 35.5847 93.4176 35.8381C94.2736 34.9352 95.3825 34.2599 95.8169 32.9545C96.2322 33.1724 96.3299 33.5106 96.2545 33.9336C96.1961 34.2578 96.0538 34.5444 95.8605 34.801C95.6576 35.0705 95.4579 35.3518 95.2126 35.5793C93.1701 37.4678 91.7734 39.8049 90.5785 42.2913C90.1462 43.191 90.1186 43.1781 89.2731 42.6907C87.5259 41.6837 85.784 40.6649 84.0251 39.6772C83.6523 39.4678 83.6374 39.3111 83.8488 38.9579C84.8281 37.3261 85.7712 35.6706 86.7452 34.0355C86.9077 33.7629 86.9343 33.531 86.8302 33.24C86.4903 32.2835 86.1887 31.314 85.972 30.321C85.8658 29.8368 85.9571 29.4052 86.3873 29.0155C86.7824 30.0096 87.4579 30.6924 88.3979 31.1068C88.5615 31.1788 88.5817 31.3634 88.6443 31.5062C88.9736 32.2588 88.964 32.2534 89.5684 31.6748C90.6603 30.6302 91.7585 29.5931 92.8589 28.5592C93.1435 28.2919 93.4484 28.0493 93.8477 27.9656C94.4393 27.841 94.861 28.1792 94.8599 28.7911C94.8589 29.2453 94.6475 29.6135 94.382 29.9549C93.5386 31.0371 92.6178 32.0505 91.7139 33.0801C91.5918 33.2186 91.4059 33.3248 91.4091 33.5889V33.59Z" fill="#FCFCFC"/>
<path d="M115.536 97.4474C114.475 97.5902 113.409 97.7029 112.363 97.937C112.159 97.9821 111.997 97.9907 111.822 97.8522C111.114 97.2939 110.401 96.7432 109.686 96.1956C109.477 96.0368 109.589 95.9627 109.732 95.8478C110.291 95.4001 110.276 95.2648 109.639 94.9503C109.354 94.8097 109.061 94.6894 108.771 94.5595C108.669 92.3812 108.581 90.2019 108.454 88.0247C108.427 87.5791 108.55 87.4879 108.961 87.4965C110.2 87.5212 111.438 87.4965 112.677 87.5115C112.994 87.5158 113.143 87.4299 113.217 87.0928C113.453 86.0128 113.733 84.9435 113.986 83.8667C114.031 83.6788 114.048 83.4792 114.049 83.2848C114.11 73.1643 114.203 63.0426 114.122 52.9209C114.103 50.5623 114.131 48.1994 113.951 45.8439C113.848 44.4869 113.422 43.233 112.738 42.0585C112.523 41.6871 112.381 41.6763 112.093 41.9823C111.009 43.1385 109.712 43.6055 108.154 43.1482C107.689 43.0119 107.269 42.7821 106.906 42.4633C106.159 41.8062 105.422 41.1374 104.683 40.4707C104.611 40.4052 104.496 40.3526 104.558 40.2088C104.732 40.0928 104.808 40.2678 104.9 40.3483C105.539 40.913 106.169 41.4895 106.806 42.0553C108.503 43.5637 110.702 43.3736 112.14 41.6184C112.369 41.3392 112.144 41.2297 112.028 41.0912C110.83 39.6677 109.317 38.7133 107.589 38.0852C107.423 38.0251 107.277 37.9256 107.151 37.7868C107.266 37.6655 107.39 37.7556 107.492 37.7932C110.969 39.0632 113.399 41.307 114.105 45.1236C114.357 46.4838 114.3 47.8698 114.314 49.2429C114.431 60.3834 114.388 71.5238 114.284 82.6643C114.269 84.2435 114.801 85.7176 115.045 87.2463C115.082 87.475 115.237 87.5104 115.434 87.5061C115.77 87.4975 116.107 87.5244 116.442 87.4986C116.801 87.4707 116.926 87.5244 116.834 87.9517C116.495 89.5212 116.207 91.1015 116.062 92.7055C116.027 93.0876 116.074 93.443 116.205 93.8048C116.331 94.1548 116.414 94.5219 116.493 94.887C116.72 95.9455 116.464 96.8258 115.535 97.4442L115.536 97.4474Z" fill="#F9F9FA"/>
<path d="M106.747 52.9176C106.935 53.1044 106.694 53.2708 106.723 53.4501C105.557 56.0095 104.302 58.5249 103.045 61.0392C99.129 68.873 95.1981 76.6983 91.2798 84.5311C90.6362 85.8183 90.4099 87.2483 90.1317 88.6343C90.0435 89.0756 89.9118 89.4084 89.6803 89.7304C89.0472 90.6129 88.3993 91.4847 87.7376 92.3457C87.0461 93.2453 86.3016 94.1042 86.0955 95.2883C86.0424 95.5911 85.8523 95.8799 85.6845 96.1504C85.1545 97.006 84.4386 97.3099 83.4625 97.0962C83.2532 97.0501 83.0493 97.006 82.8358 97.0232C82.257 96.7881 81.7705 96.3716 81.1704 96.1697C80.668 96.0012 80.3812 95.6458 80.2718 95.0972C80.1369 94.4209 79.9373 93.7563 79.7408 93.0939C79.6558 92.8084 79.7078 92.7268 80.0105 92.7193C80.6584 92.7032 80.7052 92.5776 80.4513 91.9828C80.2782 91.5759 79.8958 91.285 79.847 90.8169C80.6723 88.965 81.5071 87.1174 82.3143 85.2579C82.4673 84.9058 82.633 85.0357 82.839 85.1398C84.4917 85.9847 86.1497 86.821 87.7939 87.6831C88.137 87.8624 88.3228 87.813 88.5852 87.5242C90.087 85.8709 91.2947 84.0437 92.2963 82.0265C97.0908 72.3718 102.003 62.7762 106.669 53.0561C106.693 53.0078 106.721 52.9627 106.748 52.9165L106.747 52.9176Z" fill="#FBFAFB"/>
<path d="M92.3178 39.5625C92.7183 40.7252 92.9987 41.8353 93.5967 42.8133C93.7114 43.0012 93.5786 43.0731 93.4862 43.1676C91.2695 45.4285 89.0804 47.7206 86.7257 49.8366C85.3927 51.0336 83.8292 51.4706 82.0958 50.908C79.9078 50.1984 79.0592 47.9954 80.03 45.6679C80.4704 44.6108 81.176 44.3614 82.1468 44.9196C83.7262 45.8268 85.3056 46.7329 86.8861 47.639C87.2143 47.8269 87.6678 47.931 87.3948 48.4474C88.4846 48.0352 88.8308 47.0775 89.1017 46.0694C89.1601 45.8536 89.2886 45.6937 89.4405 45.538C89.8016 45.1666 90.0969 44.7436 90.3656 44.3002C90.4793 44.1134 90.6142 43.8922 90.5026 43.7011C90.2647 43.2932 90.4899 42.999 90.663 42.6759C91.2058 41.6603 91.7453 40.6425 92.3189 39.5636L92.3178 39.5625Z" fill="#FCFCFC"/>
<path d="M87.4228 44.8956C87.803 45.2563 88.2438 45.3948 88.6315 45.6149C88.8535 45.7405 88.947 45.8618 88.8376 46.1184C88.6421 46.5758 88.4701 47.0438 88.2789 47.5033C88.1334 47.8522 87.8954 47.9403 87.5588 47.7449C85.4302 46.5135 83.2985 45.2875 81.1689 44.0572C80.7866 43.836 80.7324 43.5343 80.948 43.1543C81.5725 42.056 82.195 40.9577 82.8089 39.853C82.982 39.5406 83.1902 39.4665 83.5014 39.6469C85.6618 40.8944 87.8253 42.1365 89.9857 43.3829C90.3065 43.5676 90.3713 43.8274 90.1684 44.1463C90.1493 44.1763 90.1334 44.2085 90.1153 44.2386C89.5623 45.174 88.8075 45.4056 87.8508 44.9332C87.7457 44.8817 87.6501 44.7883 87.4228 44.8956V44.8956Z" fill="#FCFCFC"/>
<path d="M118.153 31.4286C118.545 31.7389 119.016 31.8226 119.46 31.9633C119.713 32.0438 119.815 32.1598 119.775 32.4153C119.696 32.908 119.638 33.4051 119.531 33.8914C119.453 34.2414 119.226 34.3713 118.851 34.2607C116.481 33.5629 114.109 32.878 111.737 32.192C111.388 32.091 111.246 31.916 111.364 31.5242C111.725 30.3132 112.059 29.0936 112.402 27.8773C112.528 27.4307 112.797 27.2911 113.246 27.4231C115.548 28.1006 117.851 28.7694 120.158 29.4307C120.625 29.5638 120.761 29.8172 120.558 30.2627C120.367 30.6836 120.175 31.1034 119.999 31.5306C119.894 31.7872 119.744 31.8044 119.499 31.7303C119.059 31.5972 118.634 31.3878 118.153 31.4297V31.4286Z" fill="#FCFCFC"/>
<path d="M101.017 43.0877C99.9834 44.0271 98.9786 44.9257 97.994 45.8479C97.7709 46.0572 97.6435 45.9627 97.4714 45.821C96.473 44.9965 95.4778 44.1688 94.4698 43.3572C93.8814 42.8848 93.5075 42.2761 93.2622 41.574C93.0689 41.02 92.9255 40.4435 92.6865 39.9121C92.4156 39.312 92.6079 38.8407 92.9839 38.4112C93.6148 37.6887 94.2765 36.993 94.9159 36.278C95.0869 36.0869 95.2048 36.0204 95.2983 36.3263C96.1512 39.1133 98.2309 40.8761 100.394 42.5702C100.59 42.7227 100.776 42.887 101.017 43.0877V43.0877Z" fill="#FCFCFC"/>
<path d="M86.6252 25.2261C87.1064 25.1198 87.5843 24.9802 88.0708 24.9201C88.4054 24.8793 88.5275 24.7333 88.5615 24.4209C88.5997 24.0655 88.7028 23.7252 88.8812 23.4053C89.2349 23.78 88.5562 24.6592 89.5004 24.6882C89.7989 24.6968 90.3066 24.8997 90.3013 24.0666C90.4266 24.5604 90.6507 24.6087 90.946 24.5894C91.6502 24.5433 92.3587 24.5443 93.0629 24.4917C93.4622 24.4617 93.6523 24.6002 93.7872 24.992C94.0262 25.6845 94.3895 25.8026 94.8579 25.4204C95.5026 24.6549 96.1059 24.6259 96.5222 25.3399C96.9248 26.0291 96.501 26.8837 95.6651 26.9406C95.1786 26.9738 94.8664 27.0629 94.8271 27.6072C94.8164 27.7479 94.7633 27.8907 94.5509 27.8005C93.8563 27.5074 93.3103 27.8338 92.8228 28.2761C91.903 29.1102 90.9906 29.9541 90.1048 30.8237C89.8286 31.0942 89.5642 31.1672 89.2105 31.0931C87.5981 30.7582 86.501 29.5311 86.5466 28.1C86.5477 28.0646 86.5371 28.0227 86.5519 27.9937C86.9842 27.0823 86.6401 26.1493 86.6263 25.2261H86.6252ZM88.8005 28.509C88.7399 28.7968 88.8005 29.0308 89.0735 29.1822C89.3422 29.3325 89.6077 29.326 89.8679 29.1714C90.1983 28.975 90.3448 28.6754 90.331 28.2911C90.6157 28.0721 91.0575 28.0045 91.1287 27.4591C90.8292 27.6545 90.5997 27.8037 90.3714 27.9519C90.1887 27.4161 89.9667 27.3174 89.5546 27.648C89.3995 27.7715 89.3284 27.7393 89.2009 27.6588C89.0246 27.5482 88.8175 27.5149 88.6656 27.6674C88.4967 27.8359 88.501 28.0463 88.6773 28.231C88.6295 28.3641 88.6879 28.4479 88.8005 28.508V28.509ZM89.9603 25.9185C90.4489 25.8648 90.5902 26.1128 90.6953 26.4671C90.7644 26.7001 91.0437 26.9502 91.1563 26.6024C91.2986 26.1611 91.5068 26.1687 91.835 26.2964C91.8382 26.0409 91.6598 26.0033 91.527 25.9357C91.0554 25.6931 90.6072 25.255 90.4574 24.8439C90.1526 25.1434 90.6242 25.7736 89.9603 25.9174V25.9185ZM88.8037 26.6249C88.6667 26.2953 88.4224 26.1826 88.194 26.1772C87.5631 26.1633 87.4176 25.8079 87.4696 25.2647C87.4707 25.2529 87.4165 25.2357 87.3666 25.21C87.048 25.4687 87.5514 26.1096 86.8663 26.2277C87.3602 26.2062 87.528 26.4628 87.6396 26.8482C87.7033 27.0705 88.0156 27.2304 88.0825 26.9223C88.1876 26.4413 88.45 26.5251 88.8037 26.6238V26.6249ZM95.4888 26.3039C95.6856 26.1586 95.9505 26.1021 96.2833 26.1343C96.0124 25.8906 95.9349 25.6308 96.1123 25.342C95.8191 25.2529 95.8382 25.5481 95.6821 25.604C95.5366 25.6555 95.3464 25.2529 95.2594 25.6362C95.2264 25.7822 95.6205 25.765 95.475 26.0269C95.4314 26.1053 95.3974 26.1858 95.4888 26.3039Z" fill="#FBFAFB"/>
<path d="M116.756 38.2374C116.72 37.5321 116.263 36.9878 115.606 36.9513C115.306 36.9341 115.202 36.8278 115.082 36.5712C114.845 36.0667 114.425 35.7854 113.848 35.823C113.661 35.8348 113.53 35.8412 113.438 35.619C113.184 35.0103 112.688 34.8095 112.064 34.8546C111.611 34.8868 111.053 34.2029 111.177 33.766C111.304 33.3237 111.321 32.6946 111.617 32.4981C111.925 32.292 112.467 32.6591 112.905 32.7837C114.703 33.2968 116.493 33.8379 118.293 34.3425C118.664 34.4466 118.757 34.569 118.633 34.9577C118.406 35.6684 118.257 36.4048 118.058 37.1252C117.93 37.5901 117.833 38.0506 117.834 38.5423C117.834 39.0823 117.697 39.6009 117.316 40.0217C117.112 40.2472 116.959 40.3234 116.757 40.0013C116.576 39.7114 116.387 39.3668 115.947 39.5193C115.84 39.3282 116.202 39.2283 116.018 39.1027C115.841 38.9814 115.755 39.2197 115.654 39.3196C115.287 39.6825 114.934 40.0571 114.449 40.2665C114.032 40.4479 113.608 40.4855 113.265 40.143C112.93 39.8091 112.982 39.3797 113.163 38.9932C113.569 38.1268 114.255 37.5503 115.144 37.2508C115.738 37.0511 116.149 37.2734 116.452 37.8509C116.528 37.9937 116.529 38.2052 116.758 38.2364L116.756 38.2374Z" fill="#FBFAFB"/>
<path d="M96.6214 29.1917C96.6926 29.7392 96.3432 29.897 95.9693 30.0903C95.5965 30.2835 95.2534 30.5476 94.9252 30.8149C94.7255 30.9781 94.6299 30.9835 94.4249 30.7988C94.1806 30.5787 94.3219 30.4757 94.4302 30.2835C95.1281 29.0414 96.2423 28.759 97.5402 28.8481C97.7855 28.8653 97.9236 28.9598 98.0266 29.1681C98.6278 30.3855 98.8339 31.7006 98.9879 33.0308C99.0197 33.3067 98.8307 33.3142 98.6682 33.3486C98.203 33.4463 97.7335 33.5289 97.2672 33.6223C97.0335 33.6696 96.6459 33.8274 96.5917 33.6867C96.4653 33.3636 96.2369 33.0426 96.357 32.6293C96.6002 31.7908 96.734 30.9266 96.7977 30.0538C96.82 29.7575 96.8094 29.473 96.6214 29.1917V29.1917Z" fill="#FBFAFB"/>
<path d="M106.319 33.6352C107.944 32.9051 109.485 32.2138 110.975 31.5449C111.47 32.3104 111.137 33.0222 110.929 33.7393C110.888 33.8832 110.87 34.0378 110.634 34.0292C109.767 33.9948 109.131 34.4887 108.566 35.063C108.298 35.3357 108.158 35.3132 107.905 35.0652C107.413 34.5842 106.884 34.1408 106.319 33.6352V33.6352Z" fill="#FBFAFB"/>
<path d="M112.241 35.0897C112.503 35.0715 112.731 35.1627 112.932 35.3195C113.326 35.6265 113.308 35.8702 112.893 36.1354C112.238 36.5551 111.675 37.0758 111.402 37.8252C111.262 38.2084 111 38.3029 110.671 38.3008C110.316 38.2986 110.007 38.1634 109.879 37.7897C109.829 37.6416 109.802 37.4741 109.813 37.3195C109.886 36.3544 111.276 35.0865 112.24 35.0897H112.241Z" fill="#F9F9FA"/>
<path d="M113.881 36.054C114.227 36.0336 114.494 36.1925 114.716 36.4416C115.048 36.8152 115.013 36.9708 114.576 37.2199C113.886 37.6118 113.277 38.1056 112.965 38.8593C112.817 39.22 112.624 39.3692 112.257 39.3198C111.865 39.2672 111.606 39.0643 111.52 38.6649C111.502 38.579 111.502 38.4867 111.504 38.3987C111.535 37.4357 112.927 36.0626 113.881 36.0529V36.054Z" fill="#F9F9FA"/>
<path d="M110.44 34.2471C110.766 34.2696 110.996 34.3501 111.179 34.5369C111.428 34.7903 111.523 34.9889 111.116 35.2294C110.449 35.6245 109.887 36.1613 109.662 36.9364C109.503 37.4839 109.112 37.4903 108.708 37.4367C108.269 37.3787 108.033 37.0738 108.016 36.6207C108.008 36.4017 108.066 36.1924 108.169 36.0045C108.687 35.0641 109.455 34.4618 110.44 34.2481V34.2471Z" fill="#F9F9FA"/>
<path d="M96.54 30.0792C96.4922 30.9864 96.3307 31.7658 96.131 32.5377C96.1087 32.6236 96.1374 32.7685 95.9664 32.7417C95.8421 32.7213 95.7975 32.644 95.7773 32.5248C95.6913 32.0159 95.3939 31.6992 94.9011 31.5758C94.6462 31.5124 94.6844 31.3653 94.8214 31.2387C95.3132 30.7878 95.8379 30.3809 96.5389 30.0781L96.54 30.0792Z" fill="#F9F9FA"/>
<path d="M103.848 48.0243C103.682 48.0318 103.605 47.9234 103.519 47.8386C102.43 46.7725 101.343 45.7065 100.26 44.6329C100.164 44.5373 99.9227 44.4353 100.087 44.2668C100.215 44.1369 100.324 44.3516 100.414 44.4396C101.494 45.4896 102.568 46.5438 103.64 47.6013C103.744 47.7033 103.918 47.7795 103.847 48.0232L103.848 48.0243Z" fill="#E3E2E3"/>
<path d="M102.896 44.3419C102.839 44.7563 102.616 45.0204 102.211 45.0215C101.81 45.0226 101.56 44.7724 101.529 44.3602C101.499 43.9737 101.837 43.6495 102.229 43.6688C102.654 43.6892 102.837 43.9597 102.896 44.343V44.3419ZM102.194 44.7585C102.446 44.7585 102.593 44.6189 102.611 44.3806C102.633 44.1133 102.483 43.9297 102.218 43.9211C101.953 43.9125 101.796 44.0875 101.8 44.3559C101.803 44.5964 101.941 44.7445 102.193 44.7585H102.194Z" fill="#E3E2E3"/>
<path d="M89.4539 31.3728C89.3498 31.5886 89.2245 31.7819 89.0694 31.7572C88.9111 31.7314 88.8941 31.4952 88.8506 31.3192C89.0609 31.2612 89.2361 31.346 89.4539 31.3728Z" fill="#E3E2E3"/>
<path d="M71.5731 59.6792C71.5688 59.7189 71.5646 59.7576 71.5604 59.7973C71.5285 59.7898 71.4977 59.7812 71.4658 59.7737L71.4722 59.7844C71.4594 59.7039 71.5126 59.6889 71.5731 59.6792Z" fill="#D8B0F1"/>
<path d="M102.527 26.0108C102.57 26.0055 102.611 25.999 102.654 25.9937C102.637 26.0291 102.62 26.0645 102.603 26.101C102.577 26.071 102.553 26.0409 102.527 26.0119V26.0108Z" fill="#FDFDFD"/>
<path d="M98.3789 24.366C98.1059 24.2747 98.0772 23.9956 97.9625 23.7949C97.646 23.242 97.3475 22.6773 97.0416 22.1169C96.9917 22.0245 96.9205 21.9247 97.0448 21.842C97.1192 21.7937 97.1882 21.856 97.219 21.9129C97.6396 22.6891 98.1409 23.4212 98.4383 24.2619C98.4458 24.2823 98.4065 24.3188 98.3778 24.366H98.3789Z" fill="#3E3A43"/>
<path d="M106.622 99.0911C107.088 98.9022 107.427 98.9269 107.768 99.0911C107.432 99.2167 107.094 99.2403 106.622 99.0911Z" fill="#2C2832"/>
<path d="M77.0785 94.7471C76.0143 93.9355 74.95 93.1239 73.8857 92.3123L74.0355 92.1094C75.1008 92.9188 76.1662 93.7294 77.2315 94.5389L77.0785 94.7471V94.7471Z" fill="#3E3A43"/>
<path d="M41.5052 48.1926C41.5534 47.6735 41.6089 47.1551 41.6464 46.635C41.6629 46.4049 41.7559 46.3212 41.9821 46.3497C42.3194 46.3913 42.6583 46.424 42.9975 46.4451C44.2474 46.5243 45.3428 45.5716 45.5249 44.2546C45.6904 43.0534 44.8296 41.8211 43.6318 41.5443C42.3994 41.2591 41.1076 41.9851 40.742 43.1687C40.6093 43.5971 40.3273 43.7906 39.8959 43.749C39.4627 43.7072 39.0295 43.6563 38.5959 43.6269C38.353 43.611 38.2611 43.5235 38.3005 43.2667C38.6644 40.8468 40.837 39.006 43.2181 39.1074C45.7292 39.2139 47.745 41.212 47.8881 43.7361C48.0178 46.024 46.4515 48.1459 44.21 48.6777C43.8972 48.7518 43.7756 48.87 43.7753 49.1819C43.775 49.4416 43.7207 49.7004 43.7113 49.9609C43.7022 50.2182 43.582 50.2852 43.3442 50.2581C42.7769 50.1935 42.2077 50.1411 41.6382 50.0928C41.4168 50.0739 41.3307 49.9854 41.3583 49.7505C41.4194 49.2327 41.4586 48.7127 41.5068 48.1936L41.5052 48.1926Z" fill="#72A1E5"/>
<path d="M42.1417 53.9861C41.407 53.9153 40.9189 53.3164 40.9912 52.5722C41.0633 51.8296 41.6553 51.3447 42.3959 51.422C43.1017 51.4958 43.5959 52.0994 43.5346 52.8133C43.4715 53.546 42.8667 54.0552 42.1417 53.9861V53.9861Z" fill="#72A1E5"/>
<path d="M89.96 25.9183C90.6238 25.7734 90.1522 25.1443 90.457 24.8447C90.6068 25.2559 91.055 25.6939 91.5266 25.9366C91.6594 26.0053 91.8378 26.0418 91.8346 26.2973C91.5054 26.1695 91.2983 26.162 91.1559 26.6032C91.0433 26.9511 90.764 26.6999 90.695 26.468C90.5898 26.1137 90.4485 25.8646 89.96 25.9194V25.9183Z" fill="#2C2832"/>
<path d="M88.8036 26.6234C88.4499 26.5246 88.1875 26.4409 88.0824 26.9218C88.0154 27.2299 87.7032 27.07 87.6395 26.8477C87.5279 26.4623 87.3601 26.2057 86.8662 26.2272C87.5513 26.1091 87.0478 25.4682 87.3665 25.2095C87.4164 25.2352 87.4706 25.2524 87.4695 25.2642C87.4175 25.8075 87.5619 26.1628 88.1939 26.1768C88.4222 26.1821 88.6665 26.2949 88.8036 26.6244V26.6234Z" fill="#2C2832"/>
<path d="M88.676 28.2317C88.4997 28.047 88.4965 27.8366 88.6643 27.6681C88.8172 27.5156 89.0243 27.5478 89.1996 27.6595C89.3271 27.74 89.3982 27.7722 89.5533 27.6488C89.9654 27.3192 90.1885 27.4179 90.3701 27.9526C89.8411 28.2661 89.258 28.251 88.6749 28.2317H88.676Z" fill="#FE5C4F"/>
<path d="M90.3312 28.292C90.3439 28.6753 90.1973 28.9748 89.8681 29.1723C89.6078 29.328 89.3423 29.3334 89.0736 29.1831C88.8017 29.0317 88.7401 28.7966 88.8006 28.5099C89.3296 28.5754 89.833 28.453 90.3312 28.2931V28.292Z" fill="#FE5C4F"/>
<path d="M90.3317 28.292C89.8335 28.4519 89.3301 28.5743 88.8011 28.5088C88.6885 28.4487 88.6301 28.365 88.6779 28.2319C89.261 28.2512 89.8431 28.2662 90.3731 27.9527C90.6014 27.8035 90.8309 27.6554 91.1304 27.46C91.0582 28.0053 90.6174 28.073 90.3327 28.292H90.3317Z" fill="#3E3A43"/>
<path d="M95.4883 26.3038C95.3981 26.1857 95.4321 26.1041 95.4745 26.0268C95.62 25.7659 95.2249 25.782 95.2589 25.636C95.3471 25.2527 95.5372 25.6553 95.6816 25.6038C95.8378 25.548 95.8187 25.2527 96.1118 25.3418C95.9344 25.6306 96.0109 25.8904 96.2828 26.1341C95.95 26.1019 95.6852 26.1585 95.4883 26.3038Z" fill="#3E3A43"/>
<path d="M102.193 44.7592C101.942 44.7441 101.804 44.596 101.801 44.3555C101.797 44.0882 101.954 43.9121 102.219 43.9207C102.484 43.9293 102.634 44.1129 102.612 44.3802C102.593 44.6185 102.446 44.7592 102.194 44.7581L102.193 44.7592Z" fill="#2C2832"/>
<path d="M68.3149 61.6382C68.2831 61.679 68.2501 61.7262 68.2034 61.6575C68.1992 61.651 68.2427 61.6135 68.265 61.5898C68.282 61.6059 68.299 61.6221 68.3149 61.6392V61.6382Z" fill="#D8B0F1"/>
<ellipse cx="129.644" cy="50.0242" rx="0.762071" ry="0.770278" fill="#72A1E5"/>
<ellipse cx="120.08" cy="10.8972" rx="0.762075" ry="0.770277" fill="#FE5953"/>
<path d="M64.3276 10.0117V10.7022H63.6443C63.4557 10.7022 63.3027 10.8569 63.3027 11.0475C63.3027 11.238 63.4557 11.3927 63.6443 11.3927H64.3276V12.0832C64.3276 12.2737 64.4806 12.4284 64.6691 12.4284C64.8577 12.4284 65.0107 12.2737 65.0107 12.0832V11.3927H65.6937C65.8822 11.3927 66.0352 11.238 66.0352 11.0475C66.0352 10.8569 65.8822 10.7022 65.6937 10.7022H65.0107V10.0117C65.0107 9.82117 64.8577 9.6665 64.6691 9.6665C64.4806 9.6665 64.3276 9.82117 64.3276 10.0117Z" fill="#FE9E22"/>
<path d="M58.5205 101.5V102.881H57.1537C56.7767 102.881 56.4707 103.19 56.4707 103.571C56.4707 103.953 56.7767 104.262 57.1537 104.262H58.5205V105.643C58.5205 106.024 58.8265 106.333 59.2035 106.333C59.5806 106.333 59.8866 106.024 59.8866 105.643V104.262H61.2526C61.6297 104.262 61.9357 103.953 61.9357 103.571C61.9357 103.19 61.6297 102.881 61.2526 102.881H59.8866V101.5C59.8866 101.119 59.5806 100.81 59.2035 100.81C58.8265 100.81 58.5205 101.119 58.5205 101.5Z" fill="#72A1E5"/>
<ellipse cx="22.7705" cy="16.5714" rx="1.36624" ry="1.38095" fill="#FE5953"/>
<ellipse cx="26.8688" cy="104.492" rx="0.910829" ry="0.920636" fill="#FE9E22"/>
<path d="M14.0057 56.1791C14.2181 56.9428 14.2124 57.6521 14.2841 58.3506C14.3047 58.5495 14.3019 58.7508 14.3153 58.9506C14.3339 59.2244 14.2713 59.4503 13.945 59.4419C13.6501 59.4345 13.5707 59.2207 13.594 58.9648C13.6577 58.2599 13.7246 57.555 13.8003 56.8518C13.8225 56.6458 13.8237 56.4293 14.0065 56.1791L14.0057 56.1791Z" fill="#FE9E22"/>
<path d="M13.9002 63.2741C13.7252 62.8705 13.727 62.4309 13.6811 62.0024C13.6352 61.5786 13.6038 61.1525 13.5813 60.7273C13.5682 60.4792 13.6892 60.31 13.9543 60.3092C14.1751 60.3089 14.3154 60.445 14.3036 60.6631C14.2577 61.5009 14.2078 62.3396 14.0209 63.1621C14.0085 63.2152 13.9849 63.2625 13.8994 63.2749L13.9002 63.2741Z" fill="#FE9F24"/>
<path d="M10.4942 59.9175C11.1232 59.6805 11.7758 59.6722 12.4207 59.6092C12.6464 59.5872 12.8737 59.5692 13.0993 59.5722C13.3152 59.5751 13.457 59.7015 13.4663 59.918C13.4755 60.1346 13.3384 60.3004 13.129 60.2879C12.2439 60.2352 11.3538 60.2026 10.4942 59.9175Z" fill="#FE9E22"/>
<path d="M17.2904 59.945C16.8644 60.1856 16.3931 60.1707 15.9391 60.2309C15.6085 60.2748 15.274 60.3002 14.9412 60.3063C14.7099 60.3106 14.556 60.1672 14.5598 59.9321C14.5634 59.7164 14.7093 59.5739 14.9244 59.5881C15.7185 59.6419 16.5168 59.6788 17.2904 59.945Z" fill="#FE9E22"/>
<path d="M127.4 89.7722C127.503 90.1413 127.5 90.4841 127.535 90.8216C127.545 90.9178 127.543 91.0151 127.55 91.1116C127.559 91.244 127.529 91.3531 127.371 91.3491C127.228 91.3455 127.19 91.2422 127.201 91.1185C127.232 90.7778 127.264 90.4372 127.301 90.0973C127.312 89.9977 127.312 89.8931 127.401 89.7722L127.4 89.7722Z" fill="#FE9E22"/>
<path d="M127.349 93.2008C127.265 93.0057 127.266 92.7932 127.243 92.5861C127.221 92.3813 127.206 92.1754 127.195 91.9698C127.189 91.85 127.247 91.7682 127.375 91.7678C127.482 91.7676 127.55 91.8334 127.544 91.9388C127.522 92.3438 127.498 92.7491 127.408 93.1466C127.402 93.1723 127.39 93.1952 127.349 93.2011L127.349 93.2008Z" fill="#FE9F24"/>
<path d="M125.702 91.5787C126.006 91.4642 126.322 91.4602 126.633 91.4297C126.742 91.4191 126.852 91.4104 126.961 91.4118C127.066 91.4132 127.134 91.4743 127.139 91.579C127.143 91.6836 127.077 91.7638 126.976 91.7577C126.548 91.7323 126.118 91.7165 125.702 91.5787Z" fill="#FE9E22"/>
<path d="M128.988 91.5915C128.782 91.7078 128.554 91.7006 128.335 91.7297C128.175 91.7509 128.013 91.7632 127.852 91.7662C127.741 91.7682 127.666 91.6989 127.668 91.5853C127.67 91.481 127.74 91.4122 127.844 91.419C128.228 91.445 128.614 91.4629 128.988 91.5915Z" fill="#FE9E22"/>
</svg>
