<svg viewBox="0 0 30 30" fill="none" xmlns="http://www.w3.org/2000/svg">
<path d="M15 16.25C15.3315 16.25 15.6495 16.1183 15.8839 15.8839C16.1183 15.6495 16.25 15.3315 16.25 15V10C16.25 9.66848 16.1183 9.35054 15.8839 9.11612C15.6495 8.88169 15.3315 8.75 15 8.75C14.6685 8.75 14.3505 8.88169 14.1161 9.11612C13.8817 9.35054 13.75 9.66848 13.75 10V15C13.75 15.3315 13.8817 15.6495 14.1161 15.8839C14.3505 16.1183 14.6685 16.25 15 16.25ZM14.525 21.15C14.8293 21.275 15.1707 21.275 15.475 21.15C15.6284 21.0905 15.7686 21.0013 15.8875 20.8875C15.9979 20.766 16.0867 20.6265 16.15 20.475C16.22 20.3267 16.2542 20.164 16.25 20C16.2509 19.8355 16.2194 19.6724 16.1572 19.5201C16.095 19.3678 16.0033 19.2293 15.8875 19.1125C15.766 19.0021 15.6265 18.9133 15.475 18.85C15.2856 18.7722 15.08 18.7421 14.8763 18.7624C14.6726 18.7826 14.477 18.8526 14.3066 18.9662C14.1363 19.0797 13.9964 19.2334 13.8994 19.4137C13.8023 19.5939 13.751 19.7953 13.75 20C13.7546 20.331 13.8841 20.648 14.1125 20.8875C14.2314 21.0013 14.3716 21.0905 14.525 21.15ZM15 27.5C17.4723 27.5 19.889 26.7669 21.9446 25.3934C24.0002 24.0199 25.6024 22.0676 26.5485 19.7835C27.4946 17.4995 27.7421 14.9861 27.2598 12.5614C26.7775 10.1366 25.587 7.90932 23.8388 6.16117C22.0907 4.41301 19.8634 3.2225 17.4386 2.74018C15.0139 2.25787 12.5005 2.50541 10.2164 3.4515C7.93237 4.3976 5.98014 5.99976 4.60663 8.05537C3.23311 10.111 2.5 12.5277 2.5 15C2.5 16.6415 2.82332 18.267 3.4515 19.7835C4.07968 21.3001 5.00043 22.6781 6.16116 23.8388C7.32189 24.9996 8.69988 25.9203 10.2164 26.5485C11.733 27.1767 13.3585 27.5 15 27.5ZM15 5C16.9778 5 18.9112 5.58649 20.5557 6.6853C22.2002 7.78412 23.4819 9.34591 24.2388 11.1732C24.9957 13.0004 25.1937 15.0111 24.8078 16.9509C24.422 18.8907 23.4696 20.6725 22.0711 22.0711C20.6725 23.4696 18.8907 24.422 16.9509 24.8079C15.0111 25.1937 13.0004 24.9957 11.1732 24.2388C9.3459 23.4819 7.78411 22.2002 6.6853 20.5557C5.58648 18.9112 5 16.9778 5 15C5 12.3478 6.05356 9.80429 7.92893 7.92893C9.80429 6.05357 12.3478 5 15 5Z" fill="#E58021"/>
</svg>
