<svg width="14" height="9" viewBox="0 0 14 9" fill="none" xmlns="http://www.w3.org/2000/svg">
<path d="M6.55822 7.98796L0.51711 2.05757C0.458386 2.00133 0.411762 1.9344 0.37995 1.86064C0.348138 1.78688 0.331766 1.70775 0.331766 1.62784C0.331766 1.54792 0.348138 1.46879 0.37995 1.39503C0.411762 1.32127 0.458386 1.25434 0.51711 1.1981L0.887101 0.840339C0.945266 0.783559 1.01449 0.738488 1.09077 0.707728C1.16706 0.676969 1.2489 0.661133 1.33156 0.661133C1.41421 0.661133 1.49604 0.676969 1.57232 0.707728C1.64861 0.738488 1.71783 0.783559 1.77599 0.840339L7.00377 5.99075L12.2316 0.844638C12.2897 0.787858 12.3589 0.742785 12.4352 0.712025C12.5115 0.681266 12.5933 0.66543 12.676 0.66543C12.7586 0.66543 12.8405 0.681266 12.9168 0.712025C12.9931 0.742785 13.0623 0.787858 13.1204 0.844638L13.4904 1.2024C13.5492 1.25863 13.5958 1.32557 13.6276 1.39933C13.6594 1.47309 13.6758 1.55222 13.6758 1.63213C13.6758 1.71205 13.6594 1.79118 13.6276 1.86494C13.5958 1.9387 13.5492 2.00563 13.4904 2.06187L7.45043 7.99333C7.39154 8.04972 7.32173 8.09433 7.24498 8.12459C7.16823 8.15485 7.08606 8.17017 7.00318 8.16968C6.9203 8.16918 6.83833 8.15287 6.76197 8.12168C6.68562 8.0905 6.61637 8.04506 6.55822 7.98796Z" fill="#999999"/>
</svg>
