<svg viewBox="0 0 219 24" fill="none" xmlns="http://www.w3.org/2000/svg">
<path d="M7.45987 16.5529C6.65423 15.2708 6.25141 13.6147 6.25141 11.5771C6.25141 9.53947 6.65423 7.79947 7.45987 6.54026C8.35071 5.12842 9.65987 4.41868 11.4028 4.41868C13.1458 4.41868 14.4549 5.12079 15.3458 6.54026C16.1514 7.79947 16.5542 9.47842 16.5542 11.5771C16.5542 13.6758 16.1514 15.2708 15.3458 16.5529C14.4317 18.0105 13.1225 18.7355 11.4028 18.7355C9.68311 18.7355 8.37395 18.0105 7.45987 16.5529ZM2.92817 3.06789C0.976057 5.10552 0 7.94447 0 11.5847C0 15.225 0.983804 18.0334 2.95141 20.0863C4.91902 22.1392 7.73099 23.1695 11.4028 23.1695C15.0747 23.1695 17.9021 22.1316 19.9007 20.0558C21.8296 18.0258 22.7979 15.2021 22.7979 11.5847C22.7979 7.96736 21.8218 5.11315 19.8697 3.06789C17.9099 1.02263 15.0902 0 11.3951 0C7.70001 0 4.88803 1.02263 2.92817 3.06789Z" fill="#231F20"/>
<path d="M29.4831 22.6812H35.5408V14.2406L43.8761 0.282471H37.6944L32.512 9.26485L27.3296 0.282471H21.0782L29.4831 14.2406V22.6812Z" fill="#231F20"/>
<path d="M54.024 13.6606H48.3226L51.2352 5.22011H51.2972L54.024 13.6606ZM38.9803 22.6735H45.1388L46.9282 17.8962H55.4648L57.1613 22.6735H63.8078L55.031 0.282471H47.6021L38.9726 22.6812" fill="#231F20"/>
<path d="M65.1478 22.6812H71.2056V12.5083H71.2753L78.3401 22.6812H86.0555L77.0077 10.7072L85.4048 0.282471H78.1077L71.2753 9.42511H71.2056V0.282471H65.1478V22.6812Z" fill="#231F20"/>
<path d="M172.235 7.14308C172.235 9.86756 169.571 9.73782 168.641 9.73782L166.224 9.71492V4.56361H169.021C169.594 4.56361 172.235 4.41098 172.235 7.13545V7.14308ZM178.2 6.28071C178.2 6.10519 178.208 5.96782 178.2 5.9144V5.89913C178.2 0.274658 171.74 0.274658 169.989 0.274658H160.461L160.399 22.6428H166.154V14.0115H168.618C170.748 14.0115 171.383 14.706 171.693 17.1939C172.003 19.6818 172.352 22.6657 172.352 22.6657H178.673C178.34 22.0628 178.037 20.0023 177.487 15.6752C176.937 11.3481 173.312 11.6991 173.049 11.6991C172.917 11.6991 172.871 11.722 172.855 11.6152C172.855 11.5923 172.855 11.5007 172.987 11.4931C173.118 11.4702 173.227 11.432 173.351 11.4091C174.606 11.2031 175.714 10.6536 176.558 9.87519C177.077 9.43256 177.441 8.92887 177.689 8.41755C177.929 7.9444 178.068 7.43308 178.138 6.89887C178.169 6.71571 178.185 6.55545 178.192 6.41808C178.192 6.38755 178.208 6.3494 178.208 6.31887C178.208 6.30361 178.208 6.29598 178.208 6.28071" fill="#E40520"/>
<path d="M98.4344 22.6812H104.492V14.2406L112.835 0.282471H106.653L101.463 9.26485L96.2886 0.282471H90.0372L98.4344 14.2406V22.6812Z" fill="#E40520"/>
<path d="M122.627 13.6606H116.925L119.838 5.22011H119.9L122.627 13.6606ZM107.583 22.6735H113.742L115.531 17.8962H124.068L125.764 22.6735H132.411L123.634 0.282471H116.205L107.575 22.6812" fill="#E40520"/>
<path d="M218.211 22.6811V0.282471H209.806L205.181 15.1717H205.119L200.711 0.282471H191.973V22.6811H197.396L197.287 6.34957L202.268 22.6964H203.059V22.6811H206.971V22.6964H207.761L212.873 6.16641L212.788 22.6811H218.211Z" fill="#E40520"/>
<path d="M135.261 22.7117H141.319V4.73931H147.748V0.312997L128.855 0.282471V4.70879L135.261 4.73931V22.7117Z" fill="#E40520"/>
<path d="M156.146 0.282471H150.088V22.6812H156.146V0.282471Z" fill="#E40520"/>
<path d="M187.535 0.282471H181.477V22.6812H187.535V0.282471Z" fill="#E40520"/>
</svg>
