<svg viewBox="0 0 24 24" fill="none" xmlns="http://www.w3.org/2000/svg">
<path d="M15.625 13.1992L11.85 9.42422C11.75 9.32422 11.6792 9.22422 11.6375 9.12422C11.5958 9.02422 11.575 8.92422 11.575 8.82422C11.575 8.70755 11.5958 8.60339 11.6375 8.51172C11.6792 8.42005 11.75 8.32422 11.85 8.22422L15.65 4.42422C15.8 4.27422 15.9875 4.19922 16.2125 4.19922C16.4375 4.19922 16.6333 4.28255 16.8 4.44922C16.9833 4.61589 17.075 4.81589 17.075 5.04922C17.075 5.28255 16.9833 5.48255 16.8 5.64922L14.5 7.97422H21.4C21.6333 7.97422 21.8333 8.05755 22 8.22422C22.1667 8.39089 22.25 8.59089 22.25 8.82422C22.25 9.07422 22.1667 9.27839 22 9.43672C21.8333 9.59505 21.6333 9.67422 21.4 9.67422H14.5L16.825 12.0242C16.9917 12.1742 17.075 12.3659 17.075 12.5992C17.075 12.8326 16.9833 13.0326 16.8 13.1992C16.6333 13.3659 16.4375 13.4492 16.2125 13.4492C15.9875 13.4492 15.7917 13.3659 15.625 13.1992ZM7.2 19.5492C7.36667 19.7159 7.5625 19.7992 7.7875 19.7992C8.0125 19.7992 8.20833 19.7159 8.375 19.5492L12.15 15.7742C12.25 15.6742 12.3208 15.5742 12.3625 15.4742C12.4042 15.3742 12.425 15.2742 12.425 15.1742C12.425 15.0576 12.4042 14.9534 12.3625 14.8617C12.3208 14.7701 12.25 14.6742 12.15 14.5742L8.35 10.7742C8.2 10.6242 8.0125 10.5492 7.7875 10.5492C7.5625 10.5492 7.36667 10.6326 7.2 10.7992C7.01667 10.9659 6.925 11.1659 6.925 11.3992C6.925 11.6326 7.01667 11.8326 7.2 11.9992L9.525 14.3242H2.6C2.36667 14.3242 2.16667 14.4076 2 14.5742C1.83333 14.7409 1.75 14.9409 1.75 15.1742C1.75 15.4242 1.83333 15.6284 2 15.7867C2.16667 15.9451 2.36667 16.0242 2.6 16.0242H9.525L7.175 18.3742C7.00833 18.5242 6.925 18.7159 6.925 18.9492C6.925 19.1826 7.01667 19.3826 7.2 19.5492Z"/>
</svg>
