<svg width="178" height="160" viewBox="0 0 178 160" fill="none" xmlns="http://www.w3.org/2000/svg">
<g clip-path="url(#clip0_2068_197583)">
<path d="M6.13245 159.594H90.7542C93.9145 159.594 96.4765 157.058 96.4765 153.929V70.1525C96.4763 67.0237 93.9143 64.4873 90.754 64.4873H6.13245C2.97212 64.4873 0.410156 67.0237 0.410156 70.1525V153.929C0.410156 157.058 2.97212 159.594 6.13245 159.594Z" fill="white"/>
<path d="M90.7538 160H6.13228C2.75097 160 0 157.276 0 153.929V70.1519C0 66.8044 2.75097 64.0811 6.13228 64.0811H90.7538C94.1351 64.0811 96.8861 66.8044 96.8861 70.1519V153.929C96.8861 157.276 94.1351 160 90.7538 160ZM6.13228 64.8928C3.20297 64.8928 0.81996 67.252 0.81996 70.1519V153.929C0.81996 156.829 3.20297 159.188 6.13228 159.188H90.7538C93.6831 159.188 96.0661 156.829 96.0661 153.929V70.1519C96.0661 67.252 93.6831 64.8928 90.7538 64.8928H6.13228Z" fill="#C4C4C4"/>
<path d="M7.47266 127.43H12.1874V142.499H7.47266V127.43Z" fill="#ECECEC"/>
<path d="M12.1873 142.906H7.47248C7.36375 142.906 7.25947 142.863 7.18258 142.787C7.10569 142.711 7.0625 142.608 7.0625 142.5V127.431C7.0625 127.323 7.10569 127.22 7.18258 127.144C7.25947 127.068 7.36375 127.025 7.47248 127.025H12.1873C12.296 127.025 12.4003 127.068 12.4771 127.144C12.554 127.22 12.5972 127.323 12.5972 127.431V142.5C12.5972 142.608 12.554 142.711 12.4771 142.787C12.4002 142.863 12.2959 142.906 12.1873 142.906ZM7.88246 142.094H11.7773V127.837H7.88246V142.094ZM27.6322 142.906H22.9175C22.8087 142.906 22.7044 142.863 22.6276 142.787C22.5507 142.711 22.5075 142.608 22.5075 142.5V112.168C22.5075 112.06 22.5507 111.957 22.6276 111.881C22.7044 111.805 22.8087 111.762 22.9175 111.762H27.6322C27.741 111.762 27.8452 111.805 27.9221 111.881C27.999 111.957 28.0422 112.06 28.0422 112.168V142.5C28.0422 142.608 27.999 142.711 27.9221 142.787C27.8452 142.863 27.741 142.906 27.6322 142.906ZM23.3274 142.094H27.2222V112.574H23.3274V142.094ZM38.3624 90.4307H43.0772V142.5H38.3624V90.4307Z" fill="#ECECEC"/>
<path d="M43.0779 142.905H38.3631C38.2544 142.905 38.1501 142.863 38.0732 142.787C37.9963 142.71 37.9531 142.607 37.9531 142.5V90.4303C37.9531 90.3227 37.9963 90.2194 38.0732 90.1433C38.1501 90.0672 38.2544 90.0244 38.3631 90.0244H43.0779C43.1866 90.0244 43.2909 90.0672 43.3678 90.1433C43.4447 90.2194 43.4879 90.3227 43.4879 90.4303V142.5C43.4879 142.607 43.4447 142.71 43.3678 142.787C43.2909 142.863 43.1866 142.905 43.0779 142.905ZM38.7731 142.094H42.6679V90.8362H38.7731V142.094ZM58.5226 142.905H53.8079C53.6991 142.905 53.5949 142.863 53.518 142.787C53.4411 142.71 53.3979 142.607 53.3979 142.5V90.4303C53.3979 90.3227 53.4411 90.2194 53.518 90.1433C53.5949 90.0672 53.6991 90.0244 53.8079 90.0244H58.5226C58.6314 90.0244 58.7357 90.0672 58.8125 90.1433C58.8894 90.2194 58.9326 90.3227 58.9326 90.4303V142.5C58.9326 142.607 58.8894 142.71 58.8125 142.787C58.7357 142.863 58.6314 142.905 58.5226 142.905ZM54.2179 142.094H58.1127V90.8362H54.2179V142.094ZM69.2528 112.168H73.9676V142.5H69.2528V112.168Z" fill="#ECECEC"/>
<path d="M73.9665 142.905H69.2518C69.143 142.905 69.0388 142.863 68.9619 142.787C68.885 142.71 68.8418 142.607 68.8418 142.5V112.168C68.8418 112.06 68.885 111.957 68.9619 111.881C69.0388 111.804 69.143 111.762 69.2518 111.762H73.9665C74.0753 111.762 74.1796 111.804 74.2564 111.881C74.3333 111.957 74.3765 112.06 74.3765 112.168V142.5C74.3765 142.607 74.3333 142.71 74.2564 142.787C74.1796 142.863 74.0753 142.905 73.9665 142.905ZM69.6618 142.094H73.5566V112.573H69.6618V142.094ZM89.4115 142.905H84.6967C84.588 142.905 84.4837 142.863 84.4068 142.787C84.33 142.71 84.2868 142.607 84.2868 142.5V127.43C84.2868 127.323 84.33 127.22 84.4068 127.143C84.4837 127.067 84.588 127.025 84.6967 127.025H89.4115C89.5203 127.025 89.6245 127.067 89.7014 127.143C89.7783 127.22 89.8215 127.323 89.8215 127.43V142.5C89.8214 142.607 89.7782 142.711 89.7013 142.787C89.6245 142.863 89.5202 142.905 89.4115 142.905ZM85.1067 142.094H89.0015V127.836H85.1067V142.094Z" fill="#ECECEC"/>
</g>
<g clip-path="url(#clip1_2068_197583)">
<path d="M87.2457 132.421H171.867C175.028 132.421 177.59 129.884 177.59 126.755V42.9786C177.59 39.8499 175.028 37.3135 171.867 37.3135H87.2457C84.0854 37.3135 81.5234 39.8499 81.5234 42.9786V126.756C81.5234 129.884 84.0854 132.421 87.2457 132.421Z" fill="white"/>
<path d="M171.867 132.826H87.2456C83.8642 132.826 81.1133 130.103 81.1133 126.755V42.9783C81.1133 39.6307 83.8642 36.9072 87.2456 36.9072H171.867C175.249 36.9072 178 39.6307 178 42.9783V126.755C177.999 130.103 175.248 132.826 171.867 132.826ZM87.2456 37.719C84.3163 37.719 81.9332 40.0782 81.9332 42.9783V126.755C81.9332 129.655 84.3163 132.014 87.2456 132.014H171.867C174.796 132.014 177.18 129.655 177.18 126.755V42.9783C177.179 40.0782 174.796 37.719 171.867 37.719H87.2456Z" fill="#C4C4C4"/>
<path d="M163.437 117.172C163.328 117.172 163.224 117.13 163.147 117.053C163.07 116.977 163.027 116.874 163.027 116.766V52.9664C163.027 52.8588 163.07 52.7555 163.147 52.6794C163.224 52.6033 163.328 52.5605 163.437 52.5605C163.546 52.5605 163.65 52.6033 163.727 52.6794C163.804 52.7555 163.847 52.8588 163.847 52.9664V116.766C163.847 116.874 163.804 116.977 163.727 117.053C163.65 117.13 163.546 117.172 163.437 117.172ZM146.497 117.172C146.388 117.172 146.284 117.13 146.207 117.053C146.13 116.977 146.087 116.874 146.087 116.766V52.9664C146.087 52.8588 146.13 52.7555 146.207 52.6794C146.284 52.6033 146.388 52.5605 146.497 52.5605C146.605 52.5605 146.71 52.6033 146.787 52.6794C146.864 52.7555 146.907 52.8588 146.907 52.9664V116.766C146.907 116.874 146.864 116.977 146.787 117.053C146.71 117.13 146.605 117.172 146.497 117.172ZM129.556 117.172C129.448 117.172 129.343 117.13 129.266 117.053C129.19 116.977 129.146 116.874 129.146 116.766V52.9664C129.146 52.8588 129.19 52.7555 129.266 52.6794C129.343 52.6033 129.448 52.5605 129.556 52.5605C129.665 52.5605 129.769 52.6033 129.846 52.6794C129.923 52.7555 129.966 52.8588 129.966 52.9664V116.766C129.966 116.874 129.923 116.977 129.846 117.053C129.769 117.13 129.665 117.172 129.556 117.172ZM112.616 117.172C112.507 117.172 112.403 117.13 112.326 117.053C112.249 116.977 112.206 116.874 112.206 116.766V52.9664C112.206 52.8588 112.249 52.7555 112.326 52.6794C112.403 52.6033 112.507 52.5605 112.616 52.5605C112.725 52.5605 112.829 52.6033 112.906 52.6794C112.983 52.7555 113.026 52.8588 113.026 52.9664V116.766C113.026 116.874 112.983 116.977 112.906 117.053C112.829 117.13 112.725 117.172 112.616 117.172ZM95.6756 117.172C95.5669 117.172 95.4626 117.13 95.3857 117.053C95.3088 116.977 95.2656 116.874 95.2656 116.766V52.9664C95.2656 52.8588 95.3088 52.7555 95.3857 52.6794C95.4626 52.6033 95.5669 52.5605 95.6756 52.5605C95.7843 52.5605 95.8886 52.6033 95.9655 52.6794C96.0424 52.7555 96.0856 52.8588 96.0856 52.9664V116.766C96.0856 116.874 96.0424 116.977 95.9655 117.053C95.8886 117.13 95.7843 117.172 95.6756 117.172Z" fill="#ECECEC"/>
<path d="M129.557 95.6275C124.959 95.6275 122.048 90.6501 119.48 86.2584C117.289 82.511 115.219 78.9715 112.57 78.9715C109.617 78.9715 107.178 80.5973 104.595 82.3186C101.917 84.1039 99.1472 85.9501 95.6765 85.9501C95.5406 85.9501 95.4103 85.8967 95.3142 85.8015C95.2181 85.7064 95.1641 85.5773 95.1641 85.4428C95.1641 85.3082 95.2181 85.1791 95.3142 85.084C95.4103 84.9889 95.5406 84.9354 95.6765 84.9354C98.8346 84.9354 101.472 83.1773 104.023 81.4768C106.62 79.7463 109.304 77.9568 112.57 77.9568C115.81 77.9568 118.024 81.7423 120.367 85.75C122.915 90.1072 125.55 94.6128 129.557 94.6128C133.261 94.6128 135.502 88.397 137.67 82.386C140.033 75.8326 142.265 69.6426 146.59 69.6426C150.811 69.6426 153.125 72.6423 155.363 75.5434C157.567 78.4004 159.648 81.0992 163.438 81.0992C163.574 81.0992 163.704 81.1526 163.8 81.2478C163.897 81.3429 163.951 81.472 163.951 81.6065C163.951 81.7411 163.897 81.8701 163.8 81.9653C163.704 82.0604 163.574 82.1139 163.438 82.1139C159.141 82.1139 156.806 79.0868 154.548 76.1593C152.366 73.3299 150.304 70.6573 146.59 70.6573C142.987 70.6573 140.775 76.7933 138.635 82.7274C136.348 89.0694 133.983 95.6275 129.557 95.6275Z" fill="#ECECEC"/>
<path d="M163.437 83.5245C164.507 83.5245 165.375 82.6658 165.375 81.6065C165.375 80.5472 164.507 79.6885 163.437 79.6885C162.367 79.6885 161.5 80.5472 161.5 81.6065C161.5 82.6658 162.367 83.5245 163.437 83.5245Z" fill="#DBDBDB"/>
<path d="M146.59 72.0685C147.66 72.0685 148.527 71.2097 148.527 70.1504C148.527 69.0911 147.66 68.2324 146.59 68.2324C145.52 68.2324 144.652 69.0911 144.652 70.1504C144.652 71.2097 145.52 72.0685 146.59 72.0685Z" fill="#DBDBDB"/>
<path d="M129.557 97.0382C130.626 97.0382 131.494 96.1795 131.494 95.1202C131.494 94.0609 130.626 93.2021 129.557 93.2021C128.487 93.2021 127.619 94.0609 127.619 95.1202C127.619 96.1795 128.487 97.0382 129.557 97.0382Z" fill="#DBDBDB"/>
<path d="M112.568 80.3829C113.638 80.3829 114.506 79.5242 114.506 78.4649C114.506 77.4056 113.638 76.5469 112.568 76.5469C111.498 76.5469 110.631 77.4056 110.631 78.4649C110.631 79.5242 111.498 80.3829 112.568 80.3829Z" fill="#DBDBDB"/>
<path d="M95.6756 87.3605C96.7456 87.3605 97.613 86.5017 97.613 85.4424C97.613 84.3831 96.7456 83.5244 95.6756 83.5244C94.6057 83.5244 93.7383 84.3831 93.7383 85.4424C93.7383 86.5017 94.6057 87.3605 95.6756 87.3605Z" fill="#DBDBDB"/>
</g>
<g clip-path="url(#clip2_2068_197583)">
<path d="M117.178 95.5134H32.5563C29.396 95.5134 26.834 92.977 26.834 89.8482V6.07142C26.834 2.94264 29.396 0.40625 32.5563 0.40625H117.178C120.338 0.40625 122.9 2.94264 122.9 6.07142V89.8484C122.9 92.977 120.338 95.5134 117.178 95.5134Z" fill="white"/>
<path d="M117.178 95.9189H32.5561C29.1748 95.9189 26.4238 93.1954 26.4238 89.8478V6.07106C26.4238 2.7235 29.1748 0 32.5561 0H117.178C120.559 0 123.31 2.7235 123.31 6.07106V89.848C123.31 93.1954 120.559 95.9189 117.178 95.9189ZM32.5561 0.811775C29.6268 0.811775 27.2438 3.17099 27.2438 6.07106V89.848C27.2438 92.7481 29.6268 95.1073 32.5561 95.1073H117.178C120.107 95.1073 122.49 92.7481 122.49 89.848V6.07106C122.49 3.17099 120.107 0.811775 117.178 0.811775H32.5561Z" fill="#C4C4C4"/>
<path d="M74.867 65.867C71.3641 65.867 67.9643 64.8732 65.0355 62.9927C63.0883 61.7426 62.5333 59.1664 63.7961 57.2385C65.0588 55.3109 67.661 54.7617 69.6084 56.0115C71.1724 57.0156 72.9909 57.5463 74.867 57.5463C78.1862 57.5463 81.2383 55.8909 83.0309 53.1181C84.0247 51.581 84.5501 49.7973 84.5501 47.9599C84.5501 42.6738 80.2061 38.3734 74.8668 38.3734C72.5459 38.3734 70.6645 36.5108 70.6645 34.2131C70.6645 31.9154 72.5459 30.0527 74.8668 30.0527C84.8404 30.0527 92.9547 38.0859 92.9547 47.9599C92.9547 51.3902 91.9707 54.7252 90.1094 57.6038C86.7644 62.778 81.0661 65.867 74.867 65.867Z" fill="#ECECEC"/>
<path d="M74.8678 76.6978C68.4495 76.6978 62.3661 74.6651 57.2749 70.8199C52.3505 67.1006 48.6947 61.8236 46.9811 55.961C46.336 53.754 47.6203 51.4469 49.8496 50.808C52.079 50.1692 54.4092 51.4408 55.0545 53.648C56.2711 57.8098 58.87 61.5588 62.3728 64.2045C65.987 66.9341 70.3078 68.3771 74.868 68.3771C86.2398 68.3771 95.4912 59.2178 95.4912 47.9597C95.4912 36.7016 86.2396 27.5424 74.868 27.5424C72.5471 27.5424 70.6657 25.6798 70.6657 23.382C70.6657 21.0843 72.5471 19.2217 74.868 19.2217C90.874 19.2217 103.896 32.1135 103.896 47.9597C103.896 63.806 90.8738 76.6978 74.8678 76.6978Z" fill="#DBDBDB"/>
<path d="M74.8664 87.5287C52.8279 87.5287 34.8984 69.778 34.8984 47.9596C34.8984 43.5303 35.6333 39.1792 37.0828 35.0278C37.8411 32.8563 40.2337 31.7036 42.4273 32.4549C44.6209 33.2054 45.7844 35.5743 45.0262 37.746C43.8827 41.0211 43.303 44.4572 43.303 47.9594C43.303 65.1897 57.4623 79.2078 74.8664 79.2078C92.2704 79.2078 106.43 65.1899 106.43 47.9594C106.43 30.7288 92.2704 16.7113 74.8664 16.7113C72.5455 16.7113 70.6641 14.8487 70.6641 12.551C70.6641 10.2532 72.5455 8.39062 74.8664 8.39062C96.9048 8.39062 114.835 26.1413 114.835 47.9598C114.835 69.7782 96.9048 87.5287 74.8664 87.5287Z" fill="#ECECEC"/>
</g>
<defs>
<clipPath id="clip0_2068_197583">
<rect width="96.8861" height="95.9189" fill="white" transform="translate(0 64.0811)"/>
</clipPath>
<clipPath id="clip1_2068_197583">
<rect width="96.8861" height="95.9189" fill="white" transform="translate(81.1133 36.9072)"/>
</clipPath>
<clipPath id="clip2_2068_197583">
<rect width="96.8861" height="95.9189" fill="white" transform="translate(26.4238)"/>
</clipPath>
</defs>
</svg>
