<svg width="36" height="37" viewBox="0 0 36 37" fill="none" xmlns="http://www.w3.org/2000/svg">
<path fill-rule="evenodd" clip-rule="evenodd" d="M28.2501 8.25048V8.3003V11.9158L30.492 13.7903L30.5817 13.862C31.1435 14.3112 31.6014 14.6772 31.9415 15.1467C32.2398 15.5584 32.4624 16.0208 32.5976 16.5119C32.7512 17.0698 32.7508 17.6558 32.7502 18.372L32.7501 18.5049V27.8991V27.9529C32.7502 28.7487 32.7502 29.4205 32.7053 29.971C32.6582 30.5485 32.5555 31.1018 32.2872 31.6284C31.8795 32.4286 31.2285 33.0786 30.4293 33.4858C29.903 33.754 29.3499 33.8568 28.7724 33.904C28.2209 33.9491 27.5477 33.9491 26.7499 33.9491H26.7497H26.7004H9.30044H9.25113H9.25097C8.45316 33.9491 7.77969 33.9491 7.22795 33.904C6.65032 33.8568 6.09686 33.7541 5.57035 33.4858C4.77032 33.0782 4.12065 32.4278 3.71337 31.6284C3.44513 31.102 3.34236 30.5487 3.29517 29.9711C3.25011 29.4196 3.25013 28.7464 3.25015 27.9488L3.25015 27.8989V18.5871L3.25007 18.4492C3.24947 17.7089 3.24898 17.1034 3.41216 16.5294C3.55556 16.025 3.79101 15.5511 4.10727 15.132C4.46623 14.6562 4.94936 14.2915 5.53872 13.8466L5.53872 13.8466L5.65124 13.7616C5.69141 13.7313 5.73337 13.7034 5.77691 13.678L7.75011 12.5309V8.3003V8.25108V8.25102V8.25102C7.75009 7.45312 7.75008 6.77959 7.79516 6.2278C7.84235 5.65018 7.94511 5.09672 8.21338 4.57021C8.62098 3.77025 9.27125 3.12055 10.0707 2.71322C10.5971 2.44499 11.1504 2.34222 11.7279 2.29503C12.2794 2.24997 12.9526 2.24998 13.7502 2.25H13.7502H13.8001L22.2001 2.25L22.2499 2.25H22.25C23.0476 2.24998 23.7208 2.24997 24.2723 2.29503C24.8498 2.34222 25.4031 2.44499 25.9295 2.71323C26.7289 3.12052 27.3793 3.7702 27.7869 4.57021C28.0552 5.09674 28.1579 5.65022 28.2051 6.22783C28.2501 6.77947 28.2501 7.4528 28.2501 8.25042V8.25048ZM10.2501 13.2244L10.2501 8.3003C10.2501 7.43962 10.2511 6.86909 10.2869 6.43137C10.3214 6.00817 10.3822 5.82042 10.4409 5.70519C10.6085 5.37617 10.8761 5.10866 11.2056 4.94074C11.3209 4.882 11.5086 4.82128 11.9315 4.78672C12.369 4.75097 12.9394 4.75 13.8001 4.75L22.2001 4.75C23.0608 4.75 23.6311 4.75097 24.0687 4.78672C24.4916 4.82128 24.6793 4.882 24.7946 4.94074C25.1242 5.10868 25.3918 5.37623 25.5594 5.70519C25.6181 5.8204 25.6788 6.00813 25.7134 6.43135C25.7491 6.86907 25.7501 7.4396 25.7501 8.3003V13.3262L25.7501 17.5495L23.5219 19.1091C23.6705 18.5985 23.7501 18.0585 23.7501 17.5C23.7501 14.3244 21.1758 11.75 18.0001 11.75C14.8245 11.75 12.2501 14.3244 12.2501 17.5C12.2501 18.0586 12.3298 18.5985 12.4783 19.1091L10.2501 17.5495V13.2733C10.2504 13.257 10.2504 13.2407 10.2501 13.2244ZM7.75011 15.4227L7.36446 15.6469L7.75011 15.9281V15.4227ZM28.2501 15.971L28.7453 15.5886L28.2501 15.1745V15.971ZM21.2501 17.5C21.2501 15.7051 19.795 14.25 18.0001 14.25C16.2052 14.25 14.7501 15.7051 14.7501 17.5C14.7501 19.2949 16.2052 20.75 18.0001 20.75C19.795 20.75 21.2501 19.2949 21.2501 17.5ZM19.1069 26.1885L30.2395 17.5934C30.2477 17.7868 30.2501 18.0665 30.2501 18.5049V27.8991C30.2501 28.7599 30.2493 29.3302 30.2136 29.7678C30.1791 30.1908 30.1184 30.3783 30.0597 30.4935C29.8922 30.8223 29.6241 31.0903 29.2943 31.2583C29.179 31.3171 28.9914 31.3778 28.5687 31.4123C28.1313 31.4481 27.5611 31.4491 26.7004 31.4491H9.30044C8.43976 31.4491 7.86923 31.4481 7.43152 31.4123C7.00832 31.3778 6.82056 31.317 6.70533 31.2583C6.37639 31.0907 6.10884 30.8231 5.94089 30.4935C5.88215 30.3782 5.82142 30.1905 5.78687 29.7676C5.75112 29.33 5.75015 28.7596 5.75015 27.8989V18.5871C5.75015 18.0779 5.75338 17.7756 5.76498 17.5746L17.6065 26.2091C18.0556 26.5365 18.667 26.5282 19.1069 26.1885Z" fill="#2C2C2C"/>
</svg>
