<svg viewBox="0 0 114 92" fill="none" xmlns="http://www.w3.org/2000/svg">
<g clip-path="url(#clip0_1011_4579)">
<path d="M88.5256 23.1387H28.26C26.1392 23.1387 24.4199 24.863 24.4199 26.99V71.5901C24.4199 73.7171 26.1392 75.4414 28.26 75.4414H88.5256C90.6464 75.4414 92.3657 73.7171 92.3657 71.5901V26.99C92.3657 24.863 90.6464 23.1387 88.5256 23.1387Z" fill="white"/>
<path d="M88.5257 75.5815H28.2601C26.066 75.5815 24.281 73.7913 24.281 71.5907V29.3191C24.281 29.2821 24.2956 29.2467 24.3217 29.2205C24.3478 29.1944 24.3831 29.1797 24.42 29.1797C24.4568 29.1797 24.4922 29.1944 24.5183 29.2205C24.5443 29.2467 24.559 29.2821 24.559 29.3191V71.5907C24.559 73.6375 26.2193 75.3028 28.2601 75.3028H88.5257C90.5665 75.3028 92.2268 73.6375 92.2268 71.5907V29.3191C92.2268 29.2821 92.2414 29.2467 92.2675 29.2205C92.2936 29.1944 92.3289 29.1797 92.3658 29.1797C92.4026 29.1797 92.438 29.1944 92.4641 29.2205C92.4901 29.2467 92.5048 29.2821 92.5048 29.3191V71.5907C92.5048 73.7913 90.7197 75.5815 88.5257 75.5815Z" fill="#151B3D"/>
<path d="M88.5256 23.1387H28.26C26.1392 23.1387 24.4199 24.863 24.4199 26.99V29.3185H92.3657V26.99C92.3657 24.863 90.6464 23.1387 88.5256 23.1387Z" fill="#FFC896"/>
<path d="M92.3658 29.4585H24.42C24.3831 29.4585 24.3478 29.4438 24.3217 29.4177C24.2956 29.3916 24.281 29.3561 24.281 29.3191V26.9907C24.281 24.7903 26.066 23 28.2601 23H88.5257C90.7198 23 92.5048 24.7903 92.5048 26.9907V29.3191C92.5048 29.3561 92.4901 29.3916 92.4641 29.4177C92.438 29.4438 92.4026 29.4585 92.3658 29.4585ZM24.559 29.1798H92.2268V26.9907C92.2268 24.9439 90.5665 23.2788 88.5257 23.2788H28.2601C26.2193 23.2788 24.559 24.9439 24.559 26.9907V29.1798Z" fill="#DE832E"/>
<path d="M30.9971 28.1646C30.9789 28.1646 30.9608 28.1611 30.9439 28.154C30.9271 28.147 30.9118 28.1367 30.8989 28.1238L27.8576 25.0736C27.8443 25.0608 27.8338 25.0454 27.8265 25.0284C27.8192 25.0114 27.8154 24.9931 27.8152 24.9746C27.815 24.9561 27.8185 24.9377 27.8255 24.9206C27.8325 24.9035 27.8428 24.8879 27.8559 24.8748C27.8689 24.8617 27.8845 24.8514 27.9015 24.8444C27.9186 24.8374 27.9369 24.8338 27.9554 24.834C27.9738 24.8342 27.9921 24.838 28.009 24.8453C28.026 24.8526 28.0413 24.8632 28.0541 24.8765L31.0953 27.9267C31.1148 27.9462 31.128 27.971 31.1334 27.9981C31.1387 28.0251 31.136 28.0531 31.1254 28.0786C31.1149 28.104 31.0971 28.1258 31.0743 28.1411C31.0514 28.1564 31.0246 28.1646 30.9971 28.1646Z" fill="#151B3D"/>
<path d="M27.9563 28.1646C27.9288 28.1646 27.902 28.1564 27.8791 28.1411C27.8563 28.1258 27.8385 28.104 27.828 28.0786C27.8174 28.0531 27.8147 28.0251 27.8201 27.9981C27.8254 27.971 27.8386 27.9462 27.8581 27.9267L30.8993 24.8765C30.9121 24.8632 30.9274 24.8526 30.9444 24.8453C30.9613 24.838 30.9796 24.8342 30.998 24.834C31.0165 24.8338 31.0348 24.8374 31.0519 24.8444C31.0689 24.8514 31.0845 24.8617 31.0975 24.8748C31.1106 24.8879 31.1209 24.9035 31.1279 24.9206C31.1349 24.9377 31.1384 24.9561 31.1382 24.9746C31.1381 24.9931 31.1342 25.0114 31.1269 25.0284C31.1197 25.0454 31.1091 25.0608 31.0958 25.0736L28.0546 28.1238C28.0417 28.1368 28.0264 28.147 28.0095 28.1541C27.9927 28.1611 27.9746 28.1647 27.9563 28.1646ZM47.0578 32.5883C47.0209 32.5883 46.9856 32.5736 46.9595 32.5474C46.9334 32.5213 46.9188 32.4859 46.9188 32.4489V29.4521C46.9188 29.4151 46.9334 29.3797 46.9595 29.3536C46.9856 29.3274 47.0209 29.3127 47.0578 29.3127C47.0946 29.3127 47.13 29.3274 47.1561 29.3536C47.1821 29.3797 47.1968 29.4151 47.1968 29.4521V32.4489C47.1968 32.4859 47.1821 32.5213 47.1561 32.5474C47.13 32.5736 47.0946 32.5883 47.0578 32.5883ZM47.0578 66.8715C47.0209 66.8715 46.9856 66.8568 46.9595 66.8306C46.9334 66.8045 46.9188 66.769 46.9188 66.7321V61.0182C46.9188 60.9812 46.9334 60.9458 46.9595 60.9197C46.9856 60.8935 47.0209 60.8788 47.0578 60.8788C47.0946 60.8788 47.13 60.8935 47.1561 60.9197C47.1821 60.9458 47.1968 60.9812 47.1968 61.0182V66.7321C47.1968 66.769 47.1821 66.8045 47.1561 66.8306C47.13 66.8568 47.0946 66.8715 47.0578 66.8715ZM47.0578 55.4437C47.0209 55.4437 46.9856 55.429 46.9595 55.4028C46.9334 55.3767 46.9188 55.3412 46.9188 55.3043V49.5904C46.9188 49.5534 46.9334 49.518 46.9595 49.4919C46.9856 49.4657 47.0209 49.451 47.0578 49.451C47.0946 49.451 47.13 49.4657 47.1561 49.4919C47.1821 49.518 47.1968 49.5534 47.1968 49.5904V55.3043C47.1968 55.3412 47.1821 55.3767 47.1561 55.4028C47.13 55.429 47.0946 55.4437 47.0578 55.4437ZM47.0578 44.0159C47.0209 44.0159 46.9856 44.0012 46.9595 43.9751C46.9334 43.949 46.9188 43.9135 46.9188 43.8765V38.1627C46.9188 38.1257 46.9334 38.0903 46.9595 38.0641C46.9856 38.038 47.0209 38.0233 47.0578 38.0233C47.0946 38.0233 47.13 38.038 47.1561 38.0641C47.1821 38.0903 47.1968 38.1257 47.1968 38.1627V43.8765C47.1968 43.9135 47.1821 43.949 47.1561 43.9751C47.13 44.0012 47.0946 44.0159 47.0578 44.0159ZM47.0578 75.5821C47.0209 75.5821 46.9856 75.5674 46.9595 75.5413C46.9334 75.5151 46.9188 75.4797 46.9188 75.4427V72.4459C46.9188 72.409 46.9334 72.3735 46.9595 72.3474C46.9856 72.3212 47.0209 72.3066 47.0578 72.3066C47.0946 72.3066 47.13 72.3212 47.1561 72.3474C47.1821 72.3735 47.1968 72.409 47.1968 72.4459V75.4427C47.1968 75.4797 47.1821 75.5151 47.1561 75.5413C47.13 75.5674 47.0946 75.5821 47.0578 75.5821ZM69.6418 32.5883C69.605 32.5883 69.5696 32.5736 69.5436 32.5474C69.5175 32.5213 69.5028 32.4859 69.5028 32.4489V29.4521C69.5028 29.4151 69.5175 29.3797 69.5436 29.3536C69.5696 29.3274 69.605 29.3127 69.6418 29.3127C69.6787 29.3127 69.714 29.3274 69.7401 29.3536C69.7662 29.3797 69.7808 29.4151 69.7808 29.4521V32.4489C69.7808 32.4859 69.7662 32.5213 69.7401 32.5474C69.714 32.5736 69.6787 32.5883 69.6418 32.5883ZM69.6418 66.8715C69.605 66.8715 69.5696 66.8568 69.5436 66.8306C69.5175 66.8045 69.5028 66.769 69.5028 66.7321V61.0182C69.5028 60.9812 69.5175 60.9458 69.5436 60.9197C69.5696 60.8935 69.605 60.8788 69.6418 60.8788C69.6787 60.8788 69.714 60.8935 69.7401 60.9197C69.7662 60.9458 69.7808 60.9812 69.7808 61.0182V66.7321C69.7808 66.769 69.7662 66.8045 69.7401 66.8306C69.714 66.8568 69.6787 66.8715 69.6418 66.8715ZM69.6418 55.4437C69.605 55.4437 69.5696 55.429 69.5436 55.4028C69.5175 55.3767 69.5028 55.3412 69.5028 55.3043V49.5904C69.5028 49.5534 69.5175 49.518 69.5436 49.4919C69.5696 49.4657 69.605 49.451 69.6418 49.451C69.6787 49.451 69.714 49.4657 69.7401 49.4919C69.7662 49.518 69.7808 49.5534 69.7808 49.5904V55.3043C69.7808 55.3412 69.7662 55.3767 69.7401 55.4028C69.714 55.429 69.6787 55.4437 69.6418 55.4437ZM69.6418 44.0159C69.605 44.0159 69.5696 44.0012 69.5436 43.9751C69.5175 43.949 69.5028 43.9135 69.5028 43.8765V38.1627C69.5028 38.1257 69.5175 38.0903 69.5436 38.0641C69.5696 38.038 69.605 38.0233 69.6418 38.0233C69.6787 38.0233 69.714 38.038 69.7401 38.0641C69.7662 38.0903 69.7808 38.1257 69.7808 38.1627V43.8765C69.7808 43.9135 69.7662 43.949 69.7401 43.9751C69.714 44.0012 69.6787 44.0159 69.6418 44.0159ZM69.6418 75.5821C69.605 75.5821 69.5696 75.5674 69.5436 75.5413C69.5175 75.5151 69.5028 75.4797 69.5028 75.4427V72.4459C69.5028 72.409 69.5175 72.3735 69.5436 72.3474C69.5696 72.3212 69.605 72.3066 69.6418 72.3066C69.6787 72.3066 69.714 72.3212 69.7401 72.3474C69.7662 72.3735 69.7808 72.409 69.7808 72.4459V75.4427C69.7808 75.4797 69.7662 75.5151 69.7401 75.5413C69.714 75.5674 69.6787 75.5821 69.6418 75.5821Z" fill="#151B3D"/>
</g>
<g clip-path="url(#clip1_1011_4579)">
<path d="M55.6556 66.3665L35.073 55.9033L24.4224 65.9459L24.4229 64.0031L34.8276 54.1922L54.8564 64.3739L69.5203 22.4178L87.2911 16.9395L87.9326 18.1996L70.6656 23.4204L55.6556 66.3665Z" fill="#151B3D"/>
<path d="M34.9504 57.4936C36.2977 57.4936 37.39 56.3989 37.39 55.0485C37.39 53.6982 36.2977 52.6035 34.9504 52.6035C33.603 52.6035 32.5107 53.6982 32.5107 55.0485C32.5107 56.3989 33.603 57.4936 34.9504 57.4936Z" fill="white"/>
<path d="M34.9503 57.6166C33.5374 57.6166 32.3879 56.4646 32.3879 55.0485C32.3879 53.6324 33.5374 52.4805 34.9503 52.4805C36.3632 52.4805 37.5127 53.6325 37.5127 55.0485C37.5127 56.4646 36.3632 57.6166 34.9503 57.6166ZM34.9503 52.7265C33.6728 52.7265 32.6334 53.7681 32.6334 55.0485C32.6334 56.3289 33.6728 57.3706 34.9503 57.3706C36.2278 57.3706 37.2672 56.3289 37.2672 55.0485C37.2672 53.7681 36.2278 52.7265 34.9503 52.7265Z" fill="#151B3D"/>
<path d="M70.0929 25.3647C71.4403 25.3647 72.5326 24.27 72.5326 22.9196C72.5326 21.5693 71.4403 20.4746 70.0929 20.4746C68.7456 20.4746 67.6533 21.5693 67.6533 22.9196C67.6533 24.27 68.7456 25.3647 70.0929 25.3647Z" fill="white"/>
<path d="M86.2873 20.3139C87.6346 20.3139 88.7269 19.2192 88.7269 17.8689C88.7269 16.5185 87.6346 15.4238 86.2873 15.4238C84.9399 15.4238 83.8477 16.5185 83.8477 17.8689C83.8477 19.2192 84.9399 20.3139 86.2873 20.3139Z" fill="white"/>
<path d="M70.0929 25.4877C68.68 25.4877 67.5305 24.3357 67.5305 22.9197C67.5305 21.5036 68.68 20.3516 70.0929 20.3516C71.5058 20.3516 72.6553 21.5036 72.6553 22.9197C72.6553 24.3358 71.5058 25.4877 70.0929 25.4877ZM70.0929 20.5976C68.8154 20.5976 67.776 21.6393 67.776 22.9197C67.776 24.2 68.8154 25.2417 70.0929 25.2417C71.3704 25.2417 72.4098 24.2 72.4098 22.9197C72.4098 21.6393 71.3704 20.5976 70.0929 20.5976Z" fill="#151B3D"/>
<path d="M86.2872 20.4369C84.8744 20.4369 83.7249 19.2849 83.7249 17.8689C83.7249 16.4528 84.8743 15.3008 86.2872 15.3008C87.7001 15.3008 88.8496 16.4528 88.8496 17.8689C88.8496 19.285 87.7001 20.4369 86.2872 20.4369ZM86.2872 15.5468C85.0097 15.5468 83.9703 16.5885 83.9703 17.8689C83.9703 19.1492 85.0097 20.1909 86.2872 20.1909C87.5647 20.1909 88.6041 19.1492 88.6041 17.8689C88.6041 16.5885 87.5647 15.5468 86.2872 15.5468Z" fill="#151B3D"/>
<path d="M55.256 67.8158C56.6034 67.8158 57.6956 66.7212 57.6956 65.3708C57.6956 64.0205 56.6034 62.9258 55.256 62.9258C53.9087 62.9258 52.8164 64.0205 52.8164 65.3708C52.8164 66.7212 53.9087 67.8158 55.256 67.8158Z" fill="white"/>
<path d="M55.256 67.9389C53.8431 67.9389 52.6936 66.7869 52.6936 65.3708C52.6936 63.9548 53.8431 62.8027 55.256 62.8027C56.6689 62.8027 57.8183 63.9547 57.8183 65.3708C57.8183 66.787 56.6689 67.9389 55.256 67.9389ZM55.256 63.0488C53.9784 63.0488 52.9391 64.0905 52.9391 65.3708C52.9391 66.6512 53.9784 67.6928 55.256 67.6928C56.5335 67.6928 57.5728 66.6512 57.5728 65.3708C57.5728 64.0905 56.5335 63.0488 55.256 63.0488Z" fill="#151B3D"/>
</g>
<g clip-path="url(#clip2_1011_4579)">
<path d="M44.3383 85.207H21.1988V78.3945H44.3383V85.207ZM42.2008 78.3945H19.0613V71.582H42.2008V78.3945Z" fill="#FFC896"/>
<path d="M44.3385 85.3495H21.199C21.1615 85.3495 21.1255 85.3346 21.099 85.308C21.0725 85.2815 21.0576 85.2455 21.0576 85.2079V78.3955C21.0576 78.3579 21.0725 78.3219 21.099 78.2954C21.1255 78.2688 21.1615 78.2539 21.199 78.2539H44.3385C44.376 78.2539 44.412 78.2688 44.4385 78.2954C44.465 78.3219 44.4799 78.3579 44.4799 78.3955V85.2079C44.4799 85.2455 44.465 85.2815 44.4385 85.308C44.412 85.3346 44.376 85.3495 44.3385 85.3495ZM21.3402 85.0664H44.1971V78.537H21.3402V85.0664Z" fill="#FFC896"/>
<path d="M42.2011 78.5351H19.0615C19.024 78.5351 18.9881 78.5202 18.9616 78.4937C18.9351 78.4671 18.9202 78.4311 18.9202 78.3936V71.581C18.9202 71.5435 18.9351 71.5075 18.9616 71.4809C18.9881 71.4544 19.024 71.4395 19.0615 71.4395H42.2011C42.2385 71.4395 42.2745 71.4544 42.301 71.4809C42.3275 71.5075 42.3424 71.5435 42.3424 71.581V78.3936C42.3424 78.4311 42.3275 78.4671 42.301 78.4937C42.2745 78.5202 42.2385 78.5351 42.2011 78.5351ZM19.2028 78.252H42.0596V71.7226H19.2028V78.252Z" fill="#FFC896"/>
<path d="M36.4948 78.537H21.1987C21.1612 78.537 21.1253 78.5221 21.0988 78.4956C21.0723 78.469 21.0574 78.433 21.0574 78.3955C21.0574 78.3579 21.0723 78.3219 21.0988 78.2954C21.1253 78.2688 21.1612 78.2539 21.1987 78.2539H36.4948C36.5323 78.2539 36.5682 78.2688 36.5947 78.2954C36.6212 78.3219 36.6361 78.3579 36.6361 78.3955C36.6361 78.433 36.6212 78.469 36.5947 78.4956C36.5682 78.5221 36.5323 78.537 36.4948 78.537Z" fill="#151B3D"/>
<path d="M24.634 85.3495C24.5965 85.3495 24.5606 85.3346 24.5341 85.308C24.5076 85.2815 24.4927 85.2455 24.4927 85.2079V78.3955C24.4927 78.3579 24.5076 78.3219 24.5341 78.2954C24.5606 78.2688 24.5965 78.2539 24.634 78.2539C24.6715 78.2539 24.7075 78.2688 24.734 78.2954C24.7605 78.3219 24.7754 78.3579 24.7754 78.3955V85.2079C24.7754 85.2455 24.7605 85.2815 24.734 85.308C24.7075 85.3346 24.6715 85.3495 24.634 85.3495ZM43.1075 78.537H38.6779C38.6404 78.537 38.6045 78.5221 38.578 78.4956C38.5514 78.469 38.5366 78.433 38.5366 78.3955C38.5366 78.3579 38.5514 78.3219 38.578 78.2954C38.6045 78.2688 38.6404 78.2539 38.6779 78.2539H43.1075C43.145 78.2539 43.1809 78.2688 43.2074 78.2954C43.234 78.3219 43.2488 78.3579 43.2488 78.3955C43.2488 78.433 43.234 78.469 43.2074 78.4956C43.1809 78.5221 43.145 78.537 43.1075 78.537ZM32.7021 85.3495C32.6646 85.3495 32.6287 85.3346 32.6022 85.308C32.5757 85.2815 32.5608 85.2455 32.5608 85.2079V78.3955C32.5608 78.3579 32.5757 78.3219 32.6022 78.2954C32.6287 78.2688 32.6646 78.2539 32.7021 78.2539C32.7396 78.2539 32.7756 78.2688 32.8021 78.2954C32.8286 78.3219 32.8435 78.3579 32.8435 78.3955V85.2079C32.8435 85.2455 32.8286 85.2815 32.8021 85.308C32.7756 85.3346 32.7396 85.3495 32.7021 85.3495Z" fill="#151B3D"/>
<path d="M40.9579 85.3309C40.9204 85.3309 40.8844 85.316 40.8579 85.2894C40.8314 85.2629 40.8165 85.2269 40.8165 85.1893V78.3936C40.8165 78.356 40.8314 78.32 40.8579 78.2935C40.8844 78.2669 40.9204 78.252 40.9579 78.252C40.9954 78.252 41.0313 78.2669 41.0578 78.2935C41.0843 78.32 41.0992 78.356 41.0992 78.3936V85.1893C41.0992 85.2269 41.0843 85.2629 41.0578 85.2894C41.0313 85.316 40.9954 85.3309 40.9579 85.3309ZM34.929 78.5351C34.8915 78.5351 34.8555 78.5202 34.829 78.4937C34.8025 78.4671 34.7876 78.4311 34.7876 78.3936V71.581C34.7876 71.5435 34.8025 71.5075 34.829 71.4809C34.8555 71.4544 34.8915 71.4395 34.929 71.4395C34.9664 71.4395 35.0024 71.4544 35.0289 71.4809C35.0554 71.5075 35.0703 71.5435 35.0703 71.581V78.3936C35.0703 78.4311 35.0554 78.4671 35.0289 78.4937C35.0024 78.5202 34.9664 78.5351 34.929 78.5351ZM26.4502 78.5351C26.4127 78.5351 26.3767 78.5202 26.3502 78.4937C26.3237 78.4671 26.3088 78.4311 26.3088 78.3936V71.581C26.3088 71.5435 26.3237 71.5075 26.3502 71.4809C26.3767 71.4544 26.4127 71.4395 26.4502 71.4395C26.4877 71.4395 26.5236 71.4544 26.5501 71.4809C26.5766 71.5075 26.5915 71.5435 26.5915 71.581V78.3936C26.5915 78.4311 26.5766 78.4671 26.5501 78.4937C26.5236 78.5202 26.4877 78.5351 26.4502 78.5351Z" fill="#151B3D"/>
<path d="M29.7279 69.6757L26.5676 65.6738L20.8437 70.1742C19.6497 70.7957 18.4307 71.5795 17.2431 72.5133C16.0555 73.447 15.0058 74.4469 14.1195 75.461L8.36646 79.9844L11.5267 83.9862C13.3958 86.3709 18.9854 85.1004 24.0116 81.1487C29.0376 77.197 31.597 72.0603 29.7279 69.6757Z" fill="#FFC896"/>
<path d="M14.569 85.3333C13.1564 85.3333 12.0674 84.9063 11.4153 84.0744L8.25564 80.0734C8.25542 80.0731 8.25519 80.0728 8.25493 80.0725C7.31534 78.8738 7.40672 76.9917 8.51211 74.773C9.60096 72.5877 11.5482 70.3246 13.9952 68.4007C16.4421 66.4767 19.0994 65.1196 21.4775 64.5791C23.8918 64.0303 25.7389 64.3883 26.6784 65.5871L26.6804 65.5896L29.8384 69.5886L29.8387 69.589C30.7783 70.7878 30.6869 72.6698 29.5815 74.8885C28.4927 77.0738 26.5454 79.3369 24.0985 81.2608C21.6515 83.1848 18.9942 84.5419 16.6162 85.0824C15.8775 85.2503 15.1918 85.3333 14.569 85.3333ZM8.47712 79.8974L11.6372 83.8991C12.5059 85.0073 14.2518 85.3295 16.5536 84.8062C18.8917 84.2749 21.5092 82.9366 23.924 81.0381C28.8807 77.1408 31.4344 72.0832 29.6164 69.7638L26.4566 65.7625L26.4541 65.7593C24.6341 63.4434 19.1248 64.7276 14.1698 68.6234C9.21332 72.5204 6.65985 77.5779 8.47712 79.8974Z" fill="#FFC896"/>
<path d="M14.5691 85.3329C13.1565 85.3329 12.0675 84.9059 11.4154 84.074C11.4037 84.0594 11.395 84.0426 11.3898 84.0246C11.3846 84.0066 11.3831 83.9878 11.3852 83.9692C11.3873 83.9506 11.3931 83.9326 11.4023 83.9163C11.4114 83.9 11.4236 83.8856 11.4383 83.874C11.453 83.8625 11.4699 83.8539 11.4879 83.849C11.5059 83.844 11.5247 83.8426 11.5433 83.8449C11.5618 83.8473 11.5797 83.8532 11.5959 83.8626C11.6121 83.8719 11.6263 83.8843 11.6377 83.8991C12.5061 85.007 14.2519 85.3289 16.5538 84.8059C18.8918 84.2744 21.5093 82.9362 23.924 81.0376C26.3388 79.139 28.2582 76.9101 29.3287 74.7615C30.3826 72.6463 30.4848 70.8712 29.6165 69.7634C29.6048 69.7488 29.5961 69.732 29.5909 69.714C29.5857 69.696 29.5842 69.6772 29.5863 69.6586C29.5884 69.64 29.5942 69.622 29.6034 69.6057C29.6125 69.5893 29.6247 69.575 29.6394 69.5634C29.6541 69.5519 29.671 69.5433 29.689 69.5383C29.707 69.5333 29.7258 69.532 29.7444 69.5343C29.7629 69.5366 29.7808 69.5426 29.797 69.5519C29.8132 69.5613 29.8274 69.5737 29.8388 69.5885C30.7784 70.7873 30.687 72.6693 29.5816 74.8879C28.4928 77.0733 26.5456 79.3364 24.0986 81.2603C21.6516 83.1842 18.9944 84.5414 16.6163 85.0819C15.8777 85.2499 15.1919 85.3329 14.5691 85.3329Z" fill="#151B3D"/>
<path d="M20.8516 77.1481C25.8778 73.1962 28.4371 68.0595 26.5681 65.6748C24.699 63.2902 19.1092 64.5606 14.083 68.5125C9.05674 72.4644 6.49738 77.6011 8.36648 79.9858C10.2356 82.3704 15.8253 81.0999 20.8516 77.1481Z" fill="#FFC896"/>
<path d="M11.409 81.3308C9.99638 81.3308 8.90738 80.9038 8.25522 80.0718C8.24353 80.0572 8.23484 80.0405 8.22966 80.0225C8.22448 80.0045 8.22291 79.9857 8.22505 79.9671C8.22718 79.9485 8.23298 79.9305 8.2421 79.9141C8.25122 79.8978 8.26348 79.8834 8.27818 79.8719C8.29288 79.8603 8.30972 79.8518 8.32773 79.8468C8.34574 79.8418 8.36456 79.8404 8.3831 79.8428C8.40164 79.8451 8.41953 79.8511 8.43575 79.8604C8.45196 79.8697 8.46617 79.8822 8.47756 79.897C9.09106 80.6797 10.1256 81.0521 11.4172 81.0522C13.9528 81.0523 17.4799 79.6175 20.7639 77.0354C25.7207 73.1382 28.2744 68.0806 26.4564 65.7611C25.9998 65.1786 25.3023 64.8128 24.3834 64.6739C24.3466 64.668 24.3136 64.6478 24.2917 64.6176C24.2697 64.5875 24.2605 64.5499 24.2661 64.513C24.2716 64.4762 24.2915 64.443 24.3214 64.4207C24.3512 64.3984 24.3887 64.3888 24.4256 64.394C25.4181 64.544 26.1762 64.9452 26.6788 65.5865C27.6184 66.7852 27.527 68.6673 26.4216 70.8859C25.3328 73.0713 23.3855 75.3344 20.9386 77.2583C18.4916 79.1822 15.8343 80.5394 13.4563 81.0799C12.7175 81.2477 12.0317 81.3307 11.409 81.3308ZM20.6886 65.0743C20.6547 65.0741 20.6221 65.0618 20.5965 65.0395C20.5709 65.0172 20.5542 64.9865 20.5493 64.953C20.5445 64.9194 20.5518 64.8852 20.5699 64.8566C20.5881 64.8279 20.6159 64.8068 20.6483 64.7969C21.365 64.5831 22.0533 64.4408 22.6941 64.3738C22.7125 64.3719 22.7312 64.3736 22.749 64.3789C22.7668 64.3842 22.7834 64.393 22.7978 64.4047C22.8122 64.4164 22.8242 64.4308 22.833 64.4472C22.8419 64.4635 22.8474 64.4815 22.8493 64.4999C22.8513 64.5184 22.8495 64.5371 22.8443 64.555C22.839 64.5728 22.8302 64.5894 22.8185 64.6038C22.8068 64.6183 22.7924 64.6303 22.7761 64.6391C22.7598 64.648 22.7419 64.6535 22.7234 64.6555C22.1 64.7206 21.429 64.8595 20.7291 65.0683C20.716 65.0723 20.7023 65.0743 20.6886 65.0743ZM25.9722 79.5716C25.9441 79.5716 25.9167 79.5632 25.8934 79.5475C25.8701 79.5318 25.852 79.5095 25.8413 79.4835C25.8307 79.4574 25.8281 79.4288 25.8338 79.4013C25.8396 79.3737 25.8533 79.3485 25.8734 79.3288C27.664 77.5759 29.0256 75.6527 29.707 73.9137C30.3868 72.1788 30.3548 70.7048 29.6167 69.7632L28.2895 68.0825C28.2662 68.053 28.2556 68.0155 28.2599 67.9782C28.2643 67.9409 28.2832 67.9069 28.3126 67.8836C28.342 67.8603 28.3795 67.8497 28.4167 67.854C28.454 67.8584 28.4879 67.8773 28.5112 67.9068L29.8388 69.5879C31.4723 71.672 29.9228 75.7607 26.071 79.5313C26.0446 79.5572 26.0091 79.5716 25.9722 79.5716Z" fill="#151B3D"/>
<path d="M11.7858 79.9066C10.6789 79.9066 9.83248 79.5783 9.32802 78.9348C8.56059 77.9557 8.68886 76.3795 9.6893 74.4967C10.6709 72.6494 12.3798 70.7135 14.5012 69.0456C16.6225 67.3777 18.9059 66.1747 20.9306 65.6583C22.9942 65.132 24.5534 65.3813 25.3208 66.3605C26.0883 67.3398 25.96 68.9159 24.9596 70.7986C23.978 72.6459 22.2691 74.5818 20.1477 76.2497C18.0263 77.9176 15.743 79.1206 13.7183 79.637C13.011 79.8174 12.363 79.9066 11.7858 79.9066ZM22.8675 65.6704C22.3144 65.6704 21.6881 65.7573 21.0004 65.9327C19.013 66.4396 16.7669 67.6242 14.6757 69.2683C12.5846 70.9124 10.9024 72.8165 9.93884 74.6297C8.99417 76.4075 8.85621 77.8743 9.55036 78.76C10.2445 79.6456 11.6999 79.8596 13.6485 79.3626C15.636 78.8557 17.8821 77.6711 19.9732 76.027C22.0643 74.3828 23.7465 72.4788 24.71 70.6655C25.6547 68.8878 25.7926 67.4209 25.0985 66.5352C24.6494 65.9623 23.8814 65.6704 22.8675 65.6704ZM15.1933 85.2763C15.1509 85.2763 15.1089 85.2572 15.081 85.2208L12.0613 81.2739C12.05 81.2592 12.0417 81.2423 12.0369 81.2244C12.0321 81.2064 12.0309 81.1877 12.0333 81.1693C12.0358 81.1508 12.0418 81.1331 12.0511 81.117C12.0604 81.1009 12.0728 81.0868 12.0875 81.0755C12.1173 81.0526 12.1548 81.0426 12.192 81.0475C12.2104 81.0499 12.2282 81.056 12.2442 81.0653C12.2603 81.0746 12.2744 81.087 12.2857 81.1017L15.3054 85.0486C15.3215 85.0695 15.3313 85.0946 15.3339 85.1208C15.3365 85.1471 15.3317 85.1736 15.32 85.1973C15.3084 85.221 15.2903 85.2409 15.2679 85.2549C15.2455 85.2688 15.2197 85.2763 15.1933 85.2763ZM21.2685 83.1579C21.2261 83.1579 21.184 83.1388 21.1562 83.1023L18.1159 79.1236C18.1046 79.1089 18.0963 79.092 18.0915 79.0741C18.0867 79.0561 18.0855 79.0374 18.088 79.0189C18.0904 79.0005 18.0965 78.9827 18.1058 78.9666C18.1151 78.9506 18.1275 78.9365 18.1422 78.9252C18.157 78.9139 18.1738 78.9056 18.1917 78.9008C18.2097 78.896 18.2284 78.8948 18.2468 78.8973C18.2652 78.8997 18.2829 78.9058 18.299 78.9151C18.315 78.9244 18.3291 78.9368 18.3404 78.9516L21.3807 82.9303C21.3967 82.9512 21.4066 82.9763 21.4092 83.0025C21.4117 83.0288 21.4069 83.0553 21.3952 83.079C21.3836 83.1026 21.3655 83.1226 21.3431 83.1365C21.3207 83.1505 21.2949 83.1579 21.2685 83.1579ZM26.6091 78.9228C26.5666 78.9228 26.5246 78.9037 26.4967 78.8673L23.4642 74.8966C23.4414 74.8668 23.4314 74.8291 23.4363 74.7919C23.4413 74.7547 23.4608 74.7209 23.4906 74.6981C23.5204 74.6753 23.558 74.6653 23.5952 74.6702C23.6323 74.6752 23.666 74.6947 23.6888 74.7246L26.7213 78.6952C26.7374 78.7162 26.7472 78.7412 26.7498 78.7675C26.7524 78.7938 26.7475 78.8203 26.7359 78.8439C26.7242 78.8676 26.7061 78.8876 26.6837 78.9015C26.6613 78.9154 26.6355 78.9228 26.6091 78.9228ZM30.157 73.1253C30.1351 73.1253 30.1136 73.1203 30.094 73.1105C30.0744 73.1008 30.0573 73.0866 30.0441 73.0691L26.9181 68.9261C26.8955 68.8962 26.8857 68.8584 26.8909 68.8212C26.896 68.7841 26.9157 68.7504 26.9457 68.7278C26.9756 68.7052 27.0132 68.6953 27.0504 68.7005C27.0875 68.7057 27.1211 68.7254 27.1437 68.7554L30.2697 72.8984C30.2856 72.9194 30.2953 72.9444 30.2977 72.9706C30.3002 72.9968 30.2952 73.0232 30.2835 73.0468C30.2718 73.0704 30.2538 73.0902 30.2314 73.1041C30.2091 73.1179 30.1833 73.1253 30.157 73.1253Z" fill="#151B3D"/>
</g>
<g clip-path="url(#clip3_1011_4579)">
<path d="M103.557 57.8189H78.6276C76.7747 57.8189 75.2727 56.3153 75.2727 54.4606V36.833C75.2727 34.9782 76.7747 33.4746 78.6276 33.4746H103.557C105.41 33.4746 106.912 34.9782 106.912 36.833V54.4606C106.912 56.3153 105.41 57.8189 103.557 57.8189Z" fill="white"/>
<path d="M103.557 57.9597H78.6276C76.6996 57.9597 75.1311 56.3896 75.1311 54.4597V36.8321C75.1311 34.9022 76.6996 33.332 78.6276 33.332H103.557C105.485 33.332 107.054 34.9022 107.054 36.8321V54.4597C107.054 56.3896 105.485 57.9597 103.557 57.9597ZM78.6276 33.6154C76.8557 33.6154 75.4142 35.0584 75.4142 36.8321V54.4597C75.4142 56.2334 76.8557 57.6763 78.6276 57.6763H103.557C105.329 57.6763 106.771 56.2334 106.771 54.4597V36.8321C106.771 35.0584 105.329 33.6154 103.557 33.6154H78.6276Z" fill="#151B3D"/>
<path d="M87.6093 54.298C87.5718 54.298 87.5358 54.283 87.5092 54.2565C87.4827 54.2299 87.4678 54.1938 87.4678 54.1563V39.6044C87.4678 39.5668 87.4827 39.5308 87.5092 39.5042C87.5358 39.4776 87.5718 39.4627 87.6093 39.4627C87.6469 39.4627 87.6829 39.4776 87.7094 39.5042C87.7359 39.5308 87.7509 39.5668 87.7509 39.6044V54.1563C87.7509 54.1938 87.7359 54.2299 87.7094 54.2565C87.6829 54.283 87.6469 54.298 87.6093 54.298ZM94.6451 53.1725C94.6075 53.1725 94.5715 53.1576 94.545 53.131C94.5184 53.1044 94.5035 53.0684 94.5035 53.0308V38.479C94.5035 38.4414 94.5184 38.4053 94.545 38.3788C94.5715 38.3522 94.6075 38.3373 94.6451 38.3373C94.6826 38.3373 94.7186 38.3522 94.7452 38.3788C94.7717 38.4053 94.7866 38.4414 94.7866 38.479V53.0309C94.7866 53.0684 94.7717 53.1045 94.7451 53.131C94.7186 53.1576 94.6826 53.1725 94.6451 53.1725ZM101.678 49.7314C101.64 49.7314 101.604 49.7164 101.578 49.6899C101.551 49.6633 101.536 49.6273 101.536 49.5897V35.8936C101.536 35.8561 101.551 35.82 101.578 35.7935C101.604 35.7669 101.64 35.752 101.678 35.752C101.715 35.752 101.751 35.7669 101.778 35.7935C101.804 35.82 101.819 35.8561 101.819 35.8936V49.5897C101.819 49.6273 101.804 49.6633 101.778 49.6899C101.751 49.7164 101.715 49.7314 101.678 49.7314Z" fill="#151B3D"/>
<path d="M86.1882 43.1699H89.0368V51.0641H86.1882V43.1699Z" fill="#FFC896"/>
<path d="M93.3208 40.4082H96.1694V48.3024H93.3208V40.4082Z" fill="#DE832E"/>
<path d="M100.518 38.2441H103.397V47.2637H100.518V38.2441Z" fill="#FFC896"/>
<path d="M80.5798 54.2974C80.5422 54.2974 80.5062 54.2824 80.4797 54.2559C80.4531 54.2293 80.4382 54.1932 80.4382 54.1557V41.8546C80.4382 41.817 80.4531 41.781 80.4797 41.7544C80.5062 41.7278 80.5422 41.7129 80.5798 41.7129C80.6173 41.7129 80.6533 41.7278 80.6799 41.7544C80.7064 41.781 80.7213 41.817 80.7213 41.8546V54.1556C80.7213 54.1742 80.7177 54.1926 80.7106 54.2098C80.7035 54.227 80.693 54.2427 80.6799 54.2558C80.6667 54.269 80.6511 54.2794 80.634 54.2866C80.6168 54.2937 80.5984 54.2974 80.5798 54.2974Z" fill="#151B3D"/>
<path d="M82.0041 44.0781H79.1555V49.5883H82.0041V44.0781Z" fill="#FFC896"/>
</g>
<g clip-path="url(#clip4_1011_4579)">
<path d="M104.595 70.1333H69.2552C67.9757 70.1333 66.9385 69.0938 66.9385 67.8114V63.2555C66.9385 61.9732 67.9757 60.9336 69.2552 60.9336H104.595C105.875 60.9336 106.912 61.9732 106.912 63.2555V67.8114C106.912 69.0938 105.875 70.1333 104.595 70.1333Z" fill="#FFC896"/>
<path d="M104.595 70.2741H69.2552C67.8998 70.2741 66.7971 69.1689 66.7971 67.8105V63.2547C66.7971 61.8962 67.8998 60.791 69.2552 60.791H104.595C105.951 60.791 107.053 61.8962 107.053 63.2546V67.8105C107.053 69.1689 105.951 70.2741 104.595 70.2741ZM69.2552 61.0744C68.0558 61.0744 67.0798 62.0524 67.0798 63.2547V67.8105C67.0798 69.0127 68.0558 69.9907 69.2552 69.9907H104.595C105.795 69.9907 106.771 69.0127 106.771 67.8105V63.2547C106.771 62.0524 105.795 61.0744 104.595 61.0744H69.2552Z" fill="#151B3D"/>
<path d="M102.21 66.7462H83.3515C83.323 66.7462 83.2957 66.7322 83.2756 66.7073C83.2555 66.6823 83.2441 66.6485 83.2441 66.6133C83.2441 66.578 83.2555 66.5442 83.2756 66.5193C83.2957 66.4944 83.323 66.4804 83.3515 66.4804H102.21C102.238 66.4804 102.266 66.4944 102.286 66.5193C102.306 66.5442 102.317 66.578 102.317 66.6133C102.317 66.6485 102.306 66.6823 102.286 66.7073C102.266 66.7322 102.238 66.7462 102.21 66.7462ZM102.21 64.4865H83.3515C83.323 64.4865 83.2957 64.4725 83.2756 64.4476C83.2555 64.4227 83.2441 64.3889 83.2441 64.3536C83.2441 64.3184 83.2555 64.2846 83.2756 64.2596C83.2957 64.2347 83.323 64.2207 83.3515 64.2207H102.21C102.238 64.2207 102.266 64.2347 102.286 64.2596C102.306 64.2846 102.317 64.3184 102.317 64.3536C102.317 64.3889 102.306 64.4227 102.286 64.4476C102.266 64.4725 102.238 64.4865 102.21 64.4865Z" fill="#151B3D"/>
</g>
<path d="M78.17 68.1897C78.236 68.1897 78.2974 68.1732 78.3543 68.1402C78.4114 68.107 78.4579 68.0604 78.4939 68.0002C78.6139 67.7898 78.7159 67.5523 78.7998 67.2877C78.8838 67.0231 78.9258 66.7225 78.9258 66.3857C78.9258 65.9408 78.8418 65.5213 78.6739 65.1273C78.5059 64.7336 78.2765 64.3894 77.9854 64.0948C77.6947 63.8001 77.3513 63.5672 76.9555 63.3959C76.5596 63.2244 76.1368 63.1387 75.6869 63.1387C75.405 63.1387 75.1486 63.1672 74.9175 63.2242C74.6867 63.2814 74.4544 63.3702 74.2204 63.4904C74.1545 63.5265 74.1155 63.5746 74.1035 63.6348C74.0915 63.6949 74.1125 63.749 74.1665 63.7971C74.2025 63.8272 74.2384 63.8422 74.2744 63.8422C74.3104 63.8422 74.3464 63.8332 74.3824 63.8151C74.5863 63.7129 74.7948 63.6348 75.0078 63.5806C75.2207 63.5265 75.447 63.4995 75.6869 63.4995C76.4846 63.4995 77.1638 63.7805 77.7245 64.3426C78.2854 64.905 78.5659 65.586 78.5659 66.3857C78.5659 66.6383 78.5315 66.8878 78.4626 67.1344C78.3935 67.3809 78.296 67.6124 78.17 67.8289H73.2038C73.0659 67.6004 72.9653 67.3629 72.9022 67.1163C72.8394 66.8698 72.8079 66.6142 72.8079 66.3497C72.8079 66.1452 72.8334 65.9302 72.8842 65.7046C72.9353 65.4792 73.0149 65.2673 73.1228 65.0689C73.1408 65.0268 73.1484 64.9877 73.1455 64.9516C73.1424 64.9155 73.1228 64.8795 73.0868 64.8434C73.0449 64.8013 72.9939 64.7877 72.9339 64.8026C72.8739 64.8178 72.8259 64.8584 72.79 64.9246C72.664 65.1711 72.5755 65.4086 72.5244 65.6371C72.4735 65.8656 72.4481 66.1031 72.4481 66.3497C72.4481 66.6563 72.4826 66.9449 72.5517 67.2155C72.6206 67.4861 72.73 67.7567 72.8799 68.0273C72.9099 68.0754 72.9533 68.1145 73.0102 68.1446C73.0673 68.1746 73.1318 68.1897 73.2038 68.1897H78.17Z" fill="#151B3D"/>
<path fill-rule="evenodd" clip-rule="evenodd" d="M77.022 68.1897C77.5701 67.7805 77.9258 67.1255 77.9258 66.3857C77.9258 65.1423 76.921 64.1387 75.6869 64.1387C74.4528 64.1387 73.4481 65.1423 73.4481 66.3857C73.4481 67.1255 73.8038 67.7805 74.3518 68.1897H72.9935C72.649 67.6737 72.4481 67.0532 72.4481 66.3857C72.4481 64.5924 73.8982 63.1387 75.6869 63.1387C77.4757 63.1387 78.9258 64.5924 78.9258 66.3857C78.9258 67.0532 78.7249 67.6737 78.3804 68.1897H77.022Z" fill="#151B3D"/>
<path d="M75.1955 67.0146C75.2273 67.1863 75.309 67.3151 75.4405 67.4011C75.5764 67.4798 75.7247 67.4937 75.8852 67.4429C76.0458 67.392 76.1529 67.2983 76.2067 67.1618L77.0671 64.9896C77.1042 64.9127 77.0867 64.852 77.0144 64.8075C76.9421 64.763 76.8765 64.7725 76.8177 64.8361L75.2851 66.5944C75.1938 66.7028 75.164 66.8429 75.1955 67.0146Z" fill="#151B3D"/>
<defs>
<clipPath id="clip0_1011_4579">
<rect width="68.2237" height="52.5815" fill="white" transform="translate(24.281 23)"/>
</clipPath>
<clipPath id="clip1_1011_4579">
<rect width="65.7519" height="56.5446" fill="white" transform="translate(24.4224 11.3945)"/>
</clipPath>
<clipPath id="clip2_1011_4579">
<rect width="36.8663" height="21.0185" fill="white" transform="translate(7.61353 64.3301)"/>
</clipPath>
<clipPath id="clip3_1011_4579">
<rect width="31.9225" height="24.6277" fill="white" transform="translate(75.1311 33.332)"/>
</clipPath>
<clipPath id="clip4_1011_4579">
<rect width="40.2563" height="9.48308" fill="white" transform="translate(66.7971 60.791)"/>
</clipPath>
</defs>
</svg>
