<svg width="24" height="24" viewBox="0 0 24 24" fill="none" xmlns="http://www.w3.org/2000/svg">
<g clip-path="url(#clip0_1700_58615)">
<path d="M17 1C18.5912 1.00017 20.1173 1.63237 21.2425 2.75755C22.3676 3.88273 22.9998 5.40875 23 7"  stroke-width="1.8" stroke-linecap="round" stroke-linejoin="round" fill="white"/>
<path d="M17 5C17.2627 4.99993 17.5228 5.05161 17.7655 5.15209C18.0081 5.25258 18.2286 5.39989 18.4144 5.58563C18.6001 5.77136 18.7474 5.99186 18.8479 6.23455C18.9484 6.47723 19.0001 6.73734 19 7"  stroke-width="1.8" stroke-linecap="round" stroke-linejoin="round" fill="white"/>
<path d="M12 2H6.44444C5.26572 2.00005 4.13529 2.46832 3.30181 3.30181C2.46832 4.13529 2.00005 5.26572 2 6.44444V16.4444C2.00016 17.9178 2.58553 19.3308 3.62736 20.3726C4.66919 21.4145 6.08218 21.9998 7.55556 22H17.5556C18.7343 21.9999 19.8647 21.5317 20.6982 20.6982C21.5317 19.8647 21.9999 18.7343 22 17.5556V12"  stroke-width="1.8" stroke-linecap="round" stroke-linejoin="round" fill="white"/>
<path d="M12 16.75C14.6234 16.75 16.75 14.6234 16.75 12C16.75 9.37665 14.6234 7.25 12 7.25C9.37665 7.25 7.25 9.37665 7.25 12C7.25 14.6234 9.37665 16.75 12 16.75Z"  stroke-width="1.8" stroke-linecap="round" stroke-linejoin="round" fill="white"/>
<path d="M13.6826 12.3179H11.6826"  stroke-width="1.8" stroke-linecap="round" stroke-linejoin="round" fill="white"/>
<path d="M11.6826 12.3178V9.9082"  stroke-width="1.8" stroke-linecap="round" stroke-linejoin="round" fill="white"/>
</g>
<defs>
<clipPath id="clip0_1700_58615">
<rect width="24" height="24" fill="white"/>
</clipPath>
</defs>Ö
</svg>
