<svg viewBox="0 0 113 92" fill="none" xmlns="http://www.w3.org/2000/svg">
<g clip-path="url(#clip0_1011_2475)">
<path d="M87.4163 23.3887H27.6841C25.582 23.3887 23.8779 25.0942 23.8779 27.1981V71.3135C23.8779 73.4174 25.582 75.1229 27.6841 75.1229H87.4163C89.5184 75.1229 91.2224 73.4174 91.2224 71.3135V27.1981C91.2224 25.0942 89.5184 23.3887 87.4163 23.3887Z" fill="white"/>
<path d="M87.4164 75.2608H27.6841C25.5095 75.2608 23.7402 73.49 23.7402 71.3133V29.5012C23.7402 29.4646 23.7547 29.4295 23.7806 29.4037C23.8064 29.3778 23.8414 29.3633 23.878 29.3633C23.9145 29.3633 23.9496 29.3778 23.9754 29.4037C24.0012 29.4295 24.0157 29.4646 24.0157 29.5012V71.3133C24.0157 73.3379 25.6613 74.985 27.6841 74.985H87.4164C89.4391 74.985 91.0847 73.3379 91.0847 71.3133V29.5012C91.0847 29.4646 91.0993 29.4295 91.1251 29.4037C91.1509 29.3778 91.186 29.3633 91.2225 29.3633C91.259 29.3633 91.2941 29.3778 91.3199 29.4037C91.3457 29.4295 91.3602 29.4646 91.3602 29.5012V71.3133C91.3602 73.49 89.591 75.2608 87.4164 75.2608Z" fill="#151B3D"/>
<path d="M87.4163 23.3887H27.6841C25.582 23.3887 23.8779 25.0943 23.8779 27.1981V29.5013H91.2224V27.1981C91.2224 25.0943 89.5183 23.3887 87.4163 23.3887Z" fill="#EBFCDA"/>
<path d="M91.2225 29.6383H23.878C23.8414 29.6383 23.8064 29.6238 23.7806 29.5979C23.7547 29.5721 23.7402 29.537 23.7402 29.5005V27.1973C23.7402 25.0208 25.5095 23.25 27.6841 23.25H87.4164C89.5911 23.25 91.3602 25.0208 91.3602 27.1973V29.5005C91.3602 29.537 91.3457 29.5721 91.3199 29.5979C91.2941 29.6238 91.259 29.6383 91.2225 29.6383ZM24.0157 29.3626H91.0847V27.1973C91.0847 25.1728 89.4391 23.5257 87.4164 23.5257H27.6841C25.6613 23.5257 24.0157 25.1728 24.0157 27.1973V29.3626Z" fill="#9ACC5B"/>
<path d="M30.397 28.3589C30.3789 28.3589 30.361 28.3554 30.3442 28.3484C30.3275 28.3415 30.3123 28.3313 30.2996 28.3185L27.2852 25.3015C27.2721 25.2888 27.2616 25.2736 27.2543 25.2567C27.2471 25.2399 27.2433 25.2218 27.2432 25.2035C27.243 25.1852 27.2465 25.1671 27.2534 25.1501C27.2603 25.1332 27.2706 25.1178 27.2835 25.1048C27.2964 25.0919 27.3118 25.0817 27.3288 25.0747C27.3457 25.0678 27.3638 25.0643 27.3821 25.0645C27.4004 25.0646 27.4185 25.0684 27.4353 25.0756C27.4521 25.0829 27.4673 25.0934 27.48 25.1065L30.4943 28.1235C30.5135 28.1428 30.5267 28.1674 30.532 28.1941C30.5373 28.2209 30.5346 28.2486 30.5241 28.2738C30.5137 28.299 30.4961 28.3205 30.4734 28.3356C30.4508 28.3508 30.4242 28.3589 30.397 28.3589Z" fill="#151B3D"/>
<path d="M27.3828 28.3589C27.3556 28.3589 27.329 28.3508 27.3063 28.3356C27.2837 28.3205 27.266 28.299 27.2556 28.2738C27.2452 28.2486 27.2424 28.2209 27.2478 28.1941C27.2531 28.1674 27.2662 28.1428 27.2854 28.1235L30.2997 25.1065C30.3124 25.0934 30.3276 25.0829 30.3444 25.0756C30.3613 25.0684 30.3793 25.0646 30.3976 25.0645C30.4159 25.0643 30.4341 25.0678 30.451 25.0747C30.4679 25.0817 30.4833 25.0919 30.4962 25.1048C30.5092 25.1178 30.5194 25.1332 30.5263 25.1501C30.5332 25.1671 30.5367 25.1852 30.5366 25.2035C30.5364 25.2218 30.5326 25.2399 30.5254 25.2567C30.5182 25.2736 30.5077 25.2888 30.4945 25.3015L27.4802 28.3185C27.4675 28.3313 27.4523 28.3415 27.4356 28.3484C27.4189 28.3554 27.4009 28.3589 27.3828 28.3589ZM46.3152 32.7345C46.2787 32.7345 46.2437 32.7199 46.2178 32.6941C46.192 32.6682 46.1775 32.6332 46.1775 32.5966V29.6324C46.1775 29.5958 46.192 29.5608 46.2178 29.5349C46.2437 29.509 46.2787 29.4945 46.3152 29.4945C46.3518 29.4945 46.3868 29.509 46.4126 29.5349C46.4385 29.5608 46.453 29.5958 46.453 29.6324V32.5966C46.453 32.6332 46.4385 32.6682 46.4126 32.6941C46.3868 32.7199 46.3518 32.7345 46.3152 32.7345ZM46.3152 66.645C46.2787 66.645 46.2437 66.6305 46.2178 66.6046C46.192 66.5788 46.1775 66.5437 46.1775 66.5071V60.8554C46.1775 60.8188 46.192 60.7837 46.2178 60.7579C46.2437 60.732 46.2787 60.7175 46.3152 60.7175C46.3518 60.7175 46.3868 60.732 46.4126 60.7579C46.4385 60.7837 46.453 60.8188 46.453 60.8554V66.5071C46.453 66.5437 46.4385 66.5788 46.4126 66.6046C46.3868 66.6305 46.3518 66.645 46.3152 66.645ZM46.3152 55.3414C46.2787 55.3414 46.2437 55.3269 46.2178 55.301C46.192 55.2752 46.1775 55.2401 46.1775 55.2035V49.5518C46.1775 49.5152 46.192 49.4802 46.2178 49.4543C46.2437 49.4284 46.2787 49.4139 46.3152 49.4139C46.3518 49.4139 46.3868 49.4284 46.4126 49.4543C46.4385 49.4802 46.453 49.5152 46.453 49.5518V55.2035C46.453 55.2401 46.4385 55.2752 46.4126 55.301C46.3868 55.3269 46.3518 55.3414 46.3152 55.3414ZM46.3152 44.0379C46.2787 44.0379 46.2437 44.0234 46.2178 43.9975C46.192 43.9717 46.1775 43.9366 46.1775 43.9V38.2483C46.1775 38.2117 46.192 38.1766 46.2178 38.1508C46.2437 38.1249 46.2787 38.1104 46.3152 38.1104C46.3518 38.1104 46.3868 38.1249 46.4126 38.1508C46.4385 38.1766 46.453 38.2117 46.453 38.2483V43.9C46.453 43.9366 46.4385 43.9717 46.4126 43.9975C46.3868 44.0234 46.3518 44.0379 46.3152 44.0379ZM46.3152 75.261C46.2787 75.261 46.2437 75.2464 46.2178 75.2206C46.192 75.1947 46.1775 75.1597 46.1775 75.1231V72.1589C46.1775 72.1223 46.192 72.0873 46.2178 72.0614C46.2437 72.0355 46.2787 72.021 46.3152 72.021C46.3518 72.021 46.3868 72.0355 46.4126 72.0614C46.4385 72.0873 46.453 72.1223 46.453 72.1589V75.1231C46.453 75.1597 46.4385 75.1947 46.4126 75.2206C46.3868 75.2464 46.3518 75.261 46.3152 75.261ZM68.6994 32.7345C68.6629 32.7345 68.6279 32.7199 68.602 32.6941C68.5762 32.6682 68.5617 32.6332 68.5617 32.5966V29.6324C68.5617 29.5958 68.5762 29.5608 68.602 29.5349C68.6279 29.509 68.6629 29.4945 68.6994 29.4945C68.736 29.4945 68.771 29.509 68.7968 29.5349C68.8227 29.5608 68.8372 29.5958 68.8372 29.6324V32.5966C68.8372 32.6332 68.8227 32.6682 68.7968 32.6941C68.771 32.7199 68.736 32.7345 68.6994 32.7345ZM68.6994 66.645C68.6629 66.645 68.6279 66.6305 68.602 66.6046C68.5762 66.5788 68.5617 66.5437 68.5617 66.5071V60.8554C68.5617 60.8188 68.5762 60.7837 68.602 60.7579C68.6279 60.732 68.6629 60.7175 68.6994 60.7175C68.736 60.7175 68.771 60.732 68.7968 60.7579C68.8227 60.7837 68.8372 60.8188 68.8372 60.8554V66.5071C68.8372 66.5437 68.8227 66.5788 68.7968 66.6046C68.771 66.6305 68.736 66.645 68.6994 66.645ZM68.6994 55.3414C68.6629 55.3414 68.6279 55.3269 68.602 55.301C68.5762 55.2752 68.5617 55.2401 68.5617 55.2035V49.5518C68.5617 49.5152 68.5762 49.4802 68.602 49.4543C68.6279 49.4284 68.6629 49.4139 68.6994 49.4139C68.736 49.4139 68.771 49.4284 68.7968 49.4543C68.8227 49.4802 68.8372 49.5152 68.8372 49.5518V55.2035C68.8372 55.2401 68.8227 55.2752 68.7968 55.301C68.771 55.3269 68.736 55.3414 68.6994 55.3414ZM68.6994 44.0379C68.6629 44.0379 68.6279 44.0234 68.602 43.9975C68.5762 43.9717 68.5617 43.9366 68.5617 43.9V38.2483C68.5617 38.2117 68.5762 38.1766 68.602 38.1508C68.6279 38.1249 68.6629 38.1104 68.6994 38.1104C68.736 38.1104 68.771 38.1249 68.7968 38.1508C68.8227 38.1766 68.8372 38.2117 68.8372 38.2483V43.9C68.8372 43.9366 68.8227 43.9717 68.7968 43.9975C68.771 44.0234 68.736 44.0379 68.6994 44.0379ZM68.6994 75.261C68.6629 75.261 68.6279 75.2464 68.602 75.2206C68.5762 75.1947 68.5617 75.1597 68.5617 75.1231V72.1589C68.5617 72.1223 68.5762 72.0873 68.602 72.0614C68.6279 72.0355 68.6629 72.021 68.6994 72.021C68.736 72.021 68.771 72.0355 68.7968 72.0614C68.8227 72.0873 68.8372 72.1223 68.8372 72.1589V75.1231C68.8372 75.1597 68.8227 75.1947 68.7968 75.2206C68.771 75.2464 68.736 75.261 68.6994 75.261Z" fill="#151B3D"/>
</g>
<g clip-path="url(#clip1_1011_2475)">
<path d="M54.8367 66.1455L34.4362 55.796L23.8799 65.7294L23.8804 63.8077L34.193 54.1035L54.0445 64.1745L68.5787 54.7922L86.1922 45.8047L86.8281 47.0512L69.7138 55.7838L54.8367 66.1455Z" fill="#151B3D"/>
<path d="M34.3145 57.3681C35.65 57.3681 36.7325 56.2854 36.7325 54.9497C36.7325 53.614 35.65 52.5312 34.3145 52.5312C32.9791 52.5312 31.8965 53.614 31.8965 54.9497C31.8965 56.2854 32.9791 57.3681 34.3145 57.3681Z" fill="white"/>
<path d="M34.3151 57.4885C32.9147 57.4885 31.7754 56.3491 31.7754 54.9483C31.7754 53.5476 32.9147 52.4082 34.3151 52.4082C35.7155 52.4082 36.8548 53.5477 36.8548 54.9483C36.8548 56.349 35.7155 57.4885 34.3151 57.4885ZM34.3151 52.6516C33.0489 52.6516 32.0187 53.6819 32.0187 54.9483C32.0187 56.2148 33.0489 57.2452 34.3151 57.2452C35.5813 57.2452 36.6115 56.2148 36.6115 54.9483C36.6115 53.6819 35.5813 52.6516 34.3151 52.6516Z" fill="#151B3D"/>
<path d="M69.1465 57.706C70.482 57.706 71.5646 56.6233 71.5646 55.2876C71.5646 53.9519 70.482 52.8691 69.1465 52.8691C67.8111 52.8691 66.7285 53.9519 66.7285 55.2876C66.7285 56.6233 67.8111 57.706 69.1465 57.706Z" fill="white"/>
<path d="M69.1461 57.8284C67.7458 57.8284 66.6064 56.6889 66.6064 55.2882C66.6064 53.8876 67.7457 52.748 69.1461 52.748C70.5465 52.748 71.6858 53.8875 71.6858 55.2882C71.6858 56.689 70.5465 57.8284 69.1461 57.8284ZM69.1461 52.9914C67.8799 52.9914 66.8498 54.0218 66.8498 55.2882C66.8498 56.5547 67.8799 57.585 69.1461 57.585C70.4124 57.585 71.4425 56.5547 71.4425 55.2882C71.4425 54.0218 70.4124 52.9914 69.1461 52.9914Z" fill="#151B3D"/>
<path d="M86.5098 48.8447C87.8453 48.8447 88.9279 47.7619 88.9279 46.4263C88.9279 45.0906 87.8453 44.0078 86.5098 44.0078C85.1744 44.0078 84.0918 45.0906 84.0918 46.4263C84.0918 47.7619 85.1744 48.8447 86.5098 48.8447Z" fill="white"/>
<path d="M86.5104 48.967C85.11 48.967 83.9707 47.8276 83.9707 46.4269C83.9707 45.0263 85.11 43.8867 86.5104 43.8867C87.9108 43.8867 89.0501 45.0262 89.0501 46.4269C89.0501 47.8276 87.9108 48.967 86.5104 48.967ZM86.5104 44.1301C85.2442 44.1301 84.214 45.1605 84.214 46.4269C84.214 47.6934 85.2442 48.7237 86.5104 48.7237C87.7766 48.7237 88.8068 47.6934 88.8068 46.4269C88.8068 45.1605 87.7766 44.1301 86.5104 44.1301Z" fill="#151B3D"/>
<path d="M54.4405 67.5771C55.7759 67.5771 56.8585 66.4944 56.8585 65.1587C56.8585 63.823 55.7759 62.7402 54.4405 62.7402C53.1051 62.7402 52.0225 63.823 52.0225 65.1587C52.0225 66.4944 53.1051 67.5771 54.4405 67.5771Z" fill="white"/>
<path d="M54.4411 67.6995C53.0406 67.6995 51.9014 66.56 51.9014 65.1593C51.9014 63.7587 53.0406 62.6191 54.4411 62.6191C55.8415 62.6191 56.9807 63.7586 56.9807 65.1593C56.9807 66.5601 55.8415 67.6995 54.4411 67.6995ZM54.4411 62.8625C53.1748 62.8625 52.1447 63.8929 52.1447 65.1593C52.1447 66.4258 53.1748 67.4561 54.4411 67.4561C55.7073 67.4561 56.7374 66.4258 56.7374 65.1593C56.7374 63.8929 55.7073 62.8625 54.4411 62.8625Z" fill="#151B3D"/>
</g>
<g clip-path="url(#clip2_1011_2475)">
<path d="M43.6198 84.7815H20.685V78.0431H43.6198V84.7815ZM41.5012 78.0431H18.5664V71.3047H41.5012V78.0431Z" fill="#EBFCDA"/>
<path d="M43.6198 84.9208H20.685C20.6479 84.9208 20.6122 84.9061 20.586 84.8798C20.5597 84.8535 20.5449 84.8179 20.5449 84.7808V78.0424C20.5449 78.0052 20.5597 77.9696 20.586 77.9434C20.6122 77.9171 20.6479 77.9023 20.685 77.9023H43.6198C43.6569 77.9023 43.6926 77.9171 43.7189 77.9434C43.7451 77.9696 43.7599 78.0052 43.7599 78.0424V84.7808C43.7599 84.8179 43.7451 84.8535 43.7189 84.8798C43.6926 84.9061 43.6569 84.9208 43.6198 84.9208ZM20.825 84.6408H43.4796V78.1824H20.825V84.6408Z" fill="#EBFCDA"/>
<path d="M41.5007 78.1826H18.5659C18.5287 78.1826 18.4931 78.1679 18.4668 78.1416C18.4405 78.1153 18.4258 78.0797 18.4258 78.0426V71.3041C18.4258 71.267 18.4405 71.2313 18.4668 71.2051C18.4931 71.1788 18.5287 71.1641 18.5659 71.1641H41.5007C41.5378 71.1641 41.5734 71.1788 41.5997 71.2051C41.626 71.2313 41.6407 71.267 41.6407 71.3041V78.0426C41.6407 78.0797 41.626 78.1153 41.5997 78.1416C41.5734 78.1679 41.5378 78.1826 41.5007 78.1826ZM18.7059 77.9026H41.3605V71.4441H18.7059V77.9026Z" fill="#EBFCDA"/>
<path d="M35.8457 78.1824H20.685C20.6479 78.1824 20.6122 78.1676 20.586 78.1414C20.5597 78.1151 20.5449 78.0795 20.5449 78.0424C20.5449 78.0052 20.5597 77.9696 20.586 77.9434C20.6122 77.9171 20.6479 77.9023 20.685 77.9023H35.8457C35.8829 77.9023 35.9185 77.9171 35.9448 77.9434C35.971 77.9696 35.9858 78.0052 35.9858 78.0424C35.9858 78.0795 35.971 78.1151 35.9448 78.1414C35.9185 78.1676 35.8829 78.1824 35.8457 78.1824Z" fill="#151B3D"/>
<path d="M24.0893 84.9208C24.0522 84.9208 24.0165 84.9061 23.9903 84.8798C23.964 84.8535 23.9492 84.8179 23.9492 84.7808V78.0424C23.9492 78.0052 23.964 77.9696 23.9903 77.9434C24.0165 77.9171 24.0522 77.9023 24.0893 77.9023C24.1265 77.9023 24.1621 77.9171 24.1884 77.9434C24.2146 77.9696 24.2294 78.0052 24.2294 78.0424V84.7808C24.2294 84.8179 24.2146 84.8535 24.1884 84.8798C24.1621 84.9061 24.1265 84.9208 24.0893 84.9208ZM42.3993 78.1824H38.0089C37.9718 78.1824 37.9361 78.1676 37.9098 78.1414C37.8836 78.1151 37.8688 78.0795 37.8688 78.0424C37.8688 78.0052 37.8836 77.9696 37.9098 77.9434C37.9361 77.9171 37.9718 77.9023 38.0089 77.9023H42.3993C42.4365 77.9023 42.4721 77.9171 42.4984 77.9434C42.5246 77.9696 42.5394 78.0052 42.5394 78.0424C42.5394 78.0795 42.5246 78.1151 42.4984 78.1414C42.4721 78.1676 42.4365 78.1824 42.3993 78.1824ZM32.086 84.9208C32.0489 84.9208 32.0132 84.9061 31.987 84.8798C31.9607 84.8535 31.9459 84.8179 31.9459 84.7808V78.0424C31.9459 78.0052 31.9607 77.9696 31.987 77.9434C32.0132 77.9171 32.0489 77.9023 32.086 77.9023C32.1232 77.9023 32.1588 77.9171 32.1851 77.9434C32.2113 77.9696 32.2261 78.0052 32.2261 78.0424V84.7808C32.2261 84.8179 32.2113 84.8535 32.1851 84.8798C32.1588 84.9061 32.1232 84.9208 32.086 84.9208Z" fill="#151B3D"/>
<path d="M40.2694 84.9045C40.2323 84.9045 40.1966 84.8898 40.1703 84.8635C40.1441 84.8372 40.1293 84.8016 40.1293 84.7645V78.0426C40.1293 78.0054 40.1441 77.9698 40.1703 77.9436C40.1966 77.9173 40.2323 77.9026 40.2694 77.9026C40.3066 77.9026 40.3422 77.9173 40.3685 77.9436C40.3947 77.9698 40.4095 78.0054 40.4095 78.0426V84.7645C40.4095 84.8016 40.3947 84.8372 40.3685 84.8635C40.3422 84.8898 40.3066 84.9045 40.2694 84.9045ZM34.2938 78.1826C34.2567 78.1826 34.221 78.1679 34.1948 78.1416C34.1685 78.1153 34.1537 78.0797 34.1537 78.0426V71.3041C34.1537 71.267 34.1685 71.2313 34.1948 71.2051C34.221 71.1788 34.2567 71.1641 34.2938 71.1641C34.331 71.1641 34.3666 71.1788 34.3929 71.2051C34.4192 71.2313 34.4339 71.267 34.4339 71.3041V78.0426C34.4339 78.0797 34.4192 78.1153 34.3929 78.1416C34.3666 78.1679 34.331 78.1826 34.2938 78.1826ZM25.8901 78.1826C25.8529 78.1826 25.8173 78.1679 25.791 78.1416C25.7648 78.1153 25.75 78.0797 25.75 78.0426V71.3041C25.75 71.267 25.7648 71.2313 25.791 71.2051C25.8173 71.1788 25.8529 71.1641 25.8901 71.1641C25.9272 71.1641 25.9629 71.1788 25.9892 71.2051C26.0154 71.2313 26.0302 71.267 26.0302 71.3041V78.0426C26.0302 78.0797 26.0154 78.1153 25.9892 78.1416C25.9629 78.1679 25.9272 78.1826 25.8901 78.1826Z" fill="#151B3D"/>
<path d="M29.1382 69.4193L26.0059 65.4609L20.3327 69.9124C19.1492 70.5272 17.941 71.3024 16.7639 72.226C15.5868 73.1496 14.5464 74.1387 13.668 75.1417L7.96582 79.6159L11.0981 83.5743C12.9506 85.933 18.4908 84.6763 23.4725 80.7676C28.4541 76.8589 30.9908 71.778 29.1382 69.4193Z" fill="#EBFCDA"/>
<path d="M14.1141 84.9058C12.714 84.9058 11.6346 84.4834 10.9883 83.6605L7.85662 79.703C7.85641 79.7027 7.85618 79.7024 7.85592 79.7022C6.92465 78.5164 7.01522 76.6548 8.11082 74.4603C9.19004 72.2987 11.12 70.0602 13.5453 68.1572C15.9707 66.2542 18.6044 64.9117 20.9614 64.3771C23.3544 63.8343 25.1851 64.1884 26.1164 65.3742L26.1183 65.3766L29.2483 69.3322L29.2487 69.3326C30.18 70.5183 30.0894 72.3799 28.9938 74.5745C27.9146 76.7361 25.9846 78.9745 23.5593 80.8776C21.134 82.7806 18.5002 84.123 16.1432 84.6576C15.411 84.8236 14.7314 84.9058 14.1141 84.9058ZM8.07615 79.529L11.2083 83.4872C12.0693 84.5833 13.7997 84.902 16.0812 84.3844C18.3986 83.8589 20.9929 82.5351 23.3863 80.6572C28.2992 76.8023 30.8303 71.7996 29.0284 69.5054L25.8965 65.5477L25.8941 65.5445C24.0901 63.2538 18.6296 64.524 13.7184 68.3775C8.80583 72.2321 6.27496 77.2346 8.07615 79.529Z" fill="#EBFCDA"/>
<path d="M14.1137 84.9053C12.7136 84.9053 11.6342 84.483 10.9879 83.6601C10.9763 83.6456 10.9677 83.629 10.9625 83.6112C10.9574 83.5934 10.9558 83.5748 10.9579 83.5564C10.9601 83.538 10.9658 83.5202 10.9748 83.5041C10.9839 83.4879 10.996 83.4737 11.0106 83.4623C11.0252 83.4509 11.0419 83.4424 11.0597 83.4375C11.0776 83.4325 11.0962 83.4312 11.1146 83.4335C11.133 83.4358 11.1507 83.4417 11.1668 83.4509C11.1829 83.4601 11.1969 83.4724 11.2082 83.4871C12.0689 84.583 13.7993 84.9013 16.0808 84.384C18.3981 83.8583 20.9925 82.5347 23.3858 80.6567C25.7792 78.7787 27.6816 76.5741 28.7427 74.4488C29.7873 72.3566 29.8886 70.6008 29.0279 69.505C29.0163 69.4906 29.0077 69.474 29.0026 69.4562C28.9974 69.4384 28.9959 69.4198 28.998 69.4014C29.0001 69.383 29.0058 69.3652 29.0149 69.349C29.0239 69.3329 29.0361 69.3187 29.0506 69.3072C29.0652 69.2958 29.0819 69.2874 29.0998 69.2824C29.1176 69.2775 29.1363 69.2761 29.1546 69.2784C29.173 69.2807 29.1908 69.2867 29.2068 69.2959C29.2229 69.3051 29.237 69.3174 29.2483 69.3321C30.1795 70.5178 30.089 72.3793 28.9934 74.5739C27.9141 76.7355 25.9841 78.9739 23.5588 80.877C21.1335 82.78 18.4998 84.1224 16.1428 84.657C15.4107 84.8232 14.731 84.9053 14.1137 84.9053Z" fill="#151B3D"/>
<path d="M20.3403 76.8097C25.322 72.9008 27.8587 67.8199 26.0062 65.4612C24.1536 63.1024 18.6133 64.3591 13.6316 68.268C8.64983 72.1769 6.11312 77.2578 7.96568 79.6166C9.81823 81.9753 15.3585 80.7186 20.3403 76.8097Z" fill="#EBFCDA"/>
<path d="M10.9819 80.9472C9.58177 80.9472 8.50241 80.5249 7.85602 79.702C7.84443 79.6875 7.83582 79.6709 7.83068 79.6531C7.82555 79.6354 7.824 79.6167 7.82611 79.5983C7.82823 79.5799 7.83397 79.5622 7.84301 79.546C7.85205 79.5298 7.86421 79.5156 7.87878 79.5042C7.89334 79.4928 7.91004 79.4843 7.92789 79.4794C7.94574 79.4745 7.96439 79.4731 7.98277 79.4754C8.00114 79.4777 8.01888 79.4836 8.03495 79.4929C8.05102 79.5021 8.0651 79.5144 8.07639 79.529C8.68446 80.3032 9.70988 80.6716 10.99 80.6717C13.5031 80.6718 16.999 79.2526 20.2541 76.6985C25.1669 72.8437 27.698 67.841 25.8961 65.5468C25.4436 64.9706 24.7523 64.6088 23.8414 64.4714C23.805 64.4656 23.7723 64.4456 23.7506 64.4158C23.7288 64.386 23.7197 64.3488 23.7252 64.3123C23.7307 64.2758 23.7504 64.243 23.78 64.2209C23.8096 64.1989 23.8467 64.1894 23.8833 64.1945C24.867 64.3429 25.6184 64.7397 26.1166 65.374C27.0478 66.5598 26.9573 68.4214 25.8617 70.6159C24.7824 72.7775 22.8524 75.016 20.4271 76.919C18.0018 78.822 15.3681 80.1645 13.0111 80.6991C12.2789 80.8651 11.5991 80.9472 10.9819 80.9472ZM20.1794 64.8674C20.1458 64.8673 20.1134 64.8551 20.0881 64.833C20.0628 64.811 20.0462 64.7807 20.0413 64.7474C20.0365 64.7142 20.0437 64.6804 20.0618 64.6521C20.0798 64.6238 20.1073 64.6028 20.1395 64.5931C20.8498 64.3816 21.532 64.2408 22.1671 64.1746C22.1854 64.1727 22.2039 64.1744 22.2215 64.1796C22.2392 64.1849 22.2556 64.1935 22.2699 64.2051C22.2842 64.2167 22.2961 64.231 22.3048 64.2471C22.3136 64.2633 22.3191 64.2811 22.321 64.2993C22.3229 64.3176 22.3212 64.3361 22.316 64.3538C22.3107 64.3714 22.302 64.3878 22.2905 64.4021C22.2789 64.4164 22.2646 64.4282 22.2484 64.437C22.2322 64.4458 22.2145 64.4513 22.1962 64.4532C21.5783 64.5176 20.9133 64.6549 20.2195 64.8616C20.2065 64.8654 20.193 64.8674 20.1794 64.8674ZM25.4162 79.2072C25.3884 79.2072 25.3612 79.1989 25.3381 79.1834C25.315 79.1678 25.297 79.1458 25.2865 79.12C25.276 79.0942 25.2734 79.0659 25.2791 79.0387C25.2847 79.0114 25.2984 78.9865 25.3183 78.967C27.0931 77.2332 28.4425 75.3309 29.1179 73.6108C29.7917 71.8947 29.76 70.4368 29.0285 69.5054L27.713 67.8429C27.6899 67.8138 27.6794 67.7767 27.6837 67.7398C27.688 67.7029 27.7068 67.6693 27.7359 67.6462C27.7651 67.6232 27.8022 67.6126 27.8391 67.6169C27.876 67.6212 27.9097 67.64 27.9327 67.6692L29.2486 69.332C30.8676 71.3934 29.3319 75.4377 25.5142 79.1673C25.488 79.1929 25.4528 79.2072 25.4162 79.2072Z" fill="#151B3D"/>
<path d="M11.3554 79.5379C10.2582 79.5379 9.41934 79.2132 8.91934 78.5766C8.1587 77.6081 8.28584 76.0491 9.27742 74.1868C10.2503 72.3596 11.9441 70.4447 14.0467 68.7949C16.1493 67.1451 18.4125 65.9553 20.4192 65.4444C22.4646 64.9239 24.01 65.1705 24.7706 66.139C25.5313 67.1076 25.4041 68.6666 24.4125 70.5289C23.4397 72.3561 21.7459 74.2709 19.6433 75.9207C17.5407 77.5705 15.2775 78.7604 13.2707 79.2712C12.5698 79.4496 11.9274 79.5379 11.3554 79.5379ZM22.339 65.4564C21.7908 65.4564 21.1701 65.5423 20.4884 65.7158C18.5186 66.2172 16.2923 67.3889 14.2197 69.0152C12.1471 70.6415 10.4798 72.5248 9.52476 74.3183C8.58844 76.0768 8.45171 77.5277 9.13971 78.4037C9.82771 79.2797 11.2702 79.4914 13.2016 78.9998C15.1715 78.4984 17.3977 77.3267 19.4703 75.7004C21.5429 74.0741 23.2103 72.1908 24.1652 70.3972C25.1015 68.6388 25.2383 67.1879 24.5503 66.3118C24.1051 65.7451 23.344 65.4564 22.339 65.4564ZM14.7328 84.8492C14.6907 84.8492 14.649 84.8303 14.6214 84.7943L11.6284 80.8903C11.6172 80.8757 11.609 80.8591 11.6043 80.8413C11.5995 80.8236 11.5983 80.805 11.6007 80.7868C11.6031 80.7686 11.6091 80.751 11.6183 80.7351C11.6275 80.7192 11.6398 80.7052 11.6544 80.694C11.6839 80.6714 11.7212 80.6615 11.758 80.6663C11.7762 80.6688 11.7938 80.6747 11.8097 80.6839C11.8257 80.6931 11.8396 80.7054 11.8508 80.72L14.8438 84.6239C14.8598 84.6447 14.8695 84.6694 14.8721 84.6954C14.8747 84.7214 14.8699 84.7476 14.8583 84.7711C14.8468 84.7945 14.8289 84.8142 14.8067 84.828C14.7845 84.8418 14.7589 84.8491 14.7328 84.8492ZM20.7542 82.7538C20.7121 82.7538 20.6704 82.7349 20.6428 82.6988L17.6294 78.7634C17.6182 78.7488 17.61 78.7321 17.6053 78.7144C17.6006 78.6966 17.5994 78.6781 17.6018 78.6598C17.6042 78.6416 17.6102 78.624 17.6194 78.6081C17.6287 78.5922 17.6409 78.5783 17.6555 78.5671C17.6701 78.5559 17.6868 78.5477 17.7046 78.543C17.7224 78.5382 17.7409 78.5371 17.7591 78.5395C17.7774 78.5419 17.795 78.5479 17.8109 78.5571C17.8268 78.5663 17.8408 78.5786 17.8519 78.5932L20.8654 82.5286C20.8813 82.5494 20.891 82.5741 20.8936 82.6001C20.8961 82.6261 20.8913 82.6523 20.8798 82.6757C20.8682 82.6992 20.8503 82.7189 20.8281 82.7327C20.8059 82.7465 20.7803 82.7538 20.7542 82.7538ZM26.0475 78.5648C26.0053 78.5648 25.9637 78.5459 25.9361 78.5098L22.9304 74.5824C22.9078 74.5528 22.8979 74.5156 22.9028 74.4788C22.9077 74.4419 22.9271 74.4086 22.9566 74.386C22.9861 74.3634 23.0234 74.3535 23.0602 74.3584C23.0971 74.3633 23.1304 74.3826 23.153 74.4122L26.1587 78.3396C26.1746 78.3604 26.1844 78.3851 26.187 78.4111C26.1895 78.4371 26.1847 78.4633 26.1731 78.4867C26.1616 78.5102 26.1437 78.5299 26.1215 78.5437C26.0993 78.5575 26.0736 78.5648 26.0475 78.5648ZM29.564 72.8303C29.5423 72.8303 29.5209 72.8253 29.5015 72.8156C29.4821 72.806 29.4652 72.792 29.4521 72.7747L26.3538 68.6767C26.3314 68.6471 26.3216 68.6098 26.3268 68.573C26.3319 68.5362 26.3514 68.503 26.3811 68.4806C26.4107 68.4582 26.4481 68.4485 26.4849 68.4536C26.5217 68.4587 26.5549 68.4782 26.5773 68.5079L29.6757 72.6058C29.6914 72.6266 29.7011 72.6513 29.7035 72.6773C29.7059 72.7032 29.701 72.7293 29.6894 72.7526C29.6778 72.7759 29.6599 72.7956 29.6378 72.8093C29.6156 72.823 29.5901 72.8303 29.564 72.8303Z" fill="#151B3D"/>
</g>
<g clip-path="url(#clip3_1011_2475)">
<path d="M103.343 69.8712H68.3158C67.0476 69.8712 66.0195 68.8429 66.0195 67.5746V63.0681C66.0195 61.7997 67.0476 60.7715 68.3158 60.7715H103.343C104.611 60.7715 105.639 61.7997 105.639 63.0681V67.5745C105.639 68.8429 104.611 69.8712 103.343 69.8712Z" fill="#EBFCDA"/>
<path d="M103.344 70.0109H68.3162C66.9728 70.0109 65.8799 68.9177 65.8799 67.5741V63.0677C65.8799 61.724 66.9728 60.6309 68.3162 60.6309H103.344C104.687 60.6309 105.78 61.724 105.78 63.0676V67.574C105.78 68.9177 104.687 70.0109 103.344 70.0109ZM68.3162 60.9111C67.1274 60.9111 66.1601 61.8786 66.1601 63.0677V67.5741C66.1601 68.7632 67.1274 69.7306 68.3162 69.7306H103.344C104.532 69.7306 105.5 68.7631 105.5 67.5741V63.0677C105.5 61.8786 104.532 60.9111 103.344 60.9111H68.3162Z" fill="#151B3D"/>
<path d="M100.98 66.5195H82.2881C82.2598 66.5195 82.2328 66.5057 82.2128 66.481C82.1929 66.4564 82.1816 66.4229 82.1816 66.388C82.1816 66.3532 82.1929 66.3197 82.2128 66.2951C82.2328 66.2704 82.2598 66.2566 82.2881 66.2566H100.98C101.008 66.2566 101.035 66.2704 101.055 66.2951C101.075 66.3197 101.086 66.3532 101.086 66.388C101.086 66.4229 101.075 66.4564 101.055 66.481C101.035 66.5057 101.008 66.5195 100.98 66.5195ZM100.98 64.2844H82.2881C82.2598 64.2844 82.2328 64.2706 82.2128 64.2459C82.1929 64.2213 82.1816 64.1878 82.1816 64.153C82.1816 64.1181 82.1929 64.0846 82.2128 64.06C82.2328 64.0353 82.2598 64.0215 82.2881 64.0215H100.98C101.008 64.0215 101.035 64.0353 101.055 64.06C101.075 64.0846 101.086 64.1181 101.086 64.153C101.086 64.1878 101.075 64.2213 101.055 64.2459C101.035 64.2706 101.008 64.2844 100.98 64.2844Z" fill="#151B3D"/>
</g>
<path d="M77.1523 67.9492C77.2177 67.9492 77.2786 67.9329 77.3349 67.9003C77.3915 67.8675 77.4377 67.8213 77.4733 67.7619C77.5922 67.5537 77.6933 67.3187 77.7765 67.057C77.8598 66.7953 77.9014 66.498 77.9014 66.1649C77.9014 65.7248 77.8181 65.3098 77.6517 64.9202C77.4852 64.5307 77.2578 64.1902 76.9693 63.8988C76.6811 63.6074 76.3409 63.377 75.9485 63.2076C75.5561 63.0379 75.137 62.9531 74.6912 62.9531C74.4118 62.9531 74.1576 62.9813 73.9286 63.0377C73.6998 63.0943 73.4695 63.1821 73.2377 63.3011C73.1723 63.3368 73.1336 63.3843 73.1217 63.4438C73.1099 63.5033 73.1307 63.5568 73.1842 63.6044C73.2198 63.6341 73.2555 63.649 73.2912 63.649C73.3268 63.649 73.3625 63.6401 73.3982 63.6222C73.6003 63.5211 73.8069 63.4438 74.0181 63.3903C74.229 63.3368 74.4534 63.31 74.6912 63.31C75.4818 63.31 76.155 63.588 76.7107 64.144C77.2667 64.7002 77.5447 65.3738 77.5447 66.1649C77.5447 66.4147 77.5106 66.6615 77.4423 66.9054C77.3738 67.1492 77.2772 67.3782 77.1523 67.5923H72.23C72.0933 67.3663 71.9937 67.1314 71.9311 66.8875C71.8688 66.6437 71.8377 66.3909 71.8377 66.1292C71.8377 65.927 71.8629 65.7143 71.9133 65.4911C71.9639 65.2682 72.0428 65.0586 72.1498 64.8623C72.1676 64.8207 72.1751 64.782 72.1722 64.7464C72.1692 64.7107 72.1498 64.675 72.1141 64.6393C72.0725 64.5977 72.022 64.5842 71.9625 64.599C71.9031 64.614 71.8555 64.6542 71.8198 64.7196C71.695 64.9635 71.6073 65.1984 71.5566 65.4244C71.5062 65.6504 71.481 65.8853 71.481 66.1292C71.481 66.4325 71.5152 66.718 71.5837 66.9857C71.652 67.2533 71.7604 67.521 71.909 67.7886C71.9387 67.8362 71.9818 67.8749 72.0381 67.9046C72.0947 67.9343 72.1587 67.9492 72.23 67.9492H77.1523Z" fill="black"/>
<path fill-rule="evenodd" clip-rule="evenodd" d="M75.9974 67.9492C76.5455 67.5468 76.9014 66.8976 76.9014 66.1649C76.9014 64.9429 75.9114 63.9531 74.6912 63.9531C73.471 63.9531 72.481 64.9429 72.481 66.1649C72.481 66.8976 72.8369 67.5468 73.3849 67.9492H72.0216C71.6801 67.4389 71.481 66.8251 71.481 66.1649C71.481 64.3911 72.9182 62.9531 74.6912 62.9531C76.4641 62.9531 77.9014 64.3911 77.9014 66.1649C77.9014 66.8251 77.7022 67.4389 77.3608 67.9492H75.9974Z" fill="black"/>
<path d="M75.0084 67.0115C75.1325 66.8914 75.1939 66.7535 75.1928 66.5979C75.1832 66.4425 75.1135 66.3123 74.9837 66.2074C74.8539 66.1025 74.718 66.0651 74.576 66.0953L72.3149 66.5711C72.2311 66.5824 72.1907 66.6301 72.1936 66.7142C72.1965 66.7982 72.2403 66.8472 72.3249 66.8611L74.6131 67.1671C74.7524 67.1833 74.8842 67.1314 75.0084 67.0115Z" fill="black"/>
<g clip-path="url(#clip4_1011_2475)">
<path d="M102.314 57.691H77.6055C75.769 57.691 74.2803 56.2037 74.2803 54.3692V36.9332C74.2803 35.0985 75.769 33.6113 77.6055 33.6113H102.314C104.151 33.6113 105.64 35.0985 105.64 36.9332V54.3692C105.64 56.2037 104.151 57.691 102.314 57.691Z" fill="white"/>
<path d="M102.314 57.8306H77.6052C75.6942 57.8306 74.1396 56.2776 74.1396 54.3687V36.9327C74.1396 35.0238 75.6942 33.4707 77.6052 33.4707H102.314C104.225 33.4707 105.78 35.0238 105.78 36.9327V54.3687C105.78 56.2776 104.225 57.8306 102.314 57.8306ZM77.6052 33.751C75.849 33.751 74.4202 35.1783 74.4202 36.9327V54.3687C74.4202 56.1231 75.849 57.5504 77.6052 57.5504H102.314C104.07 57.5504 105.499 56.1231 105.499 54.3687V36.9327C105.499 35.1783 104.07 33.751 102.314 33.751H77.6052Z" fill="#151B3D"/>
<path d="M86.5075 54.2077C86.4703 54.2077 86.4346 54.1929 86.4083 54.1667C86.382 54.1404 86.3672 54.1047 86.3672 54.0676V39.6738C86.3672 39.6367 86.382 39.601 86.4083 39.5747C86.4346 39.5484 86.4703 39.5337 86.5075 39.5337C86.5447 39.5337 86.5804 39.5484 86.6067 39.5747C86.633 39.601 86.6478 39.6367 86.6478 39.6738V54.0676C86.6478 54.1047 86.633 54.1404 86.6067 54.1667C86.5804 54.1929 86.5447 54.2077 86.5075 54.2077ZM93.481 53.0945C93.4438 53.0945 93.4081 53.0797 93.3818 53.0534C93.3555 53.0271 93.3407 52.9915 93.3407 52.9543V38.5607C93.3407 38.5235 93.3555 38.4878 93.3818 38.4616C93.4081 38.4353 93.4438 38.4205 93.481 38.4205C93.5182 38.4205 93.5539 38.4353 93.5802 38.4616C93.6065 38.4878 93.6213 38.5235 93.6213 38.5607V52.9544C93.6212 52.9915 93.6064 53.0272 93.5801 53.0534C93.5538 53.0797 93.5182 53.0945 93.481 53.0945ZM100.451 49.6908C100.414 49.6908 100.379 49.676 100.352 49.6497C100.326 49.6234 100.311 49.5878 100.311 49.5506V36.0034C100.311 35.9663 100.326 35.9306 100.352 35.9043C100.379 35.878 100.414 35.8633 100.451 35.8633C100.489 35.8633 100.524 35.878 100.551 35.9043C100.577 35.9306 100.592 35.9663 100.592 36.0034V49.5506C100.592 49.5878 100.577 49.6234 100.551 49.6497C100.524 49.676 100.489 49.6908 100.451 49.6908Z" fill="#151B3D"/>
<path d="M85.0986 46.4121H87.922V54.2205H85.0986V46.4121Z" fill="#EBFCDA"/>
<path d="M99.0397 41.7734H101.863V49.3132H99.0397V41.7734ZM92.0693 43.7796H94.8927V54.161H92.0693V43.7796Z" fill="#EBFCDA"/>
<path d="M79.5397 54.2074C79.5025 54.2074 79.4668 54.1927 79.4405 54.1664C79.4142 54.1401 79.3994 54.1045 79.3994 54.0673V41.8999C79.3994 41.8627 79.4142 41.8271 79.4405 41.8008C79.4668 41.7745 79.5025 41.7598 79.5397 41.7598C79.5769 41.7598 79.6126 41.7745 79.6389 41.8008C79.6652 41.8271 79.68 41.8627 79.68 41.8999V54.0672C79.68 54.0856 79.6764 54.1039 79.6693 54.1209C79.6623 54.1379 79.652 54.1533 79.6389 54.1664C79.6259 54.1794 79.6104 54.1897 79.5934 54.1968C79.5764 54.2038 79.5581 54.2074 79.5397 54.2074Z" fill="#151B3D"/>
<path d="M80.9523 48.7383H78.1289V54.1886H80.9523V48.7383Z" fill="#9ACC5B"/>
</g>
<defs>
<clipPath id="clip0_1011_2475">
<rect width="67.62" height="52.01" fill="white" transform="translate(23.7402 23.25)"/>
</clipPath>
<clipPath id="clip1_1011_2475">
<rect width="65.17" height="55.93" fill="white" transform="translate(23.8799 11.7695)"/>
</clipPath>
<clipPath id="clip2_1011_2475">
<rect width="36.54" height="20.79" fill="white" transform="translate(7.21973 64.1309)"/>
</clipPath>
<clipPath id="clip3_1011_2475">
<rect width="39.9" height="9.38" fill="white" transform="translate(65.8799 60.6309)"/>
</clipPath>
<clipPath id="clip4_1011_2475">
<rect width="31.64" height="24.36" fill="white" transform="translate(74.1396 33.4707)"/>
</clipPath>
</defs>
</svg>
