<svg viewBox="0 0 114 92" fill="none" xmlns="http://www.w3.org/2000/svg">
<g clip-path="url(#clip0_1011_4441)">
<path d="M87.8586 23.1387H27.5931C25.4722 23.1387 23.7529 24.863 23.7529 26.99V71.5901C23.7529 73.7171 25.4722 75.4414 27.5931 75.4414H87.8586C89.9795 75.4414 91.6987 73.7171 91.6987 71.5901V26.99C91.6987 24.863 89.9795 23.1387 87.8586 23.1387Z" fill="white"/>
<path d="M87.8587 75.5815H27.5931C25.3991 75.5815 23.614 73.7913 23.614 71.5907V29.3191C23.614 29.2821 23.6287 29.2467 23.6547 29.2205C23.6808 29.1944 23.7161 29.1797 23.753 29.1797C23.7899 29.1797 23.8252 29.1944 23.8513 29.2205C23.8773 29.2467 23.892 29.2821 23.892 29.3191V71.5907C23.892 73.6375 25.5523 75.3028 27.5931 75.3028H87.8587C89.8995 75.3028 91.5598 73.6375 91.5598 71.5907V29.3191C91.5598 29.2821 91.5745 29.2467 91.6005 29.2205C91.6266 29.1944 91.6619 29.1797 91.6988 29.1797C91.7357 29.1797 91.771 29.1944 91.7971 29.2205C91.8231 29.2467 91.8378 29.2821 91.8378 29.3191V71.5907C91.8378 73.7913 90.0527 75.5815 87.8587 75.5815Z" fill="#151B3D"/>
<path d="M87.8586 23.1387H27.5931C25.4722 23.1387 23.7529 24.863 23.7529 26.99V29.3185H91.6987V26.99C91.6987 24.863 89.9794 23.1387 87.8586 23.1387Z" fill="#FFF9E3"/>
<path d="M91.6988 29.4585H23.753C23.7161 29.4585 23.6808 29.4438 23.6547 29.4177C23.6287 29.3916 23.614 29.3561 23.614 29.3191V26.9907C23.614 24.7903 25.3991 23 27.5931 23H87.8587C90.0528 23 91.8378 24.7903 91.8378 26.9907V29.3191C91.8378 29.3561 91.8231 29.3916 91.7971 29.4177C91.771 29.4438 91.7357 29.4585 91.6988 29.4585ZM23.892 29.1798H91.5598V26.9907C91.5598 24.9439 89.8995 23.2788 87.8587 23.2788H27.5931C25.5523 23.2788 23.892 24.9439 23.892 26.9907V29.1798Z" fill="#FEB84F"/>
<path d="M30.3302 28.1646C30.3119 28.1646 30.2938 28.1611 30.277 28.154C30.2601 28.147 30.2448 28.1368 30.2319 28.1238L27.1906 25.0736C27.1773 25.0608 27.1668 25.0454 27.1595 25.0284C27.1522 25.0114 27.1484 24.9931 27.1482 24.9746C27.148 24.9561 27.1516 24.9377 27.1585 24.9206C27.1655 24.9035 27.1759 24.8879 27.1889 24.8748C27.2019 24.8617 27.2175 24.8514 27.2345 24.8444C27.2516 24.8374 27.2699 24.8338 27.2884 24.834C27.3068 24.8342 27.3251 24.838 27.342 24.8453C27.359 24.8526 27.3743 24.8632 27.3871 24.8765L30.4283 27.9267C30.4478 27.9462 30.461 27.971 30.4664 27.9981C30.4717 28.0251 30.469 28.0531 30.4585 28.0786C30.4479 28.104 30.4301 28.1258 30.4073 28.1411C30.3844 28.1564 30.3576 28.1646 30.3302 28.1646Z" fill="#151B3D"/>
<path d="M27.2893 28.1646C27.2619 28.1646 27.235 28.1564 27.2121 28.1411C27.1893 28.1258 27.1715 28.104 27.161 28.0786C27.1505 28.0531 27.1477 28.0251 27.1531 27.9981C27.1584 27.971 27.1717 27.9462 27.1911 27.9267L30.2323 24.8765C30.2451 24.8632 30.2604 24.8526 30.2774 24.8453C30.2944 24.838 30.3126 24.8342 30.331 24.834C30.3495 24.8338 30.3678 24.8374 30.3849 24.8444C30.402 24.8514 30.4175 24.8617 30.4305 24.8748C30.4436 24.8879 30.4539 24.9035 30.4609 24.9206C30.4679 24.9377 30.4714 24.9561 30.4712 24.9746C30.4711 24.9931 30.4672 25.0114 30.4599 25.0284C30.4527 25.0454 30.4421 25.0608 30.4288 25.0736L27.3876 28.1238C27.3747 28.1368 27.3594 28.147 27.3425 28.1541C27.3257 28.1611 27.3076 28.1647 27.2893 28.1646ZM46.3908 32.5883C46.3539 32.5883 46.3186 32.5736 46.2925 32.5474C46.2665 32.5213 46.2518 32.4859 46.2518 32.4489V29.4521C46.2518 29.4151 46.2665 29.3797 46.2925 29.3536C46.3186 29.3274 46.3539 29.3127 46.3908 29.3127C46.4277 29.3127 46.463 29.3274 46.4891 29.3536C46.5151 29.3797 46.5298 29.4151 46.5298 29.4521V32.4489C46.5298 32.4859 46.5151 32.5213 46.4891 32.5474C46.463 32.5736 46.4277 32.5883 46.3908 32.5883ZM46.3908 66.8715C46.3539 66.8715 46.3186 66.8568 46.2925 66.8306C46.2665 66.8045 46.2518 66.769 46.2518 66.7321V61.0182C46.2518 60.9812 46.2665 60.9458 46.2925 60.9197C46.3186 60.8935 46.3539 60.8788 46.3908 60.8788C46.4277 60.8788 46.463 60.8935 46.4891 60.9197C46.5151 60.9458 46.5298 60.9812 46.5298 61.0182V66.7321C46.5298 66.769 46.5151 66.8045 46.4891 66.8306C46.463 66.8568 46.4277 66.8715 46.3908 66.8715ZM46.3908 55.4437C46.3539 55.4437 46.3186 55.429 46.2925 55.4028C46.2665 55.3767 46.2518 55.3412 46.2518 55.3043V49.5904C46.2518 49.5534 46.2665 49.518 46.2925 49.4919C46.3186 49.4657 46.3539 49.451 46.3908 49.451C46.4277 49.451 46.463 49.4657 46.4891 49.4919C46.5151 49.518 46.5298 49.5534 46.5298 49.5904V55.3043C46.5298 55.3412 46.5151 55.3767 46.4891 55.4028C46.463 55.429 46.4277 55.4437 46.3908 55.4437ZM46.3908 44.0159C46.3539 44.0159 46.3186 44.0012 46.2925 43.9751C46.2665 43.949 46.2518 43.9135 46.2518 43.8765V38.1627C46.2518 38.1257 46.2665 38.0903 46.2925 38.0641C46.3186 38.038 46.3539 38.0233 46.3908 38.0233C46.4277 38.0233 46.463 38.038 46.4891 38.0641C46.5151 38.0903 46.5298 38.1257 46.5298 38.1627V43.8765C46.5298 43.9135 46.5151 43.949 46.4891 43.9751C46.463 44.0012 46.4277 44.0159 46.3908 44.0159ZM46.3908 75.5821C46.3539 75.5821 46.3186 75.5674 46.2925 75.5413C46.2665 75.5151 46.2518 75.4797 46.2518 75.4427V72.4459C46.2518 72.409 46.2665 72.3735 46.2925 72.3474C46.3186 72.3212 46.3539 72.3066 46.3908 72.3066C46.4277 72.3066 46.463 72.3212 46.4891 72.3474C46.5151 72.3735 46.5298 72.409 46.5298 72.4459V75.4427C46.5298 75.4797 46.5151 75.5151 46.4891 75.5413C46.463 75.5674 46.4277 75.5821 46.3908 75.5821ZM68.9748 32.5883C68.938 32.5883 68.9026 32.5736 68.8766 32.5474C68.8505 32.5213 68.8359 32.4859 68.8359 32.4489V29.4521C68.8359 29.4151 68.8505 29.3797 68.8766 29.3536C68.9026 29.3274 68.938 29.3127 68.9748 29.3127C69.0117 29.3127 69.0471 29.3274 69.0731 29.3536C69.0992 29.3797 69.1138 29.4151 69.1138 29.4521V32.4489C69.1138 32.4859 69.0992 32.5213 69.0731 32.5474C69.0471 32.5736 69.0117 32.5883 68.9748 32.5883ZM68.9748 66.8715C68.938 66.8715 68.9026 66.8568 68.8766 66.8306C68.8505 66.8045 68.8359 66.769 68.8359 66.7321V61.0182C68.8359 60.9812 68.8505 60.9458 68.8766 60.9197C68.9026 60.8935 68.938 60.8788 68.9748 60.8788C69.0117 60.8788 69.0471 60.8935 69.0731 60.9197C69.0992 60.9458 69.1138 60.9812 69.1138 61.0182V66.7321C69.1138 66.769 69.0992 66.8045 69.0731 66.8306C69.0471 66.8568 69.0117 66.8715 68.9748 66.8715ZM68.9748 55.4437C68.938 55.4437 68.9026 55.429 68.8766 55.4028C68.8505 55.3767 68.8359 55.3412 68.8359 55.3043V49.5904C68.8359 49.5534 68.8505 49.518 68.8766 49.4919C68.9026 49.4657 68.938 49.451 68.9748 49.451C69.0117 49.451 69.0471 49.4657 69.0731 49.4919C69.0992 49.518 69.1138 49.5534 69.1138 49.5904V55.3043C69.1138 55.3412 69.0992 55.3767 69.0731 55.4028C69.0471 55.429 69.0117 55.4437 68.9748 55.4437ZM68.9748 44.0159C68.938 44.0159 68.9026 44.0012 68.8766 43.9751C68.8505 43.949 68.8359 43.9135 68.8359 43.8765V38.1627C68.8359 38.1257 68.8505 38.0903 68.8766 38.0641C68.9026 38.038 68.938 38.0233 68.9748 38.0233C69.0117 38.0233 69.0471 38.038 69.0731 38.0641C69.0992 38.0903 69.1138 38.1257 69.1138 38.1627V43.8765C69.1138 43.9135 69.0992 43.949 69.0731 43.9751C69.0471 44.0012 69.0117 44.0159 68.9748 44.0159ZM68.9748 75.5821C68.938 75.5821 68.9026 75.5674 68.8766 75.5413C68.8505 75.5151 68.8359 75.4797 68.8359 75.4427V72.4459C68.8359 72.409 68.8505 72.3735 68.8766 72.3474C68.9026 72.3212 68.938 72.3066 68.9748 72.3066C69.0117 72.3066 69.0471 72.3212 69.0731 72.3474C69.0992 72.3735 69.1138 72.409 69.1138 72.4459V75.4427C69.1138 75.4797 69.0992 75.5151 69.0731 75.5413C69.0471 75.5674 69.0117 75.5821 68.9748 75.5821Z" fill="#151B3D"/>
</g>
<g clip-path="url(#clip1_1011_4441)">
<path d="M54.9886 66.3672L34.406 55.904L23.7554 65.9466L23.7559 64.0038L34.1606 54.1929L54.1894 64.3746L68.8533 36.8499L86.6241 27.7637L87.2656 29.0239L69.9986 37.8525L54.9886 66.3672Z" fill="#151B3D"/>
<path d="M34.2834 57.4936C35.6307 57.4936 36.723 56.3989 36.723 55.0485C36.723 53.6982 35.6307 52.6035 34.2834 52.6035C32.936 52.6035 31.8438 53.6982 31.8438 55.0485C31.8438 56.3989 32.936 57.4936 34.2834 57.4936Z" fill="white"/>
<path d="M34.2833 57.6166C32.8705 57.6166 31.7209 56.4646 31.7209 55.0485C31.7209 53.6324 32.8704 52.4805 34.2833 52.4805C35.6962 52.4805 36.8457 53.6325 36.8457 55.0485C36.8457 56.4646 35.6962 57.6166 34.2833 57.6166ZM34.2833 52.7265C33.0058 52.7265 31.9664 53.7681 31.9664 55.0485C31.9664 56.3289 33.0058 57.3706 34.2833 57.3706C35.5608 57.3706 36.6002 56.3289 36.6002 55.0485C36.6002 53.7681 35.5608 52.7265 34.2833 52.7265Z" fill="#151B3D"/>
<path d="M69.426 39.7963C70.7733 39.7963 71.8656 38.7016 71.8656 37.3513C71.8656 36.0009 70.7733 34.9062 69.426 34.9062C68.0786 34.9062 66.9863 36.0009 66.9863 37.3513C66.9863 38.7016 68.0786 39.7963 69.426 39.7963Z" fill="white"/>
<path d="M69.4259 39.9193C68.013 39.9193 66.8635 38.7674 66.8635 37.3513C66.8635 35.9353 68.013 34.7832 69.4259 34.7832C70.8388 34.7832 71.9883 35.9352 71.9883 37.3513C71.9883 38.7674 70.8388 39.9193 69.4259 39.9193ZM69.4259 35.0292C68.1484 35.0292 67.109 36.0709 67.109 37.3513C67.109 38.6317 68.1484 39.6733 69.4259 39.6733C70.7034 39.6733 71.7428 38.6317 71.7428 37.3513C71.7428 36.0709 70.7034 35.0292 69.4259 35.0292Z" fill="#151B3D"/>
<path d="M86.9447 30.8393C88.2921 30.8393 89.3844 29.7446 89.3844 28.3942C89.3844 27.0439 88.2921 25.9492 86.9447 25.9492C85.5974 25.9492 84.5051 27.0439 84.5051 28.3942C84.5051 29.7446 85.5974 30.8393 86.9447 30.8393Z" fill="white"/>
<path d="M86.9449 30.9623C85.532 30.9623 84.3826 29.8103 84.3826 28.3943C84.3826 26.9782 85.532 25.8262 86.9449 25.8262C88.3579 25.8262 89.5073 26.9782 89.5073 28.3943C89.5073 29.8104 88.3579 30.9623 86.9449 30.9623ZM86.9449 26.0722C85.6674 26.0722 84.6281 27.1139 84.6281 28.3943C84.6281 29.6746 85.6674 30.7163 86.9449 30.7163C88.2225 30.7163 89.2618 29.6746 89.2618 28.3943C89.2618 27.1139 88.2225 26.0722 86.9449 26.0722Z" fill="#151B3D"/>
<path d="M54.589 67.8158C55.9364 67.8158 57.0287 66.7212 57.0287 65.3708C57.0287 64.0205 55.9364 62.9258 54.589 62.9258C53.2417 62.9258 52.1494 64.0205 52.1494 65.3708C52.1494 66.7212 53.2417 67.8158 54.589 67.8158Z" fill="white"/>
<path d="M54.589 67.9389C53.1761 67.9389 52.0266 66.7869 52.0266 65.3708C52.0266 63.9548 53.1761 62.8027 54.589 62.8027C56.0019 62.8027 57.1513 63.9547 57.1513 65.3708C57.1513 66.787 56.0019 67.9389 54.589 67.9389ZM54.589 63.0488C53.3114 63.0488 52.2721 64.0905 52.2721 65.3708C52.2721 66.6512 53.3114 67.6928 54.589 67.6928C55.8665 67.6928 56.9059 66.6512 56.9059 65.3708C56.9059 64.0905 55.8665 63.0488 54.589 63.0488Z" fill="#151B3D"/>
</g>
<g clip-path="url(#clip2_1011_4441)">
<path d="M43.6713 85.207H20.5318V78.3945H43.6713V85.207ZM41.5338 78.3945H18.3943V71.582H41.5338V78.3945Z" fill="#FFF9E3"/>
<path d="M43.6715 85.3495H20.532C20.4945 85.3495 20.4585 85.3346 20.432 85.308C20.4055 85.2815 20.3906 85.2455 20.3906 85.2079V78.3955C20.3906 78.3579 20.4055 78.3219 20.432 78.2954C20.4585 78.2688 20.4945 78.2539 20.532 78.2539H43.6715C43.709 78.2539 43.745 78.2688 43.7715 78.2954C43.798 78.3219 43.8129 78.3579 43.8129 78.3955V85.2079C43.8129 85.2455 43.798 85.2815 43.7715 85.308C43.745 85.3346 43.709 85.3495 43.6715 85.3495ZM20.6732 85.0664H43.5301V78.537H20.6732V85.0664Z" fill="#FFF9E3"/>
<path d="M41.5341 78.5351H18.3945C18.357 78.5351 18.3211 78.5202 18.2946 78.4937C18.2681 78.4671 18.2532 78.4311 18.2532 78.3936V71.581C18.2532 71.5435 18.2681 71.5075 18.2946 71.4809C18.3211 71.4544 18.357 71.4395 18.3945 71.4395H41.5341C41.5716 71.4395 41.6075 71.4544 41.634 71.4809C41.6605 71.5075 41.6754 71.5435 41.6754 71.581V78.3936C41.6754 78.4311 41.6605 78.4671 41.634 78.4937C41.6075 78.5202 41.5716 78.5351 41.5341 78.5351ZM18.5358 78.252H41.3927V71.7226H18.5358V78.252Z" fill="#FFF9E3"/>
<path d="M35.8278 78.537H20.5317C20.4942 78.537 20.4583 78.5221 20.4318 78.4956C20.4053 78.469 20.3904 78.433 20.3904 78.3955C20.3904 78.3579 20.4053 78.3219 20.4318 78.2954C20.4583 78.2688 20.4942 78.2539 20.5317 78.2539H35.8278C35.8653 78.2539 35.9012 78.2688 35.9277 78.2954C35.9542 78.3219 35.9691 78.3579 35.9691 78.3955C35.9691 78.433 35.9542 78.469 35.9277 78.4956C35.9012 78.5221 35.8653 78.537 35.8278 78.537Z" fill="#151B3D"/>
<path d="M23.967 85.3495C23.9295 85.3495 23.8936 85.3346 23.8671 85.308C23.8406 85.2815 23.8257 85.2455 23.8257 85.2079V78.3955C23.8257 78.3579 23.8406 78.3219 23.8671 78.2954C23.8936 78.2688 23.9295 78.2539 23.967 78.2539C24.0045 78.2539 24.0405 78.2688 24.067 78.2954C24.0935 78.3219 24.1084 78.3579 24.1084 78.3955V85.2079C24.1084 85.2455 24.0935 85.2815 24.067 85.308C24.0405 85.3346 24.0045 85.3495 23.967 85.3495ZM42.4405 78.537H38.0109C37.9734 78.537 37.9375 78.5221 37.911 78.4956C37.8845 78.469 37.8696 78.433 37.8696 78.3955C37.8696 78.3579 37.8845 78.3219 37.911 78.2954C37.9375 78.2688 37.9734 78.2539 38.0109 78.2539H42.4405C42.478 78.2539 42.5139 78.2688 42.5405 78.2954C42.567 78.3219 42.5819 78.3579 42.5819 78.3955C42.5819 78.433 42.567 78.469 42.5405 78.4956C42.5139 78.5221 42.478 78.537 42.4405 78.537ZM32.0351 85.3495C31.9976 85.3495 31.9617 85.3346 31.9352 85.308C31.9087 85.2815 31.8938 85.2455 31.8938 85.2079V78.3955C31.8938 78.3579 31.9087 78.3219 31.9352 78.2954C31.9617 78.2688 31.9976 78.2539 32.0351 78.2539C32.0726 78.2539 32.1086 78.2688 32.1351 78.2954C32.1616 78.3219 32.1765 78.3579 32.1765 78.3955V85.2079C32.1765 85.2455 32.1616 85.2815 32.1351 85.308C32.1086 85.3346 32.0726 85.3495 32.0351 85.3495Z" fill="#151B3D"/>
<path d="M40.2909 85.3309C40.2534 85.3309 40.2174 85.316 40.1909 85.2894C40.1644 85.2629 40.1495 85.2269 40.1495 85.1893V78.3936C40.1495 78.356 40.1644 78.32 40.1909 78.2935C40.2174 78.2669 40.2534 78.252 40.2909 78.252C40.3284 78.252 40.3643 78.2669 40.3908 78.2935C40.4173 78.32 40.4322 78.356 40.4322 78.3936V85.1893C40.4322 85.2269 40.4173 85.2629 40.3908 85.2894C40.3643 85.316 40.3284 85.3309 40.2909 85.3309ZM34.262 78.5351C34.2245 78.5351 34.1885 78.5202 34.162 78.4937C34.1355 78.4671 34.1206 78.4311 34.1206 78.3936V71.581C34.1206 71.5435 34.1355 71.5075 34.162 71.4809C34.1885 71.4544 34.2245 71.4395 34.262 71.4395C34.2995 71.4395 34.3354 71.4544 34.3619 71.4809C34.3884 71.5075 34.4033 71.5435 34.4033 71.581V78.3936C34.4033 78.4311 34.3884 78.4671 34.3619 78.4937C34.3354 78.5202 34.2995 78.5351 34.262 78.5351ZM25.7832 78.5351C25.7457 78.5351 25.7098 78.5202 25.6832 78.4937C25.6567 78.4671 25.6418 78.4311 25.6418 78.3936V71.581C25.6418 71.5435 25.6567 71.5075 25.6832 71.4809C25.7098 71.4544 25.7457 71.4395 25.7832 71.4395C25.8207 71.4395 25.8566 71.4544 25.8831 71.4809C25.9096 71.5075 25.9245 71.5435 25.9245 71.581V78.3936C25.9245 78.4311 25.9096 78.4671 25.8831 78.4937C25.8566 78.5202 25.8207 78.5351 25.7832 78.5351Z" fill="#151B3D"/>
<path d="M29.0609 69.6757L25.9006 65.6738L20.1767 70.1742C18.9827 70.7957 17.7637 71.5795 16.5761 72.5133C15.3885 73.447 14.3388 74.4469 13.4525 75.461L7.69946 79.9844L10.8597 83.9862C12.7288 86.3709 18.3184 85.1004 23.3446 81.1487C28.3706 77.197 30.93 72.0603 29.0609 69.6757Z" fill="#FFF9E3"/>
<path d="M13.902 85.3333C12.4894 85.3333 11.4004 84.9063 10.7483 84.0744L7.58864 80.0734C7.58843 80.0731 7.58819 80.0728 7.58794 80.0725C6.64835 78.8738 6.73973 76.9917 7.84511 74.773C8.93396 72.5877 10.8812 70.3246 13.3282 68.4007C15.7751 66.4767 18.4324 65.1196 20.8105 64.5791C23.2248 64.0303 25.0719 64.3883 26.0115 65.5871L26.0134 65.5896L29.1714 69.5886L29.1717 69.589C30.1113 70.7878 30.0199 72.6698 28.9145 74.8885C27.8257 77.0738 25.8784 79.3369 23.4315 81.2608C20.9845 83.1848 18.3272 84.5419 15.9492 85.0824C15.2105 85.2503 14.5248 85.3333 13.902 85.3333ZM7.81013 79.8974L10.9702 83.8991C11.839 85.0073 13.5848 85.3295 15.8866 84.8063C18.2247 84.2749 20.8422 82.9366 23.257 81.0381C28.2137 77.1408 30.7674 72.0832 28.9494 69.7638L25.7896 65.7625L25.7871 65.7593C23.9671 63.4434 18.4578 64.7276 13.5028 68.6234C8.54633 72.5204 5.99286 77.5779 7.81013 79.8974Z" fill="#FFF9E3"/>
<path d="M13.9021 85.3329C12.4895 85.3329 11.4005 84.9059 10.7484 84.074C10.7367 84.0594 10.728 84.0426 10.7228 84.0246C10.7176 84.0066 10.7161 83.9878 10.7182 83.9692C10.7203 83.9506 10.7261 83.9326 10.7353 83.9163C10.7444 83.9 10.7566 83.8856 10.7713 83.874C10.786 83.8625 10.8029 83.8539 10.8209 83.849C10.8389 83.844 10.8577 83.8426 10.8763 83.8449C10.8948 83.8473 10.9127 83.8532 10.9289 83.8626C10.9451 83.8719 10.9593 83.8843 10.9707 83.8991C11.8391 85.007 13.5849 85.3289 15.8868 84.8059C18.2248 84.2744 20.8423 82.9362 23.257 81.0376C25.6718 79.139 27.5912 76.9101 28.6617 74.7615C29.7157 72.6463 29.8178 70.8712 28.9495 69.7634C28.9378 69.7488 28.9291 69.732 28.9239 69.714C28.9188 69.696 28.9172 69.6772 28.9193 69.6586C28.9215 69.64 28.9272 69.622 28.9364 69.6057C28.9455 69.5893 28.9578 69.575 28.9725 69.5634C28.9872 69.5519 29.004 69.5433 29.022 69.5383C29.04 69.5333 29.0588 69.532 29.0774 69.5343C29.0959 69.5366 29.1138 69.5426 29.13 69.5519C29.1462 69.5613 29.1604 69.5737 29.1718 69.5885C30.1114 70.7873 30.02 72.6693 28.9147 74.8879C27.8258 77.0733 25.8786 79.3364 23.4316 81.2603C20.9846 83.1842 18.3274 84.5414 15.9493 85.0819C15.2107 85.2499 14.5249 85.3329 13.9021 85.3329Z" fill="#151B3D"/>
<path d="M20.1846 77.1481C25.2108 73.1962 27.7702 68.0595 25.9011 65.6748C24.032 63.2902 18.4422 64.5606 13.416 68.5125C8.38975 72.4644 5.83039 77.6011 7.69948 79.9858C9.56858 82.3704 15.1583 81.0999 20.1846 77.1481Z" fill="#FFF9E3"/>
<path d="M10.742 81.3308C9.32938 81.3308 8.24039 80.9038 7.58823 80.0718C7.57653 80.0572 7.56784 80.0405 7.56267 80.0225C7.55749 80.0045 7.55592 79.9857 7.55805 79.9671C7.56019 79.9485 7.56599 79.9305 7.57511 79.9141C7.58423 79.8978 7.59649 79.8834 7.61119 79.8719C7.62589 79.8603 7.64273 79.8518 7.66074 79.8468C7.67875 79.8418 7.69756 79.8404 7.71611 79.8428C7.73465 79.8451 7.75254 79.8511 7.76876 79.8604C7.78497 79.8697 7.79918 79.8822 7.81056 79.897C8.42407 80.6797 9.45864 81.0521 10.7502 81.0522C13.2858 81.0523 16.8129 79.6175 20.097 77.0354C25.0537 73.1382 27.6074 68.0806 25.7894 65.7611C25.3328 65.1786 24.6353 64.8128 23.7164 64.6739C23.6796 64.668 23.6467 64.6478 23.6247 64.6176C23.6027 64.5875 23.5935 64.5499 23.5991 64.513C23.6046 64.4762 23.6245 64.443 23.6544 64.4207C23.6842 64.3984 23.7217 64.3888 23.7586 64.394C24.7511 64.544 25.5092 64.9452 26.0118 65.5865C26.9514 66.7852 26.86 68.6673 25.7546 70.8859C24.6658 73.0713 22.7185 75.3344 20.2716 77.2583C17.8246 79.1822 15.1673 80.5394 12.7893 81.0799C12.0506 81.2477 11.3647 81.3307 10.742 81.3308ZM20.0216 65.0743C19.9877 65.0741 19.9551 65.0618 19.9295 65.0395C19.904 65.0172 19.8872 64.9865 19.8823 64.953C19.8775 64.9194 19.8848 64.8852 19.9029 64.8566C19.9211 64.8279 19.9489 64.8068 19.9813 64.7969C20.698 64.5831 21.3863 64.4408 22.0271 64.3738C22.0456 64.3719 22.0642 64.3736 22.082 64.3789C22.0998 64.3842 22.1164 64.393 22.1308 64.4047C22.1452 64.4164 22.1572 64.4308 22.166 64.4472C22.1749 64.4635 22.1804 64.4815 22.1824 64.4999C22.1843 64.5184 22.1825 64.5371 22.1773 64.555C22.172 64.5728 22.1632 64.5894 22.1515 64.6038C22.1398 64.6183 22.1254 64.6303 22.1091 64.6391C22.0928 64.648 22.0749 64.6535 22.0564 64.6555C21.433 64.7206 20.7621 64.8595 20.0621 65.0683C20.049 65.0723 20.0353 65.0743 20.0216 65.0743ZM25.3052 79.5716C25.2771 79.5716 25.2497 79.5632 25.2264 79.5475C25.2031 79.5318 25.185 79.5095 25.1744 79.4835C25.1637 79.4574 25.1611 79.4288 25.1669 79.4013C25.1726 79.3737 25.1863 79.3485 25.2064 79.3288C26.997 77.5759 28.3586 75.6527 29.04 73.9137C29.7198 72.1788 29.6878 70.7048 28.9497 69.7632L27.6225 68.0825C27.5992 68.053 27.5886 68.0155 27.593 67.9782C27.5973 67.9409 27.6162 67.9069 27.6456 67.8836C27.675 67.8603 27.7125 67.8497 27.7497 67.854C27.787 67.8584 27.8209 67.8773 27.8442 67.9068L29.1718 69.5879C30.8053 71.672 29.2558 75.7607 25.404 79.5313C25.3776 79.5572 25.3421 79.5716 25.3052 79.5716Z" fill="#151B3D"/>
<path d="M11.1188 79.9066C10.0119 79.9066 9.16549 79.5783 8.66103 78.9348C7.8936 77.9557 8.02187 76.3795 9.02231 74.4967C10.0039 72.6494 11.7128 70.7135 13.8342 69.0456C15.9555 67.3777 18.2389 66.1747 20.2636 65.6583C22.3272 65.132 23.8864 65.3813 24.6538 66.3605C25.4213 67.3398 25.293 68.9159 24.2926 70.7986C23.311 72.6459 21.6021 74.5818 19.4807 76.2497C17.3593 77.9176 15.076 79.1206 13.0513 79.637C12.344 79.8174 11.696 79.9066 11.1188 79.9066ZM22.2005 65.6704C21.6474 65.6704 21.0211 65.7573 20.3334 65.9327C18.346 66.4396 16.0999 67.6242 14.0087 69.2683C11.9176 70.9124 10.2354 72.8165 9.27185 74.6297C8.32717 76.4075 8.18922 77.8743 8.88336 78.76C9.57751 79.6456 11.0329 79.8596 12.9815 79.3626C14.969 78.8557 17.2151 77.6711 19.3062 76.027C21.3973 74.3828 23.0795 72.4788 24.043 70.6655C24.9877 68.8878 25.1256 67.4209 24.4315 66.5352C23.9824 65.9623 23.2145 65.6704 22.2005 65.6704ZM14.5263 85.2763C14.4839 85.2763 14.4419 85.2572 14.414 85.2208L11.3943 81.2739C11.383 81.2592 11.3747 81.2423 11.3699 81.2244C11.3651 81.2064 11.3639 81.1877 11.3664 81.1693C11.3688 81.1508 11.3748 81.1331 11.3841 81.117C11.3934 81.1009 11.4058 81.0868 11.4205 81.0755C11.4503 81.0526 11.4879 81.0426 11.525 81.0475C11.5434 81.0499 11.5612 81.056 11.5772 81.0653C11.5933 81.0746 11.6074 81.087 11.6187 81.1017L14.6384 85.0486C14.6545 85.0695 14.6643 85.0946 14.6669 85.1208C14.6695 85.1471 14.6647 85.1736 14.653 85.1973C14.6414 85.221 14.6233 85.2409 14.6009 85.2549C14.5786 85.2688 14.5527 85.2763 14.5263 85.2763ZM20.6016 83.1579C20.5591 83.1579 20.517 83.1388 20.4892 83.1023L17.4489 79.1236C17.4376 79.1089 17.4293 79.092 17.4245 79.0741C17.4197 79.0561 17.4185 79.0374 17.421 79.0189C17.4234 79.0005 17.4295 78.9827 17.4388 78.9666C17.4481 78.9506 17.4605 78.9365 17.4752 78.9252C17.49 78.9139 17.5068 78.9056 17.5247 78.9008C17.5427 78.896 17.5614 78.8948 17.5798 78.8973C17.5982 78.8997 17.6159 78.9058 17.632 78.9151C17.648 78.9244 17.6621 78.9368 17.6734 78.9516L20.7137 82.9303C20.7297 82.9512 20.7396 82.9763 20.7422 83.0025C20.7447 83.0288 20.7399 83.0553 20.7282 83.079C20.7166 83.1026 20.6985 83.1226 20.6761 83.1365C20.6538 83.1505 20.6279 83.1579 20.6016 83.1579ZM25.9421 78.9228C25.8996 78.9228 25.8576 78.9037 25.8298 78.8673L22.7972 74.8966C22.7744 74.8668 22.7644 74.8291 22.7694 74.7919C22.7743 74.7547 22.7938 74.7209 22.8236 74.6981C22.8534 74.6753 22.891 74.6653 22.9282 74.6702C22.9653 74.6752 22.999 74.6947 23.0218 74.7246L26.0543 78.6952C26.0704 78.7162 26.0802 78.7412 26.0828 78.7675C26.0854 78.7938 26.0805 78.8203 26.0689 78.8439C26.0572 78.8676 26.0391 78.8876 26.0167 78.9015C25.9943 78.9154 25.9685 78.9228 25.9421 78.9228ZM29.49 73.1253C29.4681 73.1253 29.4466 73.1203 29.427 73.1105C29.4074 73.1008 29.3903 73.0866 29.3772 73.0691L26.2511 68.9261C26.2285 68.8962 26.2187 68.8584 26.2239 68.8212C26.229 68.7841 26.2487 68.7504 26.2787 68.7278C26.3086 68.7052 26.3462 68.6953 26.3834 68.7005C26.4205 68.7057 26.4541 68.7254 26.4767 68.7554L29.6027 72.8984C29.6186 72.9194 29.6283 72.9444 29.6307 72.9706C29.6332 72.9968 29.6282 73.0232 29.6165 73.0468C29.6048 73.0704 29.5868 73.0902 29.5644 73.1041C29.5421 73.1179 29.5163 73.1253 29.49 73.1253Z" fill="#151B3D"/>
</g>
<g clip-path="url(#clip3_1011_4441)">
<path d="M102.89 57.8189H77.9606C76.1077 57.8189 74.6057 56.3153 74.6057 54.4606V36.833C74.6057 34.9782 76.1077 33.4746 77.9606 33.4746H102.89C104.743 33.4746 106.245 34.9782 106.245 36.833V54.4606C106.245 56.3153 104.743 57.8189 102.89 57.8189Z" fill="white"/>
<path d="M102.89 57.9596H77.9606C76.0326 57.9596 74.4641 56.3896 74.4641 54.4597V36.8321C74.4641 34.9022 76.0326 33.332 77.9606 33.332H102.89C104.818 33.332 106.387 34.9022 106.387 36.8321V54.4597C106.387 56.3896 104.818 57.9596 102.89 57.9596ZM77.9606 33.6154C76.1887 33.6154 74.7472 35.0584 74.7472 36.8321V54.4597C74.7472 56.2334 76.1887 57.6764 77.9606 57.6764H102.89C104.662 57.6764 106.104 56.2334 106.104 54.4597V36.8321C106.104 35.0584 104.662 33.6154 102.89 33.6154H77.9606Z" fill="#151B3D"/>
<path d="M86.9423 54.298C86.9048 54.298 86.8688 54.283 86.8422 54.2565C86.8157 54.2299 86.8008 54.1938 86.8008 54.1563V39.6044C86.8008 39.5668 86.8157 39.5308 86.8422 39.5042C86.8688 39.4776 86.9048 39.4627 86.9423 39.4627C86.9799 39.4627 87.0159 39.4776 87.0424 39.5042C87.0689 39.5308 87.0839 39.5668 87.0839 39.6044V54.1563C87.0839 54.1938 87.0689 54.2299 87.0424 54.2565C87.0159 54.283 86.9799 54.298 86.9423 54.298ZM93.9781 53.1725C93.9405 53.1725 93.9045 53.1576 93.878 53.131C93.8514 53.1044 93.8365 53.0684 93.8365 53.0308V38.479C93.8365 38.4414 93.8514 38.4053 93.878 38.3788C93.9045 38.3522 93.9405 38.3373 93.9781 38.3373C94.0156 38.3373 94.0516 38.3522 94.0782 38.3788C94.1047 38.4053 94.1196 38.4414 94.1196 38.479V53.0309C94.1196 53.0684 94.1047 53.1045 94.0781 53.131C94.0516 53.1576 94.0156 53.1725 93.9781 53.1725ZM101.011 49.7314C100.973 49.7314 100.937 49.7164 100.911 49.6899C100.884 49.6633 100.869 49.6273 100.869 49.5897V35.8936C100.869 35.8561 100.884 35.82 100.911 35.7935C100.937 35.7669 100.973 35.752 101.011 35.752C101.048 35.752 101.084 35.7669 101.111 35.7935C101.137 35.82 101.152 35.8561 101.152 35.8936V49.5897C101.152 49.6273 101.137 49.6633 101.111 49.6899C101.084 49.7164 101.048 49.7314 101.011 49.7314Z" fill="#151B3D"/>
<path d="M85.5212 44.6113H88.3698V52.5055H85.5212V44.6113Z" fill="#FEB84F"/>
<path d="M99.5866 39.9219H102.435V47.5445H99.5866V39.9219ZM92.554 41.9501H95.4025V52.4456H92.554V41.9501Z" fill="#FFF9E3"/>
<path d="M79.9128 54.2974C79.8752 54.2974 79.8392 54.2824 79.8127 54.2559C79.7862 54.2293 79.7712 54.1932 79.7712 54.1557V41.8546C79.7712 41.817 79.7862 41.781 79.8127 41.7544C79.8392 41.7278 79.8752 41.7129 79.9128 41.7129C79.9503 41.7129 79.9863 41.7278 80.0129 41.7544C80.0394 41.781 80.0543 41.817 80.0543 41.8546V54.1556C80.0543 54.1742 80.0507 54.1926 80.0436 54.2098C80.0365 54.227 80.026 54.2427 80.0129 54.2558C79.9997 54.269 79.9841 54.2794 79.967 54.2866C79.9498 54.2937 79.9314 54.2974 79.9128 54.2974Z" fill="#151B3D"/>
<path d="M81.3371 46.2422H78.4885V51.7524H81.3371V46.2422Z" fill="#FFF9E3"/>
</g>
<g clip-path="url(#clip4_1011_4441)">
<path d="M103.928 70.1333H68.5882C67.3087 70.1333 66.2715 69.0938 66.2715 67.8114V63.2555C66.2715 61.9732 67.3087 60.9336 68.5882 60.9336H103.928C105.208 60.9336 106.245 61.9732 106.245 63.2555V67.8114C106.245 69.0938 105.208 70.1333 103.928 70.1333Z" fill="#FFF9E3"/>
<path d="M103.928 70.2741H68.5882C67.2328 70.2741 66.1301 69.1689 66.1301 67.8105V63.2547C66.1301 61.8962 67.2328 60.791 68.5882 60.791H103.928C105.284 60.791 106.386 61.8962 106.386 63.2546V67.8105C106.386 69.1689 105.284 70.2741 103.928 70.2741ZM68.5882 61.0744C67.3888 61.0744 66.4129 62.0524 66.4129 63.2547V67.8105C66.4129 69.0127 67.3888 69.9907 68.5882 69.9907H103.928C105.128 69.9907 106.104 69.0127 106.104 67.8105V63.2547C106.104 62.0524 105.128 61.0744 103.928 61.0744H68.5882Z" fill="#151B3D"/>
<path d="M101.543 66.7462H82.6845C82.656 66.7462 82.6287 66.7322 82.6086 66.7073C82.5885 66.6823 82.5771 66.6485 82.5771 66.6133C82.5771 66.578 82.5885 66.5442 82.6086 66.5193C82.6287 66.4944 82.656 66.4804 82.6845 66.4804H101.543C101.572 66.4804 101.599 66.4944 101.619 66.5193C101.639 66.5442 101.65 66.578 101.65 66.6133C101.65 66.6485 101.639 66.6823 101.619 66.7073C101.599 66.7322 101.572 66.7462 101.543 66.7462ZM101.543 64.4865H82.6845C82.656 64.4865 82.6287 64.4725 82.6086 64.4476C82.5885 64.4227 82.5771 64.3889 82.5771 64.3536C82.5771 64.3184 82.5885 64.2846 82.6086 64.2596C82.6287 64.2347 82.656 64.2207 82.6845 64.2207H101.543C101.572 64.2207 101.599 64.2347 101.619 64.2596C101.639 64.2846 101.65 64.3184 101.65 64.3536C101.65 64.3889 101.639 64.4227 101.619 64.4476C101.599 64.4725 101.572 64.4865 101.543 64.4865Z" fill="#151B3D"/>
</g>
<path d="M77.5031 68.1897C77.569 68.1897 77.6305 68.1732 77.6873 68.1402C77.7444 68.107 77.791 68.0604 77.8269 68.0002C77.9469 67.7898 78.0489 67.5523 78.1328 67.2877C78.2168 67.0231 78.2588 66.7225 78.2588 66.3857C78.2588 65.9408 78.1748 65.5213 78.0069 65.1273C77.8389 64.7336 77.6095 64.3894 77.3184 64.0948C77.0277 63.8001 76.6843 63.5672 76.2885 63.3959C75.8926 63.2244 75.4698 63.1387 75.0199 63.1387C74.738 63.1387 74.4816 63.1672 74.2505 63.2242C74.0197 63.2814 73.7874 63.3702 73.5535 63.4904C73.4875 63.5265 73.4485 63.5746 73.4365 63.6348C73.4245 63.6949 73.4455 63.749 73.4995 63.7971C73.5355 63.8272 73.5714 63.8422 73.6074 63.8422C73.6434 63.8422 73.6794 63.8332 73.7154 63.8151C73.9193 63.7129 74.1278 63.6348 74.3409 63.5806C74.5537 63.5265 74.78 63.4995 75.0199 63.4995C75.8177 63.4995 76.4969 63.7805 77.0575 64.3426C77.6185 64.905 77.8989 65.586 77.8989 66.3857C77.8989 66.6383 77.8645 66.8878 77.7956 67.1344C77.7265 67.3809 77.629 67.6124 77.5031 67.8289H72.5368C72.3989 67.6004 72.2983 67.3629 72.2352 67.1163C72.1724 66.8698 72.141 66.6142 72.141 66.3497C72.141 66.1452 72.1664 65.9302 72.2172 65.7046C72.2683 65.4792 72.3479 65.2673 72.4558 65.0689C72.4738 65.0268 72.4814 64.9877 72.4785 64.9516C72.4754 64.9155 72.4558 64.8795 72.4199 64.8434C72.3779 64.8013 72.3269 64.7877 72.2669 64.8026C72.2069 64.8178 72.1589 64.8584 72.123 64.9246C71.997 65.1711 71.9085 65.4086 71.8574 65.6371C71.8065 65.8656 71.7811 66.1031 71.7811 66.3497C71.7811 66.6563 71.8156 66.9449 71.8847 67.2155C71.9536 67.4861 72.063 67.7567 72.2129 68.0273C72.2429 68.0754 72.2863 68.1145 72.3432 68.1446C72.4003 68.1746 72.4648 68.1897 72.5368 68.1897H77.5031Z" fill="black"/>
<path fill-rule="evenodd" clip-rule="evenodd" d="M76.355 68.1897C76.9031 67.7805 77.2588 67.1255 77.2588 66.3857C77.2588 65.1423 76.254 64.1387 75.0199 64.1387C73.7858 64.1387 72.7811 65.1423 72.7811 66.3857C72.7811 67.1255 73.1368 67.7805 73.6849 68.1897H72.3265C71.982 67.6737 71.7811 67.0532 71.7811 66.3857C71.7811 64.5924 73.2312 63.1387 75.0199 63.1387C76.8087 63.1387 78.2588 64.5924 78.2588 66.3857C78.2588 67.0532 78.0579 67.6737 77.7134 68.1897H76.355Z" fill="black"/>
<path d="M75.0689 67.3118C75.243 67.316 75.3856 67.2625 75.4966 67.1512C75.6014 67.034 75.6455 66.8915 75.629 66.7235C75.6125 66.5555 75.5431 66.4311 75.4209 66.3502L73.478 65.0585C73.4106 65.0062 73.3477 65.0109 73.2894 65.0726C73.2311 65.1344 73.2268 65.2007 73.2768 65.2715L74.6772 67.1373C74.7642 67.2492 74.8948 67.3074 75.0689 67.3118Z" fill="black"/>
<defs>
<clipPath id="clip0_1011_4441">
<rect width="68.2238" height="52.5815" fill="white" transform="translate(23.614 23)"/>
</clipPath>
<clipPath id="clip1_1011_4441">
<rect width="65.7519" height="56.5446" fill="white" transform="translate(23.7554 11.3945)"/>
</clipPath>
<clipPath id="clip2_1011_4441">
<rect width="36.8662" height="21.0185" fill="white" transform="translate(6.94653 64.3301)"/>
</clipPath>
<clipPath id="clip3_1011_4441">
<rect width="31.9225" height="24.6277" fill="white" transform="translate(74.4641 33.332)"/>
</clipPath>
<clipPath id="clip4_1011_4441">
<rect width="40.2563" height="9.48308" fill="white" transform="translate(66.1301 60.791)"/>
</clipPath>
</defs>
</svg>
