<svg viewBox="0 0 167 167" fill="none" xmlns="http://www.w3.org/2000/svg">
<path d="M131.636 154.642H33.066C29.8735 154.642 27.2852 152.054 27.2852 148.86V16.47C27.2852 13.2767 29.8734 10.688 33.066 10.688H131.636C134.829 10.688 137.417 13.2766 137.417 16.47V148.86C137.417 152.053 134.829 154.642 131.636 154.642Z" fill="white" stroke="#A5A5A5"/>
<g clip-path="url(#clip0_2250_98658)">
<path d="M87.1479 135.393L47.1888 115.132L26.5117 134.578L26.5127 130.816L46.7124 111.819L85.5962 131.534L114.065 50.2932L148.565 32.6992L149.81 35.1394L116.288 52.2346L87.1479 135.393Z" fill="#FFA098"/>
<path d="M46.9501 118.21C49.5659 118.21 51.6864 116.09 51.6864 113.476C51.6864 110.861 49.5659 108.741 46.9501 108.741C44.3344 108.741 42.2139 110.861 42.2139 113.476C42.2139 116.09 44.3344 118.21 46.9501 118.21Z" fill="white"/>
<path d="M46.9502 118.448C44.2072 118.448 41.9756 116.218 41.9756 113.476C41.9756 110.733 44.2071 108.503 46.9502 108.503C49.6932 108.503 51.9247 110.734 51.9247 113.476C51.9247 116.217 49.6932 118.448 46.9502 118.448ZM46.9502 108.979C44.47 108.979 42.4522 110.996 42.4522 113.476C42.4522 115.955 44.47 117.972 46.9502 117.972C49.4304 117.972 51.4481 115.955 51.4481 113.476C51.4481 110.996 49.4304 108.979 46.9502 108.979Z" fill="#FFA098"/>
<path d="M115.177 55.9986C117.792 55.9986 119.913 53.8789 119.913 51.2642C119.913 48.6494 117.792 46.5298 115.177 46.5298C112.561 46.5298 110.44 48.6494 110.44 51.2642C110.44 53.8789 112.561 55.9986 115.177 55.9986Z" fill="white"/>
<path d="M115.177 56.2363C112.434 56.2363 110.202 54.0057 110.202 51.2637C110.202 48.5218 112.434 46.291 115.177 46.291C117.92 46.291 120.151 48.5217 120.151 51.2637C120.151 54.0058 117.92 56.2363 115.177 56.2363ZM115.177 46.7674C112.697 46.7674 110.679 48.7845 110.679 51.2637C110.679 53.7429 112.697 55.7599 115.177 55.7599C117.657 55.7599 119.675 53.7429 119.675 51.2637C119.675 48.7845 117.657 46.7674 115.177 46.7674Z" fill="#FFA098"/>
<path d="M149.187 38.6538C151.803 38.6538 153.924 36.5342 153.924 33.9194C153.924 31.3047 151.803 29.1851 149.187 29.1851C146.572 29.1851 144.451 31.3047 144.451 33.9194C144.451 36.5342 146.572 38.6538 149.187 38.6538Z" fill="white"/>
<path d="M149.187 38.8921C146.444 38.8921 144.213 36.6614 144.213 33.9195C144.213 31.1775 146.444 28.9468 149.187 28.9468C151.931 28.9468 154.162 31.1774 154.162 33.9195C154.162 36.6616 151.931 38.8921 149.187 38.8921ZM149.187 29.4232C146.707 29.4232 144.689 31.4403 144.689 33.9195C144.689 36.3987 146.707 38.4157 149.187 38.4157C151.668 38.4157 153.685 36.3987 153.685 33.9195C153.685 31.4403 151.668 29.4232 149.187 29.4232Z" fill="#FFA098"/>
<path d="M86.372 138.198C88.9878 138.198 91.1083 136.078 91.1083 133.463C91.1083 130.849 88.9878 128.729 86.372 128.729C83.7562 128.729 81.6357 130.849 81.6357 133.463C81.6357 136.078 83.7562 138.198 86.372 138.198Z" fill="white"/>
<path d="M86.372 138.436C83.629 138.436 81.3975 136.205 81.3975 133.463C81.3975 130.721 83.629 128.491 86.372 128.491C89.1151 128.491 91.3466 130.721 91.3466 133.463C91.3466 136.206 89.1151 138.436 86.372 138.436ZM86.372 128.967C83.8918 128.967 81.8741 130.984 81.8741 133.463C81.8741 135.943 83.8918 137.96 86.372 137.96C88.8522 137.96 90.87 135.943 90.87 133.463C90.87 130.984 88.8522 128.967 86.372 128.967Z" fill="#FFA098"/>
</g>
<g clip-path="url(#clip1_2250_98658)">
<path d="M81.7852 16.5088H16.6896C14.3148 16.5088 12.3896 18.4332 12.3896 20.807V107.365C12.3896 109.738 14.3148 111.663 16.6896 111.663H81.7852C84.16 111.663 86.0852 109.738 86.0852 107.365V20.807C86.0852 18.4332 84.16 16.5088 81.7852 16.5088Z" fill="white"/>
<path d="M77.6522 75.2022C58.1572 73.293 39.1264 72.989 20.8237 75.2022C18.8192 75.2022 17.1943 73.5778 17.1943 71.5742V25.3311C17.1943 23.3275 18.8193 21.7031 20.8237 21.7031H77.6522C79.6566 21.7031 81.2816 23.3275 81.2816 25.3311V71.5742C81.2816 73.5778 79.6566 75.2022 77.6522 75.2022Z" fill="#FFA098"/>
<mask id="mask0_2250_98658" style="mask-type:luminance" maskUnits="userSpaceOnUse" x="17" y="21" width="65" height="55">
<path d="M77.6522 21.7031H20.8237C18.8193 21.7031 17.1943 23.3274 17.1943 25.3311V71.5742C17.1943 73.5779 18.8193 75.2022 20.8237 75.2022H77.6522C79.6566 75.2022 81.2816 73.5779 81.2816 71.5742V25.3311C81.2816 23.3274 79.6566 21.7031 77.6522 21.7031Z" fill="white"/>
</mask>
<g mask="url(#mask0_2250_98658)">
</g>
<path d="M40.751 37.7505L59.001 56.0005" stroke="white" stroke-width="6" stroke-linecap="round" stroke-linejoin="round"/>
<path d="M40.751 56.0005L59.001 37.7505" stroke="white" stroke-width="6" stroke-linecap="round" stroke-linejoin="round"/>
<path d="M30.6931 84.4243H76.6999C76.7795 84.4243 76.8558 84.3911 76.9121 84.3319C76.9684 84.2727 77 84.1924 77 84.1087C77 84.025 76.9684 83.9447 76.9121 83.8855C76.8558 83.8263 76.7795 83.793 76.6999 83.793H30.6931C30.6135 83.793 30.5372 83.8263 30.4809 83.8855C30.4246 83.9447 30.393 84.025 30.393 84.1087C30.393 84.1924 30.4246 84.2727 30.4809 84.3319C30.5372 84.3911 30.6135 84.4243 30.6931 84.4243ZM30.6931 92.3156H76.6999C76.7795 92.3156 76.8558 92.2823 76.9121 92.2231C76.9684 92.1639 77 92.0836 77 91.9999C77 91.9162 76.9684 91.8359 76.9121 91.7767C76.8558 91.7175 76.7795 91.6843 76.6999 91.6843H30.6931C30.6135 91.6843 30.5372 91.7175 30.4809 91.7767C30.4246 91.8359 30.393 91.9162 30.393 91.9999C30.393 92.0836 30.4246 92.1639 30.4809 92.2231C30.5372 92.2823 30.6135 92.3156 30.6931 92.3156ZM30.6931 100.207H76.6999C76.7795 100.207 76.8558 100.174 76.9121 100.114C76.9684 100.055 77 99.9749 77 99.8911C77 99.8074 76.9684 99.7272 76.9121 99.668C76.8558 99.6088 76.7795 99.5755 76.6999 99.5755H30.6931C30.6135 99.5755 30.5372 99.6088 30.4809 99.668C30.4246 99.7272 30.393 99.8074 30.393 99.8911C30.393 99.9749 30.4246 100.055 30.4809 100.114C30.5372 100.174 30.6135 100.207 30.6931 100.207ZM23.0051 86.2175C24.1107 86.2175 25.0102 85.2715 25.0102 84.1087C25.0102 82.9458 24.1107 82 23.0051 82C21.8994 82 21 82.946 21 84.1087C21 85.2714 21.8994 86.2175 23.0051 86.2175ZM23.0051 82.6311C23.7797 82.6311 24.4099 83.2938 24.4099 84.1085C24.4099 84.9232 23.7797 85.5861 23.0051 85.5861C22.2305 85.5861 21.6002 84.9232 21.6002 84.1085C21.6002 83.2938 22.2303 82.6311 23.0051 82.6311ZM23.0051 94.1088C24.1107 94.1088 25.0102 93.1628 25.0102 91.9999C25.0102 90.8371 24.1107 89.8912 23.0051 89.8912C21.8994 89.8912 21 90.8372 21 91.9999C21 93.1626 21.8994 94.1088 23.0051 94.1088ZM23.0051 90.5224C23.7797 90.5224 24.4099 91.1851 24.4099 91.9998C24.4099 92.8145 23.7797 93.4773 23.0051 93.4773C22.2305 93.4773 21.6002 92.8145 21.6002 91.9998C21.6002 91.1851 22.2303 90.5224 23.0051 90.5224ZM23.0051 102C24.1107 102 25.0102 101.054 25.0102 99.8911C25.0102 98.7283 24.1107 97.7825 23.0051 97.7825C21.8994 97.7825 21 98.7285 21 99.8911C21 101.054 21.8994 102 23.0051 102ZM23.0051 98.4136C23.7797 98.4136 24.4099 99.0763 24.4099 99.891C24.4099 100.706 23.7797 101.369 23.0051 101.369C22.2305 101.369 21.6002 100.706 21.6002 99.891C21.6002 99.0763 22.2303 98.4136 23.0051 98.4136Z" fill="#A5A5A5"/>
<path d="M81.7854 111.972H16.6898C14.148 111.972 12.0801 109.905 12.0801 107.364V20.8071C12.0801 18.2663 14.148 16.1992 16.6898 16.1992H81.7854C84.3272 16.1992 86.3951 18.2663 86.3951 20.8071V107.364C86.3951 109.905 84.3272 111.972 81.7854 111.972ZM16.6898 16.8184C14.4896 16.8184 12.6995 18.6078 12.6995 20.8071V107.364C12.6995 109.564 14.4895 111.353 16.6898 111.353H81.7854C83.9857 111.353 85.7756 109.564 85.7756 107.364V20.8071C85.7756 18.6078 83.9855 16.8184 81.7854 16.8184H16.6898Z" fill="#A5A5A5"/>
</g>
<path d="M145.07 143.771C145.91 145.394 146.758 147.014 147.706 148.58C148.543 150.261 149.347 151.96 150.227 153.619C150.755 154.617 150.736 155.411 149.901 156.269C148.171 158.048 146.379 159.74 144.233 161.013C143.394 161.511 143.05 161.391 142.569 160.52C141.039 157.748 139.64 154.909 138.271 152.054C137.48 150.405 136.674 148.763 135.875 147.117C135.13 145.533 134.384 143.95 133.638 142.366C133.268 141.502 133.016 140.578 132.385 139.843C132.421 139.53 132.276 139.27 132.153 138.999C130.613 135.607 129.051 132.224 127.65 128.77C128.127 128.882 128.575 128.737 129.026 128.613C130.861 128.1 132.549 127.246 134.233 126.379C134.472 126.256 134.707 126.108 134.783 125.814C135.351 126.765 135.934 127.708 136.486 128.671C138.416 132.028 140.321 135.4 142.266 138.748C142.78 139.633 143.123 140.632 143.892 141.362C144.027 142.291 144.673 142.97 145.071 143.769L145.07 143.771Z" fill="#FFA098"/>
<path d="M127.649 128.772C127.391 128.206 127.136 127.638 126.991 127.03C128.746 126.342 130.489 125.63 132.114 124.654C132.588 124.369 132.949 123.872 133.562 123.829C133.945 124.506 134.474 125.093 134.78 125.816C134.704 126.109 134.468 126.258 134.23 126.381C132.547 127.247 130.858 128.103 129.023 128.616C128.574 128.742 128.125 128.886 127.648 128.772L127.649 128.772Z" fill="#FE5C4F"/>
<path d="M133.563 123.828C132.951 123.869 132.591 124.368 132.116 124.653C130.489 125.629 128.747 126.342 126.992 127.029C125.324 127.364 123.684 127.83 121.967 127.921C115.682 128.259 110.165 126.421 105.762 121.877C102.206 118.206 100.485 113.698 100.565 108.548C100.566 108.476 100.536 108.403 100.52 108.332C100.749 105.769 101.194 103.26 102.244 100.885C102.793 99.6441 103.529 98.5098 104.158 97.3149C105.214 96.0417 106.224 94.7326 107.462 93.6164C110.217 91.1303 113.394 89.4486 116.963 88.4747C119.842 87.6894 122.774 87.514 125.7 87.9741C129.396 88.5538 132.777 89.9504 135.671 92.394C138.284 94.5998 140.129 97.3394 141.352 100.518C142.561 104.059 142.695 107.654 141.896 111.298C140.817 115.628 138.634 119.285 135.305 122.27C134.726 122.79 133.983 123.132 133.563 123.828ZM139.39 104.255L139.396 104.264C139.175 101.658 138.038 99.4518 136.412 97.4634C134.385 94.8669 131.741 93.146 128.678 92.0188C127.236 91.4379 125.748 91.0334 124.201 90.8549C123.612 90.6736 123.005 90.7443 122.405 90.7181C121.549 90.6315 120.694 90.6807 119.841 90.7574C117.184 90.9614 114.745 91.8275 112.527 93.279C111.631 93.8659 110.685 94.424 110.055 95.3428C109.236 95.841 108.674 96.602 108.091 97.3293C105.599 100.436 104.176 103.985 103.853 107.953C103.766 109.017 103.683 110.111 104.057 111.158C104.068 111.404 104.046 111.655 104.095 111.894C104.791 115.275 106.407 118.135 109.014 120.408C111.115 122.238 113.513 123.508 116.204 124.261C119.669 125.23 123.127 125.371 126.578 124.279C128.943 123.531 131.034 122.275 132.888 120.619C134.921 118.803 136.614 116.73 137.788 114.254C138.41 113.028 138.96 111.777 139.167 110.402C139.619 109.468 139.588 108.459 139.625 107.46C139.744 106.439 139.637 105.425 139.501 104.415C139.463 104.362 139.426 104.308 139.388 104.255L139.39 104.255Z" fill="#FFA098"/>
<path d="M137.788 114.254C137.343 114.215 137.399 113.659 137.041 113.532C135.764 111.611 134.261 109.863 132.871 108.025C131.96 106.82 131.022 105.636 130.104 104.436C128.178 101.916 126.258 99.3924 124.337 96.87C124.216 96.7105 124.1 96.5503 123.904 96.4754C123.087 95.258 122.217 94.0776 121.298 92.9347C120.75 92.2518 120.106 91.6305 119.841 90.7575C120.694 90.6809 121.549 90.6316 122.405 90.7182C122.381 90.9044 122.457 91.0566 122.575 91.1916C124.21 93.0593 125.844 94.9267 127.479 96.793C127.512 96.8586 127.533 96.9343 127.579 96.9883C129.435 99.143 131.291 101.296 133.151 103.448C135.155 105.769 137.162 108.084 139.169 110.403C138.962 111.779 138.411 113.03 137.789 114.256L137.788 114.254Z" fill="#E9E9E9"/>
<path d="M139.501 104.415C139.637 105.426 139.743 106.439 139.625 107.461C137.073 104.746 134.53 102.022 131.963 99.3211C131.186 98.5037 130.532 97.5567 129.559 96.9344C129.525 96.8203 129.522 96.6752 129.449 96.5957C128.417 95.4815 127.359 94.3917 126.342 93.2647C125.622 92.467 124.782 91.7754 124.203 90.8538C125.75 91.0309 127.238 91.4368 128.68 92.0177C128.669 92.1728 128.713 92.302 128.82 92.4231C130.293 94.0809 131.761 95.7427 133.232 97.4033C135.287 99.6907 137.342 101.978 139.397 104.264C139.397 104.264 139.391 104.256 139.391 104.257C139.429 104.31 139.466 104.364 139.504 104.417L139.501 104.415Z" fill="#E9E9E9"/>
<defs>
<clipPath id="clip0_2250_98658">
<rect width="127.651" height="109.489" fill="white" transform="translate(26.5117 28.9468)"/>
</clipPath>
<clipPath id="clip1_2250_98658">
<rect width="74.315" height="95.7733" fill="white" transform="translate(12.0801 16.1992)"/>
</clipPath>
</defs>
</svg>
