<svg width="24" height="24" viewBox="0 0 24 24" fill="none" xmlns="http://www.w3.org/2000/svg">
<g clip-path="url(#clip0_1011_5685)">
<path d="M19.2 16.5714H21V18.381H3V16.5714H4.8V10.2381C4.8 8.31843 5.55857 6.4774 6.90883 5.11999C8.25909 3.76258 10.0904 3 12 3C13.9096 3 15.7409 3.76258 17.0912 5.11999C18.4414 6.4774 19.2 8.31843 19.2 10.2381V16.5714ZM17.4 16.5714V10.2381C17.4 8.79835 16.8311 7.41757 15.8184 6.39952C14.8057 5.38146 13.4322 4.80952 12 4.80952C10.5678 4.80952 9.19432 5.38146 8.18162 6.39952C7.16893 7.41757 6.6 8.79835 6.6 10.2381V16.5714H17.4ZM9.3 20.1905H14.7V22H9.3V20.1905Z" fill="#2C2C2C"/>
</g>
<defs>
<clipPath id="clip0_1011_5685">
<rect width="24" height="24" fill="white"/>
</clipPath>
</defs>
</svg>
