<svg width="24" height="24" viewBox="0 0 24 24" fill="none" xmlns="http://www.w3.org/2000/svg">
<mask id="mask0_1011_5702" style="mask-type:alpha" maskUnits="userSpaceOnUse" x="3" y="4" width="20" height="12">
<path d="M21.5 5H4.5C4.22386 5 4 5.22386 4 5.5V14.5C4 14.7761 4.22386 15 4.5 15H21.5C21.7761 15 22 14.7761 22 14.5V5.5C22 5.22386 21.7761 5 21.5 5Z"  stroke-linecap="round"/>
</mask>
<g mask="url(#mask0_1011_5702)">
<path d="M18.5 5H5.5C5.22386 5 5 5.22386 5 5.5V18.5C5 18.7761 5.22386 19 5.5 19H18.5C18.7761 19 19 18.7761 19 18.5V5.5C19 5.22386 18.7761 5 18.5 5Z"  stroke-linecap="round" fill="white"/>
<path d="M9 12.875L11.2824 10.828L12.7451 12.2392L15 10.25" stroke-linecap="round" stroke-linejoin="round"/>
</g>
<mask id="mask1_1011_5702" style="mask-type:alpha" maskUnits="userSpaceOnUse" x="2" y="15" width="20" height="8">
<path d="M20.5 16H3.5C3.22386 16 3 16.2239 3 16.5V21.5C3 21.7761 3.22386 22 3.5 22H20.5C20.7761 22 21 21.7761 21 21.5V16.5C21 16.2239 20.7761 16 20.5 16Z" fill="#E8E8E8"  stroke-linecap="round"/>
</mask>
<g mask="url(#mask1_1011_5702)">
<path d="M5 22C4.45 22 3.979 21.8043 3.587 21.413C3.19567 21.021 3 20.55 3 20V6C3 5.45 3.19567 4.979 3.587 4.587C3.979 4.19567 4.45 4 5 4H19C19.55 4 20.021 4.19567 20.413 4.587C20.8043 4.979 21 5.45 21 6V20C21 20.55 20.8043 21.021 20.413 21.413C20.021 21.8043 19.55 22 19 22H5ZM5 20H19V17H16C15.5 17.6333 14.9043 18.125 14.213 18.475C13.521 18.825 12.7833 19 12 19C11.2167 19 10.4793 18.825 9.788 18.475C9.096 18.125 8.5 17.6333 8 17H5V20ZM12 17C12.5333 17 13.025 16.8623 13.475 16.587C13.925 16.3123 14.2917 15.95 14.575 15.5C14.675 15.35 14.8 15.229 14.95 15.137C15.1 15.0457 15.2667 15 15.45 15H19V6H5V15H8.55C8.73333 15 8.9 15.0457 9.05 15.137C9.2 15.229 9.325 15.35 9.425 15.5C9.70833 15.95 10.075 16.3123 10.525 16.587C10.975 16.8623 11.4667 17 12 17Z"/>
</g>
<path d="M6 3L6.1263 2.39743C6.17484 2.16585 6.37906 2 6.61567 2H17.3843C17.6209 2 17.8252 2.16585 17.8737 2.39743L18 3" stroke-linecap="round" />
</svg>
