<svg viewBox="0 0 24 24" fill="none" xmlns="http://www.w3.org/2000/svg">
<path fill-rule="evenodd" clip-rule="evenodd" d="M5 3H19C20.1 3 21 3.9 21 5V13.5786C20.445 13.0118 19.7628 12.5699 19 12.2996V5H5V19H12.2996C12.5699 19.7628 13.0118 20.445 13.5786 21H5C3.9 21 3 20.1 3 19V5C3 3.9 3.9 3 5 3ZM13 14.1702C12.417 14.9727 12.0555 15.9461 12.0059 17H11V7H13V14.1702ZM9 10H7V17H9V10Z"/>
<path fill-rule="evenodd" clip-rule="evenodd" d="M17.3684 15C16.0604 15 15 16.0604 15 17.3684C15 18.6765 16.0604 19.7368 17.3684 19.7368C18.6765 19.7368 19.7368 18.6765 19.7368 17.3684C19.7368 16.0604 18.6765 15 17.3684 15ZM13 17.3684C13 14.9558 14.9558 13 17.3684 13C19.781 13 21.7368 14.9558 21.7368 17.3684C21.7368 18.2125 21.4975 19.0006 21.0829 19.6687L22.7071 21.2929C23.0976 21.6834 23.0976 22.3166 22.7071 22.7071C22.3166 23.0976 21.6834 23.0976 21.2929 22.7071L19.6687 21.0829C19.0006 21.4975 18.2125 21.7368 17.3684 21.7368C14.9558 21.7368 13 19.781 13 17.3684Z"/>
</svg>
