<svg viewBox="0 0 24 24" fill="none" xmlns="http://www.w3.org/2000/svg">
<path d="M5 3H19C20.1 3 21 3.9 21 5V12C20.4209 11.6336 19.7349 11.4214 19 11.4214V5H5V19H14C13.6145 19.5703 13.3943 20.2567 13.3943 20.9835V21H5C3.9 21 3 20.1 3 19V5C3 3.9 3.9 3 5 3Z" />
<path d="M9 10H7V17H9V10Z" />
<path d="M13 7H11V17H13V7Z" />
<path fill-rule="evenodd" clip-rule="evenodd" d="M18.5003 12C20.1562 12 21.5005 13.3085 21.5005 14.9204C21.5005 16.5323 20.1562 17.8408 18.5003 17.8408C16.8444 17.8408 15.5001 16.5323 15.5001 14.9204C15.5001 13.3085 16.8444 12 18.5003 12ZM19.7004 14.9204C19.7004 14.2762 19.1621 13.7522 18.5003 13.7522C17.8385 13.7522 17.3002 14.2762 17.3002 14.9204C17.3002 15.5646 17.8385 16.0886 18.5003 16.0886C19.1621 16.0886 19.7004 15.5646 19.7004 14.9204Z" />
<path fill-rule="evenodd" clip-rule="evenodd" d="M19.9705 18.3006C20.2864 18.1268 20.648 18.0962 20.9663 18.1736C22.1751 18.4691 23 19.5362 23 20.742V21.3325C23 21.8389 22.8101 22.3291 22.4616 22.7081C22.1301 23.0687 21.5611 23.0994 21.1907 22.7767C20.8203 22.4541 20.7887 21.9002 21.1202 21.5396C21.1701 21.4853 21.1999 21.4124 21.1999 21.3325V20.742C21.1999 20.3685 20.9808 20.0573 20.6713 19.9216C19.3033 20.5912 17.6857 20.5874 16.3285 19.9219C16.0185 20.0578 15.8001 20.3687 15.8001 20.742V21.3325C15.8001 21.4128 15.8297 21.4851 15.8798 21.5396C16.2113 21.9002 16.1797 22.4541 15.8093 22.7767C15.4389 23.0994 14.8699 23.0687 14.5384 22.7081C14.19 22.3292 14 21.8397 14 21.3325V20.742C14 19.5362 14.8234 18.4691 16.0344 18.1737C16.3629 18.0938 16.7226 18.1321 17.035 18.3039C17.939 18.7912 19.0559 18.7944 19.9705 18.3006Z" />
</svg>
