<svg width="36" height="37" viewBox="0 0 36 37" fill="none" xmlns="http://www.w3.org/2000/svg">
<path d="M28.5003 14H24.3003C22.6201 14 21.7794 14 21.1377 13.673C20.5732 13.3854 20.1146 12.9264 19.827 12.362C19.5 11.7202 19.5 10.8802 19.5 9.2V5M28.5 27.2V14.4883C28.5 13.7545 28.4994 13.3875 28.4165 13.0423C28.343 12.7362 28.222 12.4436 28.0576 12.1751C27.872 11.8724 27.6133 11.613 27.0945 11.0941L22.4062 6.40588C21.8874 5.88703 21.6279 5.62763 21.3252 5.44211C21.0568 5.27762 20.7642 5.15638 20.4581 5.08289C20.1129 5 19.7458 5 19.0121 5H12.3003C10.6201 5 9.77943 5 9.1377 5.32698C8.57321 5.6146 8.1146 6.07358 7.82698 6.63806C7.5 7.2798 7.5 8.11986 7.5 9.80002V27.2C7.5 28.8802 7.5 29.7202 7.82698 30.362C8.1146 30.9264 8.57321 31.3854 9.1377 31.673C9.77943 32 10.6201 32 12.3003 32H23.7003C25.3805 32 26.2199 32 26.8617 31.673C27.4262 31.3854 27.8857 30.9264 28.1733 30.3619C28.5003 29.7202 28.5 28.8802 28.5 27.2Z" stroke="#2C2C2C" stroke-width="2.5" stroke-linecap="round" stroke-linejoin="round"/>
<path d="M12 26L15.8471 20.1514L20.2353 24.1835L24 18.5" stroke="#2C2C2C" stroke-width="2" stroke-linecap="round" stroke-linejoin="round"/>
</svg>
