<svg viewBox="0 0 83 67" fill="white" xmlns="http://www.w3.org/2000/svg">
<path d="M67.6685 43.8337C67.4131 42.5257 67.088 41.2292 66.9196 39.9096C66.6816 38.0493 66.014 37.3517 64.133 37.3459C57.8573 37.3342 51.5816 37.311 45.3059 37.3691C43.9474 37.3807 42.9024 37.0784 42.0258 35.9971C40.8125 34.5089 39.5933 33.009 38.1884 31.7068C37.4743 31.0441 36.3945 30.6081 35.4134 30.4395C34.1478 30.2244 32.8125 30.3755 31.5121 30.3872C30.7342 30.393 30.3626 30.0384 30.3626 29.2535C30.3626 25.2888 30.3046 21.3298 30.3858 17.365C30.4207 15.7256 31.7211 14.7432 33.5788 14.7374C38.8386 14.7199 44.1042 14.7374 49.3639 14.7315C55.3029 14.7315 61.2419 14.7315 67.1751 14.7315C67.6976 14.7315 68.2201 14.7315 68.9225 14.7315C67.3957 19.2253 68.2085 23.6726 68.0807 28.0618C67.953 32.5033 68.0459 36.9506 68.0401 41.3978C68.0401 42.2059 68.0401 43.014 68.0401 43.822C67.9182 43.822 67.7905 43.8279 67.6685 43.8337Z" fill="#E5635C" fill-opacity="0.1"/>
<path d="M69.7759 56.0706C69.6075 54.53 69.3057 52.9894 69.2883 51.4431C69.2244 46.2284 69.2592 41.0137 69.2708 35.7933C69.2708 33.9097 69.2824 33.9039 71.2331 33.8864C72.1968 33.8806 73.1605 33.8864 74.1242 33.8923C74.2577 33.8923 74.3913 33.9795 74.7628 34.1074C73.2244 41.4149 71.6859 48.7282 70.1475 56.0473L69.7817 56.0589L69.7759 56.0706Z" fill="#DD8C8E" fill-opacity="0.25"/>
<path d="M68.5974 20.051C68.7077 19.051 68.6612 18.0104 68.9573 17.0687C69.4566 15.4816 70.937 14.5863 72.3767 14.7665C73.474 14.9061 74.786 16.3652 74.8789 17.7837C74.9776 19.3185 74.9718 20.8707 74.8789 22.4112C74.8557 22.7658 74.31 23.353 73.9732 23.3762C72.5335 23.4751 71.0821 23.4693 69.6424 23.353C69.3057 23.3239 68.818 22.7542 68.7425 22.3705C68.5974 21.6264 68.7019 20.8358 68.7019 20.0626C68.667 20.0626 68.638 20.0568 68.6032 20.051H68.5974Z" fill="#DD8C8E" fill-opacity="0.25"/>
<path d="M29.6079 30.2128H32.0927C32.4508 30.2096 32.8116 30.1958 33.1729 30.182C34.1233 30.1457 35.0769 30.1093 35.994 30.2651C36.9693 30.4279 38.0491 30.8697 38.769 31.5325C40.1576 32.8191 41.3747 34.312 42.5791 35.7893L42.6064 35.8228C43.483 36.8983 44.5338 37.2064 45.8865 37.1948C51.3778 37.1439 56.8692 37.1553 62.3605 37.1668C63.1449 37.1684 63.9292 37.17 64.7136 37.1715C66.5888 37.1715 67.2622 37.8749 67.5002 39.7352L68.2143 43.8918" stroke="#F1A8AA" stroke-width="2.32131"/>
<path fill-rule="evenodd" clip-rule="evenodd" d="M21.0624 40.6942C21.0624 40.6942 21.0894 33.8025 21.0624 33.1134C20.9695 30.6543 21.2481 30.4334 23.6458 30.4276C27.9915 30.4276 27.9941 30.8113 27.9941 26.1256C27.9941 25.374 27.9928 24.6225 27.9915 23.8709C27.9881 21.8669 27.9846 19.8629 28.0057 17.8589C28.0347 14.6964 30.3337 12.4 33.4628 12.3942C38.0975 12.3922 42.7329 12.3945 47.3686 12.3968C55.8676 12.401 64.3673 12.4052 72.8646 12.3826C76.6381 12.371 78.6932 14.894 78.9777 18.2949C79.09 19.6362 79.0593 20.9894 79.0285 22.3417C79.0164 22.8767 79.0042 23.4116 79.0009 23.9456C78.9951 25.2478 78.3739 25.864 77.0155 25.8117C76.072 25.7769 75.1269 25.7851 74.1819 25.7933C73.3882 25.8001 72.5946 25.807 71.8022 25.7884C70.2463 25.7884 70.4088 27.1313 70.4088 27.1313V30.1776C70.4088 30.1776 70.2463 31.5554 71.7615 31.5554C73.1771 31.5181 74.5926 31.5345 76.0081 31.5509C76.1369 31.5524 76.2656 31.5539 76.3943 31.5554C78.2578 31.5786 78.5887 32.2123 78.1475 34.0145C77.768 35.5612 77.4828 37.1329 77.1977 38.7034C77.0468 39.5352 76.8958 40.3667 76.731 41.1941C76.3754 42.9695 75.9994 44.7408 75.6236 46.5114C75.5514 46.8512 75.4793 47.191 75.4073 47.5307C75.0775 49.0732 74.7429 50.6132 74.4081 52.1539C74.2243 52.9999 74.0404 53.846 73.8573 54.6929C73.7174 55.3362 73.58 55.9802 73.4426 56.6245C73.0608 58.4139 72.6788 60.2047 72.2434 61.983C71.8602 63.5526 72.1447 64.0293 73.7412 64.0525C74.1402 64.0581 74.5416 64.0472 74.9429 64.0362C75.8027 64.0128 76.6622 63.9894 77.4973 64.1281C78.0837 64.227 78.9197 64.8955 79.0184 65.4245C79.1983 66.4186 78.2346 66.4244 77.4973 66.4244C76.1598 66.4244 74.8223 66.4247 73.4847 66.425C66.1313 66.4265 58.7773 66.428 51.4192 66.3837C51.0451 66.3837 50.6738 66.1298 50.3034 65.8764C50.1333 65.7601 49.9635 65.6439 49.7936 65.5524C49.9432 65.411 50.0884 65.2633 50.2335 65.1157C50.5895 64.7536 50.9445 64.3925 51.3611 64.1281C51.5872 63.9881 51.9182 64.0173 52.2467 64.0462C52.3821 64.0581 52.5171 64.07 52.6441 64.07H67.1288C67.5121 64.07 67.8953 64.0404 68.3299 64.0068C68.5338 63.991 68.749 63.9744 68.9807 63.9595C68.7655 62.8622 68.5509 61.7796 68.3383 60.7069C67.8682 58.3356 67.4077 56.0128 66.972 53.6872C66.73 52.3799 66.5142 51.0665 66.2984 49.7533C66.0948 48.5145 65.8912 47.2757 65.6658 46.0425C65.3174 44.1589 64.9575 42.2754 64.435 40.4325C64.3363 40.0895 63.4597 39.7756 62.943 39.7698C56.6673 39.7291 50.3858 39.7 44.1101 39.7814C42.7168 39.7988 41.724 39.3919 40.8532 38.3629C39.518 36.7875 38.1769 35.2062 36.7255 33.7354C36.2437 33.2471 35.4251 32.8518 34.7459 32.8343C32.2859 32.7646 29.8226 32.7733 27.3585 32.782C26.5371 32.7849 25.7155 32.7878 24.894 32.7878C24.1335 32.7878 23.3904 32.7878 23.3846 33.8517C23.384 33.9358 23.3823 34.0211 23.3807 34.1067C23.3755 34.3682 23.3703 40.4467 23.3977 40.6942H21.0624ZM68.0402 43.8217C67.9183 43.8276 67.7906 43.8334 67.6687 43.8334C67.5899 43.4299 67.5044 43.0274 67.419 42.6251C67.2276 41.7233 67.0362 40.8218 66.9198 39.9093C66.6817 38.049 66.0083 37.3456 64.1331 37.3456C63.3488 37.3441 62.5644 37.3425 61.78 37.3408C56.2887 37.3294 50.7973 37.3179 45.306 37.3688C43.9533 37.3804 42.9025 37.0723 42.0259 35.9968L41.9986 35.9634C40.7942 34.486 39.5771 32.9932 38.1885 31.7065C37.4686 31.0438 36.3888 30.602 35.4135 30.4392C34.4964 30.2833 33.5428 30.3198 32.5924 30.3561C32.2311 30.3699 31.8703 30.3837 31.5122 30.3869C30.7343 30.3927 30.3627 30.0381 30.3627 29.2532C30.3646 27.9672 30.3592 26.6812 30.3537 25.3954C30.3424 22.717 30.331 20.0396 30.3859 17.3647C30.4208 15.7253 31.7212 14.7371 33.579 14.7371C37.3361 14.7246 41.0962 14.727 44.855 14.7293C46.3583 14.7303 47.8614 14.7312 49.364 14.7312H68.9226C67.8329 17.9387 67.935 21.1194 68.0363 24.2757C68.0769 25.5415 68.1174 26.8034 68.0809 28.0615C67.99 31.2216 68.0078 34.3848 68.0257 37.5487C68.033 38.8316 68.0402 40.1145 68.0402 41.3975V43.8217ZM71.3087 56.0591L70.9429 56.0707L70.9371 56.0823C70.8831 55.5862 70.8154 55.0913 70.7477 54.5969C70.6044 53.55 70.4613 52.5051 70.4495 51.4548C70.4053 47.4813 70.4149 43.5045 70.4246 39.5294C70.4277 38.2877 70.4307 37.0462 70.4321 35.805C70.4379 33.9157 70.4495 33.9156 72.394 33.8982C73.3577 33.8866 74.3217 33.8924 75.2854 33.904C75.4248 33.904 75.9693 33.904 75.924 34.1191C74.3856 41.4266 72.8471 48.7399 71.3087 56.0591ZM70.3392 22.3701C70.3392 21.2191 70.345 20.0505 70.345 20.0505H70.3392C70.3392 20.0505 70.403 18.0042 70.6991 17.0682C71.1984 15.4754 72.6788 14.5859 74.1185 14.7661C75.2158 14.9056 76.5278 16.3706 76.6207 17.7833C76.7252 19.3239 76.7136 20.8761 76.6207 22.4108C76.5975 22.7654 76.0518 23.3526 75.715 23.3758C74.2753 23.4805 72.8181 23.4689 71.3842 23.3526C70.4088 23.3526 70.3392 23.3526 70.3392 22.3701Z"/>
<rect x="9.86938" y="63.9479" width="35.4134" height="2.90672" rx="1.45336"/>
<rect y="63.9479" width="6.38601" height="2.90672" rx="1.45336"/>
<rect x="48.766" y="63.9479" width="30.1884" height="2.90672" rx="1.45336"/>
<rect x="40.6383" y="47.0888" width="21.4802" height="2.32538" rx="1.16269" fill="#F1A8AA"/>
<rect x="35.994" y="19.7657" width="26.1246" height="2.32538" rx="1.16269" fill="#F1A8AA"/>
<rect x="41.7993" y="24.9977" width="20.3191" height="2.32538" rx="1.16269" fill="#F1A8AA"/>
<rect x="47.0243" y="30.2297" width="15.0942" height="2.32538" rx="1.16269" fill="#F1A8AA"/>
<rect x="41.7993" y="51.7395" width="22.6413" height="2.32538" rx="1.16269" fill="#F1A8AA"/>
<rect x="43.541" y="56.3907" width="12.1915" height="2.32538" rx="1.16269" fill="#F1A8AA"/>
<path d="M34.6042 61.739C34.1815 62.1623 33.4955 62.1623 33.0728 61.739L27.4432 56.1017C27.0532 55.7111 26.4356 55.6856 25.9572 55.961C25.6038 56.1644 25.2245 56.3389 24.8192 56.4846C24.0887 56.7472 23.3113 56.8785 22.4871 56.8785C20.4454 56.8785 18.7175 56.1706 17.3037 54.7548C15.8891 53.3382 15.1818 51.6077 15.1818 49.5631C15.1818 47.5186 15.8891 45.788 17.3037 44.3715C18.7175 42.9556 20.4454 42.2477 22.4871 42.2477C24.5289 42.2477 26.257 42.9556 27.6717 44.3715C29.0855 45.788 29.7925 47.5186 29.7925 49.5631C29.7925 50.3885 29.6613 51.1669 29.3991 51.8984C29.2532 52.3053 29.0784 52.6861 28.8746 53.0407C28.6002 53.5183 28.6256 54.1344 29.0148 54.5242L34.6484 60.1655C35.0702 60.5879 35.0702 61.2723 34.6484 61.6947L34.6042 61.739ZM22.4871 56.2536C23.892 56.2536 25.0863 54.1354 26.0701 53.151C27.0531 52.1659 27.5447 50.9699 27.5447 49.5631C27.5447 48.1563 27.0531 46.9604 26.0701 45.9752C25.0863 44.9908 23.892 44.4986 22.4871 44.4986C21.0822 44.4986 19.8879 43.9068 18.9041 44.8912C17.9211 45.8764 15.2645 48.1563 15.2645 49.5631C15.2645 50.9699 17.9211 54.3339 18.9041 55.319C19.8879 56.3034 21.0822 56.2536 22.4871 56.2536Z" fill="#376EDA" fill-opacity="0.25"/>
<path d="M33.4234 62.4773C32.9885 62.9128 32.2827 62.9128 31.8478 62.4773L26.2869 56.9087C25.8704 56.4917 25.2109 56.465 24.6971 56.754C24.3601 56.9435 23.9998 57.1072 23.6163 57.245C22.8858 57.5077 22.1084 57.639 21.2842 57.639C19.2425 57.639 17.5147 56.9311 16.1008 55.5152C14.6862 54.0987 13.9789 52.3681 13.9789 50.3236C13.9789 48.279 14.6862 46.5485 16.1008 45.1319C17.5147 43.7161 19.2425 43.0082 21.2842 43.0082C23.326 43.0082 25.0542 43.7161 26.4688 45.1319C27.8827 46.5485 28.5896 48.279 28.5896 50.3236C28.5896 51.1489 28.4585 51.9273 28.1962 52.6589C28.0582 53.044 27.8941 53.4057 27.7042 53.744C27.4162 54.2569 27.4427 54.9149 27.8584 55.3311L33.4234 60.9038C33.8575 61.3385 33.8575 62.0426 33.4234 62.4773ZM21.2842 55.3881C22.6891 55.3881 23.8834 54.8959 24.8672 53.9115C25.8503 52.9263 26.3418 51.7304 26.3418 50.3236C26.3418 48.9168 25.8503 47.7208 24.8672 46.7357C23.8834 45.7513 22.6891 45.2591 21.2842 45.2591C19.8794 45.2591 18.685 45.7513 17.7013 46.7357C16.7182 47.7208 16.2267 48.9168 16.2267 50.3236C16.2267 51.7304 16.7182 52.9263 17.7013 53.9115C18.685 54.8959 19.8794 55.3881 21.2842 55.3881Z" fill="#376EDA"/>
</svg>
