<svg viewBox="0 0 6 10" fill="none" xmlns="http://www.w3.org/2000/svg">
<path d="M3.58742 5.03671L0.637421 7.98671C0.482211 8.14284 0.395094 8.35405 0.395094 8.57421C0.395094 8.79436 0.482212 9.00557 0.637421 9.16171C0.71489 9.23981 0.807057 9.30181 0.908607 9.34411C1.01016 9.38642 1.11908 9.4082 1.22909 9.4082C1.3391 9.4082 1.44802 9.38642 1.54957 9.34411C1.65112 9.30181 1.74329 9.23981 1.82075 9.1617L5.35409 5.62837C5.43219 5.5509 5.49419 5.45874 5.5365 5.35719C5.5788 5.25564 5.60059 5.14672 5.60059 5.03671C5.60059 4.9267 5.5788 4.81777 5.5365 4.71622C5.49419 4.61468 5.43219 4.52251 5.35409 4.44504L1.82075 0.870039C1.74289 0.792805 1.65054 0.731701 1.54901 0.690231C1.44748 0.64876 1.33876 0.627737 1.22909 0.628372C1.11941 0.627737 1.0107 0.64876 0.909165 0.690231C0.807634 0.731701 0.715287 0.792805 0.63742 0.870039C0.482211 1.02617 0.395093 1.23738 0.395093 1.45754C0.395093 1.67769 0.482211 1.8889 0.63742 2.04504L3.58742 5.03671Z"/>
</svg>
