<svg viewBox="0 0 83 67" fill="white" xmlns="http://www.w3.org/2000/svg">
<path d="M67.6686 43.8337C67.4132 42.5257 67.0881 41.2293 66.9197 39.9097C66.6817 38.0494 66.0141 37.3517 64.1331 37.3459C57.8574 37.3343 51.5817 37.311 45.306 37.3692C43.9475 37.3808 42.9025 37.0785 42.0259 35.9972C40.8125 34.509 39.5934 33.0091 38.1884 31.7069C37.4744 31.0441 36.3946 30.6081 35.4134 30.4395C34.1478 30.2244 32.8126 30.3756 31.5122 30.3872C30.7342 30.393 30.3627 30.0384 30.3627 29.2536C30.3627 25.2888 30.3046 21.3299 30.3859 17.3651C30.4207 15.7257 31.7212 14.7432 33.5789 14.7374C38.8387 14.72 44.1042 14.7374 49.364 14.7316C55.303 14.7316 61.242 14.7316 67.1751 14.7316C67.6976 14.7316 68.2201 14.7316 68.9226 14.7316C67.3958 19.2254 68.2085 23.6727 68.0808 28.0618C67.9531 32.5033 68.046 36.9506 68.0402 41.3979C68.0402 42.206 68.0402 43.014 68.0402 43.8221C67.9182 43.8221 67.7905 43.8279 67.6686 43.8337Z" fill="#E5635C" fill-opacity="0.1"/>
<path fill-rule="evenodd" clip-rule="evenodd" d="M21.0623 40.6941C21.0623 40.6941 21.0893 33.8024 21.0623 33.1133C20.9694 30.6542 21.2481 30.4333 23.6458 30.4275C27.9915 30.4275 27.9941 30.8113 27.9941 26.1255C27.9941 25.374 27.9928 24.6224 27.9915 23.8709C27.988 21.8668 27.9846 19.8628 28.0057 17.8588C28.0347 14.6963 30.3337 12.4 33.4628 12.3942C38.0975 12.3921 42.7329 12.3944 47.3685 12.3967C55.8675 12.4009 64.3672 12.4051 72.8645 12.3825C76.6381 12.3709 78.6932 14.894 78.9777 18.2948C79.09 19.6361 79.0592 20.9893 79.0285 22.3416C79.0163 22.8767 79.0042 23.4115 79.0009 23.9455C78.9951 25.2477 78.3739 25.8639 77.0154 25.8116C76.072 25.7769 75.1269 25.785 74.1819 25.7932C73.3882 25.8001 72.5945 25.8069 71.8021 25.7884C70.2463 25.7884 70.4088 27.1313 70.4088 27.1313V30.1775C70.4088 30.1775 70.2463 31.5553 71.7615 31.5553C73.177 31.518 74.5926 31.5344 76.0081 31.5509C76.1368 31.5524 76.2655 31.5539 76.3942 31.5553C78.2578 31.5786 78.5887 32.2122 78.1475 34.0144C77.768 35.5612 77.4827 37.1328 77.1977 38.7033C77.0467 39.5351 76.8958 40.3667 76.731 41.194C76.3754 42.9694 75.9994 44.7407 75.6235 46.5113C75.5514 46.8511 75.4793 47.1909 75.4073 47.5307C75.0775 49.0731 74.7429 50.6131 74.4081 52.1539C74.2243 52.9998 74.0404 53.846 73.8573 54.6928C73.7174 55.3361 73.58 55.9802 73.4426 56.6244C73.0608 58.4139 72.6787 60.2047 72.2433 61.9829C71.8602 63.5525 72.1446 64.0292 73.7411 64.0525C74.1402 64.058 74.5416 64.0471 74.9429 64.0362C75.8027 64.0127 76.6621 63.9893 77.4973 64.1281C78.0836 64.2269 78.9196 64.8954 79.0183 65.4245C79.1983 66.4186 78.2346 66.4244 77.4973 66.4244C76.1598 66.4244 74.8222 66.4246 73.4847 66.4249C66.1313 66.4264 58.7773 66.428 51.4191 66.3837C51.0451 66.3837 50.6738 66.1297 50.3033 65.8763C50.1333 65.76 49.9634 65.6438 49.7936 65.5524C49.9432 65.411 50.0884 65.2632 50.2335 65.1157C50.5894 64.7536 50.9445 64.3924 51.3611 64.1281C51.5872 63.9881 51.9181 64.0172 52.2467 64.0461C52.3821 64.0581 52.517 64.0699 52.6441 64.0699H67.1287C67.512 64.0699 67.8953 64.0403 68.3299 64.0067C68.5337 63.991 68.7489 63.9743 68.9807 63.9595C68.7655 62.8622 68.5509 61.7796 68.3382 60.7069C67.8681 58.3355 67.4077 56.0127 66.972 53.6871C66.73 52.3799 66.5142 51.0665 66.2984 49.7533C66.0948 48.5144 65.8912 47.2757 65.6657 46.0424C65.3174 44.1589 64.9575 42.2753 64.435 40.4324C64.3363 40.0895 63.4597 39.7755 62.943 39.7697C56.6673 39.729 50.3858 39.6999 44.11 39.7813C42.7167 39.7988 41.724 39.3918 40.8532 38.3629C39.5179 36.7874 38.1769 35.2062 36.7255 33.7353C36.2436 33.247 35.4251 32.8517 34.7458 32.8343C32.2858 32.7645 29.8226 32.7732 27.3585 32.7819C26.5371 32.7848 25.7155 32.7878 24.8939 32.7878C24.1334 32.7878 23.3903 32.7878 23.3845 33.8516C23.384 33.9358 23.3823 34.021 23.3806 34.1066C23.3755 34.3682 23.3702 40.4466 23.3976 40.6941H21.0623ZM68.0402 43.8217C67.9183 43.8275 67.7905 43.8333 67.6686 43.8333C67.5898 43.4298 67.5044 43.0274 67.419 42.6251C67.2275 41.7232 67.0361 40.8218 66.9197 39.9092C66.6817 38.0489 66.0083 37.3455 64.1331 37.3455C63.3487 37.344 62.5644 37.3424 61.78 37.3408C56.2886 37.3293 50.7973 37.3179 45.306 37.3688C43.9533 37.3804 42.9025 37.0723 42.0259 35.9968L41.9986 35.9633C40.7942 34.486 39.5771 32.9931 38.1885 31.7065C37.4686 31.0437 36.3888 30.6019 35.4135 30.4391C34.4964 30.2833 33.5428 30.3197 32.5923 30.356C32.2311 30.3698 31.8703 30.3836 31.5122 30.3868C30.7342 30.3926 30.3627 30.038 30.3627 29.2532C30.3646 27.9672 30.3591 26.6811 30.3537 25.3953C30.3423 22.717 30.331 20.0395 30.3859 17.3647C30.4207 15.7253 31.7212 14.737 33.5789 14.737C37.336 14.7245 41.0961 14.7269 44.8549 14.7293C46.3582 14.7302 47.8614 14.7312 49.364 14.7312H68.9226C67.8328 17.9386 67.9349 21.1194 68.0362 24.2756C68.0769 25.5414 68.1174 26.8033 68.0808 28.0614C67.9899 31.2216 68.0078 34.3847 68.0257 37.5487C68.0329 38.8315 68.0402 40.1145 68.0402 41.3975V43.8217ZM71.3087 56.059L70.9429 56.0706L70.9371 56.0823C70.8831 55.5862 70.8153 55.0913 70.7477 54.5968C70.6043 53.55 70.4613 52.505 70.4494 51.4547C70.4052 47.4813 70.4149 43.5044 70.4246 39.5294C70.4276 38.2877 70.4307 37.0461 70.432 35.8049C70.4378 33.9157 70.4494 33.9156 72.394 33.8981C73.3577 33.8865 74.3217 33.8923 75.2854 33.9039C75.4247 33.9039 75.9693 33.9039 75.924 34.119C74.3856 41.4265 72.8471 48.7399 71.3087 56.059ZM70.3391 22.3701C70.3391 21.2191 70.3449 20.0505 70.3449 20.0505H70.3391C70.3391 20.0505 70.403 18.0042 70.6991 17.0682C71.1983 15.4753 72.6787 14.5858 74.1185 14.7661C75.2157 14.9056 76.5278 16.3706 76.6207 17.7832C76.7252 19.3238 76.7135 20.876 76.6207 22.4108C76.5974 22.7654 76.0517 23.3525 75.715 23.3758C74.2752 23.4804 72.8181 23.4688 71.3841 23.3525C70.4088 23.3525 70.3391 23.3525 70.3391 22.3701Z"/>
<path d="M3.00006 65.4016C3.00006 64.5989 3.65075 63.9482 4.45342 63.9482H77.7351C78.5378 63.9482 79.1885 64.5989 79.1885 65.4016C79.1885 66.2043 78.5378 66.855 77.7351 66.855H4.45342C3.65075 66.855 3.00006 66.2043 3.00006 65.4016Z"/>
<rect x="40.6382" y="47.0887" width="21.4802" height="2.32538" rx="1.16269" fill="#F1A8AA"/>
<rect x="35.9938" y="19.7656" width="26.1246" height="2.32538" rx="1.16269" fill="#F1A8AA"/>
<rect x="41.7993" y="24.998" width="20.3191" height="2.32538" rx="1.16269" fill="#F1A8AA"/>
<rect x="47.0243" y="30.2299" width="15.0942" height="2.32538" rx="1.16269" fill="#F1A8AA"/>
<rect x="41.7993" y="51.7398" width="22.6413" height="2.32538" rx="1.16269" fill="#F1A8AA"/>
<rect x="43.5411" y="56.3903" width="12.1915" height="2.32538" rx="1.16269" fill="#F1A8AA"/>
<path d="M18.455 61.5848C17.9534 61.5848 17.5239 61.4062 17.1664 61.0488C16.8095 60.6908 16.6311 60.2607 16.6311 59.7584V46.9733C16.6311 46.471 16.8095 46.0412 17.1664 45.6838C17.5239 45.3259 17.9534 45.1469 18.455 45.1469H18.9167C19.1654 45.1469 19.367 44.9453 19.367 44.6966V43.7708C19.367 43.522 19.5686 43.3204 19.8173 43.3204H20.7406C20.9893 43.3204 21.1909 43.522 21.1909 43.7708V44.6966C21.1909 44.9453 21.3925 45.1469 21.6412 45.1469H28.0363C28.285 45.1469 28.4866 44.9453 28.4866 44.6966V43.7708C28.4866 43.522 28.6883 43.3204 28.937 43.3204H29.8603C30.109 43.3204 30.3106 43.522 30.3106 43.7708V44.6966C30.3106 44.9453 30.5122 45.1469 30.7609 45.1469H31.2225C31.7241 45.1469 32.1537 45.3259 32.5111 45.6838C32.868 46.0412 33.0465 46.471 33.0465 46.9733V59.7584C33.0465 60.2607 32.868 60.6908 32.5111 61.0488C32.1537 61.4062 31.7241 61.5848 31.2225 61.5848H18.455ZM18.455 59.3081C18.455 59.5568 18.6566 59.7584 18.9053 59.7584H30.7722C31.0209 59.7584 31.2225 59.5568 31.2225 59.3081V51.0765C31.2225 50.8278 31.0209 50.6262 30.7722 50.6262H18.9053C18.6566 50.6262 18.455 50.8278 18.455 51.0765V59.3081ZM18.455 48.3494C18.455 48.5981 18.6566 48.7998 18.9053 48.7998H30.7722C31.0209 48.7998 31.2225 48.5981 31.2225 48.3494V47.4236C31.2225 47.1749 31.0209 46.9733 30.7722 46.9733H18.9053C18.6566 46.9733 18.455 47.1749 18.455 47.4236V48.3494Z" fill="#3B6AC7"/>
</svg>
