<svg width="48" height="48" viewBox="0 0 48 48" fill="none" xmlns="http://www.w3.org/2000/svg">
<path d="M17.25 42C16.3167 42 15.542 41.692 14.926 41.076C14.3087 40.4587 14 39.6833 14 38.75V9.25C14 8.31667 14.3087 7.54133 14.926 6.924C15.542 6.308 16.3167 6 17.25 6H25.125H33L42 15V38.75C42 39.6833 41.692 40.4587 41.076 41.076C40.4587 41.692 39.6833 42 38.75 42H17.25Z" fill="#FDCECA"/>
<rect x="19" y="14" width="17" height="4" rx="1" fill="#FF8479"/>
<rect x="18" y="21" width="20" height="2" rx="1" fill="white"/>
<rect x="18" y="25" width="14" height="2" rx="1" fill="white"/>
<rect x="18" y="33" width="14" height="2" rx="1" fill="white"/>
<rect x="34" y="25" width="4" height="2" rx="1" fill="white"/>
<rect x="34" y="33" width="4" height="2" rx="1" fill="white"/>
<rect x="18" y="29" width="20" height="2" rx="1" fill="white"/>
<path d="M35 15C33.8954 15 33 14.1046 33 13L33 6L42 15L35 15Z" fill="#EE3F44"/>
<path opacity="0.8" d="M21 21C21 22.3845 20.5895 23.7378 19.8203 24.889C19.0511 26.0401 17.9579 26.9373 16.6788 27.4672C15.3997 27.997 13.9922 28.1356 12.6344 27.8655C11.2765 27.5954 10.0292 26.9287 9.05025 25.9497C8.07128 24.9708 7.4046 23.7235 7.1345 22.3656C6.86441 21.0078 7.00303 19.6003 7.53284 18.3212C8.06266 17.0421 8.95986 15.9489 10.111 15.1797C11.2622 14.4105 12.6155 14 14 14V21H21Z" fill="#FF8479"/>
<path d="M14 13.3C14 13.1343 14.1344 12.9994 14.2999 13.0056C15.2482 13.0412 16.1833 13.2452 17.0615 13.609C18.0321 14.011 18.914 14.6003 19.6569 15.3431C20.3997 16.086 20.989 16.9679 21.391 17.9385C21.7548 18.8167 21.9588 19.7518 21.9944 20.7001C22.0006 20.8656 21.8657 21 21.7 21L14 21L14 13.3Z" fill="#EE3F44"/>
</svg>
