<svg width="20" height="20" viewBox="0 0 20 20" fill="none" xmlns="http://www.w3.org/2000/svg">
<path d="M18.0895 16.9106L14.307 13.1282C15.2595 11.9215 15.8337 10.4023 15.8337 8.74984C15.8337 4.844 12.6562 1.6665 8.75033 1.6665C4.84449 1.6665 1.66699 4.844 1.66699 8.74984C1.66699 12.6557 4.84449 15.8332 8.75033 15.8332C10.4037 15.8332 11.922 15.2598 13.1287 14.3065L16.9112 18.089C17.0737 18.2515 17.287 18.3332 17.5003 18.3332C17.7137 18.3332 17.927 18.2515 18.0895 18.089C18.4153 17.7632 18.4153 17.2365 18.0895 16.9106ZM3.33366 8.74984C3.33366 5.76317 5.76366 3.33317 8.75033 3.33317C11.737 3.33317 14.167 5.76317 14.167 8.74984C14.167 11.7365 11.737 14.1665 8.75033 14.1665C5.76366 14.1665 3.33366 11.7365 3.33366 8.74984Z" fill="#6A6A6A"/>
</svg>
