<svg viewBox="0 0 83 67" fill="white" xmlns="http://www.w3.org/2000/svg">
<path d="M67.7324 44C67.4741 42.5618 67.1455 41.1365 66.9753 39.6855C66.7347 37.6401 66.0598 36.8731 64.1584 36.8667C57.8143 36.8539 51.4703 36.8283 45.1263 36.8923C43.753 36.905 42.6966 36.5727 41.8105 35.3838C40.5839 33.7475 39.3515 32.0984 37.9313 30.6666C37.2094 29.9379 36.1179 29.4585 35.126 29.2732C33.8467 29.0367 32.4969 29.2029 31.1823 29.2156C30.3959 29.222 30.0203 28.8321 30.0203 27.9692C30.0203 23.61 29.9616 19.2571 30.0438 14.8979C30.079 13.0954 31.3936 12.0152 33.2715 12.0088C38.5886 11.9896 43.9114 12.0088 49.2285 12.0024C55.2321 12.0024 61.2358 12.0024 67.2335 12.0024C67.7617 12.0024 68.2899 12.0024 69 12.0024C67.4565 16.9433 68.2782 21.8331 68.149 26.6589C68.0199 31.5423 68.1138 36.432 68.108 41.3218C68.108 42.2103 68.108 43.0987 68.108 43.9872C67.9847 43.9872 67.8556 43.9936 67.7324 44Z" fill="#E5635C" fill-opacity="0.1"/>
<path fill-rule="evenodd" clip-rule="evenodd" d="M21.0622 40.6941C21.0622 40.6941 21.0892 33.8023 21.0622 33.1132C20.9693 30.6542 21.248 30.4332 23.6457 30.4274C27.9914 30.4274 27.9939 30.8112 27.9939 26.1255C27.9939 25.3739 27.9926 24.6224 27.9914 23.8708C27.9879 21.8668 27.9844 19.8628 28.0056 17.8588C28.0346 14.6962 30.3335 12.3999 33.4627 12.3941C38.0974 12.3921 42.7328 12.3944 47.3684 12.3966C55.8674 12.4009 64.3671 12.4051 72.8644 12.3825C76.6379 12.3709 78.6931 14.8939 78.9776 18.2948C79.0899 19.636 79.0591 20.9893 79.0284 22.3416C79.0162 22.8766 79.0041 23.4115 79.0008 23.9454C78.995 25.2476 78.3738 25.8639 77.0153 25.8116C76.0719 25.7768 75.1268 25.785 74.1818 25.7931C73.388 25.8 72.5944 25.8069 71.802 25.7883C70.2461 25.7883 70.4087 27.1312 70.4087 27.1312V30.1775C70.4087 30.1775 70.2461 31.5552 71.7614 31.5552C73.1769 31.5179 74.5924 31.5344 76.008 31.5508C76.1367 31.5523 76.2654 31.5538 76.3941 31.5552C78.2577 31.5785 78.5886 32.2122 78.1474 34.0143C77.7679 35.5611 77.4826 37.1327 77.1976 38.7032C77.0466 39.5351 76.8957 40.3666 76.7308 41.1939C76.3753 42.9693 75.9993 44.7406 75.6234 46.5113C75.5513 46.8511 75.4792 47.1908 75.4072 47.5306C75.0774 49.073 74.7427 50.6131 74.408 52.1538C74.2241 52.9997 74.0403 53.8459 73.8571 54.6928C73.7173 55.336 73.5799 55.9801 73.4424 56.6243C73.0607 58.4138 72.6786 60.2046 72.2432 61.9828C71.8601 63.5525 72.1445 64.0292 73.741 64.0524C74.1401 64.058 74.5415 64.047 74.9428 64.0361C75.8026 64.0127 76.662 63.9893 77.4972 64.128C78.0835 64.2268 78.9195 64.8954 79.0182 65.4244C79.1982 66.4185 78.2345 66.4243 77.4972 66.4243C76.1596 66.4243 74.8221 66.4246 73.4845 66.4249C66.1312 66.4264 58.7772 66.4279 51.419 66.3836C51.045 66.3836 50.6737 66.1296 50.3032 65.8762C50.1332 65.7599 49.9633 65.6437 49.7935 65.5523C49.9431 65.4109 50.0883 65.2632 50.2334 65.1156C50.5893 64.7535 50.9444 64.3923 51.3609 64.128C51.5871 63.988 51.918 64.0172 52.2466 64.0461C52.3819 64.058 52.5169 64.0699 52.644 64.0699H67.1286C67.5119 64.0699 67.8952 64.0402 68.3297 64.0066C68.5336 63.9909 68.7488 63.9743 68.9805 63.9594C68.7654 62.8621 68.5507 61.7795 68.3381 60.7068C67.868 58.3355 67.4075 56.0126 66.9718 53.687C66.7299 52.3798 66.514 51.0664 66.2982 49.7532C66.0946 48.5143 65.8911 47.2756 65.6656 46.0424C65.3173 44.1588 64.9574 42.2752 64.4349 40.4324C64.3362 40.0894 63.4595 39.7755 62.9429 39.7696C56.6671 39.729 50.3856 39.6999 44.1099 39.7813C42.7166 39.7987 41.7239 39.3918 40.8531 38.3628C39.5178 36.7873 38.1767 35.2061 36.7254 33.7353C36.2435 33.247 35.4249 32.8516 34.7457 32.8342C32.2857 32.7644 29.8225 32.7732 27.3584 32.7819C26.5369 32.7848 25.7154 32.7877 24.8938 32.7877C24.1333 32.7877 23.3902 32.7877 23.3844 33.8516C23.3839 33.9357 23.3822 34.0209 23.3805 34.1065C23.3753 34.3681 23.3701 40.4466 23.3975 40.6941H21.0622ZM68.0401 43.8216C67.9181 43.8274 67.7904 43.8332 67.6685 43.8332C67.5897 43.4297 67.5043 43.0273 67.4189 42.625C67.2274 41.7232 67.036 40.8217 66.9196 39.9092C66.6816 38.0489 66.0081 37.3454 64.133 37.3454C63.3486 37.344 62.5642 37.3423 61.7799 37.3407C56.2885 37.3293 50.7972 37.3178 45.3058 37.3687C43.9532 37.3803 42.9024 37.0722 42.0258 35.9967L41.9985 35.9632C40.794 34.4859 39.577 32.9931 38.1883 31.7064C37.4685 31.0437 36.3886 30.6018 35.4133 30.4391C34.4963 30.2832 33.5427 30.3196 32.5922 30.3559C32.231 30.3697 31.8702 30.3835 31.5121 30.3867C30.7341 30.3925 30.3626 30.0379 30.3626 29.2531C30.3645 27.9671 30.359 26.6811 30.3536 25.3952C30.3422 22.7169 30.3309 20.0394 30.3858 17.3646C30.4206 15.7252 31.7211 14.7369 33.5788 14.7369C37.3359 14.7245 41.096 14.7268 44.8548 14.7292C46.3581 14.7302 47.8612 14.7311 49.3639 14.7311H68.9225C67.8327 17.9385 67.9348 21.1193 68.0361 24.2755C68.0767 25.5414 68.1173 26.8033 68.0807 28.0614C67.9898 31.2215 68.0077 34.3846 68.0256 37.5486C68.0328 38.8314 68.0401 40.1144 68.0401 41.3974V43.8216ZM71.3085 56.0589L70.9428 56.0706L70.937 56.0822C70.883 55.5861 70.8152 55.0912 70.7475 54.5967C70.6042 53.5499 70.4612 52.505 70.4493 51.4547C70.4051 47.4812 70.4148 43.5044 70.4245 39.5293C70.4275 38.2876 70.4305 37.0461 70.4319 35.8049C70.4377 33.9156 70.4493 33.9155 72.3938 33.8981C73.3575 33.8864 74.3216 33.8922 75.2853 33.9039C75.4246 33.9039 75.9692 33.9039 75.9239 34.119C74.3854 41.4265 72.847 48.7398 71.3085 56.0589ZM70.339 22.37C70.339 21.219 70.3448 20.0504 70.3448 20.0504H70.339C70.339 20.0504 70.4029 18.0041 70.699 17.0681C71.1982 15.4752 72.6786 14.5858 74.1184 14.766C75.2156 14.9055 76.5276 16.3705 76.6205 17.7832C76.725 19.3237 76.7134 20.8759 76.6205 22.4107C76.5973 22.7653 76.0516 23.3525 75.7149 23.3757C74.2751 23.4804 72.818 23.4687 71.384 23.3525C70.4087 23.3525 70.339 23.3525 70.339 22.37Z"/>
<path d="M3 65.4011C3 64.5984 3.65069 63.9478 4.45336 63.9478H77.7366C78.5393 63.9478 79.19 64.5984 79.19 65.4011C79.19 66.2038 78.5393 66.8545 77.7366 66.8545H4.45336C3.65069 66.8545 3 66.2038 3 65.4011Z"/>
<rect x="40.6382" y="47.0884" width="21.4802" height="2.32538" rx="1.16269" fill="#F1A8AA"/>
<rect x="35.9938" y="19.7657" width="26.1246" height="2.32538" rx="1.16269" fill="#F1A8AA"/>
<rect x="41.7992" y="24.9977" width="20.3191" height="2.32538" rx="1.16269" fill="#F1A8AA"/>
<rect x="47.0242" y="30.2297" width="15.0942" height="2.32538" rx="1.16269" fill="#F1A8AA"/>
<rect x="41.7992" y="51.7396" width="22.6413" height="2.32538" rx="1.16269" fill="#F1A8AA"/>
<rect x="43.541" y="56.3902" width="12.1915" height="2.32538" rx="1.16269" fill="#F1A8AA"/>
<rect x="14.641" y="42.358" width="19.3455" height="19.3455" rx="2.866" fill="transparent"/>
<path d="M18.94 56.3297C18.94 56.9233 19.4212 57.4045 20.0148 57.4045C20.6083 57.4045 21.0895 56.9233 21.0895 56.3297V50.956C21.0895 50.3624 20.6083 49.8812 20.0148 49.8812C19.4212 49.8812 18.94 50.3624 18.94 50.956V56.3297ZM23.239 56.3297C23.239 56.9233 23.7202 57.4045 24.3138 57.4045C24.9073 57.4045 25.3885 56.9233 25.3885 56.3297V47.7317C25.3885 47.1382 24.9073 46.657 24.3138 46.657C23.7202 46.657 23.239 47.1382 23.239 47.7317V56.3297ZM27.538 56.3297C27.538 56.9233 28.0192 57.4045 28.6128 57.4045C29.2063 57.4045 29.6875 56.9233 29.6875 56.3297V54.1802C29.6875 53.5867 29.2063 53.1055 28.6128 53.1055C28.0192 53.1055 27.538 53.5867 27.538 54.1802V56.3297ZM16.7905 61.7035C16.1994 61.7035 15.6932 61.4932 15.2719 61.0726C14.8513 60.6513 14.641 60.1451 14.641 59.554V44.5075C14.641 43.9164 14.8513 43.4102 15.2719 42.9888C15.6932 42.5683 16.1994 42.358 16.7905 42.358H31.837C32.4281 42.358 32.9343 42.5683 33.3556 42.9888C33.7762 43.4102 33.9865 43.9164 33.9865 44.5075V59.554C33.9865 60.1451 33.7762 60.6513 33.3556 61.0726C32.9343 61.4932 32.4281 61.7035 31.837 61.7035H16.7905ZM16.7905 58.121C16.7905 58.9124 17.4321 59.554 18.2235 59.554H30.404C31.1954 59.554 31.837 58.9124 31.837 58.121V45.9405C31.837 45.149 31.1954 44.5075 30.404 44.5075H18.2235C17.4321 44.5075 16.7905 45.149 16.7905 45.9405V58.121Z" fill="#376EDA"/>
</svg>
